<?xml version="1.0" encoding="UTF-8" standalone="no"?>
<svg
   width="32"
   height="32"
   version="1.1"
   id="svg2"
   sodipodi:docname="system-reboot-hover.svg"
   inkscape:version="1.3 (0e150ed6c4, 2023-07-21)"
   xmlns:inkscape="http://www.inkscape.org/namespaces/inkscape"
   xmlns:sodipodi="http://sodipodi.sourceforge.net/DTD/sodipodi-0.dtd"
   xmlns="http://www.w3.org/2000/svg"
   xmlns:svg="http://www.w3.org/2000/svg">
  <sodipodi:namedview
     id="namedview2"
     pagecolor="#808080"
     bordercolor="#000000"
     borderopacity="0.25"
     inkscape:showpageshadow="2"
     inkscape:pageopacity="0.0"
     inkscape:pagecheckerboard="0"
     inkscape:deskcolor="#d1d1d1"
     inkscape:zoom="20.644428"
     inkscape:cx="13.345005"
     inkscape:cy="13.65986"
     inkscape:current-layer="system-reboot" />
  <defs
     id="defs1">
    <style
       id="current-color-scheme"
       type="text/css">.ColorScheme-Text {&#10;        color:#31363b;&#10;      }&#10;      .ColorScheme-Background{&#10;        color:#eff0f1;&#10;      }&#10;      .ColorScheme-ViewText {&#10;        color:#31363b;&#10;      }&#10;      .ColorScheme-ViewBackground{&#10;        color:#fcfcfc;&#10;      }&#10;      .ColorScheme-ViewHover {&#10;        color:#3daee9;&#10;      }&#10;      .ColorScheme-ViewFocus{&#10;        color:#3daee9;&#10;      }&#10;      .ColorScheme-ButtonText {&#10;        color:#31363b;&#10;      }&#10;      .ColorScheme-ButtonBackground{&#10;        color:#eff0f1;&#10;      }&#10;      .ColorScheme-ButtonHover {&#10;        color:#3daee9;&#10;      }&#10;      .ColorScheme-ButtonFocus{&#10;        color:#3daee9;&#10;      }</style>
  </defs>
  <g
     id="system-reboot"
     transform="translate(41,-44)">
    <rect
       x="-41"
       y="44"
       width="32"
       height="32"
       rx="0"
       ry="0"
       fill="none"
       id="rect1" />
    <circle
       style="opacity:0.12;fill:#ffffff;stroke-width:0.620591"
       id="path3"
       cx="16"
       cy="16"
       r="16"
       transform="translate(-41,44)" />
    <path
       class="ColorScheme-Text"
       d="m-23.328 49.135c-2.258-0.3453-4.6242 0.01054-6.75 1.1191a1 1 0 0 0-0.42383 1.3496 1 1 0 0 0 1.3496 0.42383c3.4851-1.8175 7.7349-1.1666 10.518 1.6094 2.7793 2.7823 3.4319 7.0343 1.6133 10.521a1 1 0 0 0 0.42383 1.3496 1 1 0 0 0 1.3496-0.42383c2.219-4.255 1.4199-9.4692-1.9727-12.863a1.0001 1.0001 0 0 0-2e-3 0c-1.6973-1.6932-3.8474-2.7406-6.1055-3.0859zm-10.83 5.2949a1 1 0 0 0-0.58594 0.49219c-2.2172 4.2515-1.4216 9.4589 1.9648 12.854a1.0001 1.0001 0 0 0 2e-3 2e-3c3.3946 3.3864 8.604 4.184 12.855 1.9668a1 1 0 0 0 0.42383-1.3496 1 1 0 0 0-1.3496-0.42383c-3.4843 1.8171-7.7329 1.1668-10.516-1.6074l-2e-3 -2e-3c-2.7743-2.7827-3.4225-7.0314-1.6055-10.516a1 1 0 0 0-0.42578-1.3496 1 1 0 0 0-0.76172-0.06641z"
       fill="#ffffff"
       id="path1" />
    <path
       class="ColorScheme-Text"
       d="m-33.865 54.375c-0.25562 0-0.51116 0.0971-0.70703 0.29297-0.39174 0.39174-0.39174 1.0223 0 1.4141l3.209 3.209c0.39174 0.39174 1.0223 0.39174 1.4141 0 0.39174-0.39174 0.39174-1.0223 0-1.4141l-3.209-3.209c-0.19587-0.19587-0.45141-0.29297-0.70703-0.29297zm14.521 6.0371c-0.25562 0-0.51116 0.0971-0.70703 0.29297-0.39174 0.39174-0.39174 1.0243 0 1.416l3.209 3.209c0.39174 0.39174 1.0243 0.39174 1.416 0s0.39174-1.0223 0-1.4141l-3.2109-3.2109c-0.19587-0.19587-0.45141-0.29297-0.70703-0.29297z"
       fill="#ffffff"
       opacity=".45"
       id="path2"
       style="opacity:0.55" />
    <path
       id="circle1"
       style="opacity:0.2;fill:#ffffff;stroke-width:0.620591"
       d="M 16 0 A 16 16 0 0 0 0 16 A 16 16 0 0 0 16 32 A 16 16 0 0 0 32 16 A 16 16 0 0 0 16 0 z M 16 0.5 A 15.5 15.5 0 0 1 31.5 16 A 15.5 15.5 0 0 1 16 31.5 A 15.5 15.5 0 0 1 0.5 16 A 15.5 15.5 0 0 1 16 0.5 z "
       transform="translate(-41,44)" />
  </g>
</svg>
