<?xml version="1.0" encoding="UTF-8" standalone="no"?>
<svg
   width="32"
   height="32"
   version="1.1"
   id="svg2"
   sodipodi:docname="system-shutdown-pressed.svg"
   inkscape:version="1.3 (0e150ed6c4, 2023-07-21)"
   xml:space="preserve"
   xmlns:inkscape="http://www.inkscape.org/namespaces/inkscape"
   xmlns:sodipodi="http://sodipodi.sourceforge.net/DTD/sodipodi-0.dtd"
   xmlns="http://www.w3.org/2000/svg"
   xmlns:svg="http://www.w3.org/2000/svg"><sodipodi:namedview
     id="namedview2"
     pagecolor="#808080"
     bordercolor="#000000"
     borderopacity="0.25"
     inkscape:showpageshadow="2"
     inkscape:pageopacity="0.0"
     inkscape:pagecheckerboard="0"
     inkscape:deskcolor="#d1d1d1"
     inkscape:zoom="20.306999"
     inkscape:cx="22.258336"
     inkscape:cy="16.349043"
     inkscape:current-layer="system-shutdown" /><defs
     id="defs1"><style
       id="current-color-scheme"
       type="text/css">.ColorScheme-Text {&#10;        color:#31363b;&#10;      }&#10;      .ColorScheme-Background{&#10;        color:#eff0f1;&#10;      }&#10;      .ColorScheme-ViewText {&#10;        color:#31363b;&#10;      }&#10;      .ColorScheme-ViewBackground{&#10;        color:#fcfcfc;&#10;      }&#10;      .ColorScheme-ViewHover {&#10;        color:#3daee9;&#10;      }&#10;      .ColorScheme-ViewFocus{&#10;        color:#3daee9;&#10;      }&#10;      .ColorScheme-ButtonText {&#10;        color:#31363b;&#10;      }&#10;      .ColorScheme-ButtonBackground{&#10;        color:#eff0f1;&#10;      }&#10;      .ColorScheme-ButtonHover {&#10;        color:#3daee9;&#10;      }&#10;      .ColorScheme-ButtonFocus{&#10;        color:#3daee9;&#10;      }</style><style
       id="current-color-scheme-5"
       type="text/css">.ColorScheme-Text {&#10;        color:#31363b;&#10;      }&#10;      .ColorScheme-Background{&#10;        color:#eff0f1;&#10;      }&#10;      .ColorScheme-ViewText {&#10;        color:#31363b;&#10;      }&#10;      .ColorScheme-ViewBackground{&#10;        color:#fcfcfc;&#10;      }&#10;      .ColorScheme-ViewHover {&#10;        color:#3daee9;&#10;      }&#10;      .ColorScheme-ViewFocus{&#10;        color:#3daee9;&#10;      }&#10;      .ColorScheme-ButtonText {&#10;        color:#31363b;&#10;      }&#10;      .ColorScheme-ButtonBackground{&#10;        color:#eff0f1;&#10;      }&#10;      .ColorScheme-ButtonHover {&#10;        color:#3daee9;&#10;      }&#10;      .ColorScheme-ButtonFocus{&#10;        color:#3daee9;&#10;      }</style></defs><g
     id="system-shutdown"
     transform="translate(42,-7.0001)"
     fill="#ffffff"
     style="display:inline"><rect
       x="-42"
       y="7.0001001"
       width="32"
       height="32"
       opacity="0.00100002"
       id="rect1" /><circle
       style="opacity:0.22;fill:#ffffff;stroke-width:0.620591"
       id="path3"
       cx="16"
       cy="16"
       r="16"
       transform="translate(-42,7.0001)" /><path
       id="circle1"
       style="opacity:0.25;fill:#ffffff;stroke-width:0.620591"
       d="M 16,0 A 16,16 0 0 0 0,16 16,16 0 0 0 16,32 16,16 0 0 0 32,16 16,16 0 0 0 16,0 Z m 0,0.5 A 15.5,15.5 0 0 1 31.5,16 15.5,15.5 0 0 1 16,31.5 15.5,15.5 0 0 1 0.5,16 15.5,15.5 0 0 1 16,0.5 Z"
       transform="translate(-42,7.0001)" /><rect
       class="ColorScheme-Text"
       x="-27"
       y="11"
       width="2"
       height="11"
       rx="1"
       ry="1"
       opacity=".45"
       id="rect2"
       style="opacity:0.55" /><path
       class="ColorScheme-Text"
       d="m -19.865,14.199 a 1,1 0 0 0 -0.66992,0.36914 1,1 0 0 0 0.15625,1.4062 c 2.1353,1.7076 3.3779,4.2913 3.3789,7.0254 0,4.9824 -4.0176,9 -9,9 -4.9824,0 -9,-4.0176 -9,-9 0.0075,-2.7309 1.2534,-5.309 3.3887,-7.0117 a 1,1 0 0 0 0.1582,-1.4062 1,1 0 0 0 -1.4043,-0.1582 c -2.6091,2.0806 -4.1341,5.2352 -4.1426,8.5723 a 1.0001,1.0001 0 0 0 0,0.0039 c 0,6.0633 4.9367,11 11,11 6.0633,0 11,-4.9367 11,-11 a 1.0001,1.0001 0 0 0 0,-0.002 c -0.0012,-3.3401 -1.5204,-6.4998 -4.1289,-8.5859 A 1,1 0 0 0 -19.865,14.19905 Z"
       id="path2" /></g></svg>
