<?xml version="1.0" encoding="UTF-8" standalone="no"?>
<svg
   width="32"
   height="32"
   version="1.1"
   id="svg2"
   sodipodi:docname="system-shutdown.svg"
   inkscape:version="1.3 (0e150ed6c4, 2023-07-21)"
   xmlns:inkscape="http://www.inkscape.org/namespaces/inkscape"
   xmlns:sodipodi="http://sodipodi.sourceforge.net/DTD/sodipodi-0.dtd"
   xmlns="http://www.w3.org/2000/svg"
   xmlns:svg="http://www.w3.org/2000/svg">
  <sodipodi:namedview
     id="namedview2"
     pagecolor="#808080"
     bordercolor="#000000"
     borderopacity="0.25"
     inkscape:showpageshadow="2"
     inkscape:pageopacity="0.0"
     inkscape:pagecheckerboard="0"
     inkscape:deskcolor="#d1d1d1"
     inkscape:zoom="28.25"
     inkscape:cx="16"
     inkscape:cy="16"
     inkscape:current-layer="svg2" />
  <defs
     id="defs1">
    <style
       id="current-color-scheme"
       type="text/css">.ColorScheme-Text {&#10;        color:#31363b;&#10;      }&#10;      .ColorScheme-Background{&#10;        color:#eff0f1;&#10;      }&#10;      .ColorScheme-ViewText {&#10;        color:#31363b;&#10;      }&#10;      .ColorScheme-ViewBackground{&#10;        color:#fcfcfc;&#10;      }&#10;      .ColorScheme-ViewHover {&#10;        color:#3daee9;&#10;      }&#10;      .ColorScheme-ViewFocus{&#10;        color:#3daee9;&#10;      }&#10;      .ColorScheme-ButtonText {&#10;        color:#31363b;&#10;      }&#10;      .ColorScheme-ButtonBackground{&#10;        color:#eff0f1;&#10;      }&#10;      .ColorScheme-ButtonHover {&#10;        color:#3daee9;&#10;      }&#10;      .ColorScheme-ButtonFocus{&#10;        color:#3daee9;&#10;      }</style>
  </defs>
  <g
     id="system-shutdown"
     transform="translate(42 -7.0001)"
     fill="#ffffff">
    <rect
       x="-42"
       y="7.0001"
       width="32"
       height="32"
       opacity=".001"
       id="rect1" />
    <rect
       class="ColorScheme-Text"
       x="-27"
       y="11"
       width="2"
       height="11"
       rx="1"
       ry="1"
       opacity=".45"
       id="rect2"
       style="opacity:0.55" />
    <path
       class="ColorScheme-Text"
       d="m-19.865 14.199a1 1 0 0 0-0.66992 0.36914 1 1 0 0 0 0.15625 1.4062c2.1353 1.7076 3.3779 4.2913 3.3789 7.0254 0 4.9824-4.0176 9-9 9s-9-4.0176-9-9c0.0075-2.7309 1.2534-5.309 3.3887-7.0117a1 1 0 0 0 0.1582-1.4062 1 1 0 0 0-1.4043-0.1582c-2.6091 2.0806-4.1341 5.2352-4.1426 8.5723a1.0001 1.0001 0 0 0 0 0.0039c0 6.0633 4.9367 11 11 11s11-4.9367 11-11a1.0001 1.0001 0 0 0 0-2e-3c-0.0012-3.3401-1.5204-6.4998-4.1289-8.5859a1 1 0 0 0-0.73633-0.21289z"
       id="path2" />
  </g>
</svg>
