<?xml version="1.0" encoding="UTF-8" standalone="no"?>
<svg
   sodipodi:docname="lineedit.svg"
   inkscape:version="1.2.2 (b0a8486541, 2022-12-01)"
   version="1.1"
   id="svg2"
   height="25"
   width="85.000023"
   xmlns:inkscape="http://www.inkscape.org/namespaces/inkscape"
   xmlns:sodipodi="http://sodipodi.sourceforge.net/DTD/sodipodi-0.dtd"
   xmlns="http://www.w3.org/2000/svg"
   xmlns:svg="http://www.w3.org/2000/svg"
   xmlns:rdf="http://www.w3.org/1999/02/22-rdf-syntax-ns#"
   xmlns:cc="http://creativecommons.org/ns#"
   xmlns:dc="http://purl.org/dc/elements/1.1/">
  <sodipodi:namedview
     id="namedview135"
     pagecolor="#ffffff"
     bordercolor="#000000"
     borderopacity="0.25"
     inkscape:showpageshadow="2"
     inkscape:pageopacity="0.0"
     inkscape:pagecheckerboard="0"
     inkscape:deskcolor="#d1d1d1"
     showgrid="false"
     inkscape:zoom="9.737639"
     inkscape:cx="26.238393"
     inkscape:cy="16.585129"
     inkscape:window-width="1920"
     inkscape:window-height="1016"
     inkscape:window-x="0"
     inkscape:window-y="32"
     inkscape:window-maximized="1"
     inkscape:current-layer="svg2" />
  <defs
     id="defs4">
    <style
       id="current-color-scheme"
       type="text/css"> .ColorScheme-Background {color:#181818; } .ColorScheme-ButtonBackground { color:#343434; } .ColorScheme-Highlight { color:#3c5fff; } .ColorScheme-Text { color:#ffffff; } .ColorScheme-ViewBackground { color:#242424; } .ColorScheme-NegativeText { color:#f44336; } .ColorScheme-PositiveText { color:#4caf50; } .ColorScheme-NeutralText { color:#ff9800; } </style>
  </defs>
  <metadata
     id="metadata7">
    <rdf:RDF>
      <cc:Work
         rdf:about="">
        <dc:format>image/svg+xml</dc:format>
        <dc:type
           rdf:resource="http://purl.org/dc/dcmitype/StillImage" />
      </cc:Work>
    </rdf:RDF>
  </metadata>
  <rect
     style="display:inline;fill:#ff00ff;fill-opacity:1;fill-rule:nonzero;stroke:none"
     id="hint-stretch-borders"
     width="3"
     height="3"
     x="0"
     y="-10"
     rx="0"
     ry="3" />
  <g
     transform="translate(-289.14285,-557.64795)"
     id="layer1"
     inkscape:label="layer1">
    <g
       id="base-bottom"
       transform="matrix(0.63636373,0,0,-1,109.68828,1140.2959)">
      <path
         class="ColorScheme-Highlight"
         style="opacity:0.1;fill:#ffffff;fill-opacity:1"
         d="m 296.14284,557.64795 h 11.00001 v 1 h -11.00001 z"
         id="path4447" />
      <path
         id="path4449"
         d="m 296.14285,566.64795 h 11 v -8 h -11 z"
         class="ColorScheme-Background"
         style="opacity:0.04;fill:#ffffff;fill-opacity:1;stroke:none" />
    </g>
    <g
       transform="matrix(0,1,1,0,-268.5051,268.5051)"
       id="base-left">
      <path
         id="path4453"
         d="m 298.14285,557.64795 h 7 v 1 h -7 z"
         class="ColorScheme-Highlight"
         style="opacity:0.1;fill:#ffffff;fill-opacity:1;stroke:none" />
      <path
         class="ColorScheme-Background"
         style="opacity:0.04;fill:#ffffff;fill-opacity:1"
         d="m 298.14285,564.64795 h 7 v -6 h -7 z"
         id="path4455" />
    </g>
    <g
       id="base-right"
       transform="rotate(90,301.64286,570.14796)">
      <path
         class="ColorScheme-Highlight"
         style="opacity:0.1;fill:#ffffff;fill-opacity:1"
         d="m 298.14285,557.64795 h 7 v 1 h -7 z"
         id="path4459" />
      <path
         id="path4461"
         d="m 298.14285,564.64795 h 7 v -6 h -7 z"
         class="ColorScheme-Background"
         style="opacity:0.04;fill:#ffffff;fill-opacity:1" />
    </g>
    <path
       style="opacity:0.04;fill:#ffffff;fill-opacity:1"
       class="ColorScheme-Background"
       d="m 296.14285,566.64795 h 11 v 7 h -11 z"
       id="base-center" />
    <g
       transform="matrix(0.81818155,0,0,1,53.844235,0)"
       id="base-top">
      <path
         id="path4467"
         d="m 298.5873,557.64795 h 8.55555 v 1 h -8.55555 z"
         class="ColorScheme-Highlight"
         style="opacity:0.1;fill:#ffffff;fill-opacity:1;stroke:none" />
      <path
         class="ColorScheme-Background"
         style="opacity:0.04;fill:#ffffff;fill-opacity:1;stroke:none"
         d="m 298.5873,566.64795 h 8.55555 v -8 h -8.55555 z"
         id="path4469" />
    </g>
    <g
       id="base-topright">
      <path
         id="path4475"
         class="ColorScheme-Highlight"
         d="m 305.14285,557.64795 v 1 c 8,0 8,6 8,8 h 1 c 0,-4 -1,-9 -9,-9 z"
         style="opacity:0.1;fill:#ffffff;fill-opacity:1;stroke:none" />
      <path
         style="opacity:0.04;fill:#ffffff;fill-opacity:1;stroke:none;stroke-width:1.33333"
         class="ColorScheme-Background"
         d="m 305.14286,558.64795 c 5.33333,0 7.99999,2.66666 7.99999,7.99998 l -8,2e-5 z"
         id="path4477" />
    </g>
    <g
       id="base-topleft"
       transform="matrix(-1,0,0,1,603.2857,0)">
      <path
         class="ColorScheme-Highlight"
         style="opacity:0.1;fill:#ffffff;fill-opacity:1;stroke:none"
         d="m 305.14285,557.64795 v 1 c 5,0 8,5 8,8 h 1 c 0,-5 -4,-9 -9,-9 z"
         id="path4483" />
      <path
         id="path4485"
         class="ColorScheme-Background"
         d="m 305.14285,558.64795 c 4,0 8,4 8,8 l -8.00001,10e-6 z"
         style="opacity:0.04;fill:#ffffff;fill-opacity:1;stroke:none" />
    </g>
    <g
       id="base-bottomright"
       transform="matrix(1,0,0,-1,0,1140.2959)">
      <path
         style="opacity:0.1;fill:#ffffff;fill-opacity:1;stroke:none"
         d="m 305.14285,557.64795 v 1 c 6,0 8,3 8,8 h 1 c 0,-7 -3,-9 -9,-9 z"
         id="path4491"
         class="ColorScheme-Highlight" />
      <path
         id="path4493"
         d="m 305.14286,558.64795 c 5.33333,0 7.99999,2.66666 7.99999,7.99999 l -8,1e-5 z"
         class="ColorScheme-Background"
         style="opacity:0.04;fill:#ffffff;fill-opacity:1;stroke:none;stroke-width:1.33333" />
    </g>
    <g
       transform="rotate(180,301.64285,570.14795)"
       id="base-bottomleft">
      <path
         id="path4497"
         class="ColorScheme-Highlight"
         d="m 305.14285,557.64795 v 1 c 5,0 7.61472,1.71744 8,8 h 1 c 0,-6 -3,-9 -9,-9 z"
         style="opacity:0.1;fill:#ffffff;fill-opacity:1;stroke:none" />
      <path
         style="opacity:0.04;fill:#ffffff;fill-opacity:1;stroke:none;stroke-width:1.33333"
         class="ColorScheme-Background"
         d="m 305.14287,558.64795 c 5.33332,0 7.99998,2.66666 7.99998,7.99999 l -8,1e-5 z"
         id="path4499" />
    </g>
    <rect
       y="568.64795"
       x="308.14285"
       height="3"
       width="6"
       id="base-hint-right-margin"
       style="fill:#ff00ff;fill-opacity:1" />
    <rect
       y="557.64795"
       x="300.14285"
       height="6"
       width="3"
       id="base-hint-top-margin"
       style="fill:#ff00ff;fill-opacity:1" />
    <rect
       style="fill:#ff00ff;fill-opacity:1"
       id="base-hint-left-margin"
       width="6"
       height="2.9999995"
       x="289.14285"
       y="568.64795" />
    <rect
       style="fill:#ff00ff;fill-opacity:1"
       id="base-hint-bottom-margin"
       width="3"
       height="6"
       x="300.14285"
       y="576.64795" />
  </g>
  <g
     transform="translate(-259.14285,-557.64795)"
     id="layer2">
    <g
       id="hover-bottom"
       transform="matrix(0.63636373,0,0,-1,109.68828,1140.2959)">
      <path
         class="ColorScheme-Highlight"
         style="opacity:0.7;fill:currentColor;fill-opacity:1"
         d="m 296.14284,557.64795 h 11.00001 v 1 h -11.00001 z"
         id="path36" />
      <path
         id="path38"
         d="m 296.14285,566.64795 h 11 v -8 h -11 z"
         class="ColorScheme-Background"
         style="opacity:0.02;fill:#ffffff;fill-opacity:1;stroke:none" />
    </g>
    <g
       transform="matrix(0,1,1,0,-268.5051,268.5051)"
       id="hover-left">
      <path
         id="path41"
         d="m 298.14285,557.64795 h 7 v 1 h -7 z"
         class="ColorScheme-Highlight"
         style="opacity:0.7;fill:currentColor;fill-opacity:1;stroke:none" />
      <path
         class="ColorScheme-Background"
         style="opacity:0.02;fill:#ffffff;fill-opacity:1"
         d="m 298.14285,564.64795 h 7 v -6 h -7 z"
         id="path43" />
    </g>
    <g
       id="hover-right"
       transform="rotate(90,301.64286,570.14796)">
      <path
         class="ColorScheme-Highlight"
         style="opacity:0.7;fill:currentColor;fill-opacity:1"
         d="m 298.14285,557.64795 h 7 v 1 h -7 z"
         id="path46" />
      <path
         id="path48"
         d="m 298.14285,564.64795 h 7 v -6 h -7 z"
         class="ColorScheme-Background"
         style="opacity:0.02;fill:#ffffff;fill-opacity:1" />
    </g>
    <path
       style="opacity:0.02;fill:#ffffff;fill-opacity:1"
       class="ColorScheme-Background"
       d="m 296.14285,566.64795 h 11 v 7 h -11 z"
       id="hover-center" />
    <g
       transform="matrix(0.81818155,0,0,1,53.844235,0)"
       id="hover-top">
      <path
         id="path52"
         d="m 298.5873,557.64795 h 8.55555 v 1 h -8.55555 z"
         class="ColorScheme-Highlight"
         style="opacity:0.7;fill:currentColor;fill-opacity:1;stroke:none" />
      <path
         class="ColorScheme-Background"
         style="opacity:0.02;fill:#ffffff;fill-opacity:1;stroke:none"
         d="m 298.5873,566.64795 h 8.55555 v -8 h -8.55555 z"
         id="path54" />
    </g>
    <g
       id="hover-topright">
      <path
         id="path57"
         class="ColorScheme-Highlight"
         d="m 305.14285,557.64795 v 1 c 8,0 8,6 8,8 h 1 c 0,-4 -1,-9 -9,-9 z"
         style="opacity:0.7;fill:currentColor;fill-opacity:1;stroke:none" />
      <path
         style="opacity:0.02;fill:#ffffff;fill-opacity:1;stroke:none;stroke-width:1.33333"
         class="ColorScheme-Background"
         d="m 305.14286,558.64795 c 5.33333,0 7.99999,2.66666 7.99999,7.99998 l -8,2e-5 z"
         id="path59" />
    </g>
    <g
       id="hover-topleft"
       transform="matrix(-1,0,0,1,603.2857,0)">
      <path
         class="ColorScheme-Highlight"
         style="opacity:0.7;fill:currentColor;fill-opacity:1;stroke:none"
         d="m 305.14285,557.64795 v 1 c 5,0 8,5 8,8 h 1 c 0,-5 -4,-9 -9,-9 z"
         id="path62" />
      <path
         id="path64"
         class="ColorScheme-Background"
         d="m 305.14285,558.64795 c 4,0 8,4 8,8 l -8.00001,10e-6 z"
         style="opacity:0.02;fill:#ffffff;fill-opacity:1;stroke:none" />
    </g>
    <g
       id="hover-bottomright"
       transform="matrix(1,0,0,-1,0,1140.2959)">
      <path
         style="opacity:0.7;fill:currentColor;fill-opacity:1;stroke:none"
         d="m 305.14285,557.64795 v 1 c 6,0 8,3 8,8 h 1 c 0,-7 -3,-9 -9,-9 z"
         id="path67"
         class="ColorScheme-Highlight" />
      <path
         id="path69"
         d="m 305.14286,558.64795 c 5.33333,0 7.99999,2.66666 7.99999,7.99999 l -8,1e-5 z"
         class="ColorScheme-Background"
         style="opacity:0.02;fill:#ffffff;fill-opacity:1;stroke:none;stroke-width:1.33333" />
    </g>
    <g
       transform="rotate(180,301.64285,570.14795)"
       id="hover-bottomleft">
      <path
         id="path72"
         class="ColorScheme-Highlight"
         d="m 305.14285,557.64795 v 1 c 5,0 7.61472,1.71744 8,8 h 1 c 0,-6 -3,-9 -9,-9 z"
         style="opacity:0.7;fill:currentColor;fill-opacity:1;stroke:none" />
      <path
         style="opacity:0.02;fill:#ffffff;fill-opacity:1;stroke:none;stroke-width:1.33333"
         class="ColorScheme-Background"
         d="m 305.14287,558.64795 c 5.33332,0 7.99998,2.66666 7.99998,7.99999 l -8,1e-5 z"
         id="path74" />
    </g>
    <rect
       y="568.64795"
       x="314.04288"
       height="3"
       width="0.1"
       id="hover-hint-right-margin"
       style="fill:#ff00ff;fill-opacity:1;stroke-width:0.129099" />
    <rect
       y="557.64795"
       x="300.14285"
       height="0.1"
       width="3"
       id="hover-hint-top-margin"
       style="fill:#ff00ff;fill-opacity:1;stroke-width:0.129099" />
    <rect
       style="fill:#ff00ff;fill-opacity:1;stroke-width:0.129099"
       id="hover-hint-left-margin"
       width="0.1"
       height="2.9999995"
       x="289.14285"
       y="568.64795" />
    <rect
       style="fill:#ff00ff;fill-opacity:1;stroke-width:0.129099"
       id="hover-hint-bottom-margin"
       width="3"
       height="0.1"
       x="300.14285"
       y="582.54797" />
  </g>
  <g
     transform="translate(-229.14285,-557.64795)"
     id="layer3">
    <g
       id="focus-bottom"
       transform="matrix(0.63636373,0,0,-1,109.68828,1140.2959)">
      <path
         class="ColorScheme-Highlight"
         style="opacity:1;fill:currentColor;fill-opacity:1"
         d="m 296.14284,557.64795 h 11.00001 v 1 h -11.00001 z"
         id="path85" />
      <path
         id="path87"
         d="m 296.14285,566.64795 h 11 v -8 h -11 z"
         class="ColorScheme-Background"
         style="opacity:0.04;fill:#ffffff;fill-opacity:1;stroke:none" />
    </g>
    <g
       transform="matrix(0,1,1,0,-268.5051,268.5051)"
       id="focus-left">
      <path
         id="path90"
         d="m 298.14285,557.64795 h 7 v 1 h -7 z"
         class="ColorScheme-Highlight"
         style="opacity:1;fill:currentColor;fill-opacity:1;stroke:none" />
      <path
         class="ColorScheme-Background"
         style="opacity:0.04;fill:#ffffff;fill-opacity:1"
         d="m 298.14285,564.64795 h 7 v -6 h -7 z"
         id="path92" />
    </g>
    <g
       id="focus-right"
       transform="rotate(90,301.64286,570.14796)">
      <path
         class="ColorScheme-Highlight"
         style="opacity:1;fill:currentColor;fill-opacity:1"
         d="m 298.14285,557.64795 h 7 v 1 h -7 z"
         id="path95" />
      <path
         id="path97"
         d="m 298.14285,564.64795 h 7 v -6 h -7 z"
         class="ColorScheme-Background"
         style="opacity:0.04;fill:#ffffff;fill-opacity:1" />
    </g>
    <path
       style="opacity:0.04;fill:#ffffff;fill-opacity:1"
       class="ColorScheme-Background"
       d="m 296.14285,566.64795 h 11 v 7 h -11 z"
       id="focus-center" />
    <g
       transform="matrix(0.81818155,0,0,1,53.844235,0)"
       id="focus-top">
      <path
         id="path101"
         d="m 298.5873,557.64795 h 8.55555 v 1 h -8.55555 z"
         class="ColorScheme-Highlight"
         style="opacity:1;fill:currentColor;fill-opacity:1;stroke:none" />
      <path
         class="ColorScheme-Background"
         style="opacity:0.04;fill:#ffffff;fill-opacity:1;stroke:none"
         d="m 298.5873,566.64795 h 8.55555 v -8 h -8.55555 z"
         id="path103" />
    </g>
    <g
       id="focus-topright">
      <path
         id="path106"
         class="ColorScheme-Highlight"
         d="m 305.14285,557.64795 v 1 c 8,0 8,6 8,8 h 1 c 0,-4 -1,-9 -9,-9 z"
         style="opacity:1;fill:currentColor;fill-opacity:1;stroke:none" />
      <path
         style="opacity:0.04;fill:#ffffff;fill-opacity:1;stroke:none;stroke-width:1.33333"
         class="ColorScheme-Background"
         d="m 305.14286,558.64795 c 5.33333,0 7.99999,2.66666 7.99999,7.99998 l -8,2e-5 z"
         id="path108" />
    </g>
    <g
       id="focus-topleft"
       transform="matrix(-1,0,0,1,603.2857,0)">
      <path
         class="ColorScheme-Highlight"
         style="opacity:1;fill:currentColor;fill-opacity:1;stroke:none"
         d="m 305.14285,557.64795 v 1 c 5,0 8,5 8,8 h 1 c 0,-5 -4,-9 -9,-9 z"
         id="path111" />
      <path
         id="path113"
         class="ColorScheme-Background"
         d="m 305.14285,558.64795 c 4,0 8,4 8,8 l -8.00001,10e-6 z"
         style="opacity:0.04;fill:#ffffff;fill-opacity:1;stroke:none" />
    </g>
    <g
       id="focus-bottomright"
       transform="matrix(1,0,0,-1,0,1140.2959)">
      <path
         style="opacity:1;fill:currentColor;fill-opacity:1;stroke:none"
         d="m 305.14285,557.64795 v 1 c 6,0 8,3 8,8 h 1 c 0,-7 -3,-9 -9,-9 z"
         id="path116"
         class="ColorScheme-Highlight" />
      <path
         id="path118"
         d="m 305.14286,558.64795 c 5.33333,0 7.99999,2.66666 7.99999,7.99999 l -8,1e-5 z"
         class="ColorScheme-Background"
         style="opacity:0.04;fill:#ffffff;fill-opacity:1;stroke:none;stroke-width:1.33333" />
    </g>
    <g
       transform="rotate(180,301.64285,570.14795)"
       id="focus-bottomleft">
      <path
         id="path121"
         class="ColorScheme-Highlight"
         d="m 305.14285,557.64795 v 1 c 5,0 7.61472,1.71744 8,8 h 1 c 0,-6 -3,-9 -9,-9 z"
         style="opacity:1;fill:currentColor;fill-opacity:1;stroke:none" />
      <path
         style="opacity:0.04;fill:#ffffff;fill-opacity:1;stroke:none;stroke-width:1.33333"
         class="ColorScheme-Background"
         d="m 305.14287,558.64795 c 5.33332,0 7.99998,2.66666 7.99998,7.99999 l -8,1e-5 z"
         id="path123" />
    </g>
    <rect
       y="568.64795"
       x="314.04288"
       height="3"
       width="0.1"
       id="focus-hint-right-margin"
       style="fill:#ff00ff;fill-opacity:1;stroke-width:0.129099" />
    <rect
       y="557.64795"
       x="300.14285"
       height="0.1"
       width="3"
       id="focus-hint-top-margin"
       style="fill:#ff00ff;fill-opacity:1;stroke-width:0.129099" />
    <rect
       style="fill:#ff00ff;fill-opacity:1;stroke-width:0.129099"
       id="focus-hint-left-margin"
       width="0.1"
       height="2.9999995"
       x="289.14285"
       y="568.64795" />
    <rect
       style="fill:#ff00ff;fill-opacity:1;stroke-width:0.129099"
       id="focus-hint-bottom-margin"
       width="3"
       height="0.1"
       x="300.14285"
       y="582.54797" />
  </g>
</svg>
