<?xml version="1.0" encoding="UTF-8" standalone="no"?>
<svg
   width="76"
   height="66"
   version="1.1"
   id="svg10"
   sodipodi:docname="slider.svg"
   inkscape:version="1.3 (0e150ed6c4, 2023-07-21)"
   xmlns:inkscape="http://www.inkscape.org/namespaces/inkscape"
   xmlns:sodipodi="http://sodipodi.sourceforge.net/DTD/sodipodi-0.dtd"
   xmlns="http://www.w3.org/2000/svg"
   xmlns:svg="http://www.w3.org/2000/svg">
  <sodipodi:namedview
     id="namedview10"
     pagecolor="#ffffff"
     bordercolor="#000000"
     borderopacity="0.25"
     inkscape:showpageshadow="2"
     inkscape:pageopacity="0.0"
     inkscape:pagecheckerboard="0"
     inkscape:deskcolor="#d1d1d1"
     inkscape:zoom="61.102138"
     inkscape:cx="3.0931815"
     inkscape:cy="55.538155"
     inkscape:current-layer="svg10" />
  <defs
     id="nova">
    <style
       id="current-color-scheme"
       type="text/css">&#10;   .ColorScheme-Background {color:#181818; } .ColorScheme-ButtonBackground { color:#343434; } .ColorScheme-Highlight { color:#3c5fff; } .ColorScheme-Text { color:#dfdfdf; } .ColorScheme-ViewBackground { color:#242424; } .ColorScheme-NegativeText { color:#f44336; } .ColorScheme-PositiveText { color:#4caf50; } .ColorScheme-NeutralText { color:#ff9800; }&#10;  </style>
  </defs>
  <rect
     id="hint-tile-center"
     style="fill:#ff00ff"
     width="2"
     height="2"
     x="0"
     y="36" />
  <path
     id="groove-bottomright"
     style="opacity:0.25;fill:currentColor;stroke-width:0.999996"
     class="ColorScheme-Highlight"
     d="m 7,53 v 1 h 1 v -1 z" />
  <path
     id="groove-right"
     style="opacity:0.25;fill:currentColor"
     class="ColorScheme-Highlight"
     d="m 7,51 v 1 h 1 v -1 z" />
  <path
     id="groove-topright"
     style="opacity:0.25;fill:currentColor;stroke-width:1.22474"
     class="ColorScheme-Highlight"
     d="m 7,49 v 1.5 H 8 V 49 Z" />
  <path
     id="groove-bottomleft"
     style="opacity:0.25;fill:currentColor;stroke-width:0.999996"
     class="ColorScheme-Highlight"
     d="m 3,53 v 1 h 1 v -1 z" />
  <path
     id="groove-left"
     style="opacity:0.25;fill:currentColor"
     class="ColorScheme-Highlight"
     d="m 3,51 v 1 h 1 v -1 z" />
  <path
     id="groove-topleft"
     style="opacity:0.25;fill:currentColor;stroke-width:1.22474"
     class="ColorScheme-Highlight"
     d="M 4,49 H 3 v 1.5 h 1 z" />
  <path
     id="groove-bottom"
     style="opacity:0.25;fill:currentColor;stroke-width:0.999996"
     class="ColorScheme-Highlight"
     d="m 5,53 v 1 h 1 v -1 z" />
  <path
     id="groove-center"
     style="opacity:0.25;fill:currentColor"
     class="ColorScheme-Highlight"
     d="M 6,51 H 5 v 1 h 1 z" />
  <path
     id="groove-top"
     style="opacity:0.25;fill:currentColor;stroke-width:1.22474"
     class="ColorScheme-Highlight"
     d="m 5,49 v 1.5 H 6 V 49 Z" />
  <path
     id="groove-highlight-bottomright"
     style="fill:currentColor"
     class="ColorScheme-Highlight"
     d="m 7,62 v 1 h 1 v -1 z" />
  <g
     id="groove-highlight-right">
    <path
       id="groove-highlight-right1"
       style="fill:currentColor"
       class="ColorScheme-Highlight"
       d="m 7,60 v 1 h 1 v -1 z" />
    <path
       id="path12"
       style="opacity:0.35;fill:#ffffff;fill-opacity:1;stroke-width:0.547723"
       class="ColorScheme-Highlight"
       d="m 7,60.35 v 0.3 h 1 v -0.3 z" />
  </g>
  <path
     id="groove-highlight-topright"
     style="fill:currentColor"
     class="ColorScheme-Highlight"
     d="m 7,58 v 1 h 1 v -1 z" />
  <path
     id="groove-highlight-bottomleft"
     style="fill:currentColor"
     class="ColorScheme-Highlight"
     d="m 3,62 v 1 h 1 v -1 z" />
  <g
     id="groove-highlight-left">
    <path
       id="groove-highlight-left1"
       style="fill:currentColor"
       class="ColorScheme-Highlight"
       d="m 3,60 v 1 h 1 v -1 z" />
    <path
       id="path13"
       style="opacity:0.35;fill:#ffffff;fill-opacity:1;stroke-width:0.547723"
       class="ColorScheme-Highlight"
       d="m 3,60.35 v 0.3 h 1 v -0.3 z" />
  </g>
  <path
     id="groove-highlight-topleft"
     style="fill:currentColor"
     class="ColorScheme-Highlight"
     d="M 4,58 H 3 v 1 h 1 z" />
  <path
     id="groove-highlight-bottom"
     style="fill:currentColor"
     class="ColorScheme-Highlight"
     d="m 5,62 v 1 h 1 v -1 z" />
  <g
     id="groove-highlight-center">
    <path
       id="groove-highlight-center1"
       style="fill:currentColor"
       class="ColorScheme-Highlight"
       d="M 6,60 H 5 v 1 h 1 z" />
    <path
       id="path14"
       style="opacity:0.35;fill:#ffffff;fill-opacity:1;stroke-width:0.547723"
       class="ColorScheme-Highlight"
       d="M 6,60.35 H 5 v 0.3 h 1 z" />
  </g>
  <path
     id="groove-highlight-top"
     style="fill:currentColor"
     class="ColorScheme-Highlight"
     d="m 5,58 v 1 h 1 v -1 z" />
  <g
     id="horizontal-slider-handle"
     transform="matrix(0.6875,0,0,0.6875,-7.187504,41.250002)">
    <rect
       style="opacity:0"
       width="32"
       height="32"
       x="25"
       y="4"
       id="rect1" />
    <circle
       style="fill:currentColor"
       class="ColorScheme-Highlight"
       cx="41"
       cy="20"
       r="7.273"
       id="circle1" />
  </g>
  <g
     id="horizontal-slider-hover"
     transform="matrix(0.6875,0,0,0.6875,14.8125,41.25)">
    <rect
       style="opacity:0"
       width="32"
       height="32"
       x="25"
       y="4"
       id="rect2" />
    <circle
       style="opacity:0.25;fill:currentColor"
       class="ColorScheme-Highlight"
       cx="41"
       cy="20"
       r="16"
       id="circle2" />
    <circle
       style="fill:currentColor"
       class="ColorScheme-Highlight"
       cx="41"
       cy="20"
       r="7.273"
       id="circle3" />
  </g>
  <g
     id="horizontal-slider-focus"
     transform="matrix(0.6875,0,0,0.6875,36.8125,41.25)">
    <rect
       style="opacity:0"
       width="32"
       height="32"
       x="25"
       y="4"
       id="rect3" />
    <circle
       style="opacity:0.5;fill:currentColor"
       class="ColorScheme-Highlight"
       cx="41"
       cy="20"
       r="16"
       id="circle4" />
    <circle
       style="fill:currentColor"
       class="ColorScheme-Highlight"
       cx="41"
       cy="20"
       r="7.273"
       id="circle5" />
  </g>
  <g
     id="vertical-slider-handle"
     transform="matrix(0.6875,0,0,0.6875,-7.1875,19.25)">
    <rect
       style="opacity:0"
       width="32"
       height="32"
       x="25"
       y="4"
       id="rect5" />
    <circle
       style="fill:currentColor"
       class="ColorScheme-Highlight"
       cx="41"
       cy="20"
       r="7.273"
       id="circle6" />
  </g>
  <g
     id="vertical-slider-hover"
     transform="matrix(0.6875,0,0,0.6875,14.8125,19.25)">
    <rect
       style="opacity:0"
       width="32"
       height="32"
       x="25"
       y="4"
       id="rect6" />
    <circle
       style="opacity:0.25;fill:currentColor"
       class="ColorScheme-Highlight"
       cx="41"
       cy="20"
       r="16"
       id="circle7" />
    <circle
       style="fill:currentColor"
       class="ColorScheme-Highlight"
       cx="41"
       cy="20"
       r="7.273"
       id="circle8" />
  </g>
  <g
     id="vertical-slider-focus"
     transform="matrix(0.6875,0,0,0.6875,36.8125,19.25)">
    <rect
       style="opacity:0"
       width="32"
       height="32"
       x="25"
       y="4"
       id="rect8" />
    <circle
       style="opacity:0.5;fill:currentColor"
       class="ColorScheme-Highlight"
       cx="41"
       cy="20"
       r="16"
       id="circle9" />
    <circle
       style="fill:currentColor"
       class="ColorScheme-Highlight"
       cx="41"
       cy="20"
       r="7.273"
       id="circle10" />
  </g>
  <circle
     id="hint-handle-size"
     style="fill:#ff00ff"
     cx="65"
     cy="11"
     r="11" />
</svg>
