<?xml version="1.0" encoding="UTF-8" standalone="no"?>
<svg
   width="494"
   height="174"
   version="1"
   id="background"
   sodipodi:docname="background.svg"
   inkscape:version="1.3.2 (091e20ef0f, 2023-11-25)"
   xmlns:inkscape="http://www.inkscape.org/namespaces/inkscape"
   xmlns:sodipodi="http://sodipodi.sourceforge.net/DTD/sodipodi-0.dtd"
   xmlns:xlink="http://www.w3.org/1999/xlink"
   xmlns="http://www.w3.org/2000/svg"
   xmlns:svg="http://www.w3.org/2000/svg">
  <sodipodi:namedview
     id="namedview20"
     pagecolor="#9b9b9b"
     bordercolor="#000000"
     borderopacity="0.25"
     inkscape:showpageshadow="2"
     inkscape:pageopacity="0.0"
     inkscape:pagecheckerboard="0"
     inkscape:deskcolor="#d1d1d1"
     inkscape:zoom="5.5077956"
     inkscape:cx="192.90839"
     inkscape:cy="80.794574"
     inkscape:current-layer="svg20"
     inkscape:window-width="1920"
     inkscape:window-height="1016"
     inkscape:window-x="0"
     inkscape:window-y="32"
     inkscape:window-maximized="1" />
  <defs
     id="nova">
    <linearGradient
       id="linearGradient20"
       inkscape:collect="always">
      <stop
         style="stop-color:#000000;stop-opacity:0;"
         offset="0.1"
         id="stop20" />
      <stop
         style="stop-color:#ffffff;stop-opacity:0.1;"
         offset="1"
         id="stop19" />
    </linearGradient>
    <linearGradient
       xlink:href="#linearGradient958"
       id="linearGradient4240"
       x1="148"
       x2="148"
       y1="144"
       y2="127"
       gradientTransform="matrix(1.9999998,0,0,1.9999998,-201.99996,-467.99996)"
       gradientUnits="userSpaceOnUse" />
    <linearGradient
       id="linearGradient958">
      <stop
         style="stop-color:#000000;stop-opacity:0.341"
         offset="0"
         id="stop1" />
      <stop
         style="stop-color:#000000;stop-opacity:0.23529412"
         offset=".206"
         id="stop2" />
      <stop
         style="stop-color:#000000;stop-opacity:0.20392157"
         offset=".239"
         id="stop3" />
      <stop
         style="stop-color:#000000;stop-opacity:0.16470588"
         offset=".283"
         id="stop4" />
      <stop
         style="stop-color:#000000;stop-opacity:0.1372549"
         offset=".33"
         id="stop5" />
      <stop
         style="stop-color:#000000;stop-opacity:0.10588235"
         offset=".378"
         id="stop6" />
      <stop
         style="stop-color:#000000;stop-opacity:0.08627451"
         offset=".434"
         id="stop7" />
      <stop
         style="stop-color:#000000;stop-opacity:0.07058824"
         offset=".465"
         id="stop8" />
      <stop
         style="stop-color:#000000;stop-opacity:0.05490196"
         offset=".516"
         id="stop9" />
      <stop
         style="stop-color:#000000;stop-opacity:0.03921569"
         offset=".555"
         id="stop10" />
      <stop
         style="stop-color:#000000;stop-opacity:0.012"
         offset=".651"
         id="stop11" />
      <stop
         style="stop-color:#000000;stop-opacity:0.00392157"
         offset=".789"
         id="stop12" />
      <stop
         style="stop-color:#000000;stop-opacity:0"
         offset="1"
         id="stop13" />
    </linearGradient>
    <radialGradient
       xlink:href="#linearGradient958"
       id="radialGradient4238"
       cx="129.71"
       cy="144.271"
       r="11"
       fx="129.71"
       fy="144.271"
       gradientTransform="matrix(0,-3.090868,4.0000719,0,-521.09357,220.91606)"
       gradientUnits="userSpaceOnUse" />
    <linearGradient
       xlink:href="#linearGradient958"
       id="linearGradient4236"
       x1="129"
       x2="129"
       y1="133.355"
       y2="129.968"
       gradientTransform="matrix(1.9999998,0,0,-17.714284,-201.99996,2262.2854)"
       gradientUnits="userSpaceOnUse" />
    <linearGradient
       xlink:href="#linearGradient958"
       id="linearGradient4234"
       x1="148"
       x2="148"
       y1="134.8"
       y2="129.667"
       gradientTransform="matrix(0,1.9999998,-8.5714277,0,1291.4284,-437.99996)"
       gradientUnits="userSpaceOnUse" />
    <radialGradient
       xlink:href="#linearGradient958"
       id="radialGradient4232"
       cx="129.71"
       cy="144.271"
       r="11"
       fx="129.71"
       fy="144.271"
       gradientTransform="matrix(0,5.4545052,4.0000706,0,-521.09339,-807.50346)"
       gradientUnits="userSpaceOnUse" />
    <radialGradient
       xlink:href="#linearGradient958"
       id="radialGradient5631"
       cx="129.71"
       cy="144.271"
       r="11"
       fx="129.71"
       fy="144.271"
       gradientTransform="matrix(0,-3.090868,-4.0000719,0,713.09357,220.91606)"
       gradientUnits="userSpaceOnUse" />
    <radialGradient
       xlink:href="#linearGradient958"
       id="radialGradient5627"
       cx="129.71"
       cy="144.271"
       r="11"
       fx="129.71"
       fy="144.271"
       gradientTransform="matrix(0,5.4545052,-4.0000706,0,713.09339,-807.50346)"
       gradientUnits="userSpaceOnUse" />
    <linearGradient
       xlink:href="#linearGradient958"
       id="linearGradient1105"
       x1="148"
       x2="148"
       y1="134.8"
       y2="129.667"
       gradientTransform="matrix(0,1.9999998,8.5714277,0,-1099.4284,-437.99996)"
       gradientUnits="userSpaceOnUse" />
    <style
       id="current-color-scheme"
       type="text/css"> .ColorScheme-Background {color:#1a1b1e; } .ColorScheme-ButtonBackground { color:#2a2a2a; } .ColorScheme-Highlight { color:#3c5fff; } .ColorScheme-Text { color:#ffffff; } .ColorScheme-ViewBackground { color:#2a2a2a; } .ColorScheme-NegativeText { color:#f44336; } .ColorScheme-PositiveText { color:#4caf50; } .ColorScheme-NeutralText { color:#ff9800; }
    </style>
    <linearGradient
       inkscape:collect="always"
       xlink:href="#linearGradient20"
       id="linearGradient15"
       x1="73.983498"
       y1="278.00598"
       x2="73.983498"
       y2="253.94913"
       gradientUnits="userSpaceOnUse"
       gradientTransform="translate(-148,-532)" />
    <linearGradient
       inkscape:collect="always"
       xlink:href="#linearGradient20"
       id="linearGradient19"
       gradientUnits="userSpaceOnUse"
       x1="73.983498"
       y1="278.00598"
       x2="73.983498"
       y2="253.94913"
       gradientTransform="translate(1.5929199e-6,-104)" />
    <linearGradient
       inkscape:collect="always"
       xlink:href="#linearGradient20"
       id="linearGradient21"
       gradientUnits="userSpaceOnUse"
       gradientTransform="translate(-288.00001,-243.99999)"
       x1="73.983498"
       y1="278.00598"
       x2="73.983498"
       y2="253.94913" />
    <linearGradient
       inkscape:collect="always"
       xlink:href="#linearGradient20"
       id="linearGradient22"
       gradientUnits="userSpaceOnUse"
       gradientTransform="translate(-288.00001,-391.99998)"
       x1="73.983498"
       y1="278.00598"
       x2="73.983498"
       y2="253.94913" />
    <radialGradient
       inkscape:collect="always"
       xlink:href="#linearGradient20"
       id="radialGradient24"
       cx="254.00462"
       cy="33.996792"
       fx="254.00462"
       fy="33.996792"
       r="12"
       gradientUnits="userSpaceOnUse"
       gradientTransform="matrix(2.028946,0,0,2.040081,-261.35704,-35.359417)" />
    <radialGradient
       inkscape:collect="always"
       xlink:href="#linearGradient20"
       id="radialGradient28"
       gradientUnits="userSpaceOnUse"
       gradientTransform="matrix(0,-2.028946,2.040081,0,104.64058,549.35704)"
       cx="254.00462"
       cy="33.996792"
       fx="254.00462"
       fy="33.996792"
       r="12" />
    <radialGradient
       inkscape:collect="always"
       xlink:href="#linearGradient20"
       id="radialGradient29"
       gradientUnits="userSpaceOnUse"
       gradientTransform="matrix(-2.028946,0,0,-2.040081,689.35704,183.35941)"
       cx="254.00462"
       cy="33.996792"
       fx="254.00462"
       fy="33.996792"
       r="12" />
    <radialGradient
       inkscape:collect="always"
       xlink:href="#linearGradient20"
       id="radialGradient30"
       gradientUnits="userSpaceOnUse"
       gradientTransform="matrix(0,2.028946,-2.040081,0,323.35942,-401.35705)"
       cx="254.00462"
       cy="33.996792"
       fx="254.00462"
       fy="33.996792"
       r="12" />
  </defs>
  <rect
     id="shadow-center"
     style="opacity:0.001"
     width="80"
     height="80"
     x="370"
     y="34" />
  <g
     id="shadow-top"
     transform="translate(186,-15)">
    <path
       style="fill:url(#linearGradient4240)"
       transform="translate(128,229)"
       d="m 56,-214 v 10 h 80 v -10 z"
       id="path13" />
  </g>
  <g
     id="shadow-topleft"
     transform="translate(339,3)">
    <path
       style="fill:url(#radialGradient4238)"
       transform="translate(-25.000001,211)"
       d="m 12,-214 v 34 h 20 c 0,-0.41421 0.01051,-0.82531 0.03125,-1.23438 C 32.674045,-193.91525 43.159383,-204 56,-204 v -10 z"
       id="path14" />
  </g>
  <g
     id="shadow-bottom"
     transform="translate(186,-15)">
    <path
       style="fill:url(#linearGradient4236)"
       transform="translate(128,229)"
       d="m 56,-76 v 36 h 80 v -36 z"
       id="path15" />
  </g>
  <g
     id="shadow-left"
     transform="translate(186,-15)">
    <path
       style="fill:url(#linearGradient1105)"
       transform="translate(128,229)"
       d="m 12,-180 v 80 h 20 v -80 z"
       id="path16" />
  </g>
  <g
     id="shadow-bottomleft"
     transform="matrix(1,0,0,-1,339,145)">
    <path
       style="fill:url(#radialGradient4232)"
       transform="matrix(1,0,0,-1,-25.000001,-69.000005)"
       d="m 12,-100 v 60 h 44 v -36 c -13.25483,0 -24,-10.745166 -24,-24 z"
       id="path17" />
  </g>
  <g
     id="shadow-topright"
     transform="matrix(-1,0,0,1,481,3)">
    <path
       style="fill:url(#radialGradient5631)"
       transform="matrix(-1,0,0,1,167,211)"
       d="m 136,-214 v 10 c 12.84062,0 23.32595,10.08475 23.96875,22.76562 0.0207,0.40907 0.0312,0.82017 0.0312,1.23438 h 20 v -34 z"
       id="path18" />
  </g>
  <g
     id="shadow-right"
     transform="matrix(-1,0,0,1,634,-15)">
    <path
       style="fill:url(#linearGradient4234)"
       transform="matrix(-1,0,0,1,320,229)"
       d="m 160,-180 v 80 h 20 v -80 z"
       id="path19" />
  </g>
  <g
     id="shadow-bottomright"
     transform="rotate(180,240.5,72.499998)">
    <path
       style="fill:url(#radialGradient5627)"
       transform="rotate(180,83.500001,-34.500002)"
       d="m 160,-100 c 0,13.254834 -10.74517,24 -24,24 v 36 h 44 v -60 z"
       id="path20" />
  </g>
  <g
     id="center">
    <rect
       id="center1"
       style="fill:currentColor;opacity:0.85;fill-opacity:1"
       class="ColorScheme-Background"
       width="80"
       height="80"
       x="174"
       y="34" />
    <rect
       id="center2"
       style="fill:currentColor;opacity:0.25"
       class="ColorScheme-Highlight"
       width="80"
       height="80"
       x="174"
       y="34" />
  </g>
  <g
     id="top">
    <rect
       id="top1"
       style="fill:currentColor;opacity:0.85;fill-opacity:1"
       class="ColorScheme-Background"
       width="80"
       height="24"
       x="174"
       y="10" />
    <rect
       id="top2"
       style="fill:currentColor;opacity:0.25"
       class="ColorScheme-Highlight"
       width="80"
       height="24"
       x="174"
       y="10" />
    <rect
       id="rect20"
       style="display:inline;opacity:0.5;fill:url(#linearGradient21)"
       class="ColorScheme-Background"
       width="80"
       height="24"
       x="-254"
       y="10"
       transform="scale(-1,1)" />
    <path
       id="rect3"
       style="fill:currentColor;opacity:1;fill-opacity:0.15"
       class="ColorScheme-Text"
       d="M 174 10 L 174 11 L 254 11 L 254 10 L 174 10 z " />
  </g>
  <g
     id="topleft">
    <path
       id="topleft1"
       style="fill:currentColor;opacity:0.85;fill-opacity:1"
       class="ColorScheme-Background"
       d="m 174,34 h -24 c 0,-13.25483 10.74517,-24 24,-24 z" />
    <path
       id="topleft2"
       style="fill:currentColor;opacity:0.25"
       class="ColorScheme-Highlight"
       d="m 174,34 h -24 c 0,-13.25483 10.74517,-24 24,-24 z" />
    <path
       id="path28"
       style="opacity:0.5;fill:url(#radialGradient28)"
       class="ColorScheme-Background"
       d="M 174,34 V 10 c -13.25483,0 -24,10.74517 -24,24 z" />
    <path
       id="path2"
       style="fill:currentColor;opacity:1;fill-opacity:0.15"
       class="ColorScheme-Text"
       d="M 174 10 C 160.74518 10 150 20.745183 150 34 L 151.02539 34 C 151.53689 21.541963 161.54196 11.536892 174 11.025391 L 174 10 z " />
  </g>
  <g
     id="bottom">
    <rect
       id="bottom1"
       style="fill:currentColor;opacity:0.85;fill-opacity:1"
       class="ColorScheme-Background"
       width="80"
       height="24"
       x="174"
       y="-138"
       transform="scale(1,-1)" />
    <rect
       id="bottom2"
       style="fill:currentColor;opacity:0.25"
       class="ColorScheme-Highlight"
       width="80"
       height="24"
       x="174"
       y="-138"
       transform="scale(1,-1)" />
    <rect
       id="rect21"
       style="display:inline;opacity:0.5;fill:url(#linearGradient22)"
       class="ColorScheme-Background"
       width="80"
       height="24"
       x="-254"
       y="-138"
       transform="scale(-1)" />
    <path
       id="rect7"
       style="fill:currentColor;opacity:1;fill-opacity:0.15"
       class="ColorScheme-Text"
       d="M 174 -137 L 174 -138 L 254 -138 L 254 -137 L 174 -137 z "
       transform="scale(1,-1)" />
  </g>
  <g
     id="left">
    <rect
       id="left1"
       style="fill:currentColor;opacity:0.85;fill-opacity:1"
       class="ColorScheme-Background"
       width="80"
       height="24"
       x="34"
       y="-174"
       transform="rotate(90)" />
    <rect
       id="left2"
       style="fill:currentColor;opacity:0.25"
       class="ColorScheme-Highlight"
       width="80"
       height="24"
       x="34"
       y="-174"
       transform="rotate(90)" />
    <rect
       id="rect19"
       style="display:inline;opacity:0.5;fill:url(#linearGradient19)"
       class="ColorScheme-Background"
       width="80"
       height="24"
       x="34"
       y="150"
       transform="matrix(0,1,1,0,0,0)" />
    <path
       id="rect4"
       style="fill:currentColor;opacity:1;fill-opacity:0.15"
       class="ColorScheme-Text"
       d="M 34 -150 L 114 -150 L 114 -151 L 34 -151 L 34 -150 z "
       transform="rotate(90)" />
  </g>
  <g
     id="bottomleft">
    <path
       id="bottomleft1"
       style="fill:currentColor;opacity:0.85;fill-opacity:1"
       class="ColorScheme-Background"
       d="m 174,113.99999 h -24 c 0,13.25484 10.74517,24 24,24 z" />
    <path
       id="bottomleft2"
       style="fill:currentColor;opacity:0.25"
       class="ColorScheme-Highlight"
       d="m 174,113.99999 h -24 c 0,13.25484 10.74517,24 24,24 z" />
    <path
       id="path29"
       style="opacity:0.5;fill:url(#radialGradient29)"
       class="ColorScheme-Background"
       d="m 174,113.99999 h -24 c 0,13.25483 10.74517,24 24,24 z" />
    <path
       id="path9"
       style="fill:currentColor;opacity:1;fill-opacity:0.15"
       class="ColorScheme-Text"
       d="M 150 114 C 150 127.25483 160.74518 138 174 138 L 174 136.97461 C 161.54196 136.46311 151.53689 126.45805 151.02539 114 L 150 114 z " />
  </g>
  <g
     id="topright">
    <path
       id="topright1"
       style="fill:currentColor;opacity:0.85;fill-opacity:1"
       class="ColorScheme-Background"
       d="m 254,34 h 24 C 278,20.74517 267.25483,10 254,10 Z" />
    <path
       id="topright2"
       style="fill:currentColor;opacity:0.25"
       class="ColorScheme-Highlight"
       d="m 254,34 h 24 C 278,20.74517 267.25483,10 254,10 Z" />
    <path
       id="path22"
       style="opacity:0.5;fill:url(#radialGradient24)"
       class="ColorScheme-Background"
       d="m 254,34 h 24 C 278,20.74517 267.25483,10 254,10 Z" />
    <path
       id="path1"
       style="fill:currentColor;opacity:1;fill-opacity:0.15"
       class="ColorScheme-Text"
       d="M 254 10 L 254 11.025391 C 266.45804 11.536892 276.46311 21.541963 276.97461 34 L 278 34 C 278 20.745183 267.25482 10 254 10 z " />
  </g>
  <g
     id="right">
    <rect
       id="right1"
       style="fill:currentColor;opacity:0.85;fill-opacity:1"
       class="ColorScheme-Background"
       width="80"
       height="24"
       x="34"
       y="254"
       transform="matrix(0,1,1,0,0,0)" />
    <rect
       id="right2"
       style="fill:currentColor;opacity:0.25"
       class="ColorScheme-Highlight"
       width="80"
       height="24"
       x="34"
       y="254"
       transform="matrix(0,1,1,0,0,0)" />
    <rect
       id="rect1"
       style="display:inline;opacity:0.5;fill:url(#linearGradient15)"
       class="ColorScheme-Background"
       width="80"
       height="24"
       x="-114"
       y="-278"
       transform="matrix(0,-1,-1,0,0,0)" />
    <path
       id="rect5"
       style="fill:currentColor;opacity:1;fill-opacity:0.15"
       class="ColorScheme-Text"
       d="M 34 277 L 114 277 L 114 278 L 34 278 L 34 277 z "
       transform="matrix(0,1,1,0,0,0)" />
  </g>
  <g
     id="bottomright">
    <path
       id="bottomright1"
       style="fill:currentColor;opacity:0.85;fill-opacity:1"
       class="ColorScheme-Background"
       d="m 254,113.99999 h 24 C 278,127.25483 267.25483,138 254,138 Z" />
    <path
       id="bottomright2"
       style="fill:currentColor;opacity:0.25"
       class="ColorScheme-Highlight"
       d="m 254,113.99999 h 24 C 278,127.25483 267.25483,138 254,138 Z" />
    <path
       id="path30"
       style="opacity:0.5;fill:url(#radialGradient30)"
       class="ColorScheme-Background"
       d="m 254,113.99999 v 24 c 13.25483,0 24,-10.74518 24,-24 z" />
    <path
       id="path8"
       style="fill:currentColor;opacity:1;fill-opacity:0.15"
       class="ColorScheme-Text"
       d="M 276.97461 114 C 276.46311 126.45805 266.45804 136.46311 254 136.97461 L 254 138 C 267.25482 138 278 127.25483 278 114 L 276.97461 114 z " />
  </g>
  <rect
     id="mask-center"
     width="80"
     height="80"
     x="24"
     y="34" />
  <rect
     id="mask-top"
     width="80"
     height="24"
     x="24"
     y="10" />
  <path
     id="mask-topleft"
     d="M 24,34 H 0 C 0,20.74517 10.74517,10 24,10 Z" />
  <rect
     id="mask-bottom"
     width="80"
     height="24"
     x="24"
     y="-138"
     transform="scale(1,-1)" />
  <rect
     id="mask-left"
     width="80"
     height="24"
     x="34"
     y="-24"
     transform="rotate(90)" />
  <path
     id="mask-bottomleft"
     d="M 24,113.99999 H 0 c 0,13.25484 10.74517,24 24,24 z" />
  <path
     id="mask-topright"
     d="m 104,34 h 24 C 128,20.74517 117.25483,10 104,10 Z" />
  <rect
     id="mask-right"
     width="80"
     height="24"
     x="34"
     y="104"
     transform="matrix(0,1,1,0,0,0)" />
  <path
     id="mask-bottomright"
     d="m 104,113.99999 h 24 C 128,127.25483 117.25483,138 104,138 Z" />
  <rect
     id="shadow-hint-bottom-margin"
     style="fill:#111928"
     width="4"
     height="36"
     x="408"
     y="138" />
  <rect
     id="shadow-hint-top-margin"
     style="fill:#111928"
     width="4"
     height="10"
     x="408"
     y="0" />
  <rect
     id="shadow-hint-right-margin"
     style="fill:#111928"
     width="4"
     height="20"
     x="72"
     y="-494"
     transform="rotate(90)" />
  <rect
     id="shadow-hint-left-margin"
     style="fill:#111928"
     width="4"
     height="20"
     x="72"
     y="-346"
     transform="rotate(90)" />
  <rect
     id="hint-top-margin"
     style="fill:#ff2b00;fill-opacity:1"
     width="4"
     height="12"
     x="212"
     y="10" />
  <rect
     id="hint-bottom-margin"
     style="fill:#ff2b00;fill-opacity:1"
     width="4"
     height="12"
     x="212"
     y="126" />
  <rect
     id="hint-right-margin"
     style="fill:#ff2b00;fill-opacity:1"
     width="4"
     height="12"
     x="72"
     y="-278"
     transform="rotate(90)" />
  <rect
     id="hint-left-margin"
     style="fill:#ff2b00;fill-opacity:1"
     width="4"
     height="12"
     x="72"
     y="-162"
     transform="rotate(90)" />
  <rect
     id="hint-stretch-borders"
     style="fill:#ff2b00;fill-opacity:1"
     width="6"
     height="6"
     x="0"
     y="-6" />
  <rect
     id="shadow-hint-top-inset"
     style="fill:#00ff00"
     width="4"
     height="10"
     x="412"
     y="0" />
  <rect
     id="shadow-hint-bottom-inset"
     style="fill:#00ff00"
     width="4"
     height="36"
     x="412"
     y="138" />
  <rect
     id="shadow-hint-right-inset"
     style="fill:#00ff00"
     width="20"
     height="4"
     x="474"
     y="76" />
  <rect
     id="shadow-hint-left-inset"
     style="fill:#00ff00"
     width="20"
     height="4"
     x="326"
     y="76" />
</svg>
