<?xml version="1.0" encoding="UTF-8" standalone="no"?>
<svg
   width="494"
   height="174"
   version="1"
   id="svg20"
   sodipodi:docname="tooltip.svg"
   inkscape:version="1.3.2 (091e20ef0f, 2023-11-25)"
   xmlns:inkscape="http://www.inkscape.org/namespaces/inkscape"
   xmlns:sodipodi="http://sodipodi.sourceforge.net/DTD/sodipodi-0.dtd"
   xmlns:xlink="http://www.w3.org/1999/xlink"
   xmlns="http://www.w3.org/2000/svg"
   xmlns:svg="http://www.w3.org/2000/svg">
  <sodipodi:namedview
     id="namedview20"
     pagecolor="#595959"
     bordercolor="#000000"
     borderopacity="0.25"
     inkscape:showpageshadow="2"
     inkscape:pageopacity="0.0"
     inkscape:pagecheckerboard="0"
     inkscape:deskcolor="#4d4d4d"
     inkscape:zoom="3.8909366"
     inkscape:cx="180.29078"
     inkscape:cy="71.448093"
     inkscape:current-layer="svg20"
     inkscape:window-width="1920"
     inkscape:window-height="1016"
     inkscape:window-x="0"
     inkscape:window-y="32"
     inkscape:window-maximized="1" />
  <defs
     id="nova">
    <linearGradient
       id="linearGradient35"
       inkscape:collect="always">
      <stop
         style="stop-color:#1a1b1e;stop-opacity:0;"
         offset="0"
         id="stop35" />
      <stop
         style="stop-color:#ffffff;stop-opacity:0.05;"
         offset="1"
         id="stop34" />
    </linearGradient>
    <linearGradient
       id="linearGradient29"
       inkscape:collect="always">
      <stop
         style="stop-color:#ffffff;stop-opacity:0.05;"
         offset="0"
         id="stop29" />
      <stop
         style="stop-color:#1a1b1e;stop-opacity:0;"
         offset="1"
         id="stop28" />
    </linearGradient>
    <linearGradient
       xlink:href="#linearGradient958"
       id="linearGradient4240"
       x1="148"
       x2="148"
       y1="144"
       y2="127"
       gradientTransform="matrix(1.9999998,0,0,1.9999998,-201.99996,-467.99996)"
       gradientUnits="userSpaceOnUse" />
    <linearGradient
       id="linearGradient958">
      <stop
         style="stop-color:#000000;stop-opacity:0.341"
         offset="0"
         id="stop1" />
      <stop
         style="stop-color:#000000;stop-opacity:0.23529412"
         offset=".206"
         id="stop2" />
      <stop
         style="stop-color:#000000;stop-opacity:0.20392157"
         offset=".239"
         id="stop3" />
      <stop
         style="stop-color:#000000;stop-opacity:0.16470588"
         offset=".283"
         id="stop4" />
      <stop
         style="stop-color:#000000;stop-opacity:0.1372549"
         offset=".33"
         id="stop5" />
      <stop
         style="stop-color:#000000;stop-opacity:0.10588235"
         offset=".378"
         id="stop6" />
      <stop
         style="stop-color:#000000;stop-opacity:0.08627451"
         offset=".434"
         id="stop7" />
      <stop
         style="stop-color:#000000;stop-opacity:0.07058824"
         offset=".465"
         id="stop8" />
      <stop
         style="stop-color:#000000;stop-opacity:0.05490196"
         offset=".516"
         id="stop9" />
      <stop
         style="stop-color:#000000;stop-opacity:0.03921569"
         offset=".555"
         id="stop10" />
      <stop
         style="stop-color:#000000;stop-opacity:0.012"
         offset=".651"
         id="stop11" />
      <stop
         style="stop-color:#000000;stop-opacity:0.00392157"
         offset=".789"
         id="stop12" />
      <stop
         style="stop-color:#000000;stop-opacity:0"
         offset="1"
         id="stop13" />
    </linearGradient>
    <radialGradient
       xlink:href="#linearGradient958"
       id="radialGradient4238"
       cx="129.71"
       cy="144.271"
       r="11"
       fx="129.71"
       fy="144.271"
       gradientTransform="matrix(0,-3.090868,4.0000719,0,-521.09357,220.91606)"
       gradientUnits="userSpaceOnUse" />
    <linearGradient
       xlink:href="#linearGradient958"
       id="linearGradient4236"
       x1="129"
       x2="129"
       y1="133.355"
       y2="129.968"
       gradientTransform="matrix(1.9999998,0,0,-17.714284,-201.99996,2262.2854)"
       gradientUnits="userSpaceOnUse" />
    <linearGradient
       xlink:href="#linearGradient958"
       id="linearGradient4234"
       x1="148"
       x2="148"
       y1="134.8"
       y2="129.667"
       gradientTransform="matrix(0,1.9999998,-8.5714277,0,1291.4284,-437.99996)"
       gradientUnits="userSpaceOnUse" />
    <radialGradient
       xlink:href="#linearGradient958"
       id="radialGradient4232"
       cx="129.71"
       cy="144.271"
       r="11"
       fx="129.71"
       fy="144.271"
       gradientTransform="matrix(0,5.4545052,4.0000706,0,-521.09339,-807.50346)"
       gradientUnits="userSpaceOnUse" />
    <radialGradient
       xlink:href="#linearGradient958"
       id="radialGradient5631"
       cx="129.71"
       cy="144.271"
       r="11"
       fx="129.71"
       fy="144.271"
       gradientTransform="matrix(0,-3.090868,-4.0000719,0,713.09357,220.91606)"
       gradientUnits="userSpaceOnUse" />
    <radialGradient
       xlink:href="#linearGradient958"
       id="radialGradient5627"
       cx="129.71"
       cy="144.271"
       r="11"
       fx="129.71"
       fy="144.271"
       gradientTransform="matrix(0,5.4545052,-4.0000706,0,713.09339,-807.50346)"
       gradientUnits="userSpaceOnUse" />
    <linearGradient
       xlink:href="#linearGradient958"
       id="linearGradient1105"
       x1="148"
       x2="148"
       y1="134.8"
       y2="129.667"
       gradientTransform="matrix(0,1.9999998,8.5714277,0,-1099.4284,-437.99996)"
       gradientUnits="userSpaceOnUse" />
    <style
       id="current-color-scheme"
       type="text/css">
       .ColorScheme-Background {color:#1a1b1e; }
       .ColorScheme-ButtonBackground { color:#343434; } .ColorScheme-Highlight { color:#3c5fff; } .ColorScheme-Text { color:#ffffff; } .ColorScheme-ViewBackground { color:#242424; } .ColorScheme-NegativeText { color:#f44336; } .ColorScheme-PositiveText { color:#4caf50; } .ColorScheme-NeutralText { color:#ff9800; }
  </style>
    <linearGradient
       inkscape:collect="always"
       xlink:href="#linearGradient29"
       id="linearGradient20"
       x1="74.467529"
       y1="253.95799"
       x2="74.467529"
       y2="278.03339"
       gradientUnits="userSpaceOnUse"
       gradientTransform="translate(-148,-532)" />
    <linearGradient
       inkscape:collect="always"
       xlink:href="#linearGradient29"
       id="linearGradient28"
       gradientUnits="userSpaceOnUse"
       x1="74.467529"
       y1="253.95799"
       x2="74.467529"
       y2="278.03339"
       gradientTransform="translate(0,-104)" />
    <linearGradient
       inkscape:collect="always"
       xlink:href="#linearGradient29"
       id="linearGradient30"
       gradientUnits="userSpaceOnUse"
       gradientTransform="translate(-288,-243.99999)"
       x1="74.467529"
       y1="253.95799"
       x2="74.467529"
       y2="278.03339" />
    <linearGradient
       inkscape:collect="always"
       xlink:href="#linearGradient29"
       id="linearGradient31"
       gradientUnits="userSpaceOnUse"
       gradientTransform="translate(139.99998,-391.99998)"
       x1="74.467529"
       y1="253.95799"
       x2="74.467529"
       y2="278.03339" />
    <radialGradient
       inkscape:collect="always"
       xlink:href="#linearGradient35"
       id="radialGradient33"
       cx="254.00343"
       cy="34.001488"
       fx="254.00343"
       fy="34.001488"
       r="12"
       gradientUnits="userSpaceOnUse"
       gradientTransform="matrix(1.9995165,0,0,2.0004222,-253.88061,-34.015843)" />
    <radialGradient
       inkscape:collect="always"
       xlink:href="#linearGradient35"
       id="radialGradient35"
       gradientUnits="userSpaceOnUse"
       gradientTransform="matrix(0,-1.9995165,2.0004222,0,105.98416,541.88061)"
       cx="254.00343"
       cy="34.001488"
       fx="254.00343"
       fy="34.001488"
       r="12" />
    <radialGradient
       inkscape:collect="always"
       xlink:href="#linearGradient35"
       id="radialGradient36"
       gradientUnits="userSpaceOnUse"
       gradientTransform="matrix(-1.9995165,0,0,-2.0004222,681.88061,182.01583)"
       cx="254.00343"
       cy="34.001488"
       fx="254.00343"
       fy="34.001488"
       r="12" />
    <radialGradient
       inkscape:collect="always"
       xlink:href="#linearGradient35"
       id="radialGradient37"
       gradientUnits="userSpaceOnUse"
       gradientTransform="matrix(0,1.9995165,-2.0004222,0,322.01584,-393.88061)"
       cx="254.00343"
       cy="34.001488"
       fx="254.00343"
       fy="34.001488"
       r="12" />
  </defs>
  <rect
     id="shadow-center"
     style="opacity:1;fill:none"
     width="80"
     height="80"
     x="370"
     y="34" />
  <g
     id="shadow-top"
     transform="translate(186,-15)">
    <path
       style="fill:url(#linearGradient4240)"
       transform="translate(128,229)"
       d="m 56,-214 v 10 h 80 v -10 z"
       id="path13" />
    <rect
       id="rect2"
       style="opacity:1;fill-opacity:1;fill:none"
       class="ColorScheme-Background"
       width="80"
       height="24"
       x="370"
       y="10"
       transform="translate(-186,15)" />
  </g>
  <g
     id="shadow-topleft"
     transform="translate(339,3)">
    <path
       style="fill:url(#radialGradient4238)"
       transform="translate(-25.000001,211)"
       d="m 12,-214 v 34 h 20 c 0,-0.41421 0.01051,-0.82531 0.03125,-1.23438 C 32.674045,-193.91525 43.159383,-204 56,-204 v -10 z"
       id="path14" />
    <path
       id="path2"
       style="opacity:1;fill-opacity:1;fill:none"
       class="ColorScheme-Background"
       d="m 370,34 h -24 c 0,-13.25483 10.74517,-24 24,-24 z"
       transform="translate(-339,-3)" />
  </g>
  <g
     id="shadow-bottom"
     transform="translate(186,-15)">
    <path
       style="fill:url(#linearGradient4236)"
       transform="translate(128,229)"
       d="m 56,-76 v 36 h 80 v -36 z"
       id="path15" />
    <rect
       id="rect3"
       style="opacity:1;fill-opacity:1;fill:none"
       class="ColorScheme-Background"
       width="80"
       height="24"
       x="370"
       y="-138"
       transform="matrix(1,0,0,-1,-186,15)" />
  </g>
  <g
     id="shadow-left"
     transform="translate(186,-15)">
    <path
       style="fill:url(#linearGradient1105)"
       transform="translate(128,229)"
       d="m 12,-180 v 80 h 20 v -80 z"
       id="path16" />
    <rect
       id="rect4"
       style="opacity:1;fill-opacity:1;fill:none"
       class="ColorScheme-Background"
       width="80"
       height="24"
       x="34"
       y="-370"
       transform="rotate(90,-100.5,-85.5)" />
  </g>
  <g
     id="shadow-bottomleft"
     transform="matrix(1,0,0,-1,339,145)">
    <path
       style="fill:url(#radialGradient4232)"
       transform="matrix(1,0,0,-1,-25.000001,-69.000005)"
       d="m 12,-100 v 60 h 44 v -36 c -13.25483,0 -24,-10.745166 -24,-24 z"
       id="path17" />
    <path
       id="path4"
       style="opacity:1;fill-opacity:1;fill:none"
       class="ColorScheme-Background"
       d="m 370,114 h -24 c 0,13.25484 10.74517,24 24,24 z"
       transform="matrix(1,0,0,-1,-339,145)" />
  </g>
  <g
     id="shadow-topright"
     transform="matrix(-1,0,0,1,481,3)">
    <path
       style="fill:url(#radialGradient5631)"
       transform="matrix(-1,0,0,1,167,211)"
       d="m 136,-214 v 10 c 12.84062,0 23.32595,10.08475 23.96875,22.76562 0.0207,0.40907 0.0312,0.82017 0.0312,1.23438 h 20 v -34 z"
       id="path18" />
    <path
       id="path5"
       style="opacity:1;fill-opacity:1;fill:none"
       class="ColorScheme-Background"
       d="m 450,34 h 24 C 474,20.74517 463.25483,10 450,10 Z"
       transform="matrix(-1,0,0,1,481,-3)" />
  </g>
  <g
     id="shadow-right"
     transform="matrix(-1,0,0,1,634,-15)">
    <path
       style="fill:url(#linearGradient4234)"
       transform="matrix(-1,0,0,1,320,229)"
       d="m 160,-180 v 80 h 20 v -80 z"
       id="path19" />
    <rect
       id="rect5"
       style="opacity:1;fill-opacity:1;fill:none"
       class="ColorScheme-Background"
       width="80"
       height="24"
       x="34"
       y="450"
       transform="rotate(90,309.5,324.5)" />
  </g>
  <g
     id="shadow-bottomright"
     transform="rotate(180,240.5,72.499998)">
    <path
       style="fill:url(#radialGradient5627)"
       transform="rotate(180,83.500001,-34.500002)"
       d="m 160,-100 c 0,13.254834 -10.74517,24 -24,24 v 36 h 44 v -60 z"
       id="path20" />
    <path
       id="path6"
       style="opacity:1;fill-opacity:1;fill:none"
       class="ColorScheme-Background"
       d="m 450,114 h 24 c 0,13.25484 -10.74517,24.00001 -24,24.00001 z"
       transform="rotate(-180,240.5,72.499998)" />
  </g>
  <g
     id="center">
    <rect
       id="center1"
       style="fill:currentColor;fill-opacity:1;opacity:0.7"
       class="ColorScheme-Background"
       width="80"
       height="80"
       x="174"
       y="34" />
    <rect
       id="rect20"
       style="display:inline;opacity:0.12;fill:currentColor;fill-opacity:1"
       class="ColorScheme-Text"
       width="80"
       height="80"
       x="174"
       y="34" />
    <rect
       id="center2"
       style="display:none;opacity:0.05;fill:currentColor"
       class="ColorScheme-Highlight"
       width="80"
       height="80"
       x="174"
       y="34" />
  </g>
  <g
     id="top">
    <rect
       id="top1"
       style="fill:currentColor;fill-opacity:1;opacity:0.7"
       class="ColorScheme-Background"
       width="80"
       height="24"
       x="174"
       y="10" />
    <rect
       id="rect29"
       style="display:inline;opacity:0.5;fill:url(#linearGradient30);fill-opacity:1"
       class="ColorScheme-Background"
       width="80"
       height="24"
       x="-254"
       y="10"
       transform="scale(-1,1)" />
    <rect
       id="rect21"
       style="fill:currentColor;fill-opacity:1;opacity:0.12"
       class="ColorScheme-Text"
       width="80"
       height="24"
       x="174"
       y="10" />
    <path
       id="rect3-6-1"
       style="fill:currentColor;fill-opacity:0.12"
       class="ColorScheme-Text"
       d="m 174,10 v 1 h 80 v -1 z" />
    <rect
       id="top2"
       style="display:none;opacity:0.05;fill:currentColor"
       class="ColorScheme-Highlight"
       width="80"
       height="24"
       x="174"
       y="10" />
  </g>
  <g
     id="topleft">
    <path
       id="topleft1"
       style="fill:currentColor;fill-opacity:1;opacity:0.7"
       class="ColorScheme-Background"
       d="m 174,34 h -24 c 0,-13.25483 10.74517,-24 24,-24 z" />
    <path
       id="path35"
       style="display:inline;opacity:0.5;fill:url(#radialGradient35);fill-opacity:1"
       class="ColorScheme-Background"
       d="M 174,34 V 10 c -13.25483,0 -24,10.74517 -24,24 z" />
    <path
       id="path21"
       style="fill:currentColor;fill-opacity:1;opacity:0.12"
       class="ColorScheme-Text"
       d="m 174,34 h -24 c 0,-13.25483 10.74517,-24 24,-24 z" />
    <path
       id="path2-5-0"
       style="fill:currentColor;fill-opacity:0.12"
       class="ColorScheme-Text"
       d="m 174,10 c -13.25482,0 -24,10.745183 -24,24 h 1.02539 C 151.53689,21.541963 161.54196,11.536892 174,11.025391 Z" />
    <path
       id="topleft2"
       style="display:none;opacity:0.05;fill:currentColor"
       class="ColorScheme-Highlight"
       d="m 174,34 h -24 c 0,-13.25483 10.74517,-24 24,-24 z" />
  </g>
  <g
     id="bottom">
    <rect
       id="bottom1"
       style="fill:currentColor;fill-opacity:1;opacity:0.7"
       class="ColorScheme-Background"
       width="80"
       height="24"
       x="174"
       y="-138"
       transform="scale(1,-1)" />
    <rect
       id="rect30"
       style="display:inline;opacity:0.5;fill:url(#linearGradient31);fill-opacity:1"
       class="ColorScheme-Background"
       width="80"
       height="24"
       x="174"
       y="-138"
       transform="scale(1,-1)" />
    <rect
       id="rect22"
       style="fill:currentColor;fill-opacity:1;opacity:0.12"
       class="ColorScheme-Text"
       width="80"
       height="24"
       x="174"
       y="-138"
       transform="scale(1,-1)" />
    <path
       id="rect7-7"
       style="fill:currentColor;fill-opacity:0.12"
       class="ColorScheme-Text"
       d="m 174,137 v 1 h 80 v -1 z" />
    <rect
       id="bottom2"
       style="display:none;opacity:0.05;fill:currentColor"
       class="ColorScheme-Highlight"
       width="80"
       height="24"
       x="174"
       y="-138"
       transform="scale(1,-1)" />
  </g>
  <g
     id="left">
    <rect
       id="left1"
       style="fill:currentColor;fill-opacity:1;opacity:0.7"
       class="ColorScheme-Background"
       width="80"
       height="24"
       x="34"
       y="-174"
       transform="rotate(90)" />
    <rect
       id="rect28"
       style="display:inline;opacity:0.5;fill:url(#linearGradient28);fill-opacity:1"
       class="ColorScheme-Background"
       width="80"
       height="24"
       x="34"
       y="150"
       transform="matrix(0,1,1,0,0,0)" />
    <rect
       id="rect23"
       style="fill:currentColor;fill-opacity:1;opacity:0.12"
       class="ColorScheme-Text"
       width="80"
       height="24"
       x="34"
       y="-174"
       transform="rotate(90)" />
    <path
       id="rect4-0-2"
       style="fill:currentColor;fill-opacity:0.12"
       class="ColorScheme-Text"
       d="m 150,34 v 80 h 1 V 34 Z" />
    <rect
       id="left2"
       style="display:none;opacity:0.05;fill:currentColor"
       class="ColorScheme-Highlight"
       width="80"
       height="24"
       x="34"
       y="-174"
       transform="rotate(90)" />
  </g>
  <g
     id="bottomleft">
    <path
       id="bottomleft1"
       style="fill:currentColor;fill-opacity:1;opacity:0.7"
       class="ColorScheme-Background"
       d="m 174,113.99999 h -24 c 0,13.25484 10.74517,24 24,24 z" />
    <path
       id="path36"
       style="display:inline;opacity:0.5;fill:url(#radialGradient36);fill-opacity:1"
       class="ColorScheme-Background"
       d="m 174,113.99999 h -24 c 0,13.25483 10.74517,24 24,24 z" />
    <path
       id="path23"
       style="fill:currentColor;fill-opacity:1;opacity:0.12"
       class="ColorScheme-Text"
       d="m 174,113.99999 h -24 c 0,13.25484 10.74517,24 24,24 z" />
    <path
       id="path9-8"
       style="fill:currentColor;fill-opacity:0.12"
       class="ColorScheme-Text"
       d="m 150,113.99999 c 0,13.25483 10.74518,24 24,24 v -1.02539 c -12.45804,-0.5115 -22.46311,-10.51656 -22.97461,-22.97461 z" />
    <path
       id="bottomleft2"
       style="display:none;opacity:0.05;fill:currentColor"
       class="ColorScheme-Highlight"
       d="m 174,113.99999 h -24 c 0,13.25484 10.74517,24 24,24 z" />
  </g>
  <g
     id="topright">
    <path
       id="topright1"
       style="fill:currentColor;fill-opacity:1;opacity:0.7"
       class="ColorScheme-Background"
       d="m 254,34 h 24 C 278,20.74517 267.25483,10 254,10 Z" />
    <path
       id="path29"
       style="display:inline;opacity:0.5;fill:url(#radialGradient33);fill-opacity:1"
       class="ColorScheme-Background"
       d="m 254,34 h 24 C 278,20.74517 267.25483,10 254,10 Z" />
    <path
       id="path24"
       style="fill:currentColor;fill-opacity:1;opacity:0.12"
       class="ColorScheme-Text"
       d="m 254,34 h 24 C 278,20.74517 267.25483,10 254,10 Z" />
    <path
       id="path1-5"
       style="fill:currentColor;fill-opacity:0.12"
       class="ColorScheme-Text"
       d="m 254,10 v 1.025391 C 266.45804,11.536892 276.46311,21.541963 276.97461,34 H 278 C 278,20.745183 267.25482,10 254,10 Z" />
    <path
       id="topright2"
       style="display:none;opacity:0.05;fill:currentColor"
       class="ColorScheme-Highlight"
       d="m 254,34 h 24 C 278,20.74517 267.25483,10 254,10 Z" />
  </g>
  <g
     id="right">
    <rect
       id="right1"
       style="display:inline;opacity:0.7;fill:currentColor;fill-opacity:1"
       class="ColorScheme-Background"
       width="80"
       height="24"
       x="34"
       y="254"
       transform="matrix(0,1,1,0,0,0)" />
    <rect
       id="rect1"
       style="display:inline;opacity:0.5;fill:url(#linearGradient20)"
       class="ColorScheme-Background"
       width="80"
       height="24"
       x="-114"
       y="-278"
       transform="matrix(0,-1,-1,0,0,0)" />
    <rect
       id="rect24"
       style="display:inline;opacity:0.12;fill:currentColor;fill-opacity:1"
       class="ColorScheme-Text"
       width="80"
       height="24"
       x="34"
       y="254"
       transform="matrix(0,1,1,0,0,0)" />
    <path
       id="rect5-6-7"
       style="fill:currentColor;fill-opacity:0.12"
       class="ColorScheme-Text"
       d="m 277,34 v 80 h 1 V 34 Z" />
    <rect
       id="right2"
       style="display:none;opacity:0.05;fill:currentColor"
       class="ColorScheme-Highlight"
       width="80"
       height="24"
       x="34"
       y="254"
       transform="matrix(0,1,1,0,0,0)" />
  </g>
  <g
     id="bottomright">
    <path
       id="bottomright1"
       style="fill:currentColor;fill-opacity:1;opacity:0.7"
       class="ColorScheme-Background"
       d="m 254,113.99999 h 24 C 278,127.25483 267.25483,138 254,138 Z" />
    <path
       id="path37"
       style="display:inline;opacity:0.5;fill:url(#radialGradient37);fill-opacity:1"
       class="ColorScheme-Background"
       d="m 254,114 v 24 c 13.25483,0 24,-10.74518 24,-24 z" />
    <path
       id="path25"
       style="fill:currentColor;fill-opacity:1;opacity:0.12"
       class="ColorScheme-Text"
       d="m 254,113.99999 h 24 C 278,127.25483 267.25483,138 254,138 Z" />
    <path
       id="path8-4"
       style="fill:currentColor;fill-opacity:0.12"
       class="ColorScheme-Text"
       d="M 276.97461,114 C 276.46311,126.45805 266.45804,136.46311 254,136.97461 V 138 c 13.25482,0 24,-10.74517 24,-24 z" />
    <path
       id="bottomright2"
       style="display:none;opacity:0.05;fill:currentColor"
       class="ColorScheme-Highlight"
       d="m 254,113.99999 h 24 C 278,127.25483 267.25483,138 254,138 Z" />
  </g>
  <g
     id="mask-top"
     transform="translate(-157.99999,-15)">
    <rect
       id="rect17"
       style="color:currentColor;opacity:1;fill-opacity:1;fill:#000000"
       class="ColorScheme-Background"
       width="80"
       height="24"
       x="-131.14023"
       y="10"
       transform="translate(315.14022,15)" />
  </g>
  <g
     id="mask-topleft"
     transform="translate(-4.999999,3)">
    <path
       id="path22"
       style="color:currentColor;opacity:1;fill-opacity:1;fill:#000000"
       class="ColorScheme-Background"
       d="m -131.14023,34 h -24 c 0,-13.25483 10.74517,-24 24,-24 z"
       transform="translate(162.14022,-3)" />
  </g>
  <g
     id="mask-bottom"
     transform="translate(157.14022)">
    <rect
       id="rect25"
       style="color:currentColor;opacity:1;fill-opacity:1;fill:#000000"
       class="ColorScheme-Background"
       width="80"
       height="24"
       x="-131.14023"
       y="-138"
       transform="scale(1,-1)" />
  </g>
  <g
     id="mask-bottomleft"
     transform="translate(157.14022)">
    <path
       id="path26"
       style="color:currentColor;opacity:1;fill-opacity:1;fill:#000000"
       class="ColorScheme-Background"
       d="m -131.14023,114 h -24 c 0,13.25484 10.74517,24 24,24 z" />
  </g>
  <g
     id="mask-left"
     transform="translate(157.14022)">
    <rect
       id="rect26"
       style="color:currentColor;opacity:1;fill-opacity:1;fill:#000000"
       class="ColorScheme-Background"
       width="80"
       height="24"
       x="34"
       y="131.14023"
       transform="rotate(90)" />
  </g>
  <g
     id="mask-center"
     transform="translate(157.14022)">
    <rect
       id="rect16"
       style="color:currentColor;display:inline;opacity:1;fill-opacity:1;fill:#000000"
       class="ColorScheme-Background"
       width="80"
       height="80"
       x="-131.14023"
       y="34" />
  </g>
  <g
     id="mask-topright"
     transform="translate(157.14022)">
    <path
       id="path27"
       style="color:currentColor;opacity:1;fill-opacity:1;fill:#000000"
       class="ColorScheme-Background"
       d="m -51.140228,34 h 24 c 0,-13.25483 -10.74517,-24 -24,-24 z" />
  </g>
  <g
     id="mask-right"
     transform="matrix(-0.99999997,0,0,1,290,-15)">
    <rect
       id="rect27"
       style="color:currentColor;opacity:1;fill-opacity:1;fill:#000000"
       class="ColorScheme-Background"
       width="80"
       height="24"
       x="34"
       y="-51.140228"
       transform="rotate(90,58.92989,73.92989)" />
  </g>
  <g
     id="mask-bottomright"
     transform="translate(157.14022)">
    <path
       id="path28"
       style="color:currentColor;opacity:1;fill-opacity:1;fill:#000000"
       class="ColorScheme-Background"
       d="m -51.140228,114 h 24 c 0,13.25484 -10.74517,24.00001 -24,24.00001 z" />
  </g>
  <rect
     id="shadow-hint-bottom-margin"
     style="fill:#ff0000"
     width="4"
     height="36"
     x="408"
     y="138" />
  <rect
     id="shadow-hint-top-margin"
     style="fill:#ff0000"
     width="4"
     height="10"
     x="408"
     y="0" />
  <rect
     id="shadow-hint-right-margin"
     style="fill:#ff0000"
     width="4"
     height="20"
     x="72"
     y="-494"
     transform="rotate(90)" />
  <rect
     id="shadow-hint-left-margin"
     style="fill:#ff0000"
     width="4"
     height="20"
     x="72"
     y="-346"
     transform="rotate(90)" />
  <rect
     id="shadow-hint-top-inset"
     style="fill:#00ff00"
     width="4"
     height="10"
     x="412"
     y="0" />
  <rect
     id="shadow-hint-bottom-inset"
     style="fill:#00ff00"
     width="4"
     height="36"
     x="412"
     y="138" />
  <rect
     id="shadow-hint-right-inset"
     style="fill:#00ff00"
     width="20"
     height="4"
     x="474"
     y="76" />
  <rect
     id="shadow-hint-left-inset"
     style="fill:#00ff00"
     width="20"
     height="4"
     x="326"
     y="76" />
  <rect
     id="hint-top-margin"
     style="fill:#ff0000;stroke-width:1.04083"
     width="4"
     height="13"
     x="212"
     y="10.5" />
  <rect
     id="hint-bottom-margin"
     style="fill:#ff0000;stroke-width:1.04083"
     width="4"
     height="13"
     x="212"
     y="124.5" />
  <rect
     id="hint-right-margin"
     style="fill:#ff0000;stroke-width:1.08012"
     width="4"
     height="14"
     x="72"
     y="-277.5"
     transform="rotate(90)" />
  <rect
     id="hint-left-margin"
     style="fill:#ff0000;stroke-width:1.08012"
     width="4"
     height="14"
     x="72"
     y="-164.5"
     transform="rotate(90)" />
  <rect
     id="hint-stretch-borders"
     style="fill:#ff2b00;fill-opacity:1"
     width="6"
     height="6"
     x="0"
     y="-6" />
  <rect
     id="hint-tile-center"
     style="fill:#ff6a00;fill-opacity:1"
     width="6"
     height="6"
     x="6"
     y="-6" />
</svg>
