<?xml version="1.0" encoding="UTF-8" standalone="no"?>
<svg
   width="112"
   height="40"
   version="1"
   id="svg48"
   sodipodi:docname="viewitem.svg"
   inkscape:version="1.3 (0e150ed6c4, 2023-07-21)"
   xmlns:inkscape="http://www.inkscape.org/namespaces/inkscape"
   xmlns:sodipodi="http://sodipodi.sourceforge.net/DTD/sodipodi-0.dtd"
   xmlns:xlink="http://www.w3.org/1999/xlink"
   xmlns="http://www.w3.org/2000/svg"
   xmlns:svg="http://www.w3.org/2000/svg">
  <sodipodi:namedview
     id="namedview48"
     pagecolor="#ffffff"
     bordercolor="#000000"
     borderopacity="0.25"
     inkscape:showpageshadow="2"
     inkscape:pageopacity="0.0"
     inkscape:pagecheckerboard="0"
     inkscape:deskcolor="#d1d1d1"
     inkscape:zoom="17.442883"
     inkscape:cx="61.572392"
     inkscape:cy="25.941813"
     inkscape:current-layer="svg48" />
  <defs
     id="nova">
    <linearGradient
       id="linearGradient66"
       inkscape:collect="always">
      <stop
         style="stop-color:#3c5fff;stop-opacity:0;"
         offset="0"
         id="stop65" />
      <stop
         style="stop-color:#ffffff;stop-opacity:0.1;"
         offset="1"
         id="stop66" />
    </linearGradient>
    <linearGradient
       id="linearGradient6"
       inkscape:collect="always">
      <stop
         style="stop-color:#3c5fff;stop-opacity:1;"
         offset="0"
         id="stop6" />
      <stop
         style="stop-color:#3c5fff;stop-opacity:1;"
         offset="1"
         id="stop5" />
    </linearGradient>
    <style
       id="current-color-scheme"
       type="text/css">&#10;   .ColorScheme-Background {color:#181818; } .ColorScheme-ButtonBackground { color:#343434; } .ColorScheme-Highlight { color:#3c5fff; } .ColorScheme-Text { color:#dfdfdf; } .ColorScheme-ViewBackground { color:#242424; } .ColorScheme-NegativeText { color:#f44336; } .ColorScheme-PositiveText { color:#4caf50; } .ColorScheme-NeutralText { color:#ff9800; }&#10;  </style>
    <linearGradient
       inkscape:collect="always"
       xlink:href="#linearGradient6"
       id="linearGradient5"
       x1="79"
       y1="753"
       x2="83"
       y2="753"
       gradientUnits="userSpaceOnUse" />
    <linearGradient
       inkscape:collect="always"
       xlink:href="#linearGradient6"
       id="linearGradient8"
       x1="73"
       y1="747"
       x2="77"
       y2="747"
       gradientUnits="userSpaceOnUse"
       gradientTransform="rotate(-90,75,747)" />
    <radialGradient
       inkscape:collect="always"
       xlink:href="#linearGradient6"
       id="radialGradient16"
       cx="79.001945"
       cy="749.00061"
       fx="79.001945"
       fy="749.00061"
       r="1.9501956"
       gradientTransform="matrix(1.9953324,0,0,1.9932821,-78.633195,-743.96871)"
       gradientUnits="userSpaceOnUse" />
    <radialGradient
       inkscape:collect="always"
       xlink:href="#linearGradient6"
       id="radialGradient49"
       gradientUnits="userSpaceOnUse"
       gradientTransform="matrix(0,-1.9953324,1.9932821,0,-1421.9687,906.6332)"
       cx="79.001945"
       cy="749.00061"
       fx="79.001945"
       fy="749.00061"
       r="1.9501956" />
    <radialGradient
       inkscape:collect="always"
       xlink:href="#linearGradient6"
       id="radialGradient50"
       gradientUnits="userSpaceOnUse"
       gradientTransform="matrix(-1.9953324,0,0,-1.9932821,228.6332,2249.9687)"
       cx="79.001945"
       cy="749.00061"
       fx="79.001945"
       fy="749.00061"
       r="1.9501956" />
    <radialGradient
       inkscape:collect="always"
       xlink:href="#linearGradient6"
       id="radialGradient51"
       gradientUnits="userSpaceOnUse"
       gradientTransform="matrix(0,1.9953324,-1.9932821,0,1571.9687,599.3668)"
       cx="79.001945"
       cy="749.00061"
       fx="79.001945"
       fy="749.00061"
       r="1.9501956" />
    <radialGradient
       inkscape:collect="always"
       xlink:href="#linearGradient6"
       id="radialGradient29"
       gradientUnits="userSpaceOnUse"
       gradientTransform="matrix(1.9953324,0,0,1.9932821,-78.633195,-743.96871)"
       cx="79.001945"
       cy="749.00061"
       fx="79.001945"
       fy="749.00061"
       r="1.9501956" />
    <linearGradient
       inkscape:collect="always"
       xlink:href="#linearGradient6"
       id="linearGradient29"
       gradientUnits="userSpaceOnUse"
       gradientTransform="rotate(-90,75,747)"
       x1="73"
       y1="747"
       x2="77"
       y2="747" />
    <radialGradient
       inkscape:collect="always"
       xlink:href="#linearGradient6"
       id="radialGradient30"
       gradientUnits="userSpaceOnUse"
       gradientTransform="matrix(0,-1.9953324,1.9932821,0,-1421.9687,906.6332)"
       cx="79.001945"
       cy="749.00061"
       fx="79.001945"
       fy="749.00061"
       r="1.9501956" />
    <linearGradient
       inkscape:collect="always"
       xlink:href="#linearGradient6"
       id="linearGradient31"
       gradientUnits="userSpaceOnUse"
       x1="79"
       y1="753"
       x2="83"
       y2="753" />
    <radialGradient
       inkscape:collect="always"
       xlink:href="#linearGradient6"
       id="radialGradient31"
       gradientUnits="userSpaceOnUse"
       gradientTransform="matrix(0,1.9953324,-1.9932821,0,1571.9687,599.3668)"
       cx="79.001945"
       cy="749.00061"
       fx="79.001945"
       fy="749.00061"
       r="1.9501956" />
    <radialGradient
       inkscape:collect="always"
       xlink:href="#linearGradient6"
       id="radialGradient32"
       gradientUnits="userSpaceOnUse"
       gradientTransform="matrix(-1.9953324,0,0,-1.9932821,228.6332,2249.9687)"
       cx="79.001945"
       cy="749.00061"
       fx="79.001945"
       fy="749.00061"
       r="1.9501956" />
    <linearGradient
       inkscape:collect="always"
       xlink:href="#linearGradient6"
       id="linearGradient4"
       x1="73.000008"
       y1="759"
       x2="76.999992"
       y2="759"
       gradientUnits="userSpaceOnUse"
       gradientTransform="rotate(90,75,759)" />
    <linearGradient
       inkscape:collect="always"
       xlink:href="#linearGradient66"
       id="linearGradient14"
       x1="67.000008"
       y1="753"
       x2="70.999992"
       y2="753"
       gradientUnits="userSpaceOnUse"
       gradientTransform="rotate(180,69,753)" />
    <linearGradient
       inkscape:collect="always"
       xlink:href="#linearGradient6"
       id="linearGradient16"
       x1="73.000008"
       y1="759"
       x2="76.999992"
       y2="759"
       gradientUnits="userSpaceOnUse"
       gradientTransform="rotate(90,75,759)" />
    <linearGradient
       inkscape:collect="always"
       xlink:href="#linearGradient6"
       id="linearGradient18"
       x1="67.000008"
       y1="753"
       x2="70.999992"
       y2="753"
       gradientUnits="userSpaceOnUse"
       gradientTransform="rotate(180,69,753)" />
    <linearGradient
       inkscape:collect="always"
       xlink:href="#linearGradient6"
       id="linearGradient67"
       gradientUnits="userSpaceOnUse"
       gradientTransform="rotate(180,69,753)"
       x1="67.000008"
       y1="753"
       x2="70.999992"
       y2="753" />
    <radialGradient
       inkscape:collect="always"
       xlink:href="#linearGradient66"
       id="radialGradient67"
       gradientUnits="userSpaceOnUse"
       gradientTransform="matrix(0,-1.9953324,1.9932821,0,-1421.9687,906.6332)"
       cx="79.001945"
       cy="749.00061"
       fx="79.001945"
       fy="749.00061"
       r="1.9501956" />
    <linearGradient
       inkscape:collect="always"
       xlink:href="#linearGradient66"
       id="linearGradient72"
       gradientUnits="userSpaceOnUse"
       gradientTransform="rotate(-90,75,747)"
       x1="73"
       y1="747"
       x2="77"
       y2="747" />
    <linearGradient
       inkscape:collect="always"
       xlink:href="#linearGradient66"
       id="linearGradient73"
       gradientUnits="userSpaceOnUse"
       x1="79"
       y1="753"
       x2="83"
       y2="753" />
    <linearGradient
       inkscape:collect="always"
       xlink:href="#linearGradient66"
       id="linearGradient74"
       gradientUnits="userSpaceOnUse"
       gradientTransform="rotate(90,75,759)"
       x1="73.000008"
       y1="759"
       x2="76.999992"
       y2="759" />
    <radialGradient
       inkscape:collect="always"
       xlink:href="#linearGradient66"
       id="radialGradient74"
       gradientUnits="userSpaceOnUse"
       gradientTransform="matrix(1.9953324,0,0,1.9932821,-78.633195,-743.96871)"
       cx="79.001945"
       cy="749.00061"
       fx="79.001945"
       fy="749.00061"
       r="1.9501956" />
    <radialGradient
       inkscape:collect="always"
       xlink:href="#linearGradient66"
       id="radialGradient75"
       gradientUnits="userSpaceOnUse"
       gradientTransform="matrix(0,1.9953324,-1.9932821,0,1571.9687,599.3668)"
       cx="79.001945"
       cy="749.00061"
       fx="79.001945"
       fy="749.00061"
       r="1.9501956" />
    <radialGradient
       inkscape:collect="always"
       xlink:href="#linearGradient66"
       id="radialGradient76"
       gradientUnits="userSpaceOnUse"
       gradientTransform="matrix(-1.9953324,0,0,-1.9932821,228.6332,2249.9687)"
       cx="79.001945"
       cy="749.00061"
       fx="79.001945"
       fy="749.00061"
       r="1.9501956" />
    <linearGradient
       inkscape:collect="always"
       xlink:href="#linearGradient66"
       id="linearGradient76"
       gradientUnits="userSpaceOnUse"
       x1="79"
       y1="753"
       x2="83"
       y2="753" />
    <linearGradient
       inkscape:collect="always"
       xlink:href="#linearGradient66"
       id="linearGradient79"
       gradientUnits="userSpaceOnUse"
       gradientTransform="rotate(180,69,753)"
       x1="67.000008"
       y1="753"
       x2="70.999992"
       y2="753" />
    <linearGradient
       inkscape:collect="always"
       xlink:href="#linearGradient66"
       id="linearGradient80"
       gradientUnits="userSpaceOnUse"
       gradientTransform="rotate(90,75,759)"
       x1="73.000008"
       y1="759"
       x2="76.999992"
       y2="759" />
    <linearGradient
       inkscape:collect="always"
       xlink:href="#linearGradient66"
       id="linearGradient81"
       gradientUnits="userSpaceOnUse"
       gradientTransform="rotate(-90,75,747)"
       x1="73"
       y1="747"
       x2="77"
       y2="747" />
    <radialGradient
       inkscape:collect="always"
       xlink:href="#linearGradient66"
       id="radialGradient81"
       gradientUnits="userSpaceOnUse"
       gradientTransform="matrix(0,1.9953324,-1.9932821,0,1571.9687,599.3668)"
       cx="79.001945"
       cy="749.00061"
       fx="79.001945"
       fy="749.00061"
       r="1.9501956" />
    <radialGradient
       inkscape:collect="always"
       xlink:href="#linearGradient66"
       id="radialGradient82"
       gradientUnits="userSpaceOnUse"
       gradientTransform="matrix(1.9953324,0,0,1.9932821,-78.633195,-743.96871)"
       cx="79.001945"
       cy="749.00061"
       fx="79.001945"
       fy="749.00061"
       r="1.9501956" />
    <radialGradient
       inkscape:collect="always"
       xlink:href="#linearGradient66"
       id="radialGradient84"
       gradientUnits="userSpaceOnUse"
       gradientTransform="matrix(-1.9953324,0,0,-1.9932821,228.6332,2249.9687)"
       cx="79.001945"
       cy="749.00061"
       fx="79.001945"
       fy="749.00061"
       r="1.9501956" />
    <radialGradient
       inkscape:collect="always"
       xlink:href="#linearGradient66"
       id="radialGradient85"
       gradientUnits="userSpaceOnUse"
       gradientTransform="matrix(0,-1.9953324,1.9932821,0,-1421.9687,906.6332)"
       cx="79.001945"
       cy="749.00061"
       fx="79.001945"
       fy="749.00061"
       r="1.9501956" />
  </defs>
  <rect
     id="hint-stretch-borders"
     style="opacity:1;fill:#ff0000"
     width="4"
     height="4"
     x="0"
     y="0" />
  <g
     id="selected-top"
     transform="matrix(2,0,0,2,-132,-1484)">
    <path
       style="opacity:0.001"
       transform="translate(18)"
       d="m 53,744 v 1 h 8 v -1 z"
       id="path1" />
    <path
       id="path2"
       style="opacity:0.9;fill:url(#linearGradient8)"
       class="ColorScheme-Highlight"
       d="m 72,745 c -0.3428,0 -0.67694,0.0345 -1,0.0996 V 749 h 8 v -3.90039 C 78.67694,745.03451 78.3428,745 78,745 Z" />
    <path
       id="path77"
       style="opacity:0.9;fill:url(#linearGradient81)"
       class="ColorScheme-Highlight"
       d="m 72,745 c -0.3428,0 -0.67694,0.0345 -1,0.0996 V 749 h 8 v -3.90039 C 78.67694,745.03451 78.3428,745 78,745 Z" />
  </g>
  <g
     id="selected-bottom"
     transform="matrix(2,0,0,2,-132,-1484)">
    <path
       style="opacity:0.001"
       transform="translate(18)"
       d="m 53,761 v 1 h 8 v -1 z"
       id="path3" />
    <path
       id="path4"
       style="opacity:0.9;fill:url(#linearGradient16)"
       class="ColorScheme-Highlight"
       d="m 71,757 v 3.90039 C 71.32307,760.9655 71.6572,761 72,761 h 6 c 0.34281,0 0.67694,-0.0345 1,-0.0996 V 757 Z" />
    <path
       id="path78"
       style="opacity:0.9;fill:url(#linearGradient80)"
       class="ColorScheme-Highlight"
       d="m 71,757 v 3.90039 C 71.32307,760.9655 71.6572,761 72,761 h 6 c 0.34281,0 0.67694,-0.0345 1,-0.0996 V 757 Z" />
  </g>
  <path
     id="selected-center"
     style="opacity:0.9;fill:#3c5fff;fill-opacity:1"
     class="ColorScheme-Highlight"
     d="m 10.000005,14.000014 h 16 v 16 h -16 z" />
  <g
     id="selected-right"
     transform="matrix(2,0,0,2,-132,-1484)">
    <path
       style="opacity:0.001"
       transform="translate(18)"
       d="m 65,749 v 8 h 1 v -8 z"
       id="path5" />
    <path
       id="path6"
       style="opacity:0.9;fill:url(#linearGradient5)"
       class="ColorScheme-Highlight"
       d="M 79 749 L 79 757 L 82.900391 757 C 82.965494 756.67694 83 756.3428 83 756 L 83 750 C 83 749.6572 82.965494 749.32306 82.900391 749 L 79 749 z " />
    <path
       id="path76"
       style="opacity:0.9;fill:url(#linearGradient76)"
       class="ColorScheme-Highlight"
       d="M 79 749 L 79 757 L 82.900391 757 C 82.965494 756.67694 83 756.3428 83 756 L 83 750 C 83 749.6572 82.965494 749.32306 82.900391 749 L 79 749 z " />
  </g>
  <g
     id="selected-left"
     transform="matrix(2,0,0,2,-132,-1484)">
    <path
       style="opacity:0.001"
       transform="translate(18)"
       d="m 48,749 v 8 h 1 v -8 z"
       id="path7" />
    <path
       id="path8"
       style="opacity:0.9;fill:url(#linearGradient18)"
       class="ColorScheme-Highlight"
       d="M 67.09961,749 C 67.0345,749.32307 67,749.6572 67,750 v 6 c 0,0.34281 0.0345,0.67694 0.0996,1 H 71 v -8 z" />
    <path
       id="path79"
       style="opacity:0.9;fill:url(#linearGradient79)"
       class="ColorScheme-Highlight"
       d="M 67.09961,749 C 67.0345,749.32307 67,749.6572 67,750 v 6 c 0,0.34281 0.0345,0.67694 0.0996,1 H 71 v -8 z" />
  </g>
  <g
     id="selected-topleft"
     transform="matrix(2,0,0,2,-132,-1484)">
    <path
       style="opacity:0.001"
       transform="translate(18)"
       d="m 48,744 v 5 h 1 c 0,0 0,-4 4,-4 v -1 z"
       id="path9" />
    <path
       id="path49"
       style="opacity:0.9;fill:url(#radialGradient49)"
       class="ColorScheme-Highlight"
       d="M 67.099609,749 H 71 v -3.90039 c -1.96434,0.39586 -3.504532,1.93605 -3.900391,3.90039 z" />
    <path
       id="path83"
       style="opacity:0.9;fill:url(#radialGradient85)"
       class="ColorScheme-Highlight"
       d="M 67.099609,749 H 71 v -3.90039 c -1.96434,0.39586 -3.504532,1.93605 -3.900391,3.90039 z" />
  </g>
  <g
     id="selected-topright"
     transform="matrix(2,0,0,2,-132,-1484)">
    <path
       style="opacity:0.001"
       transform="translate(18)"
       d="m 61,744 v 1 c 4,0 4,4 4,4 h 1 v -5 z"
       id="path11" />
    <path
       id="path12"
       style="opacity:0.9;fill:url(#radialGradient16)"
       class="ColorScheme-Highlight"
       d="M 79 745.09961 L 79 749 L 82.900391 749 C 82.504532 747.03566 80.964342 745.49547 79 745.09961 z " />
    <path
       id="path82"
       style="opacity:0.9;fill:url(#radialGradient82)"
       class="ColorScheme-Highlight"
       d="M 79 745.09961 L 79 749 L 82.900391 749 C 82.504532 747.03566 80.964342 745.49547 79 745.09961 z " />
  </g>
  <g
     id="selected-bottomleft"
     transform="matrix(2,0,0,2,-132,-1484)">
    <path
       style="opacity:0.001"
       transform="translate(18)"
       d="m 48,757 v 5 h 5 v -1 c 0,0 -4,0 -4,-4 z"
       id="path13" />
    <path
       id="path50"
       style="opacity:0.9;fill:url(#radialGradient50)"
       class="ColorScheme-Highlight"
       d="M 71,760.90039 V 757 h -3.900391 c 0.39586,1.96434 1.93605,3.50453 3.900391,3.90039 z" />
    <path
       id="path84"
       style="opacity:0.9;fill:url(#radialGradient84)"
       class="ColorScheme-Highlight"
       d="M 71,760.90039 V 757 h -3.900391 c 0.39586,1.96434 1.93605,3.50453 3.900391,3.90039 z" />
  </g>
  <g
     id="selected-bottomright"
     transform="matrix(2,0,0,2,-132,-1484)">
    <path
       style="opacity:0.001"
       transform="translate(18)"
       d="m 65,757 c 0,0 0.01477,4 -4,4 v 1 h 5 v -5 z"
       id="path15" />
    <path
       id="path51"
       style="opacity:0.9;fill:url(#radialGradient51)"
       class="ColorScheme-Highlight"
       d="M 82.900391,757 H 79 v 3.90039 c 1.96434,-0.39586 3.504531,-1.93605 3.900391,-3.90039 z" />
    <path
       id="path81"
       style="opacity:0.9;fill:url(#radialGradient81)"
       class="ColorScheme-Highlight"
       d="M 82.900391,757 H 79 v 3.90039 c 1.96434,-0.39586 3.504531,-1.93605 3.900391,-3.90039 z" />
  </g>
  <g
     id="hover-top"
     transform="matrix(2,0,0,2,-92,-1484)">
    <path
       style="opacity:0.00100002"
       transform="translate(18)"
       d="m 53,744 v 1 h 8 v -1 z"
       id="path10" />
    <path
       id="path14"
       style="opacity:0.9;fill:url(#linearGradient29)"
       class="ColorScheme-Highlight"
       d="m 72,745 c -0.3428,0 -0.67694,0.0345 -1,0.0996 V 749 h 8 v -3.90039 C 78.67694,745.03451 78.3428,745 78,745 Z" />
    <path
       id="path56"
       style="opacity:0.9;fill:url(#linearGradient72)"
       class="ColorScheme-Highlight"
       d="m 72,745 c -0.3428,0 -0.67694,0.0345 -1,0.0996 V 749 h 8 v -3.90039 C 78.67694,745.03451 78.3428,745 78,745 Z" />
    <path
       id="path85"
       style="opacity:1;fill:#ffffff;fill-opacity:0.1"
       class="ColorScheme-Highlight"
       d="M 72 745 C 71.6572 745 71.32306 745.03451 71 745.09961 L 71 745.34961 C 71.32306 745.28451 71.6572 745.25 72 745.25 L 78 745.25 C 78.3428 745.25 78.67694 745.28451 79 745.34961 L 79 745.09961 C 78.67694 745.03451 78.3428 745 78 745 L 72 745 z " />
  </g>
  <g
     id="hover-bottom"
     transform="matrix(2,0,0,2,-92,-1484)">
    <path
       style="opacity:0.00100002"
       transform="translate(18)"
       d="m 53,761 v 1 h 8 v -1 z"
       id="path16" />
    <path
       id="path17"
       style="opacity:0.9;fill:url(#linearGradient4)"
       class="ColorScheme-Highlight"
       d="m 71,757 v 3.90039 C 71.32307,760.9655 71.6572,761 72,761 h 6 c 0.34281,0 0.67694,-0.0345 1,-0.0996 V 757 Z" />
    <path
       id="path57"
       style="opacity:0.9;fill:url(#linearGradient74)"
       class="ColorScheme-Highlight"
       d="m 71,757 v 3.90039 C 71.32307,760.9655 71.6572,761 72,761 h 6 c 0.34281,0 0.67694,-0.0345 1,-0.0996 V 757 Z" />
    <path
       id="path90"
       style="opacity:1;fill:#ffffff;fill-opacity:0.1"
       class="ColorScheme-Highlight"
       d="M 71 760.65039 L 71 760.90039 C 71.32307 760.9655 71.6572 761 72 761 L 78 761 C 78.34281 761 78.67694 760.96549 79 760.90039 L 79 760.65039 C 78.67694 760.71549 78.34281 760.75 78 760.75 L 72 760.75 C 71.6572 760.75 71.32307 760.71549 71 760.65039 z " />
  </g>
  <path
     id="hover-center"
     style="opacity:0.9;fill:#3c5fff;fill-opacity:0.99539858"
     class="ColorScheme-Highlight"
     d="m 50.000005,14.000014 h 16 v 16 h -16 z" />
  <g
     id="hover-right"
     transform="matrix(2,0,0,2,-92,-1484)">
    <path
       style="opacity:0.00100002"
       transform="translate(18)"
       d="m 65,749 v 8 h 1 v -8 z"
       id="path18" />
    <path
       id="path19"
       style="opacity:0.9;fill:url(#linearGradient31)"
       class="ColorScheme-Highlight"
       d="m 79,749 v 8 h 3.900391 C 82.965494,756.67694 83,756.3428 83,756 v -6 c 0,-0.3428 -0.03451,-0.67694 -0.09961,-1 z" />
    <path
       id="path58"
       style="opacity:0.9;fill:url(#linearGradient73)"
       class="ColorScheme-Highlight"
       d="m 79,749 v 8 h 3.900391 C 82.965494,756.67694 83,756.3428 83,756 v -6 c 0,-0.3428 -0.03451,-0.67694 -0.09961,-1 z" />
    <path
       id="path91"
       style="opacity:1;fill:#ffffff;fill-opacity:0.1"
       class="ColorScheme-Highlight"
       d="M 82.650391 749 C 82.715491 749.32306 82.75 749.6572 82.75 750 L 82.75 756 C 82.75 756.3428 82.715491 756.67694 82.650391 757 L 82.900391 757 C 82.965494 756.67694 83 756.3428 83 756 L 83 750 C 83 749.6572 82.965491 749.32306 82.900391 749 L 82.650391 749 z " />
  </g>
  <g
     id="hover-left"
     transform="matrix(2,0,0,2,-92,-1484)">
    <path
       style="opacity:0.00100002"
       transform="translate(18)"
       d="m 48,749 v 8 h 1 v -8 z"
       id="path20" />
    <path
       id="path21"
       style="opacity:0.9;fill:url(#linearGradient67)"
       class="ColorScheme-Highlight"
       d="M 67.09961,749 C 67.0345,749.32307 67,749.6572 67,750 v 6 c 0,0.34281 0.0345,0.67694 0.0996,1 H 71 v -8 z" />
    <path
       id="path59"
       style="display:inline;opacity:0.9;fill:url(#linearGradient14)"
       class="ColorScheme-Highlight"
       d="M 67.09961,749 C 67.0345,749.32307 67,749.6572 67,750 v 6 c 0,0.34281 0.0345,0.67694 0.0996,1 H 71 v -8 z" />
    <path
       id="path88"
       style="opacity:1;fill:#ffffff;fill-opacity:0.1"
       class="ColorScheme-Highlight"
       d="M 67.099609 749 C 67.034499 749.32307 67 749.6572 67 750 L 67 756 C 67 756.34281 67.034509 756.67694 67.099609 757 L 67.349609 757 C 67.284509 756.67694 67.25 756.34281 67.25 756 L 67.25 750 C 67.25 749.6572 67.284499 749.32307 67.349609 749 L 67.099609 749 z " />
  </g>
  <g
     id="hover-topleft"
     transform="matrix(2,0,0,2,-92,-1484)">
    <path
       style="opacity:0.00100002"
       transform="translate(18)"
       d="m 48,744 v 5 h 1 c 0,0 0,-4 4,-4 v -1 z"
       id="path22" />
    <path
       id="path23"
       style="opacity:0.9;fill:url(#radialGradient30)"
       class="ColorScheme-Highlight"
       d="M 67.099609,749 H 71 v -3.90039 c -1.96434,0.39586 -3.504532,1.93605 -3.900391,3.90039 z" />
    <path
       id="path60"
       style="opacity:0.9;fill:url(#radialGradient67)"
       class="ColorScheme-Highlight"
       d="M 67.099609,749 H 71 v -3.90039 c -1.96434,0.39586 -3.504532,1.93605 -3.900391,3.90039 z" />
    <path
       id="path86"
       style="opacity:1;fill:#ffffff;fill-opacity:0.1"
       class="ColorScheme-Highlight"
       d="M 71 745.09961 C 69.035664 745.49547 67.495468 747.03566 67.099609 749 L 67.34375 749 C 67.784574 747.19745 69.197456 745.78457 71 745.34375 L 71 745.09961 z " />
  </g>
  <g
     id="hover-topright"
     transform="matrix(2,0,0,2,-92,-1484)">
    <path
       style="opacity:0.00100002"
       transform="translate(18)"
       d="m 61,744 v 1 c 4,0 4,4 4,4 h 1 v -5 z"
       id="path24" />
    <path
       id="path25"
       style="opacity:0.9;fill:url(#radialGradient29)"
       class="ColorScheme-Highlight"
       d="M 79,745.09961 V 749 h 3.900391 C 82.504532,747.03566 80.964342,745.49547 79,745.09961 Z" />
    <path
       id="path61"
       style="opacity:0.9;fill:url(#radialGradient74)"
       class="ColorScheme-Highlight"
       d="M 79,745.09961 V 749 h 3.900391 C 82.504532,747.03566 80.964342,745.49547 79,745.09961 Z" />
    <path
       id="path92"
       style="opacity:1;fill:#ffffff;fill-opacity:0.1"
       class="ColorScheme-Highlight"
       d="M 79 745.09961 L 79 745.3457 C 80.801728 745.78674 82.214227 747.19832 82.655273 749 L 82.900391 749 C 82.504532 747.03566 80.96434 745.49547 79 745.09961 z " />
  </g>
  <g
     id="hover-bottomleft"
     transform="matrix(2,0,0,2,-92,-1484)">
    <path
       style="opacity:0.00100002"
       transform="translate(18)"
       d="m 48,757 v 5 h 5 v -1 c 0,0 -4,0 -4,-4 z"
       id="path26" />
    <path
       id="path27"
       style="opacity:0.9;fill:url(#radialGradient32)"
       class="ColorScheme-Highlight"
       d="M 71,760.90039 V 757 h -3.900391 c 0.39586,1.96434 1.93605,3.50453 3.900391,3.90039 z" />
    <path
       id="path62"
       style="opacity:0.9;fill:url(#radialGradient76)"
       class="ColorScheme-Highlight"
       d="M 71,760.90039 V 757 h -3.900391 c 0.39586,1.96434 1.93605,3.50453 3.900391,3.90039 z" />
    <path
       id="path93"
       style="opacity:1;fill:#ffffff;fill-opacity:0.1"
       class="ColorScheme-Highlight"
       d="M 67.099609 757 C 67.495469 758.96434 69.035661 760.50453 71 760.90039 L 71 760.65527 C 69.198273 760.21424 67.785774 758.80168 67.344727 757 L 67.099609 757 z " />
  </g>
  <g
     id="hover-bottomright"
     transform="matrix(2,0,0,2,-92,-1484)">
    <path
       style="opacity:0.00100002"
       transform="translate(18)"
       d="m 65,757 c 0,0 0.01477,4 -4,4 v 1 h 5 v -5 z"
       id="path28" />
    <path
       id="path29"
       style="opacity:0.9;fill:url(#radialGradient31)"
       class="ColorScheme-Highlight"
       d="M 82.900391,757 H 79 v 3.90039 c 1.96434,-0.39586 3.504531,-1.93605 3.900391,-3.90039 z" />
    <path
       id="path63"
       style="opacity:0.9;fill:url(#radialGradient75)"
       class="ColorScheme-Highlight"
       d="M 82.900391,757 H 79 v 3.90039 c 1.96434,-0.39586 3.504531,-1.93605 3.900391,-3.90039 z" />
    <path
       id="path94"
       style="opacity:1;fill:#ffffff;fill-opacity:0.1"
       class="ColorScheme-Highlight"
       d="M 82.655273 757 C 82.214238 758.80168 80.801676 760.21424 79 760.65527 L 79 760.90039 C 80.964338 760.50453 82.504531 758.96434 82.900391 757 L 82.655273 757 z " />
  </g>
  <g
     id="selected_hover-top"
     transform="matrix(2,0,0,2,-56,-1484)">
    <path
       style="opacity:0.001"
       transform="translate(18)"
       d="m 53,744 v 1 h 8 v -1 z"
       id="path33" />
    <path
       id="path34"
       style="opacity:0.90;fill:currentColor"
       class="ColorScheme-Highlight"
       d="M 72 745 C 71.657198 745 71.323058 745.03451 71 745.09961 L 71 749 L 79 749 L 79 745.09961 C 78.676942 745.03451 78.342802 745 78 745 L 72 745 z " />
  </g>
  <g
     id="selected_hover-bottom"
     transform="matrix(2,0,0,2,-56,-1484)">
    <path
       style="opacity:0.001"
       transform="translate(18)"
       d="m 53,761 v 1 h 8 v -1 z"
       id="path35" />
    <path
       id="path36"
       style="opacity:0.90;fill:currentColor"
       class="ColorScheme-Highlight"
       d="M 71 757 L 71 760.90039 C 71.323058 760.96549 71.657198 761 72 761 L 78 761 C 78.342802 761 78.676942 760.96549 79 760.90039 L 79 757 L 71 757 z " />
  </g>
  <path
     id="selected_hover-center"
     style="opacity:0.90;fill:currentColor"
     class="ColorScheme-Highlight"
     d="M 86.000003,14.000027 H 102 v 16 H 86.000003 Z" />
  <g
     id="selected_hover-right"
     transform="matrix(2,0,0,2,-56,-1484)">
    <path
       style="opacity:0.001"
       transform="translate(18)"
       d="m 65,749 v 8 h 1 v -8 z"
       id="path37" />
    <path
       id="path38"
       style="opacity:0.90;fill:currentColor"
       class="ColorScheme-Highlight"
       d="M 79 749 L 79 757 L 82.900391 757 C 82.965494 756.67694 83 756.3428 83 756 L 83 750 C 83 749.6572 82.965494 749.32306 82.900391 749 L 79 749 z " />
  </g>
  <g
     id="selected_hover-left"
     transform="matrix(2,0,0,2,-56,-1484)">
    <path
       style="opacity:0.001"
       transform="translate(18)"
       d="m 48,749 v 8 h 1 v -8 z"
       id="path39" />
    <path
       id="path40"
       style="opacity:0.90;fill:currentColor"
       class="ColorScheme-Highlight"
       d="M 67.099609 749 C 67.034506 749.32306 67 749.6572 67 750 L 67 756 C 67 756.3428 67.034506 756.67694 67.099609 757 L 71 757 L 71 749 L 67.099609 749 z " />
  </g>
  <g
     id="selected_hover-topleft"
     transform="matrix(2,0,0,2,-56,-1484)">
    <path
       style="opacity:0.001"
       transform="translate(18)"
       d="m 48,744 v 5 h 1 c 0,0 0,-4 4,-4 v -1 z"
       id="path41" />
    <path
       id="path42"
       style="opacity:0.90;fill:currentColor"
       class="ColorScheme-Highlight"
       d="M 71 745.09961 C 69.035658 745.49547 67.495468 747.03566 67.099609 749 L 71 749 L 71 745.09961 z " />
  </g>
  <g
     id="selected_hover-topright"
     transform="matrix(2,0,0,2,-56,-1484)">
    <path
       style="opacity:0.001"
       transform="translate(18)"
       d="m 61,744 v 1 c 4,0 4,4 4,4 h 1 v -5 z"
       id="path43" />
    <path
       id="path44"
       style="opacity:0.90;fill:currentColor"
       class="ColorScheme-Highlight"
       d="M 79 745.09961 L 79 749 L 82.900391 749 C 82.504532 747.03566 80.964342 745.49547 79 745.09961 z " />
  </g>
  <g
     id="selected_hover-bottomleft"
     transform="matrix(2,0,0,2,-56,-1484)">
    <path
       style="opacity:0.001"
       transform="translate(18)"
       d="m 48,757 v 5 h 5 v -1 c 0,0 -4,0 -4,-4 z"
       id="path45" />
    <path
       id="path46"
       style="opacity:0.90;fill:currentColor"
       class="ColorScheme-Highlight"
       d="M 67.099609 757 C 67.495468 758.96434 69.035658 760.50453 71 760.90039 L 71 757 L 67.099609 757 z " />
  </g>
  <g
     id="selected_hover-bottomright"
     transform="matrix(2,0,0,2,-56,-1484)">
    <path
       style="opacity:0.001"
       transform="translate(18)"
       d="m 65,757 c 0,0 0.01477,4 -4,4 v 1 h 5 v -5 z"
       id="path47" />
    <path
       id="path48"
       style="opacity:0.90;fill:currentColor"
       class="ColorScheme-Highlight"
       d="M 79 757 L 79 760.90039 C 80.964342 760.50453 82.504532 758.96434 82.900391 757 L 79 757 z " />
  </g>
  <rect
     style="opacity:0.659576;fill:#dfdfdf;stroke-width:0.745687;-inkscape-stroke:none"
     id="rect48"
     width="32"
     height="32"
     x="-0.1872576"
     y="56.59446"
     rx="10" />
</svg>
