<?xml version="1.0" encoding="UTF-8" standalone="no"?>
<svg
   version="1.1"
   id="svg2"
   viewBox="0 0 32 32"
   inkscape:version="1.1.1 (3bf5ae0d25, 2021-09-20, custom)"
   sodipodi:docname="akonadi.svgz"
   width="32"
   height="32"
   xmlns:inkscape="http://www.inkscape.org/namespaces/inkscape"
   xmlns:sodipodi="http://sodipodi.sourceforge.net/DTD/sodipodi-0.dtd"
   xmlns="http://www.w3.org/2000/svg"
   xmlns:svg="http://www.w3.org/2000/svg"
   xmlns:rdf="http://www.w3.org/1999/02/22-rdf-syntax-ns#"
   xmlns:cc="http://creativecommons.org/ns#"
   xmlns:dc="http://purl.org/dc/elements/1.1/">
  <sodipodi:namedview
     pagecolor="#c8c8c8"
     bordercolor="#666666"
     borderopacity="1"
     objecttolerance="10"
     gridtolerance="10"
     guidetolerance="10"
     inkscape:pageopacity="0"
     inkscape:pageshadow="2"
     inkscape:window-width="1920"
     inkscape:window-height="1005"
     id="namedview12"
     showgrid="true"
     inkscape:zoom="10.429825"
     inkscape:cx="-17.21026"
     inkscape:cy="19.846929"
     inkscape:window-x="0"
     inkscape:window-y="0"
     inkscape:window-maximized="1"
     inkscape:current-layer="svg2"
     inkscape:pagecheckerboard="0"
     inkscape:snap-bbox="true"
     inkscape:bbox-nodes="true"
     inkscape:snap-nodes="true">
    <inkscape:grid
       type="xygrid"
       id="grid840" />
  </sodipodi:namedview>
  <metadata
     id="metadata18">
    <rdf:RDF>
      <cc:Work
         rdf:about="">
        <dc:format>image/svg+xml</dc:format>
        <dc:type
           rdf:resource="http://purl.org/dc/dcmitype/StillImage" />
        <dc:title />
      </cc:Work>
    </rdf:RDF>
  </metadata>
  <defs
     id="defs3051">
    <style
       id="current-color-scheme"
       type="text/css">
      .ColorScheme-Text {
        color:#31363b;
      }
      </style>
  </defs>
  <g
     id="22-22-akonadi"
     transform="translate(-25)">
    <path
       id="path7"
       style="color:#31363b;fill:#fbfbfb;fill-opacity:1;stroke:none"
       class="ColorScheme-Text"
       d="M -14 13 C -18.418292 13 -22.000019 13.895432 -22 15 L -22 18.994141 L -22 19 L -22 22.994141 L -22 23 L -22 27 C -22.000019 28.104568 -18.418292 29 -14 29 C -9.581708 29 -5.999981 28.104568 -6 27 L -6 23 L -6 19 L -6 15 C -5.999981 13.895432 -9.581708 13 -14 13 z M -14 14 C -10.134007 14 -7 14.447715 -7 15 C -7 15.552285 -10.134007 16 -14 16 C -17.865993 16 -21 15.552285 -21 15 C -21 14.447715 -17.865993 14 -14 14 z M -7 15.962891 L -7 18 L -7 18.033203 L -7 19 L -7 19.962891 L -7 22.033203 L -7 23 L -7 23.962891 L -7 26 L -7 27 C -7 27.552285 -10.134007 28 -14 28 C -17.865993 28 -21 27.552285 -21 27 L -21 26 L -21 23.966797 L -21 23 L -21 22.037109 L -21 19.966797 L -21 19 L -21 18.037109 L -21 18 L -21 15.966797 C -19.592571 16.603987 -16.911544 16.999708 -14 17 C -11.08515 16.9989 -8.403333 16.601589 -7 15.962891 z "
       transform="translate(25)" />
    <path
       id="path9"
       d="M 0,10 V 32 H 22 V 10 Z"
       style="opacity:1;fill:none"
       inkscape:connector-curvature="0" />
  </g>
  <g
     id="akonadi"
     transform="translate(-22)">
    <path
       id="path12"
       style="color:#31363b;fill:#fbfbfb;fill-opacity:1;stroke:none"
       class="ColorScheme-Text"
       d="M 16 4 A 12 3 0 0 0 4 7 L 4 25 A 12 3 0 0 0 16 28 A 12 3 0 0 0 28 25 L 28 19 L 28 13 L 28 7 A 12 3 0 0 0 16 4 z M 16 5 A 11 2 0 0 1 27 7 A 11 2 0 0 1 16 9 A 11 2 0 0 1 5 7 A 11 2 0 0 1 16 5 z M 27 8.1914062 L 27 12 L 27 13 L 27 14.191406 L 27 19 L 27 20.191406 L 27 24 L 27 25 A 11 2 0 0 1 16 27 A 11 2 0 0 1 5 25 L 5 24 L 5 20.195312 L 5 19 L 5 14.195312 L 5 13 L 5 12 L 5 8.1953125 A 12 3 0 0 0 16 10 A 12 3 0 0 0 27 8.1914062 z "
       transform="translate(22)" />
    <path
       id="path14"
       d="M 22,0 V 32 H 54 V 0 Z"
       style="opacity:1;fill:none"
       inkscape:connector-curvature="0" />
  </g>
</svg>
