<?xml version="1.0" encoding="UTF-8" standalone="no"?>
<svg
   xmlns:dc="http://purl.org/dc/elements/1.1/"
   xmlns:cc="http://creativecommons.org/ns#"
   xmlns:rdf="http://www.w3.org/1999/02/22-rdf-syntax-ns#"
   xmlns:svg="http://www.w3.org/2000/svg"
   xmlns="http://www.w3.org/2000/svg"
   xmlns:sodipodi="http://sodipodi.sourceforge.net/DTD/sodipodi-0.dtd"
   xmlns:inkscape="http://www.inkscape.org/namespaces/inkscape"
   version="1.1"
   id="svg2"
   viewBox="0 0 32 32"
   inkscape:version="0.92.4 5da689c313, 2019-01-14"
   sodipodi:docname="akregator.svgz"
   width="32"
   height="32">
  <sodipodi:namedview
     pagecolor="#c8c8c8"
     bordercolor="#666666"
     borderopacity="1"
     objecttolerance="10"
     gridtolerance="10"
     guidetolerance="10"
     inkscape:pageopacity="1"
     inkscape:pageshadow="2"
     inkscape:window-width="1920"
     inkscape:window-height="1007"
     id="namedview12"
     showgrid="false"
     inkscape:zoom="10.429825"
     inkscape:cx="39.525368"
     inkscape:cy="11.860733"
     inkscape:window-x="0"
     inkscape:window-y="0"
     inkscape:window-maximized="1"
     inkscape:current-layer="svg2" />
  <metadata
     id="metadata18">
    <rdf:RDF>
      <cc:Work
         rdf:about="">
        <dc:format>image/svg+xml</dc:format>
        <dc:type
           rdf:resource="http://purl.org/dc/dcmitype/StillImage" />
        <dc:title></dc:title>
      </cc:Work>
    </rdf:RDF>
  </metadata>
  <defs
     id="defs3051">
    <style
       id="current-color-scheme"
       type="text/css">
      .ColorScheme-Text {
        color:#7B7C7E;
      }
      </style>
  </defs>
  <g
     id="akregator"
     transform="translate(-21.956265)">
    <path
       id="path7"
       class="ColorScheme-Text"
       d="m 3,13 v 2 a 13.999998,13.999998 0 0 1 14,14 h 2 A 15.999998,15.999998 0 0 0 3,13 Z m 0,4 v 2 a 10,10 0 0 1 10,10 h 2 A 12,12 0 0 0 3,17 Z m 0,4 v 2 a 6,5.9999871 0 0 1 6,6 h 2 A 8,7.9999828 0 0 0 3,21 Z m 1.5,5 A 1.5,1.5 0 0 0 3,27.5 1.5,1.5 0 0 0 4.5,29 1.5,1.5 0 0 0 6,27.5 1.5,1.5 0 0 0 4.5,26 Z"
       style="color:#7b7c7e;fill:#eaeaea;fill-opacity:1"
       inkscape:connector-curvature="0" />
    <path
       id="path9"
       d="M 0,10 V 32 H 22 V 10 Z"
       style="opacity:1;fill:none"
       inkscape:connector-curvature="0" />
  </g>
  <g
     id="32-32-akregator"
     transform="translate(-21.956265)">
    <path
       id="path12"
       class="ColorScheme-Text"
       d="m 26,4 v 2 a 22,22 0 0 1 22,22 h 2 A 24,24 0 0 0 26,4 Z m 0,6 v 2 a 16,16 0 0 1 16,16 h 2 A 18,18 0 0 0 26,10 Z m 0,6 v 2 a 10,10 0 0 1 10,10 h 2 A 12,12 0 0 0 26,16 Z m 3,6 a 3,3 0 0 0 -3,3 3,3 0 0 0 3,3 3,3 0 0 0 3,-3 3,3 0 0 0 -3,-3 z"
       style="color:#7b7c7e;fill:#eaeaea;fill-opacity:1"
       inkscape:connector-curvature="0" />
    <path
       id="path14"
       d="M 22,0 V 32 H 54 V 0 Z"
       style="opacity:1;fill:none"
       inkscape:connector-curvature="0" />
  </g>
</svg>
