<?xml version="1.0" encoding="UTF-8" standalone="no"?>
<svg
   width="32"
   height="32"
   id="svg7229"
   sodipodi:version="0.32"
   inkscape:version="1.2.1 (9c6d41e410, 2022-07-14)"
   version="1.0"
   sodipodi:docname="audio.svgz"
   inkscape:output_extension="org.inkscape.output.svgz.inkscape"
   viewBox="0 0 32 32"
   xmlns:inkscape="http://www.inkscape.org/namespaces/inkscape"
   xmlns:sodipodi="http://sodipodi.sourceforge.net/DTD/sodipodi-0.dtd"
   xmlns="http://www.w3.org/2000/svg"
   xmlns:svg="http://www.w3.org/2000/svg"
   xmlns:rdf="http://www.w3.org/1999/02/22-rdf-syntax-ns#"
   xmlns:cc="http://creativecommons.org/ns#"
   xmlns:dc="http://purl.org/dc/elements/1.1/">
  <defs
     id="defs7231">
    <inkscape:path-effect
       effect="bspline"
       id="path-effect1011"
       is_visible="true"
       weight="33.333333"
       steps="2"
       helper_size="0"
       apply_no_weight="true"
       apply_with_weight="true"
       only_selected="false" />
    <style
       id="current-color-scheme"
       type="text/css">
      .ColorScheme-Text {
        color:#31363b;
      }
      .ColorScheme-Background{
        color:#eff0f1;
      }
      .ColorScheme-ViewText {
        color:#31363b;
      }
      .ColorScheme-ViewBackground{
        color:#ffffff;
      }
      .ColorScheme-ViewHover {
        color:#000000;
      }
      .ColorScheme-ViewFocus{
        color:#5a5a5a;
      }
      .ColorScheme-ButtonText {
        color:#31363b;
      }
      .ColorScheme-ButtonBackground{
        color:#E9E8E8;
      }
      .ColorScheme-ButtonHover {
        color:#1489ff;
      }
      .ColorScheme-ButtonFocus{
        color:#2B74C7;
      }
</style>
    <style
       type="text/css"
       id="style5">
      .ColorScheme-Text {
        color:#31363b;
      }
      .ColorScheme-Background {
        color:#eff0f1;
      }
      .ColorScheme-Highlight {
        color:#3daee9;
      }
      .ColorScheme-ViewText {
        color:#31363b;
      }
      .ColorScheme-ViewBackground {
        color:#fcfcfc;
      }
      .ColorScheme-ViewHover {
        color:#93cee9;
      }
      .ColorScheme-ViewFocus{
        color:#3daee9;
      }
      .ColorScheme-ButtonText {
        color:#31363b;
      }
      .ColorScheme-ButtonBackground {
        color:#eff0f1;
      }
      .ColorScheme-ButtonHover {
        color:#93cee9;
      }
      .ColorScheme-ButtonFocus{
        color:#3daee9;
      }
      </style>
    <style
       id="style906"
       type="text/css" />
    <style
       id="style1188"
       type="text/css" />
    <style
       id="style951"
       type="text/css" />
  </defs>
  <sodipodi:namedview
     id="base"
     pagecolor="#c8c8c8"
     bordercolor="#666666"
     borderopacity="1.0"
     inkscape:pageopacity="0"
     inkscape:pageshadow="2"
     inkscape:zoom="16"
     inkscape:cx="91.624998"
     inkscape:cy="18.125"
     inkscape:document-units="px"
     inkscape:current-layer="layer1"
     showgrid="true"
     inkscape:window-width="3840"
     inkscape:window-height="2058"
     inkscape:window-x="1920"
     inkscape:window-y="0"
     showguides="true"
     inkscape:guide-bbox="true"
     gridtolerance="10000"
     inkscape:window-maximized="1"
     inkscape:snap-bbox="true"
     inkscape:showpageshadow="false"
     borderlayer="true"
     fit-margin-top="0"
     fit-margin-left="0"
     fit-margin-right="0"
     fit-margin-bottom="0"
     inkscape:bbox-nodes="true"
     inkscape:snap-bbox-edge-midpoints="false"
     inkscape:snap-nodes="false"
     inkscape:bbox-paths="false"
     inkscape:document-rotation="0"
     inkscape:pagecheckerboard="0"
     inkscape:snap-smooth-nodes="true"
     inkscape:object-nodes="true"
     inkscape:snap-global="true"
     inkscape:deskcolor="#c8c8c8">
    <inkscape:grid
       type="xygrid"
       id="grid871" />
  </sodipodi:namedview>
  <metadata
     id="metadata7234">
    <rdf:RDF>
      <cc:Work
         rdf:about="">
        <dc:format>image/svg+xml</dc:format>
        <dc:type
           rdf:resource="http://purl.org/dc/dcmitype/StillImage" />
        <dc:title />
      </cc:Work>
    </rdf:RDF>
  </metadata>
  <g
     inkscape:label="Camada 1"
     inkscape:groupmode="layer"
     id="layer1"
     transform="translate(-246.53572,-394.50504)">
    <g
       transform="translate(0,0.50000199)"
       id="g1091" />
    <g
       id="22-22-audio-volume-high">
      <path
         style="fill:none"
         inkscape:connector-curvature="0"
         id="path22"
         d="m 240.53572,364.50504 h 22 v 22 h -22 z" />
      <g
         id="g20027"
         transform="translate(56.996856)">
        <path
           id="path20019"
           style="color:#363636;fill:#fefefe;fill-opacity:1;stroke:#fefefe;stroke-width:0;stroke-miterlimit:4;stroke-dasharray:none;stroke-opacity:1"
           d="m 190.92558,370.00519 c -0.18714,-0.0115 -0.55991,0.13962 -0.69141,0.25781 l -2.60351,3.24219 h -2.45508 c -0.90654,0 -1.63672,0.75528 -1.63672,1.75 v 2.49985 c 0,0.99472 0.73018,1.75 1.63672,1.75 h 2.45508 l 2.78515,3.33398 c 0.13148,0.11821 0.32268,0.17756 0.50977,0.16602 0.3118,-0.0193 0.61328,-0.2375 0.61328,-0.71485 v -11.57016 c 0,-0.47735 -0.30137,-0.69552 -0.61328,-0.71484 z m -0.38672,1.45238 v 0.22461 9.58018 0.27344 l -2.48663,-3.03076 h -2.67939 c -0.0571,0 -0.11419,-0.007 -0.16796,-0.0176 -6.3e-4,-1.3e-4 -0.001,1.3e-4 -0.002,0 -0.0537,-0.0109 -0.10491,-0.0262 -0.15429,-0.0469 -5.3e-4,-2.3e-4 -10e-4,2.2e-4 -0.002,0 -0.0499,-0.021 -0.0963,-0.0482 -0.14062,-0.0781 -0.0443,-0.0299 -0.0854,-0.0639 -0.12305,-0.10156 -0.0377,-0.0377 -0.0717,-0.0787 -0.10156,-0.12305 -0.0299,-0.0443 -0.0571,-0.0907 -0.0781,-0.14062 -2.3e-4,-5.6e-4 2.4e-4,-10e-4 0,-0.002 -0.0207,-0.0494 -0.0359,-0.10055 -0.0469,-0.15429 -1.3e-4,-6.2e-4 1.2e-4,-10e-4 0,-0.002 -0.006,-0.0272 -0.0108,-0.0539 -0.0137,-0.082 -0.003,-0.0281 -0.004,-0.0571 -0.004,-0.0859 v -2.33188 c 0,-0.057 0.007,-0.11419 0.0176,-0.16797 1.2e-4,-6.2e-4 -1.3e-4,-0.001 0,-0.002 0.0109,-0.0537 0.0262,-0.10491 0.0469,-0.1543 2.2e-4,-5.2e-4 -2.2e-4,-10e-4 0,-0.002 0.021,-0.0499 0.0482,-0.0963 0.0781,-0.14062 0.0299,-0.0443 0.0639,-0.0854 0.10156,-0.12305 0.0377,-0.0377 0.0787,-0.0717 0.12305,-0.10156 0.0443,-0.0299 0.0907,-0.0571 0.14062,-0.0781 5.6e-4,-2.3e-4 0.001,2.3e-4 0.002,0 0.0494,-0.0207 0.10055,-0.0359 0.15429,-0.0469 0.0543,-0.0111 0.11222,-0.0176 0.16992,-0.0176 h 2.67939 z"
           sodipodi:nodetypes="cccsssscccssccccccscccccccccsccssscscccccccscc" />
        <path
           style="fill:none;fill-opacity:1;stroke:#fefefe;stroke-width:1.2;stroke-linecap:round;stroke-linejoin:round;stroke-miterlimit:4;stroke-dasharray:none;stroke-opacity:1"
           id="path20021"
           sodipodi:type="arc"
           sodipodi:cx="192.19478"
           sodipodi:cy="376.50299"
           sodipodi:rx="4.121839"
           sodipodi:ry="4.121839"
           sodipodi:start="5.4977871"
           sodipodi:end="0.78539816"
           sodipodi:arc-type="arc"
           d="m 195.10936,373.58841 a 4.121839,4.121839 0 0 1 1.20726,2.91458 4.121839,4.121839 0 0 1 -1.20726,2.91458"
           sodipodi:open="true" />
        <path
           style="fill:none;fill-opacity:1;stroke:#fefefe;stroke-width:1.2;stroke-linecap:round;stroke-linejoin:round;stroke-miterlimit:4;stroke-dasharray:none;stroke-opacity:1"
           id="path20023"
           sodipodi:type="arc"
           sodipodi:cx="192.19478"
           sodipodi:cy="376.50299"
           sodipodi:rx="7.785696"
           sodipodi:ry="7.785696"
           sodipodi:start="5.4977871"
           sodipodi:end="0.78539816"
           sodipodi:arc-type="arc"
           d="m 197.7001,370.99767 a 7.785696,7.785696 0 0 1 2.28037,5.50532 7.785696,7.785696 0 0 1 -2.28037,5.50532"
           sodipodi:open="true" />
        <path
           style="fill:none;fill-opacity:1;stroke:#fefefe;stroke-width:1.2;stroke-linecap:round;stroke-linejoin:round;stroke-miterlimit:4;stroke-dasharray:none;stroke-opacity:1"
           id="path20025"
           sodipodi:type="arc"
           sodipodi:cx="193.11362"
           sodipodi:cy="376.50299"
           sodipodi:rx="10.533588"
           sodipodi:ry="10.533588"
           sodipodi:start="5.4977871"
           sodipodi:end="0.78539816"
           sodipodi:arc-type="arc"
           d="m 200.56199,369.05462 a 10.533588,10.533588 0 0 1 3.08522,7.44837 10.533588,10.533588 0 0 1 -3.08522,7.44837"
           sodipodi:open="true" />
      </g>
    </g>
    <path
       id="rect1310"
       style="color:#363636;fill:#fefefe;fill-opacity:1"
       d="m 236.53182,346.00503 -3.00001,3 h -3 c -0.554,0 -0.99999,0.446 -0.99999,1 v 3 c 0,0.554 0.44599,1 0.99999,1 h 3 l 3.00001,3 z m -0.9961,2.50586 v 6.01562 l -1.48437,-1.52148 h -2.87891 c -0.35254,0 -0.63672,-0.28418 -0.63672,-0.63672 v -1.72656 c 0,-0.35254 0.28418,-0.63672 0.63672,-0.63672 h 2.87891 z"
       sodipodi:nodetypes="ccssssccccccsssscc" />
    <g
       id="22-22-audio-volume-medium"
       transform="translate(25)">
      <path
         style="fill:none"
         inkscape:connector-curvature="0"
         id="path10710"
         d="m 240.53572,364.50504 h 22 v 22 h -22 z" />
      <g
         id="g10720"
         transform="translate(56.996856)">
        <path
           id="path10712"
           style="color:#363636;fill:#fefefe;fill-opacity:1;stroke:#fefefe;stroke-width:0;stroke-miterlimit:4;stroke-dasharray:none;stroke-opacity:1"
           d="m 190.92558,370.00504 c -0.18714,-0.0115 -0.55991,0.13962 -0.69141,0.25781 l -2.60351,3.24219 h -2.45508 c -0.90654,0 -1.63672,0.75528 -1.63672,1.75 v 2.5 c 0,0.99472 0.73018,1.75 1.63672,1.75 h 2.45508 l 2.78515,3.33398 c 0.13148,0.11821 0.32268,0.17756 0.50977,0.16602 0.3118,-0.0193 0.61328,-0.2375 0.61328,-0.71485 v -11.57031 c 0,-0.47735 -0.30137,-0.69552 -0.61328,-0.71484 z m -0.38672,1.45238 v 0.22461 9.58033 0.27344 l -2.48663,-3.03076 h -2.67939 c -0.0571,0 -0.11419,-0.007 -0.16796,-0.0176 -6.3e-4,-1.3e-4 -0.001,1.3e-4 -0.002,0 -0.0537,-0.0109 -0.10491,-0.0262 -0.15429,-0.0469 -5.3e-4,-2.3e-4 -10e-4,2.2e-4 -0.002,0 -0.0499,-0.021 -0.0963,-0.0482 -0.14062,-0.0781 -0.0443,-0.0299 -0.0854,-0.0639 -0.12305,-0.10156 -0.0377,-0.0377 -0.0717,-0.0787 -0.10156,-0.12305 -0.0299,-0.0443 -0.0571,-0.0907 -0.0781,-0.14062 -2.3e-4,-5.6e-4 2.4e-4,-10e-4 0,-0.002 -0.0207,-0.0494 -0.0359,-0.10055 -0.0469,-0.15429 -1.3e-4,-6.2e-4 1.2e-4,-10e-4 0,-0.002 -0.006,-0.0272 -0.0108,-0.0539 -0.0137,-0.082 -0.003,-0.0281 -0.004,-0.0571 -0.004,-0.0859 v -2.33203 c 0,-0.057 0.007,-0.11419 0.0176,-0.16797 1.2e-4,-6.2e-4 -1.3e-4,-10e-4 0,-0.002 0.0109,-0.0537 0.0262,-0.10491 0.0469,-0.1543 2.2e-4,-5.2e-4 -2.2e-4,-0.001 0,-0.002 0.021,-0.0499 0.0482,-0.0963 0.0781,-0.14062 0.0299,-0.0443 0.0639,-0.0854 0.10156,-0.12305 0.0377,-0.0377 0.0787,-0.0717 0.12305,-0.10156 0.0443,-0.0299 0.0907,-0.0571 0.14062,-0.0781 5.6e-4,-2.3e-4 0.001,2.3e-4 0.002,0 0.0494,-0.0207 0.10055,-0.0359 0.15429,-0.0469 0.0543,-0.0111 0.11222,-0.0176 0.16992,-0.0176 h 2.67939 z"
           sodipodi:nodetypes="cccsssscccssccccccscccccccccsccssscscccccccscc" />
        <path
           style="fill:none;fill-opacity:1;stroke:#fefefe;stroke-width:1.2;stroke-linecap:round;stroke-linejoin:round;stroke-miterlimit:4;stroke-dasharray:none;stroke-opacity:1"
           id="path10714"
           sodipodi:type="arc"
           sodipodi:cx="192.1636"
           sodipodi:cy="376.50299"
           sodipodi:rx="4.1397295"
           sodipodi:ry="4.1397295"
           sodipodi:start="5.4977871"
           sodipodi:end="0.78539816"
           sodipodi:arc-type="arc"
           d="m 195.09084,373.57576 a 4.1397295,4.1397295 0 0 1 1.21249,2.92723 4.1397295,4.1397295 0 0 1 -1.21249,2.92723"
           sodipodi:open="true" />
        <path
           style="fill:none;fill-opacity:1;stroke:#fefefe;stroke-width:1.2;stroke-linecap:round;stroke-linejoin:round;stroke-miterlimit:4;stroke-dasharray:none;stroke-opacity:1"
           id="path10716"
           sodipodi:type="arc"
           sodipodi:cx="192.1636"
           sodipodi:cy="376.50299"
           sodipodi:rx="7.819489"
           sodipodi:ry="7.819489"
           sodipodi:start="5.4977871"
           sodipodi:end="0.78539816"
           sodipodi:arc-type="arc"
           d="m 197.69282,370.97378 a 7.819489,7.819489 0 0 1 2.29027,5.52921 7.819489,7.819489 0 0 1 -2.29027,5.52921"
           sodipodi:open="true" />
        <path
           style="opacity:0.3;fill:none;fill-opacity:1;stroke:#fefefe;stroke-width:1.2;stroke-linecap:round;stroke-linejoin:round;stroke-miterlimit:4;stroke-dasharray:none;stroke-opacity:1"
           id="path10718"
           sodipodi:type="arc"
           sodipodi:cx="193.08643"
           sodipodi:cy="376.50299"
           sodipodi:rx="10.579309"
           sodipodi:ry="10.579309"
           sodipodi:start="5.4977871"
           sodipodi:end="0.78539816"
           sodipodi:arc-type="arc"
           d="m 200.56713,369.02229 a 10.579309,10.579309 0 0 1 3.09861,7.4807 10.579309,10.579309 0 0 1 -3.09861,7.4807"
           sodipodi:open="true" />
      </g>
    </g>
    <g
       id="22-22-audio-volume-low"
       transform="translate(50.000005)">
      <path
         style="fill:none"
         inkscape:connector-curvature="0"
         id="path10724"
         d="m 240.53572,364.50504 h 22 v 22 h -22 z" />
      <g
         id="g10734"
         transform="translate(56.996856)">
        <path
           id="path10726"
           style="color:#363636;fill:#fefefe;fill-opacity:1;stroke:#fefefe;stroke-width:0;stroke-miterlimit:4;stroke-dasharray:none;stroke-opacity:1"
           d="m 190.92558,370.00504 c -0.18714,-0.0115 -0.55991,0.13962 -0.69141,0.25781 l -2.60351,3.24219 h -2.45508 c -0.90654,0 -1.63672,0.75528 -1.63672,1.75 v 2.5 c 0,0.99472 0.73018,1.75 1.63672,1.75 h 2.45508 l 2.78515,3.33398 c 0.13148,0.11821 0.32268,0.17756 0.50977,0.16602 0.3118,-0.0193 0.61328,-0.2375 0.61328,-0.71485 v -11.57031 c 0,-0.47735 -0.30137,-0.69552 -0.61328,-0.71484 z m -0.38672,1.45238 v 0.22461 9.58033 0.27344 l -2.48663,-3.03076 h -2.67939 c -0.0571,0 -0.11419,-0.007 -0.16796,-0.0176 -6.3e-4,-1.3e-4 -0.001,1.3e-4 -0.002,0 -0.0537,-0.0109 -0.10491,-0.0262 -0.15429,-0.0469 -5.3e-4,-2.3e-4 -10e-4,2.2e-4 -0.002,0 -0.0499,-0.021 -0.0963,-0.0482 -0.14062,-0.0781 -0.0443,-0.0299 -0.0854,-0.0639 -0.12305,-0.10156 -0.0377,-0.0377 -0.0717,-0.0787 -0.10156,-0.12305 -0.0299,-0.0443 -0.0571,-0.0907 -0.0781,-0.14062 -2.3e-4,-5.6e-4 2.4e-4,-10e-4 0,-0.002 -0.0207,-0.0494 -0.0359,-0.10055 -0.0469,-0.15429 -1.3e-4,-6.2e-4 1.2e-4,-10e-4 0,-0.002 -0.006,-0.0272 -0.0108,-0.0539 -0.0137,-0.082 -0.003,-0.0281 -0.004,-0.0571 -0.004,-0.0859 v -2.33203 c 0,-0.057 0.007,-0.11419 0.0176,-0.16797 1.2e-4,-6.2e-4 -1.3e-4,-10e-4 0,-0.002 0.0109,-0.0537 0.0262,-0.10491 0.0469,-0.1543 2.2e-4,-5.2e-4 -2.2e-4,-0.001 0,-0.002 0.021,-0.0499 0.0482,-0.0963 0.0781,-0.14062 0.0299,-0.0443 0.0639,-0.0854 0.10156,-0.12305 0.0377,-0.0377 0.0787,-0.0717 0.12305,-0.10156 0.0443,-0.0299 0.0907,-0.0571 0.14062,-0.0781 5.6e-4,-2.3e-4 0.001,2.3e-4 0.002,0 0.0494,-0.0207 0.10055,-0.0359 0.15429,-0.0469 0.0543,-0.0111 0.11222,-0.0176 0.16992,-0.0176 h 2.67939 z"
           sodipodi:nodetypes="cccsssscccssccccccscccccccccsccssscscccccccscc" />
        <path
           style="fill:none;fill-opacity:1;stroke:#fefefe;stroke-width:1.2;stroke-linecap:round;stroke-linejoin:round;stroke-miterlimit:4;stroke-dasharray:none;stroke-opacity:1"
           id="path10728"
           sodipodi:type="arc"
           sodipodi:cx="192.16359"
           sodipodi:cy="376.50299"
           sodipodi:rx="4.1397338"
           sodipodi:ry="4.1397338"
           sodipodi:start="5.4977871"
           sodipodi:end="0.78539816"
           sodipodi:arc-type="arc"
           d="m 195.09082,373.57576 a 4.1397338,4.1397338 0 0 1 1.2125,2.92723 4.1397338,4.1397338 0 0 1 -1.2125,2.92723"
           sodipodi:open="true" />
        <path
           style="opacity:0.3;fill:none;fill-opacity:1;stroke:#fefefe;stroke-width:1.2;stroke-linecap:round;stroke-linejoin:round;stroke-miterlimit:4;stroke-dasharray:none;stroke-opacity:1"
           id="path10730"
           sodipodi:type="arc"
           sodipodi:cx="192.16359"
           sodipodi:cy="376.50299"
           sodipodi:rx="7.8194971"
           sodipodi:ry="7.8194971"
           sodipodi:start="5.4977871"
           sodipodi:end="0.78539816"
           sodipodi:arc-type="arc"
           d="m 197.69281,370.97377 a 7.8194971,7.8194971 0 0 1 2.29028,5.52922 7.8194971,7.8194971 0 0 1 -2.29028,5.52922"
           sodipodi:open="true" />
        <path
           style="opacity:0.3;fill:none;fill-opacity:1;stroke:#fefefe;stroke-width:1.2;stroke-linecap:round;stroke-linejoin:round;stroke-miterlimit:4;stroke-dasharray:none;stroke-opacity:1"
           id="path10732"
           sodipodi:type="arc"
           sodipodi:cx="193.08643"
           sodipodi:cy="376.50299"
           sodipodi:rx="10.579319"
           sodipodi:ry="10.579319"
           sodipodi:start="5.4977871"
           sodipodi:end="0.78539816"
           sodipodi:arc-type="arc"
           d="m 200.56713,369.02228 a 10.579319,10.579319 0 0 1 3.09861,7.48071 10.579319,10.579319 0 0 1 -3.09861,7.48071"
           sodipodi:open="true" />
      </g>
    </g>
    <g
       id="22-22-audio-volume-muted"
       transform="translate(0,25)">
      <path
         style="fill:none"
         inkscape:connector-curvature="0"
         id="path10738"
         d="m 315.53573,339.50504 h 21.99999 v 22 h -22 z" />
      <path
         id="path10740"
         style="color:#363636;fill:#fefefe;fill-opacity:1;stroke:#fefefe;stroke-width:0;stroke-miterlimit:4;stroke-dasharray:none;stroke-opacity:1"
         d="m 322.92244,345.00504 c -0.18714,-0.0115 -0.55991,0.13962 -0.69141,0.25781 l -2.60351,3.24219 h -2.45508 c -0.90654,0 -1.63672,0.75528 -1.63672,1.75 v 2.5 c 0,0.99472 0.73018,1.75 1.63672,1.75 h 2.45508 l 2.78515,3.33398 c 0.13148,0.11821 0.32268,0.17756 0.50977,0.16602 0.3118,-0.0193 0.61328,-0.2375 0.61328,-0.71485 v -11.57031 c 0,-0.47735 -0.30137,-0.69552 -0.61328,-0.71484 z m -0.38672,1.45238 v 0.22461 9.58033 0.27344 l -2.48663,-3.03076 h -2.67939 c -0.0571,0 -0.11419,-0.007 -0.16796,-0.0176 -6.3e-4,-1.3e-4 -10e-4,1.3e-4 -0.002,0 -0.0537,-0.0109 -0.10491,-0.0262 -0.15429,-0.0469 -5.3e-4,-2.3e-4 -0.001,2.2e-4 -0.002,0 -0.0499,-0.021 -0.0963,-0.0482 -0.14062,-0.0781 -0.0443,-0.0299 -0.0854,-0.0639 -0.12305,-0.10156 -0.0377,-0.0377 -0.0717,-0.0787 -0.10156,-0.12305 -0.0299,-0.0443 -0.0571,-0.0907 -0.0781,-0.14062 -2.3e-4,-5.6e-4 2.4e-4,-10e-4 0,-0.002 -0.0207,-0.0494 -0.0359,-0.10055 -0.0469,-0.15429 -1.3e-4,-6.2e-4 1.2e-4,-10e-4 0,-0.002 -0.006,-0.0272 -0.0108,-0.0539 -0.0137,-0.082 -0.003,-0.0281 -0.004,-0.0571 -0.004,-0.0859 v -2.33203 c 0,-0.057 0.007,-0.11419 0.0176,-0.16797 1.2e-4,-6.2e-4 -1.3e-4,-10e-4 0,-0.002 0.0109,-0.0537 0.0262,-0.10491 0.0469,-0.1543 2.2e-4,-5.2e-4 -2.2e-4,-0.001 0,-0.002 0.021,-0.0499 0.0482,-0.0963 0.0781,-0.14062 0.0299,-0.0443 0.0639,-0.0854 0.10156,-0.12305 0.0377,-0.0377 0.0787,-0.0717 0.12305,-0.10156 0.0443,-0.0299 0.0907,-0.0571 0.14062,-0.0781 5.6e-4,-2.3e-4 0.001,2.3e-4 0.002,0 0.0494,-0.0207 0.10055,-0.0359 0.15429,-0.0469 0.0543,-0.0111 0.11222,-0.0176 0.16992,-0.0176 h 2.67939 z"
         sodipodi:nodetypes="cccsssscccssccccccscccccccccsccssscscccccccscc" />
      <g
         id="g1112"
         transform="translate(-10.014251,-0.89114458)">
        <rect
           style="opacity:1;fill:#fefefe;fill-opacity:1;stroke:none;stroke-width:1.26025;stroke-linecap:round;stroke-linejoin:round;stroke-miterlimit:4;stroke-dasharray:none;stroke-opacity:1"
           id="rect1106"
           width="12.000014"
           height="1"
           x="484.26093"
           y="7.5996337"
           ry="0.5"
           transform="rotate(45)" />
        <rect
           style="opacity:1;fill:#fefefe;fill-opacity:1;stroke:none;stroke-width:1.26025;stroke-linecap:round;stroke-linejoin:round;stroke-miterlimit:4;stroke-dasharray:none;stroke-opacity:1"
           id="rect1108"
           width="12.000014"
           height="1"
           x="2.0996263"
           y="489.76093"
           ry="0.5"
           transform="matrix(-0.70710678,0.70710678,0.70710678,0.70710678,0,0)" />
      </g>
    </g>
    <g
       id="audio-volume-muted"
       transform="translate(0,-32)">
      <path
         id="path2317"
         style="fill:#fefefe;fill-opacity:1;stroke:none;stroke-width:1.3;stroke-linecap:round;stroke-linejoin:round;stroke-miterlimit:4;stroke-dasharray:none;stroke-opacity:1"
         d="m 355.64877,434.57129 c -0.0676,-0.004 -0.15074,0.004 -0.24205,0.0238 -0.0913,0.0194 -0.1902,0.0501 -0.28607,0.0846 -0.0959,0.0346 -0.18956,0.0736 -0.27083,0.11511 -0.0813,0.0415 -0.15057,0.085 -0.19805,0.12526 l -5.20677,4.8496 h -3.54622 c -0.16368,0 -0.3232,0.01 -0.47735,0.0288 -0.15414,0.0189 -0.30199,0.0462 -0.44349,0.0847 -0.0707,0.0192 -0.13951,0.0418 -0.20651,0.066 -0.067,0.0243 -0.13181,0.0503 -0.19466,0.0796 -0.0628,0.0293 -0.12449,0.062 -0.18281,0.0965 -0.0583,0.0345 -0.11418,0.0719 -0.16758,0.11172 -0.0534,0.0398 -0.10424,0.0819 -0.15234,0.12695 -0.0481,0.0451 -0.093,0.0917 -0.13542,0.14219 -0.0424,0.0505 -0.0822,0.10482 -0.11849,0.16081 -0.0363,0.056 -0.07,0.11448 -0.0999,0.17604 -0.0298,0.0615 -0.0549,0.12575 -0.0778,0.19297 -0.023,0.0673 -0.0436,0.13694 -0.0593,0.2099 -0.0157,0.073 -0.0275,0.14974 -0.0355,0.22851 -0.008,0.0788 -0.0119,0.16078 -0.0119,0.24544 v 5.20339 c 0,0.0847 0.003,0.16856 0.0119,0.25052 0.008,0.082 0.0199,0.16147 0.0355,0.24036 0.0157,0.0789 0.0363,0.15641 0.0593,0.2319 0.023,0.0755 0.048,0.15 0.0778,0.22175 0.0298,0.0718 0.0635,0.14055 0.0999,0.2082 0.0363,0.0677 0.0761,0.13313 0.11849,0.19636 0.0424,0.0632 0.0873,0.12436 0.13542,0.1828 0.0481,0.0584 0.0989,0.11426 0.15234,0.16758 0.0534,0.0533 0.10926,0.10449 0.16758,0.15234 0.0583,0.0478 0.11996,0.0934 0.18281,0.13542 0.0628,0.042 0.12767,0.0809 0.19466,0.1168 0.067,0.0359 0.13578,0.0687 0.20651,0.0982 0.0707,0.0294 0.14257,0.0553 0.21667,0.0778 0.0741,0.0225 0.14975,0.0405 0.22682,0.0559 0.077,0.0154 0.15564,0.0276 0.23529,0.0355 0.0796,0.008 0.16022,0.0119 0.24206,0.0119 h 3.54622 l 5.46745,4.97151 c 0.0475,0.0402 0.1006,0.075 0.15742,0.10494 0.0568,0.0299 0.11784,0.0537 0.18112,0.0728 0.0633,0.0192 0.12949,0.0328 0.19635,0.0406 0.0668,0.008 0.13388,0.0108 0.20143,0.007 0.0563,-0.003 0.11256,-0.0101 0.16758,-0.022 0.055,-0.0119 0.10871,-0.0282 0.16081,-0.049 0.0521,-0.0208 0.10311,-0.0461 0.15065,-0.0762 0.0475,-0.0301 0.0924,-0.0653 0.13372,-0.10495 0.0413,-0.0397 0.0783,-0.0842 0.11172,-0.13372 0.0335,-0.0496 0.0641,-0.10438 0.088,-0.16419 0.0239,-0.0598 0.0413,-0.12429 0.0542,-0.19467 0.0128,-0.0704 0.0203,-0.14723 0.0203,-0.22849 V 435.5434 c 0,-0.0813 -0.008,-0.15645 -0.0203,-0.22682 -0.0128,-0.0704 -0.0303,-0.13484 -0.0542,-0.19466 -0.0239,-0.0598 -0.0546,-0.11461 -0.088,-0.16419 -0.0334,-0.0496 -0.0704,-0.094 -0.11172,-0.13373 -0.0413,-0.0397 -0.0862,-0.0749 -0.13372,-0.10495 -0.0475,-0.0301 -0.0985,-0.0554 -0.15065,-0.0762 -0.0521,-0.0208 -0.10577,-0.0372 -0.16081,-0.0491 -0.055,-0.0119 -0.11126,-0.0187 -0.16758,-0.022 z m -0.31582,1.3915 v 17.23323 l -5.30904,-5.0187 h -4.00664 c -0.11533,0 -0.22276,-0.01 -0.32161,-0.0288 -0.0989,-0.0191 -0.18951,-0.0478 -0.27254,-0.0847 -0.0829,-0.0368 -0.15743,-0.082 -0.22512,-0.13542 -0.0677,-0.0535 -0.12978,-0.11392 -0.18282,-0.18282 -0.053,-0.0688 -0.0965,-0.14548 -0.13541,-0.22851 -0.0388,-0.083 -0.0712,-0.17315 -0.0965,-0.26914 -0.0254,-0.096 -0.0435,-0.19863 -0.0558,-0.30638 -0.0118,-0.10773 -0.0186,-0.22025 -0.0186,-0.33854 v -4.1535 c 0,-0.11829 0.006,-0.23213 0.0186,-0.34023 0.0123,-0.10811 0.0305,-0.2116 0.0558,-0.30807 0.0253,-0.0965 0.0575,-0.18551 0.0965,-0.26915 0.0388,-0.0835 0.0841,-0.16095 0.1371,-0.2302 0.053,-0.0693 0.11344,-0.13095 0.18113,-0.18451 0.0677,-0.0536 0.1421,-0.099 0.22512,-0.13541 0.0829,-0.0364 0.17368,-0.0634 0.27254,-0.0812 0.0988,-0.0177 0.20629,-0.0271 0.32161,-0.0254 h 4.00664 z"
         sodipodi:nodetypes="csssccssscscsssssssssscssssssssssssscccccsccscsscscssccscsssccccscccccccssccccccccccc" />
      <path
         style="fill:none"
         inkscape:connector-curvature="0"
         id="path2319"
         d="m 342.53572,426.50504 h 32 v 32 h -32 z" />
      <g
         id="g2732"
         transform="translate(0,-0.84266729)">
        <rect
           style="fill:#fefefe;fill-opacity:1;stroke:#fefefe;stroke-width:0.5;stroke-linecap:round;stroke-linejoin:round;stroke-miterlimit:4;stroke-dasharray:none;stroke-opacity:1"
           id="rect2457"
           width="17.000015"
           height="1"
           x="565.01538"
           y="55.847347"
           ry="0.5"
           transform="rotate(45)" />
        <rect
           style="fill:#fefefe;fill-opacity:1;stroke:#fefefe;stroke-width:0.5;stroke-linecap:round;stroke-linejoin:round;stroke-miterlimit:4;stroke-dasharray:none;stroke-opacity:1"
           id="rect2459"
           width="17.000015"
           height="1"
           x="47.84734"
           y="573.01538"
           ry="0.5"
           transform="matrix(-0.70710678,0.70710678,0.70710678,0.70710678,0,0)" />
      </g>
    </g>
    <g
       id="16-16-audio-volume-high">
      <path
         style="fill:none;stroke-width:1.06066"
         inkscape:connector-curvature="0"
         id="rect858"
         d="m 243.53497,343.50504 h 18 v 16 h -18 z" />
      <path
         id="path1275"
         d="m 258.67437,344.93232 c -0.54546,-0.42773 -1.1387,0.22461 -0.68359,0.73242 1.6202,1.5104 2.5416,3.6249 2.5449,5.8398 -0.003,2.2205 -0.92793,4.3401 -2.5547,5.8516 -0.44531,0.47165 0.18064,1.1484 0.67774,0.72852 1.8304,-1.6992 2.8725,-4.0825 2.877,-6.5801 -0.003,-2.4925 -1.0386,-4.8722 -2.8613,-6.5723 z"
         style="color:#363636;fill:#fefefe;fill-opacity:1" />
      <path
         id="path1277"
         d="m 256.31037,346.41802 c -0.58741,-0.53488 -1.1988,0.22518 -0.68359,0.73242 1.2147,1.1326 1.9056,2.7181 1.9082,4.3789 -0.002,1.6654 -0.69594,3.2551 -1.916,4.3887 -0.46835,0.44623 0.17346,1.1467 0.67969,0.72852 1.423,-1.3216 2.233,-3.1751 2.2363,-5.1172 -0.002,-1.9383 -0.80739,-3.789 -2.2246,-5.1113 z"
         style="color:#363636;fill:#fefefe;fill-opacity:1" />
      <path
         id="path1279"
         d="m 253.94557,347.87106 c -0.52095,-0.49369 -1.1551,0.22003 -0.68359,0.73047 0.81045,0.75501 1.2715,1.8123 1.2734,2.9199 -0.001,1.1103 -0.46396,2.1701 -1.2773,2.9258 -0.47259,0.42993 0.13957,1.1522 0.67969,0.73047 1.0168,-0.94425 1.5955,-2.2686 1.5977,-3.6562 -0.002,-1.3844 -0.57738,-2.7062 -1.5898,-3.6504 z"
         style="color:#363636;fill:#fefefe;fill-opacity:1" />
      <path
         id="path2670"
         style="color:#363636;fill:#fefefe;fill-opacity:1;stroke:#fefefe;stroke-width:0;stroke-miterlimit:4;stroke-dasharray:none;stroke-opacity:1"
         d="m 250.92244,345.00472 c -0.18714,-0.0115 -0.55991,0.13962 -0.69141,0.25781 l -2.60351,3.24219 h -2.45508 c -0.90654,0 -1.63672,0.75528 -1.63672,1.75 v 2.49985 c 0,0.99472 0.73018,1.75 1.63672,1.75 h 2.45508 l 2.78515,3.33398 c 0.13148,0.11821 0.32268,0.17756 0.50977,0.16602 0.3118,-0.0193 0.61328,-0.2375 0.61328,-0.71485 v -11.57016 c 0,-0.47735 -0.30137,-0.69552 -0.61328,-0.71484 z m -0.38672,1.45238 v 0.22461 9.58018 0.27344 l -2.48663,-3.03076 h -2.67939 c -0.0571,0 -0.11419,-0.007 -0.16796,-0.0176 -6.3e-4,-1.3e-4 -0.001,1.3e-4 -0.002,0 -0.0537,-0.0109 -0.10491,-0.0262 -0.15429,-0.0469 -5.3e-4,-2.3e-4 -10e-4,2.2e-4 -0.002,0 -0.0499,-0.021 -0.0963,-0.0482 -0.14062,-0.0781 -0.0443,-0.0299 -0.0854,-0.0639 -0.12305,-0.10156 -0.0377,-0.0377 -0.0717,-0.0787 -0.10156,-0.12305 -0.0299,-0.0443 -0.0571,-0.0907 -0.0781,-0.14062 -2.3e-4,-5.6e-4 2.4e-4,-10e-4 0,-0.002 -0.0207,-0.0494 -0.0359,-0.10055 -0.0469,-0.15429 -1.3e-4,-6.2e-4 1.2e-4,-10e-4 0,-0.002 -0.006,-0.0272 -0.0108,-0.0539 -0.0137,-0.082 -0.003,-0.0281 -0.004,-0.0571 -0.004,-0.0859 v -2.33188 c 0,-0.057 0.007,-0.11419 0.0176,-0.16797 1.2e-4,-6.2e-4 -1.3e-4,-0.001 0,-0.002 0.0109,-0.0537 0.0262,-0.10491 0.0469,-0.1543 2.2e-4,-5.2e-4 -2.2e-4,-0.001 0,-0.002 0.021,-0.0499 0.0482,-0.0963 0.0781,-0.14062 0.0299,-0.0443 0.0639,-0.0854 0.10156,-0.12305 0.0377,-0.0377 0.0787,-0.0717 0.12305,-0.10156 0.0443,-0.0299 0.0907,-0.0571 0.14062,-0.0781 5.6e-4,-2.3e-4 0.001,2.3e-4 0.002,0 0.0494,-0.0207 0.10055,-0.0359 0.15429,-0.0469 0.0543,-0.0111 0.11222,-0.0176 0.16992,-0.0176 h 2.67939 z"
         sodipodi:nodetypes="cccsssscccssccccccscccccccccsccssscscccccccscc" />
    </g>
    <g
       id="16-16-audio-volume-medium"
       transform="translate(23,0.04794)">
      <path
         style="fill:none;stroke-width:1.06066"
         inkscape:connector-curvature="0"
         id="path2871"
         d="m 243.53497,343.50504 h 18 v 16 h -18 z" />
      <path
         id="path2873"
         d="m 258.67437,344.93232 c -0.54546,-0.42773 -1.1387,0.22461 -0.68359,0.73242 1.6202,1.5104 2.5416,3.6249 2.5449,5.8398 -0.003,2.2205 -0.92793,4.3401 -2.5547,5.8516 -0.44531,0.47165 0.18064,1.1484 0.67774,0.72852 1.8304,-1.6992 2.8725,-4.0825 2.877,-6.5801 -0.003,-2.4925 -1.0386,-4.8722 -2.8613,-6.5723 z"
         style="color:#363636;fill:#fefefe;fill-opacity:1;opacity:0.3" />
      <path
         id="path2875"
         d="m 256.31037,346.41802 c -0.58741,-0.53488 -1.1988,0.22518 -0.68359,0.73242 1.2147,1.1326 1.9056,2.7181 1.9082,4.3789 -0.002,1.6654 -0.69594,3.2551 -1.916,4.3887 -0.46835,0.44623 0.17346,1.1467 0.67969,0.72852 1.423,-1.3216 2.233,-3.1751 2.2363,-5.1172 -0.002,-1.9383 -0.80739,-3.789 -2.2246,-5.1113 z"
         style="color:#363636;fill:#fefefe;fill-opacity:1" />
      <path
         id="path2877"
         d="m 253.94557,347.87106 c -0.52095,-0.49369 -1.1551,0.22003 -0.68359,0.73047 0.81045,0.75501 1.2715,1.8123 1.2734,2.9199 -0.001,1.1103 -0.46396,2.1701 -1.2773,2.9258 -0.47259,0.42993 0.13957,1.1522 0.67969,0.73047 1.0168,-0.94425 1.5955,-2.2686 1.5977,-3.6562 -0.002,-1.3844 -0.57738,-2.7062 -1.5898,-3.6504 z"
         style="color:#363636;fill:#fefefe;fill-opacity:1" />
      <path
         id="path2879"
         style="color:#363636;fill:#fefefe;fill-opacity:1;stroke:#fefefe;stroke-width:0;stroke-miterlimit:4;stroke-dasharray:none;stroke-opacity:1"
         d="m 250.92244,345.00472 c -0.18714,-0.0115 -0.55991,0.13962 -0.69141,0.25781 l -2.60351,3.24219 h -2.45508 c -0.90654,0 -1.63672,0.75528 -1.63672,1.75 v 2.49985 c 0,0.99472 0.73018,1.75 1.63672,1.75 h 2.45508 l 2.78515,3.33398 c 0.13148,0.11821 0.32268,0.17756 0.50977,0.16602 0.3118,-0.0193 0.61328,-0.2375 0.61328,-0.71485 v -11.57016 c 0,-0.47735 -0.30137,-0.69552 -0.61328,-0.71484 z m -0.38672,1.45238 v 0.22461 9.58018 0.27344 l -2.48663,-3.03076 h -2.67939 c -0.0571,0 -0.11419,-0.007 -0.16796,-0.0176 -6.3e-4,-1.3e-4 -0.001,1.3e-4 -0.002,0 -0.0537,-0.0109 -0.10491,-0.0262 -0.15429,-0.0469 -5.3e-4,-2.3e-4 -10e-4,2.2e-4 -0.002,0 -0.0499,-0.021 -0.0963,-0.0482 -0.14062,-0.0781 -0.0443,-0.0299 -0.0854,-0.0639 -0.12305,-0.10156 -0.0377,-0.0377 -0.0717,-0.0787 -0.10156,-0.12305 -0.0299,-0.0443 -0.0571,-0.0907 -0.0781,-0.14062 -2.3e-4,-5.6e-4 2.4e-4,-10e-4 0,-0.002 -0.0207,-0.0494 -0.0359,-0.10055 -0.0469,-0.15429 -1.3e-4,-6.2e-4 1.2e-4,-10e-4 0,-0.002 -0.006,-0.0272 -0.0108,-0.0539 -0.0137,-0.082 -0.003,-0.0281 -0.004,-0.0571 -0.004,-0.0859 v -2.33188 c 0,-0.057 0.007,-0.11419 0.0176,-0.16797 1.2e-4,-6.2e-4 -1.3e-4,-0.001 0,-0.002 0.0109,-0.0537 0.0262,-0.10491 0.0469,-0.1543 2.2e-4,-5.2e-4 -2.2e-4,-0.001 0,-0.002 0.021,-0.0499 0.0482,-0.0963 0.0781,-0.14062 0.0299,-0.0443 0.0639,-0.0854 0.10156,-0.12305 0.0377,-0.0377 0.0787,-0.0717 0.12305,-0.10156 0.0443,-0.0299 0.0907,-0.0571 0.14062,-0.0781 5.6e-4,-2.3e-4 0.001,2.3e-4 0.002,0 0.0494,-0.0207 0.10055,-0.0359 0.15429,-0.0469 0.0543,-0.0111 0.11222,-0.0176 0.16992,-0.0176 h 2.67939 z"
         sodipodi:nodetypes="cccsssscccssccccccscccccccccsccssscscccccccscc" />
    </g>
    <g
       id="16-16-audio-volume-low"
       transform="translate(46.00075)">
      <path
         style="fill:none;stroke-width:1.06066"
         inkscape:connector-curvature="0"
         id="path2981"
         d="m 243.53497,343.50504 h 18 v 16 h -18 z" />
      <path
         id="path2983"
         d="m 258.67437,344.93232 c -0.54546,-0.42773 -1.1387,0.22461 -0.68359,0.73242 1.6202,1.5104 2.5416,3.6249 2.5449,5.8398 -0.003,2.2205 -0.92793,4.3401 -2.5547,5.8516 -0.44531,0.47165 0.18064,1.1484 0.67774,0.72852 1.8304,-1.6992 2.8725,-4.0825 2.877,-6.5801 -0.003,-2.4925 -1.0386,-4.8722 -2.8613,-6.5723 z"
         style="color:#363636;opacity:0.3;fill:#fefefe;fill-opacity:1" />
      <path
         id="path2985"
         d="m 256.31037,346.41802 c -0.58741,-0.53488 -1.1988,0.22518 -0.68359,0.73242 1.2147,1.1326 1.9056,2.7181 1.9082,4.3789 -0.002,1.6654 -0.69594,3.2551 -1.916,4.3887 -0.46835,0.44623 0.17346,1.1467 0.67969,0.72852 1.423,-1.3216 2.233,-3.1751 2.2363,-5.1172 -0.002,-1.9383 -0.80739,-3.789 -2.2246,-5.1113 z"
         style="color:#363636;fill:#fefefe;fill-opacity:1;opacity:0.3" />
      <path
         id="path2987"
         d="m 253.94557,347.87106 c -0.52095,-0.49369 -1.1551,0.22003 -0.68359,0.73047 0.81045,0.75501 1.2715,1.8123 1.2734,2.9199 -0.001,1.1103 -0.46396,2.1701 -1.2773,2.9258 -0.47259,0.42993 0.13957,1.1522 0.67969,0.73047 1.0168,-0.94425 1.5955,-2.2686 1.5977,-3.6562 -0.002,-1.3844 -0.57738,-2.7062 -1.5898,-3.6504 z"
         style="color:#363636;fill:#fefefe;fill-opacity:1" />
      <path
         id="path2989"
         style="color:#363636;fill:#fefefe;fill-opacity:1;stroke:#fefefe;stroke-width:0;stroke-miterlimit:4;stroke-dasharray:none;stroke-opacity:1"
         d="m 250.92244,345.00472 c -0.18714,-0.0115 -0.55991,0.13962 -0.69141,0.25781 l -2.60351,3.24219 h -2.45508 c -0.90654,0 -1.63672,0.75528 -1.63672,1.75 v 2.49985 c 0,0.99472 0.73018,1.75 1.63672,1.75 h 2.45508 l 2.78515,3.33398 c 0.13148,0.11821 0.32268,0.17756 0.50977,0.16602 0.3118,-0.0193 0.61328,-0.2375 0.61328,-0.71485 v -11.57016 c 0,-0.47735 -0.30137,-0.69552 -0.61328,-0.71484 z m -0.38672,1.45238 v 0.22461 9.58018 0.27344 l -2.48663,-3.03076 h -2.67939 c -0.0571,0 -0.11419,-0.007 -0.16796,-0.0176 -6.3e-4,-1.3e-4 -0.001,1.3e-4 -0.002,0 -0.0537,-0.0109 -0.10491,-0.0262 -0.15429,-0.0469 -5.3e-4,-2.3e-4 -10e-4,2.2e-4 -0.002,0 -0.0499,-0.021 -0.0963,-0.0482 -0.14062,-0.0781 -0.0443,-0.0299 -0.0854,-0.0639 -0.12305,-0.10156 -0.0377,-0.0377 -0.0717,-0.0787 -0.10156,-0.12305 -0.0299,-0.0443 -0.0571,-0.0907 -0.0781,-0.14062 -2.3e-4,-5.6e-4 2.4e-4,-10e-4 0,-0.002 -0.0207,-0.0494 -0.0359,-0.10055 -0.0469,-0.15429 -1.3e-4,-6.2e-4 1.2e-4,-10e-4 0,-0.002 -0.006,-0.0272 -0.0108,-0.0539 -0.0137,-0.082 -0.003,-0.0281 -0.004,-0.0571 -0.004,-0.0859 v -2.33188 c 0,-0.057 0.007,-0.11419 0.0176,-0.16797 1.2e-4,-6.2e-4 -1.3e-4,-0.001 0,-0.002 0.0109,-0.0537 0.0262,-0.10491 0.0469,-0.1543 2.2e-4,-5.2e-4 -2.2e-4,-0.001 0,-0.002 0.021,-0.0499 0.0482,-0.0963 0.0781,-0.14062 0.0299,-0.0443 0.0639,-0.0854 0.10156,-0.12305 0.0377,-0.0377 0.0787,-0.0717 0.12305,-0.10156 0.0443,-0.0299 0.0907,-0.0571 0.14062,-0.0781 5.6e-4,-2.3e-4 0.001,2.3e-4 0.002,0 0.0494,-0.0207 0.10055,-0.0359 0.15429,-0.0469 0.0543,-0.0111 0.11222,-0.0176 0.16992,-0.0176 h 2.67939 z"
         sodipodi:nodetypes="cccsssscccssccccccscccccccccsccssscscccccccscc" />
    </g>
    <g
       id="16-16-audio-volume-muted">
      <path
         style="fill:none;stroke-width:1.06066"
         inkscape:connector-curvature="0"
         id="path1392"
         d="m 312.53497,343.50504 h 18 v 16 h -18 z" />
      <path
         id="path2862"
         style="color:#363636;fill:#fefefe;fill-opacity:1;stroke:#fefefe;stroke-width:0;stroke-miterlimit:4;stroke-dasharray:none;stroke-opacity:1"
         d="m 319.92244,345.00472 c -0.18714,-0.0115 -0.55991,0.13962 -0.69141,0.25781 l -2.60351,3.24219 h -2.45508 c -0.90654,0 -1.63672,0.75528 -1.63672,1.75 v 2.49985 c 0,0.99472 0.73018,1.75 1.63672,1.75 h 2.45508 l 2.78515,3.33398 c 0.13148,0.11821 0.32268,0.17756 0.50977,0.16602 0.3118,-0.0193 0.61328,-0.2375 0.61328,-0.71485 v -11.57016 c 0,-0.47735 -0.30137,-0.69552 -0.61328,-0.71484 z m -0.38672,1.45238 v 0.22461 9.58018 0.27344 l -2.48663,-3.03076 h -2.67939 c -0.0571,0 -0.11419,-0.007 -0.16796,-0.0176 -6.3e-4,-1.3e-4 -10e-4,1.3e-4 -0.002,0 -0.0537,-0.0109 -0.10491,-0.0262 -0.15429,-0.0469 -5.3e-4,-2.3e-4 -0.001,2.2e-4 -0.002,0 -0.0499,-0.021 -0.0963,-0.0482 -0.14062,-0.0781 -0.0443,-0.0299 -0.0854,-0.0639 -0.12305,-0.10156 -0.0377,-0.0377 -0.0717,-0.0787 -0.10156,-0.12305 -0.0299,-0.0443 -0.0571,-0.0907 -0.0781,-0.14062 -2.3e-4,-5.6e-4 2.4e-4,-10e-4 0,-0.002 -0.0207,-0.0494 -0.0359,-0.10055 -0.0469,-0.15429 -1.3e-4,-6.2e-4 1.2e-4,-10e-4 0,-0.002 -0.006,-0.0272 -0.0108,-0.0539 -0.0137,-0.082 -0.003,-0.0281 -0.004,-0.0571 -0.004,-0.0859 v -2.33188 c 0,-0.057 0.007,-0.11419 0.0176,-0.16797 1.2e-4,-6.2e-4 -1.3e-4,-0.001 0,-0.002 0.0109,-0.0537 0.0262,-0.10491 0.0469,-0.1543 2.2e-4,-5.2e-4 -2.2e-4,-0.001 0,-0.002 0.021,-0.0499 0.0482,-0.0963 0.0781,-0.14062 0.0299,-0.0443 0.0639,-0.0854 0.10156,-0.12305 0.0377,-0.0377 0.0787,-0.0717 0.12305,-0.10156 0.0443,-0.0299 0.0907,-0.0571 0.14062,-0.0781 5.6e-4,-2.3e-4 0.001,2.3e-4 0.002,0 0.0494,-0.0207 0.10055,-0.0359 0.15429,-0.0469 0.0543,-0.0111 0.11222,-0.0176 0.16992,-0.0176 h 2.67939 z"
         sodipodi:nodetypes="cccsssscccssccccccscccccccccsccssscscccccccscc" />
      <g
         id="g3442"
         transform="translate(0,0.50000495)">
        <rect
           style="fill:#fefefe;fill-opacity:1;stroke:none;stroke-width:1.09141;stroke-linecap:round;stroke-linejoin:round;stroke-miterlimit:4;stroke-dasharray:none;stroke-opacity:1"
           id="rect1904"
           width="9.0000286"
           height="1"
           x="13.98406"
           y="477.41199"
           ry="0.5"
           transform="matrix(-0.70710678,0.70710678,0.70710678,0.70710678,0,0)" />
        <rect
           style="fill:#fefefe;fill-opacity:1;stroke:none;stroke-width:1.09141;stroke-linecap:round;stroke-linejoin:round;stroke-miterlimit:4;stroke-dasharray:none;stroke-opacity:1"
           id="rect3438"
           width="9.0000286"
           height="1"
           x="473.41199"
           y="17.984074"
           ry="0.5"
           transform="rotate(45)" />
      </g>
    </g>
    <g
       id="audio-volume-high">
      <path
         id="path8385"
         style="fill:#fefefe;fill-opacity:1;stroke:none;stroke-width:1.3;stroke-linecap:round;stroke-linejoin:round;stroke-miterlimit:4;stroke-dasharray:none;stroke-opacity:1"
         d="m 259.64877,402.57124 c -0.0676,-0.004 -0.15074,0.004 -0.24205,0.0238 -0.0913,0.0194 -0.1902,0.0501 -0.28607,0.0846 -0.0959,0.0346 -0.18956,0.0736 -0.27083,0.11511 -0.0813,0.0415 -0.15057,0.085 -0.19805,0.12526 l -5.20677,4.8496 h -3.54622 c -0.16368,0 -0.3232,0.01 -0.47735,0.0288 -0.15414,0.0189 -0.30199,0.0462 -0.44349,0.0847 -0.0707,0.0192 -0.13951,0.0418 -0.20651,0.066 -0.067,0.0243 -0.13181,0.0503 -0.19466,0.0796 -0.0628,0.0293 -0.12449,0.062 -0.18281,0.0965 -0.0583,0.0345 -0.11418,0.0719 -0.16758,0.11172 -0.0534,0.0398 -0.10424,0.0819 -0.15234,0.12695 -0.0481,0.0451 -0.093,0.0917 -0.13542,0.14219 -0.0424,0.0505 -0.0822,0.10482 -0.11849,0.16081 -0.0363,0.056 -0.07,0.11448 -0.0999,0.17604 -0.0298,0.0615 -0.0549,0.12575 -0.0778,0.19297 -0.023,0.0673 -0.0436,0.13694 -0.0593,0.2099 -0.0157,0.073 -0.0275,0.14974 -0.0355,0.22851 -0.008,0.0788 -0.0119,0.16078 -0.0119,0.24544 v 5.20339 c 0,0.0847 0.003,0.16856 0.0119,0.25052 0.008,0.082 0.0198,0.16147 0.0355,0.24036 0.0157,0.0789 0.0363,0.15641 0.0593,0.2319 0.023,0.0755 0.048,0.15 0.0778,0.22175 0.0298,0.0718 0.0635,0.14055 0.0999,0.2082 0.0363,0.0677 0.0761,0.13313 0.11849,0.19636 0.0424,0.0632 0.0873,0.12436 0.13542,0.1828 0.0481,0.0584 0.0989,0.11426 0.15234,0.16758 0.0534,0.0533 0.10926,0.10449 0.16758,0.15234 0.0583,0.0478 0.11996,0.0934 0.18281,0.13542 0.0628,0.042 0.12767,0.0809 0.19466,0.1168 0.067,0.0359 0.13578,0.0687 0.20651,0.0982 0.0707,0.0294 0.14257,0.0553 0.21667,0.0778 0.0741,0.0225 0.14975,0.0405 0.22682,0.0559 0.0771,0.0154 0.15564,0.0276 0.23529,0.0355 0.0796,0.008 0.16022,0.0119 0.24206,0.0119 h 3.54622 l 5.46745,4.97151 c 0.0475,0.0402 0.1006,0.075 0.15742,0.10494 0.0568,0.0299 0.11784,0.0537 0.18112,0.0728 0.0633,0.0192 0.12949,0.0328 0.19635,0.0407 0.0668,0.008 0.13388,0.0107 0.20143,0.007 0.0563,-0.003 0.11256,-0.0101 0.16758,-0.022 0.055,-0.0119 0.10871,-0.0283 0.16081,-0.0491 0.0521,-0.0208 0.10311,-0.0461 0.15065,-0.0762 0.0475,-0.0301 0.0924,-0.0653 0.13372,-0.10495 0.0413,-0.0397 0.0783,-0.0841 0.11172,-0.13372 0.0335,-0.0496 0.0641,-0.10438 0.088,-0.16419 0.0239,-0.0598 0.0413,-0.12429 0.0542,-0.19467 0.0128,-0.0704 0.0203,-0.14723 0.0203,-0.22849 v -17.98674 c 0,-0.0813 -0.008,-0.15645 -0.0203,-0.22682 -0.0128,-0.0704 -0.0303,-0.13484 -0.0542,-0.19466 -0.0239,-0.0598 -0.0546,-0.11461 -0.088,-0.16419 -0.0334,-0.0496 -0.0704,-0.094 -0.11172,-0.13373 -0.0413,-0.0397 -0.0862,-0.0749 -0.13372,-0.10495 -0.0475,-0.0301 -0.0985,-0.0554 -0.15065,-0.0762 -0.0521,-0.0208 -0.10577,-0.0372 -0.16081,-0.049 -0.055,-0.0119 -0.11126,-0.0187 -0.16758,-0.022 z m -0.31582,1.3915 v 17.23323 l -5.30904,-5.0187 h -4.00664 c -0.11533,0 -0.22276,-0.01 -0.32161,-0.0288 -0.0989,-0.0191 -0.18951,-0.0478 -0.27254,-0.0847 -0.0829,-0.0368 -0.15743,-0.082 -0.22512,-0.13542 -0.0677,-0.0535 -0.12978,-0.11392 -0.18282,-0.18282 -0.0529,-0.0688 -0.0965,-0.14548 -0.13541,-0.22851 -0.0388,-0.083 -0.0712,-0.17315 -0.0965,-0.26914 -0.0254,-0.096 -0.0435,-0.19863 -0.0558,-0.30638 -0.0118,-0.10773 -0.0186,-0.22025 -0.0186,-0.33854 v -4.1535 c 0,-0.11829 0.006,-0.23213 0.0186,-0.34023 0.0123,-0.10811 0.0305,-0.2116 0.0558,-0.30807 0.0253,-0.0965 0.0576,-0.18551 0.0965,-0.26915 0.0388,-0.0835 0.0841,-0.16095 0.1371,-0.2302 0.053,-0.0693 0.11344,-0.13095 0.18113,-0.18451 0.0677,-0.0536 0.1421,-0.099 0.22512,-0.13541 0.0829,-0.0364 0.17368,-0.0634 0.27254,-0.0812 0.0988,-0.0177 0.20629,-0.0271 0.32161,-0.0254 h 4.00664 z"
         sodipodi:nodetypes="csssccssscscsssssssssscssssssssssssscccccsccscsscscssccscsssccccscccccccssccccccccccc" />
      <path
         style="fill:none"
         inkscape:connector-curvature="0"
         id="path22-6-6"
         d="m 246.53572,394.50504 h 32 v 32 h -32 z" />
      <path
         style="fill:none;fill-opacity:1;stroke:#fefefe;stroke-width:1.5;stroke-linecap:round;stroke-linejoin:round;stroke-miterlimit:4;stroke-dasharray:none;stroke-opacity:1"
         id="path2158"
         sodipodi:type="arc"
         sodipodi:cx="259.53571"
         sodipodi:cy="412.53748"
         sodipodi:rx="6.5"
         sodipodi:ry="6.5"
         sodipodi:start="5.7595865"
         sodipodi:end="0.52359878"
         sodipodi:arc-type="arc"
         sodipodi:open="true"
         d="m 265.16487,409.28748 a 6.5,6.5 0 0 1 0,6.5" />
      <path
         style="fill:none;fill-opacity:1;stroke:#fefefe;stroke-width:1.5;stroke-linecap:round;stroke-linejoin:round;stroke-miterlimit:4;stroke-dasharray:none;stroke-opacity:1"
         id="path2160"
         sodipodi:type="arc"
         sodipodi:cx="257.53571"
         sodipodi:cy="412.53748"
         sodipodi:rx="13.5"
         sodipodi:ry="13.5"
         sodipodi:start="5.7595865"
         sodipodi:end="0.52359878"
         sodipodi:arc-type="arc"
         sodipodi:open="true"
         d="m 269.22705,405.78748 a 13.5,13.5 0 0 1 0,13.5" />
      <path
         style="fill:none;fill-opacity:1;stroke:#fefefe;stroke-width:1.5;stroke-linecap:round;stroke-linejoin:round;stroke-miterlimit:4;stroke-dasharray:none;stroke-opacity:1"
         id="path2162"
         sodipodi:type="arc"
         sodipodi:cx="256.54199"
         sodipodi:cy="412.53748"
         sodipodi:rx="19.5"
         sodipodi:ry="19.5"
         sodipodi:start="5.7595865"
         sodipodi:end="0.52359878"
         sodipodi:arc-type="arc"
         sodipodi:open="true"
         d="m 273.42949,402.78748 a 19.5,19.5 0 0 1 0,19.5" />
    </g>
    <g
       id="audio-volume-medium"
       transform="translate(32)">
      <path
         id="path6998"
         style="fill:#fefefe;fill-opacity:1;stroke:none;stroke-width:1.3;stroke-linecap:round;stroke-linejoin:round;stroke-miterlimit:4;stroke-dasharray:none;stroke-opacity:1"
         d="m 259.64877,402.57124 c -0.0676,-0.004 -0.15074,0.004 -0.24205,0.0238 -0.0913,0.0194 -0.1902,0.0501 -0.28607,0.0846 -0.0959,0.0346 -0.18956,0.0736 -0.27083,0.11511 -0.0813,0.0415 -0.15057,0.085 -0.19805,0.12526 l -5.20677,4.8496 h -3.54622 c -0.16368,0 -0.3232,0.01 -0.47735,0.0288 -0.15414,0.0189 -0.30199,0.0462 -0.44349,0.0847 -0.0707,0.0192 -0.13951,0.0418 -0.20651,0.066 -0.067,0.0243 -0.13181,0.0503 -0.19466,0.0796 -0.0628,0.0293 -0.12449,0.062 -0.18281,0.0965 -0.0583,0.0345 -0.11418,0.0719 -0.16758,0.11172 -0.0534,0.0398 -0.10424,0.0819 -0.15234,0.12695 -0.0481,0.0451 -0.093,0.0917 -0.13542,0.14219 -0.0424,0.0505 -0.0822,0.10482 -0.11849,0.16081 -0.0363,0.056 -0.07,0.11448 -0.0999,0.17604 -0.0298,0.0615 -0.0549,0.12575 -0.0778,0.19297 -0.023,0.0673 -0.0436,0.13694 -0.0593,0.2099 -0.0157,0.073 -0.0275,0.14974 -0.0355,0.22851 -0.008,0.0788 -0.0119,0.16078 -0.0119,0.24544 v 5.20339 c 0,0.0847 0.003,0.16856 0.0119,0.25052 0.008,0.082 0.0198,0.16147 0.0355,0.24036 0.0157,0.0789 0.0363,0.15641 0.0593,0.2319 0.023,0.0755 0.048,0.15 0.0778,0.22175 0.0298,0.0718 0.0635,0.14055 0.0999,0.2082 0.0363,0.0677 0.0761,0.13313 0.11849,0.19636 0.0424,0.0632 0.0873,0.12436 0.13542,0.1828 0.0481,0.0584 0.0989,0.11426 0.15234,0.16758 0.0534,0.0533 0.10926,0.10449 0.16758,0.15234 0.0583,0.0478 0.11996,0.0934 0.18281,0.13542 0.0628,0.042 0.12767,0.0809 0.19466,0.1168 0.067,0.0359 0.13578,0.0687 0.20651,0.0982 0.0707,0.0294 0.14257,0.0553 0.21667,0.0778 0.0741,0.0225 0.14975,0.0405 0.22682,0.0559 0.0771,0.0154 0.15564,0.0276 0.23529,0.0355 0.0796,0.008 0.16022,0.0119 0.24206,0.0119 h 3.54622 l 5.46745,4.97151 c 0.0475,0.0402 0.1006,0.075 0.15742,0.10494 0.0568,0.0299 0.11784,0.0537 0.18112,0.0728 0.0633,0.0192 0.12949,0.0328 0.19635,0.0407 0.0668,0.008 0.13388,0.0107 0.20143,0.007 0.0563,-0.003 0.11256,-0.0101 0.16758,-0.022 0.055,-0.0119 0.10871,-0.0283 0.16081,-0.0491 0.0521,-0.0208 0.10311,-0.0461 0.15065,-0.0762 0.0475,-0.0301 0.0924,-0.0653 0.13372,-0.10495 0.0413,-0.0397 0.0783,-0.0841 0.11172,-0.13372 0.0335,-0.0496 0.0641,-0.10438 0.088,-0.16419 0.0239,-0.0598 0.0413,-0.12429 0.0542,-0.19467 0.0128,-0.0704 0.0203,-0.14723 0.0203,-0.22849 v -17.98674 c 0,-0.0813 -0.008,-0.15645 -0.0203,-0.22682 -0.0128,-0.0704 -0.0303,-0.13484 -0.0542,-0.19466 -0.0239,-0.0598 -0.0546,-0.11461 -0.088,-0.16419 -0.0334,-0.0496 -0.0704,-0.094 -0.11172,-0.13373 -0.0413,-0.0397 -0.0862,-0.0749 -0.13372,-0.10495 -0.0475,-0.0301 -0.0985,-0.0554 -0.15065,-0.0762 -0.0521,-0.0208 -0.10577,-0.0372 -0.16081,-0.049 -0.055,-0.0119 -0.11126,-0.0187 -0.16758,-0.022 z m -0.31582,1.3915 v 17.23323 l -5.30904,-5.0187 h -4.00664 c -0.11533,0 -0.22276,-0.01 -0.32161,-0.0288 -0.0989,-0.0191 -0.18951,-0.0478 -0.27254,-0.0847 -0.0829,-0.0368 -0.15743,-0.082 -0.22512,-0.13542 -0.0677,-0.0535 -0.12978,-0.11392 -0.18282,-0.18282 -0.0529,-0.0688 -0.0965,-0.14548 -0.13541,-0.22851 -0.0388,-0.083 -0.0712,-0.17315 -0.0965,-0.26914 -0.0254,-0.096 -0.0435,-0.19863 -0.0558,-0.30638 -0.0118,-0.10773 -0.0186,-0.22025 -0.0186,-0.33854 v -4.1535 c 0,-0.11829 0.006,-0.23213 0.0186,-0.34023 0.0123,-0.10811 0.0305,-0.2116 0.0558,-0.30807 0.0253,-0.0965 0.0576,-0.18551 0.0965,-0.26915 0.0388,-0.0835 0.0841,-0.16095 0.1371,-0.2302 0.053,-0.0693 0.11344,-0.13095 0.18113,-0.18451 0.0677,-0.0536 0.1421,-0.099 0.22512,-0.13541 0.0829,-0.0364 0.17368,-0.0634 0.27254,-0.0812 0.0988,-0.0177 0.20629,-0.0271 0.32161,-0.0254 h 4.00664 z"
         sodipodi:nodetypes="csssccssscscsssssssssscssssssssssssscccccsccscsscscssccscsssccccscccccccssccccccccccc" />
      <path
         style="fill:none"
         inkscape:connector-curvature="0"
         id="path7000"
         d="m 246.53572,394.50504 h 32 v 32 h -32 z" />
      <path
         style="fill:none;fill-opacity:1;stroke:#fefefe;stroke-width:1.5;stroke-linecap:round;stroke-linejoin:round;stroke-miterlimit:4;stroke-dasharray:none;stroke-opacity:1"
         id="path7002"
         sodipodi:type="arc"
         sodipodi:cx="259.53571"
         sodipodi:cy="412.53748"
         sodipodi:rx="6.5"
         sodipodi:ry="6.5"
         sodipodi:start="5.7595865"
         sodipodi:end="0.52359878"
         sodipodi:arc-type="arc"
         sodipodi:open="true"
         d="m 265.16487,409.28748 a 6.5,6.5 0 0 1 0,6.5" />
      <path
         style="fill:none;fill-opacity:1;stroke:#fefefe;stroke-width:1.5;stroke-linecap:round;stroke-linejoin:round;stroke-miterlimit:4;stroke-dasharray:none;stroke-opacity:1"
         id="path7004"
         sodipodi:type="arc"
         sodipodi:cx="257.53571"
         sodipodi:cy="412.53748"
         sodipodi:rx="13.5"
         sodipodi:ry="13.5"
         sodipodi:start="5.7595865"
         sodipodi:end="0.52359878"
         sodipodi:arc-type="arc"
         sodipodi:open="true"
         d="m 269.22705,405.78748 a 13.5,13.5 0 0 1 0,13.5" />
      <path
         style="opacity:0.3;fill:none;fill-opacity:1;stroke:#fefefe;stroke-width:1.5;stroke-linecap:round;stroke-linejoin:round;stroke-miterlimit:4;stroke-dasharray:none;stroke-opacity:1"
         id="path7006"
         sodipodi:type="arc"
         sodipodi:cx="256.54199"
         sodipodi:cy="412.53748"
         sodipodi:rx="19.5"
         sodipodi:ry="19.5"
         sodipodi:start="5.7595865"
         sodipodi:end="0.52359878"
         sodipodi:arc-type="arc"
         sodipodi:open="true"
         d="m 273.42949,402.78748 a 19.5,19.5 0 0 1 0,19.5" />
    </g>
    <g
       id="audio-volume-low"
       transform="translate(64)">
      <path
         id="path7010"
         style="fill:#fefefe;fill-opacity:1;stroke:none;stroke-width:1.3;stroke-linecap:round;stroke-linejoin:round;stroke-miterlimit:4;stroke-dasharray:none;stroke-opacity:1"
         d="m 259.64877,402.57124 c -0.0676,-0.004 -0.15074,0.004 -0.24205,0.0238 -0.0913,0.0194 -0.1902,0.0501 -0.28607,0.0846 -0.0959,0.0346 -0.18956,0.0736 -0.27083,0.11511 -0.0813,0.0415 -0.15057,0.085 -0.19805,0.12526 l -5.20677,4.8496 h -3.54622 c -0.16368,0 -0.3232,0.01 -0.47735,0.0288 -0.15414,0.0189 -0.30199,0.0462 -0.44349,0.0847 -0.0707,0.0192 -0.13951,0.0418 -0.20651,0.066 -0.067,0.0243 -0.13181,0.0503 -0.19466,0.0796 -0.0628,0.0293 -0.12449,0.062 -0.18281,0.0965 -0.0583,0.0345 -0.11418,0.0719 -0.16758,0.11172 -0.0534,0.0398 -0.10424,0.0819 -0.15234,0.12695 -0.0481,0.0451 -0.093,0.0917 -0.13542,0.14219 -0.0424,0.0505 -0.0822,0.10482 -0.11849,0.16081 -0.0363,0.056 -0.07,0.11448 -0.0999,0.17604 -0.0298,0.0615 -0.0549,0.12575 -0.0778,0.19297 -0.023,0.0673 -0.0436,0.13694 -0.0593,0.2099 -0.0157,0.073 -0.0275,0.14974 -0.0355,0.22851 -0.008,0.0788 -0.0119,0.16078 -0.0119,0.24544 v 5.20339 c 0,0.0847 0.003,0.16856 0.0119,0.25052 0.008,0.082 0.0198,0.16147 0.0355,0.24036 0.0157,0.0789 0.0363,0.15641 0.0593,0.2319 0.023,0.0755 0.048,0.15 0.0778,0.22175 0.0298,0.0718 0.0635,0.14055 0.0999,0.2082 0.0363,0.0677 0.0761,0.13313 0.11849,0.19636 0.0424,0.0632 0.0873,0.12436 0.13542,0.1828 0.0481,0.0584 0.0989,0.11426 0.15234,0.16758 0.0534,0.0533 0.10926,0.10449 0.16758,0.15234 0.0583,0.0478 0.11996,0.0934 0.18281,0.13542 0.0628,0.042 0.12767,0.0809 0.19466,0.1168 0.067,0.0359 0.13578,0.0687 0.20651,0.0982 0.0707,0.0294 0.14257,0.0553 0.21667,0.0778 0.0741,0.0225 0.14975,0.0405 0.22682,0.0559 0.0771,0.0154 0.15564,0.0276 0.23529,0.0355 0.0796,0.008 0.16022,0.0119 0.24206,0.0119 h 3.54622 l 5.46745,4.97151 c 0.0475,0.0402 0.1006,0.075 0.15742,0.10494 0.0568,0.0299 0.11784,0.0537 0.18112,0.0728 0.0633,0.0192 0.12949,0.0328 0.19635,0.0407 0.0668,0.008 0.13388,0.0107 0.20143,0.007 0.0563,-0.003 0.11256,-0.0101 0.16758,-0.022 0.055,-0.0119 0.10871,-0.0283 0.16081,-0.0491 0.0521,-0.0208 0.10311,-0.0461 0.15065,-0.0762 0.0475,-0.0301 0.0924,-0.0653 0.13372,-0.10495 0.0413,-0.0397 0.0783,-0.0841 0.11172,-0.13372 0.0335,-0.0496 0.0641,-0.10438 0.088,-0.16419 0.0239,-0.0598 0.0413,-0.12429 0.0542,-0.19467 0.0128,-0.0704 0.0203,-0.14723 0.0203,-0.22849 v -17.98674 c 0,-0.0813 -0.008,-0.15645 -0.0203,-0.22682 -0.0128,-0.0704 -0.0303,-0.13484 -0.0542,-0.19466 -0.0239,-0.0598 -0.0546,-0.11461 -0.088,-0.16419 -0.0334,-0.0496 -0.0704,-0.094 -0.11172,-0.13373 -0.0413,-0.0397 -0.0862,-0.0749 -0.13372,-0.10495 -0.0475,-0.0301 -0.0985,-0.0554 -0.15065,-0.0762 -0.0521,-0.0208 -0.10577,-0.0372 -0.16081,-0.049 -0.055,-0.0119 -0.11126,-0.0187 -0.16758,-0.022 z m -0.31582,1.3915 v 17.23323 l -5.30904,-5.0187 h -4.00664 c -0.11533,0 -0.22276,-0.01 -0.32161,-0.0288 -0.0989,-0.0191 -0.18951,-0.0478 -0.27254,-0.0847 -0.0829,-0.0368 -0.15743,-0.082 -0.22512,-0.13542 -0.0677,-0.0535 -0.12978,-0.11392 -0.18282,-0.18282 -0.0529,-0.0688 -0.0965,-0.14548 -0.13541,-0.22851 -0.0388,-0.083 -0.0712,-0.17315 -0.0965,-0.26914 -0.0254,-0.096 -0.0435,-0.19863 -0.0558,-0.30638 -0.0118,-0.10773 -0.0186,-0.22025 -0.0186,-0.33854 v -4.1535 c 0,-0.11829 0.006,-0.23213 0.0186,-0.34023 0.0123,-0.10811 0.0305,-0.2116 0.0558,-0.30807 0.0253,-0.0965 0.0576,-0.18551 0.0965,-0.26915 0.0388,-0.0835 0.0841,-0.16095 0.1371,-0.2302 0.053,-0.0693 0.11344,-0.13095 0.18113,-0.18451 0.0677,-0.0536 0.1421,-0.099 0.22512,-0.13541 0.0829,-0.0364 0.17368,-0.0634 0.27254,-0.0812 0.0988,-0.0177 0.20629,-0.0271 0.32161,-0.0254 h 4.00664 z"
         sodipodi:nodetypes="csssccssscscsssssssssscssssssssssssscccccsccscsscscssccscsssccccscccccccssccccccccccc" />
      <path
         style="fill:none"
         inkscape:connector-curvature="0"
         id="path7012"
         d="m 246.53572,394.50504 h 32 v 32 h -32 z" />
      <path
         style="fill:none;fill-opacity:1;stroke:#fefefe;stroke-width:1.5;stroke-linecap:round;stroke-linejoin:round;stroke-miterlimit:4;stroke-dasharray:none;stroke-opacity:1"
         id="path7014"
         sodipodi:type="arc"
         sodipodi:cx="259.53571"
         sodipodi:cy="412.53748"
         sodipodi:rx="6.5"
         sodipodi:ry="6.5"
         sodipodi:start="5.7595865"
         sodipodi:end="0.52359878"
         sodipodi:arc-type="arc"
         sodipodi:open="true"
         d="m 265.16487,409.28748 a 6.5,6.5 0 0 1 0,6.5" />
      <path
         style="opacity:0.3;fill:none;fill-opacity:1;stroke:#fefefe;stroke-width:1.5;stroke-linecap:round;stroke-linejoin:round;stroke-miterlimit:4;stroke-dasharray:none;stroke-opacity:1"
         id="path7016"
         sodipodi:type="arc"
         sodipodi:cx="257.53571"
         sodipodi:cy="412.53748"
         sodipodi:rx="13.5"
         sodipodi:ry="13.5"
         sodipodi:start="5.7595865"
         sodipodi:end="0.52359878"
         sodipodi:arc-type="arc"
         sodipodi:open="true"
         d="m 269.22705,405.78748 a 13.5,13.5 0 0 1 0,13.5" />
      <path
         style="opacity:0.3;fill:none;fill-opacity:1;stroke:#fefefe;stroke-width:1.5;stroke-linecap:round;stroke-linejoin:round;stroke-miterlimit:4;stroke-dasharray:none;stroke-opacity:1"
         id="path7018"
         sodipodi:type="arc"
         sodipodi:cx="256.54199"
         sodipodi:cy="412.53748"
         sodipodi:rx="19.5"
         sodipodi:ry="19.5"
         sodipodi:start="5.7595865"
         sodipodi:end="0.52359878"
         sodipodi:arc-type="arc"
         sodipodi:open="true"
         d="m 273.42949,402.78748 a 19.5,19.5 0 0 1 0,19.5" />
    </g>
  </g>
</svg>
