<?xml version="1.0" encoding="UTF-8" standalone="no"?>
<svg
   width="22"
   height="22"
   version="1.0"
   viewBox="0 0 22 22"
   id="svg199"
   sodipodi:docname="battery.svg"
   inkscape:version="1.3 (0e150ed6c4, 2023-07-21)"
   xmlns:inkscape="http://www.inkscape.org/namespaces/inkscape"
   xmlns:sodipodi="http://sodipodi.sourceforge.net/DTD/sodipodi-0.dtd"
   xmlns="http://www.w3.org/2000/svg"
   xmlns:svg="http://www.w3.org/2000/svg"
   xmlns:rdf="http://www.w3.org/1999/02/22-rdf-syntax-ns#"
   xmlns:cc="http://creativecommons.org/ns#"
   xmlns:dc="http://purl.org/dc/elements/1.1/">
  <metadata
     id="metadata106">
    <rdf:RDF>
      <cc:Work
         rdf:about="">
        <dc:format>image/svg+xml</dc:format>
        <dc:type
           rdf:resource="http://purl.org/dc/dcmitype/StillImage" />
      </cc:Work>
    </rdf:RDF>
  </metadata>
  <sodipodi:namedview
     pagecolor="#737373"
     bordercolor="#666666"
     borderopacity="1"
     objecttolerance="10"
     gridtolerance="10"
     guidetolerance="10"
     inkscape:pageopacity="0"
     inkscape:pageshadow="2"
     inkscape:window-width="1920"
     inkscape:window-height="1004"
     id="namedview107"
     showgrid="true"
     inkscape:zoom="2.3839127"
     inkscape:cx="180.37573"
     inkscape:cy="26.84662"
     inkscape:window-x="0"
     inkscape:window-y="0"
     inkscape:window-maximized="1"
     inkscape:current-layer="svg199"
     inkscape:document-rotation="0"
     showguides="false"
     inkscape:guide-bbox="true"
     inkscape:snap-bbox="true"
     inkscape:bbox-nodes="true"
     inkscape:snap-bbox-edge-midpoints="true"
     inkscape:snap-nodes="false"
     inkscape:pagecheckerboard="0"
     inkscape:snap-smooth-nodes="true"
     inkscape:showpageshadow="2"
     inkscape:deskcolor="#808080">
    <inkscape:grid
       type="xygrid"
       id="grid960"
       originx="1.9999981"
       originy="49"
       spacingy="1"
       spacingx="1"
       units="px"
       visible="true" />
  </sodipodi:namedview>
  <defs
     id="defs3">
    <style
       id="current-color-scheme"
       type="text/css">.ColorScheme-Text {   color:#dfdfdf; } .ColorScheme-Background{   color:#f5f5f5; } .ColorScheme-ViewText {   color:#fbfbfb; } .ColorScheme-ViewBackground{   color:#ffffff; } .ColorScheme-ViewHover {   color:#000000; } .ColorScheme-ViewFocus{   color:#5a5a5a; } .ColorScheme-ButtonText {   color:#333333; } .ColorScheme-ButtonBackground{   color:#f5f5f5; } .ColorScheme-ButtonHover {   color:#1489ff; } .ColorScheme-ButtonFocus{   color:#2B74C7; }</style>
  </defs>
  <g
     id="22-22-Battery">
    <rect
       y="0"
       x="0"
       height="22"
       width="22"
       id="rect918"
       style="opacity:0;fill:#000000;fill-opacity:1;fill-rule:evenodd;stroke:none;stroke-width:2;stroke-linecap:round;stroke-linejoin:round;stroke-miterlimit:4;stroke-dasharray:none;stroke-opacity:1;paint-order:fill markers stroke" />
    <path
       id="path1747"
       d="M 9,4 H 7 C 5.892,4 5,4.892 5,6 v 11 c 0,1.108 0.892,2 2,2 h 8 c 1.108,0 2,-0.892 2,-2 V 6 C 17,4.892 16.108,4 15,4 H 13 Z M 7,5 h 3 2 3 c 0.554,0 1,0.446 1,1 v 11 c 0,0.554 -0.446,1 -1,1 H 7 C 6.446,18 6,17.554 6,17 V 6 C 6,5.446 6.446,5 7,5 Z"
       class="ColorScheme-Text"
       fill="currentColor" />
    <rect
       id="rect1880"
       width="6"
       height="1"
       x="8"
       y="2"
       class="ColorScheme-Text"
       fill="currentColor" />
  </g>
  <g
     id="22-22-Fill100">
    <rect
       id="rect1831"
       width="8"
       height="2"
       x="35"
       y="15"
       fill="currentColor"
       class="ColorScheme-Text"
       style="opacity:0.45;stroke-width:0.492366" />
    <rect
       y="0"
       x="28"
       height="22"
       width="22"
       id="rect930"
       style="opacity:0;fill:#000000;fill-opacity:1;fill-rule:evenodd;stroke:none;stroke-width:2;stroke-linecap:round;stroke-linejoin:round;stroke-miterlimit:4;stroke-dasharray:none;stroke-opacity:1;paint-order:fill markers stroke" />
    <rect
       id="rect4013"
       width="8"
       height="2"
       x="35"
       y="12"
       fill="currentColor"
       class="ColorScheme-Text"
       style="opacity:0.45;stroke-width:0.492366" />
    <rect
       id="rect4015"
       width="8"
       height="2"
       x="35"
       y="9"
       fill="currentColor"
       class="ColorScheme-Text"
       style="opacity:0.45;stroke-width:0.492366" />
    <rect
       id="rect4017"
       width="8"
       height="2"
       x="35"
       y="6"
       fill="currentColor"
       class="ColorScheme-Text"
       style="opacity:0.45;stroke-width:0.492366" />
  </g>
  <g
     id="22-22-Fill90">
    <rect
       style="opacity:0;fill:#000000;fill-opacity:1;fill-rule:evenodd;stroke:none;stroke-width:2;stroke-linecap:round;stroke-linejoin:round;stroke-miterlimit:4;stroke-dasharray:none;stroke-opacity:1;paint-order:fill markers stroke"
       id="rect932"
       width="22"
       height="22"
       x="59"
       y="0" />
    <rect
       id="rect2604"
       width="8"
       height="2"
       x="66"
       y="15"
       fill="currentColor"
       class="ColorScheme-Text"
       style="opacity:0.45;stroke-width:0.492364" />
    <rect
       id="rect4019"
       width="8"
       height="2"
       x="66"
       y="12"
       fill="currentColor"
       class="ColorScheme-Text"
       style="opacity:0.45;stroke-width:0.492364" />
    <rect
       id="rect4021"
       width="8"
       height="2"
       x="66"
       y="9"
       fill="currentColor"
       class="ColorScheme-Text"
       style="opacity:0.45;stroke-width:0.492364" />
    <rect
       id="rect4023"
       width="8"
       height="1"
       x="66"
       y="7"
       fill="currentColor"
       class="ColorScheme-Text"
       style="opacity:0.45;stroke-width:0.348154" />
  </g>
  <g
     id="22-22-Fill80">
    <rect
       id="rect2606"
       width="8"
       height="2"
       x="97"
       y="15"
       fill="currentColor"
       class="ColorScheme-Text"
       style="opacity:0.45;stroke-width:0.492368" />
    <rect
       y="0"
       x="90"
       height="22"
       width="22"
       id="rect934"
       style="opacity:0;fill:#000000;fill-opacity:1;fill-rule:evenodd;stroke:none;stroke-width:2;stroke-linecap:round;stroke-linejoin:round;stroke-miterlimit:4;stroke-dasharray:none;stroke-opacity:1;paint-order:fill markers stroke" />
    <rect
       id="rect4025"
       width="8"
       height="2"
       x="97"
       y="12"
       fill="currentColor"
       class="ColorScheme-Text"
       style="opacity:0.45;stroke-width:0.492368" />
    <rect
       id="rect4027"
       width="8"
       height="2"
       x="97"
       y="9"
       fill="currentColor"
       class="ColorScheme-Text"
       style="opacity:0.45;stroke-width:0.492368" />
    <rect
       id="rect4029"
       width="8"
       height="1"
       x="97"
       y="7"
       fill="currentColor"
       class="ColorScheme-Text"
       style="opacity:0.15;stroke-width:0.348157" />
  </g>
  <g
     id="22-22-Fill70">
    <rect
       id="rect2608"
       width="8"
       height="2"
       x="128"
       y="15"
       fill="currentColor"
       class="ColorScheme-Text"
       style="opacity:0.45;stroke-width:0.492366" />
    <rect
       style="opacity:0;fill:#000000;fill-opacity:1;fill-rule:evenodd;stroke:none;stroke-width:2;stroke-linecap:round;stroke-linejoin:round;stroke-miterlimit:4;stroke-dasharray:none;stroke-opacity:1;paint-order:fill markers stroke"
       id="rect936"
       width="22"
       height="22"
       x="121"
       y="0" />
    <rect
       id="rect4031"
       width="8"
       height="2"
       x="128"
       y="12"
       fill="currentColor"
       class="ColorScheme-Text"
       style="opacity:0.45;stroke-width:0.492366" />
    <rect
       id="rect4033"
       width="8"
       height="2"
       x="128"
       y="9"
       fill="currentColor"
       class="ColorScheme-Text"
       style="opacity:0.45;stroke-width:0.492366" />
  </g>
  <g
     id="22-22-Fill60">
    <rect
       id="rect2610"
       width="8"
       height="2"
       x="159"
       y="15"
       fill="currentColor"
       class="ColorScheme-Text"
       style="opacity:0.45;stroke-width:0.492366" />
    <rect
       y="0"
       x="152"
       height="22"
       width="22"
       id="rect938"
       style="opacity:0;fill:#000000;fill-opacity:1;fill-rule:evenodd;stroke:none;stroke-width:2;stroke-linecap:round;stroke-linejoin:round;stroke-miterlimit:4;stroke-dasharray:none;stroke-opacity:1;paint-order:fill markers stroke" />
    <rect
       id="rect4035"
       width="8"
       height="2"
       x="159"
       y="12"
       fill="currentColor"
       class="ColorScheme-Text"
       style="opacity:0.45;stroke-width:0.492366" />
    <rect
       id="rect4037"
       width="8"
       height="1"
       x="159"
       y="10"
       fill="currentColor"
       class="ColorScheme-Text"
       style="opacity:0.45;stroke-width:0.348155" />
  </g>
  <g
     id="22-22-Fill50">
    <rect
       id="rect2612"
       width="8"
       height="2"
       x="190"
       y="15"
       fill="currentColor"
       class="ColorScheme-Text"
       style="opacity:0.45;stroke-width:0.492366" />
    <rect
       style="opacity:0;fill:#000000;fill-opacity:1;fill-rule:evenodd;stroke:none;stroke-width:2;stroke-linecap:round;stroke-linejoin:round;stroke-miterlimit:4;stroke-dasharray:none;stroke-opacity:1;paint-order:fill markers stroke"
       id="rect940"
       width="22"
       height="22"
       x="183"
       y="0" />
    <rect
       id="rect4039"
       width="8"
       height="2"
       x="190"
       y="12"
       fill="currentColor"
       class="ColorScheme-Text"
       style="opacity:0.45;stroke-width:0.492366" />
    <rect
       id="rect4041"
       width="8"
       height="1"
       x="190"
       y="10"
       fill="currentColor"
       class="ColorScheme-Text"
       style="opacity:0.15;stroke-width:0.348155" />
  </g>
  <g
     id="22-22-Fill30">
    <rect
       id="rect2616"
       width="8"
       height="2"
       x="252"
       y="15"
       fill="currentColor"
       class="ColorScheme-Text"
       style="opacity:0.45;stroke-width:0.492366" />
    <rect
       style="opacity:0;fill:#000000;fill-opacity:1;fill-rule:evenodd;stroke:none;stroke-width:2;stroke-linecap:round;stroke-linejoin:round;stroke-miterlimit:4;stroke-dasharray:none;stroke-opacity:1;paint-order:fill markers stroke"
       id="rect944"
       width="22"
       height="22"
       x="245"
       y="0" />
    <rect
       id="rect4045"
       width="8"
       height="1"
       x="252"
       y="13"
       fill="currentColor"
       class="ColorScheme-Text"
       style="opacity:0.45;stroke-width:0.348155" />
  </g>
  <g
     id="22-22-AcAdapter">
    <rect
       y="28"
       x="0"
       height="22"
       width="22"
       id="rect2775"
       style="opacity:0;fill:#000000;fill-opacity:1;fill-rule:evenodd;stroke:none;stroke-width:2;stroke-linecap:round;stroke-linejoin:round;stroke-miterlimit:4;stroke-dasharray:none;stroke-opacity:1;paint-order:fill markers stroke" />
    <path
       id="path2777"
       d="M 9,32 H 7 c -1.108,0 -2,0.892 -2,2 v 11 c 0,1.108 0.892,2 2,2 h 8 c 1.108,0 2,-0.892 2,-2 V 34 c 0,-1.108 -0.892,-2 -2,-2 h -2 z"
       style="fill:#4caf50;fill-opacity:1" />
    <rect
       id="rect2779"
       width="6"
       height="1"
       x="8"
       y="30"
       style="fill:#4caf50;fill-opacity:1" />
    <path
       d="m 8,38 a 3,3 0 0 0 2,2.826 V 42 h 2 V 40.824 A 3,3 0 0 0 14,38 h -1 v -2 h -1 v 2 H 10 V 36 H 9 v 2 z"
       id="path4600"
       style="fill:#ffffff;fill-opacity:1" />
  </g>
  <g
     id="Battery">
    <rect
       style="opacity:0;fill:#000000;fill-opacity:1;fill-rule:evenodd;stroke:none;stroke-width:2;stroke-linecap:round;stroke-linejoin:round;stroke-miterlimit:4;stroke-dasharray:none;stroke-opacity:1;paint-order:fill markers stroke"
       id="rect2262"
       width="32"
       height="32"
       x="2"
       y="70" />
    <path
       id="rect23536"
       class="ColorScheme-Text"
       d="m 12,76 c -1.661998,0 -3,1.338002 -3,3 v 16 c 0,1.661998 1.338002,3 3,3 h 12 c 1.661998,0 3,-1.338002 3,-3 V 79 c 0,-1.661998 -1.338002,-3 -3,-3 z m 0,1 h 12 c 1.107999,0 2,0.892001 2,2 v 16 c 0,1.107999 -0.892001,2 -2,2 H 12 c -1.107999,0 -2,-0.892001 -2,-2 V 79 c 0,-1.107999 0.892001,-2 2,-2 z"
       fill="currentColor" />
    <rect
       id="rect2134"
       width="8"
       height="1"
       x="14"
       y="74"
       class="ColorScheme-Text"
       fill="currentColor" />
  </g>
  <g
     id="Fill100">
    <path
       id="rect4253"
       style="opacity:0.45"
       class="ColorScheme-Text"
       d="m 47,78 c -0.553999,0 -1,0.446001 -1,1 v 1 h 14 v -1 c 0,-0.553999 -0.446001,-1 -1,-1 z m -1,3 v 3 h 14 v -3 z m 0,4 v 3 h 14 v -3 z m 0,4 v 3 h 14 v -3 z m 0,4 v 2 c 0,0.553999 0.446001,1 1,1 h 12 c 0.553999,0 1,-0.446001 1,-1 v -2 z"
       fill="currentColor" />
    <rect
       y="70"
       x="37"
       height="31.999998"
       width="31.999998"
       id="rect918-6"
       style="opacity:0;fill:#000000;fill-opacity:1;fill-rule:evenodd;stroke:none;stroke-width:2;stroke-linecap:round;stroke-linejoin:round;stroke-miterlimit:4;stroke-dasharray:none;stroke-opacity:1;paint-order:fill markers stroke" />
  </g>
  <g
     id="22-22-Fill40">
    <rect
       y="0"
       x="214"
       height="22"
       width="22"
       id="rect942"
       style="opacity:0;fill:#000000;fill-opacity:1;fill-rule:evenodd;stroke:none;stroke-width:2;stroke-linecap:round;stroke-linejoin:round;stroke-miterlimit:4;stroke-dasharray:none;stroke-opacity:1;paint-order:fill markers stroke" />
    <rect
       id="rect2614"
       width="8"
       height="2"
       x="221"
       y="15"
       fill="currentColor"
       class="ColorScheme-Text"
       style="opacity:0.45;stroke-width:0.492366" />
    <rect
       id="rect4043"
       width="8"
       height="2"
       x="221"
       y="12"
       fill="currentColor"
       class="ColorScheme-Text"
       style="opacity:0.45;stroke-width:0.492366" />
  </g>
  <g
     id="22-22-Fill20">
    <rect
       y="0"
       x="277"
       height="22"
       width="22"
       id="rect946"
       style="opacity:0;fill:#000000;fill-opacity:1;fill-rule:evenodd;stroke:none;stroke-width:2;stroke-linecap:round;stroke-linejoin:round;stroke-miterlimit:4;stroke-dasharray:none;stroke-opacity:1;paint-order:fill markers stroke" />
    <rect
       id="rect2618"
       width="8"
       height="2"
       x="284"
       y="15"
       style="opacity:0.45;fill:#ff5555;fill-opacity:1;stroke-width:0.492366" />
  </g>
  <g
     id="22-22-Fill10">
    <rect
       y="0"
       x="308"
       height="22"
       width="22"
       id="rect954"
       style="opacity:0;fill:#000000;fill-opacity:1;fill-rule:evenodd;stroke:none;stroke-width:2;stroke-linecap:round;stroke-linejoin:round;stroke-miterlimit:4;stroke-dasharray:none;stroke-opacity:1;paint-order:fill markers stroke" />
    <rect
       id="rect2620"
       width="8"
       height="1"
       x="315"
       y="16"
       style="opacity:0.45;fill:#ff5555;fill-opacity:1;stroke-width:0.348155" />
  </g>
  <g
     id="16-16-Fill100">
    <rect
       y="-25"
       x="25"
       height="16"
       width="16"
       id="rect959"
       style="fill:none" />
    <rect
       id="rect961"
       width="8"
       height="2"
       x="29"
       y="-13"
       class="ColorScheme-Text"
       fill="currentColor"
       style="opacity:0.45;stroke-width:0.492366" />
    <rect
       id="rect3798"
       width="8"
       height="2"
       x="29"
       y="-16"
       class="ColorScheme-Text"
       fill="currentColor"
       style="opacity:0.45;stroke-width:0.492366" />
    <rect
       id="rect3800"
       width="8"
       height="2"
       x="29"
       y="-19"
       class="ColorScheme-Text"
       fill="currentColor"
       style="opacity:0.45;stroke-width:0.492366" />
    <rect
       id="rect3802"
       width="8"
       height="2"
       x="29"
       y="-22"
       class="ColorScheme-Text"
       fill="currentColor"
       style="opacity:0.45;stroke-width:0.492366" />
  </g>
  <g
     id="16-16-Fill90"
     transform="translate(21.999998)">
    <rect
       y="-25"
       x="25"
       height="16"
       width="16"
       id="rect1109"
       style="fill:none" />
    <rect
       id="rect1111"
       width="8"
       height="2"
       x="29"
       y="-13"
       class="ColorScheme-Text"
       fill="currentColor"
       style="opacity:0.45;stroke-width:0.755925" />
    <rect
       id="rect3804"
       width="8"
       height="2"
       x="29"
       y="-16"
       class="ColorScheme-Text"
       fill="currentColor"
       style="opacity:0.45;stroke-width:0.755925" />
    <rect
       id="rect3806"
       width="8"
       height="2"
       x="29"
       y="-19"
       class="ColorScheme-Text"
       fill="currentColor"
       style="opacity:0.45;stroke-width:0.755925" />
    <rect
       id="rect3808"
       width="8"
       height="1"
       x="29"
       y="-21"
       class="ColorScheme-Text"
       fill="currentColor"
       style="opacity:0.45;stroke-width:0.521326" />
  </g>
  <g
     id="16-16-Fill80"
     transform="translate(48.999998)">
    <rect
       y="-25"
       x="25"
       height="16"
       width="16"
       id="rect1115"
       style="fill:none" />
    <rect
       id="rect1117"
       width="8"
       height="2"
       x="29"
       y="-13"
       class="ColorScheme-Text"
       fill="currentColor"
       style="opacity:0.45;stroke-width:0.755925" />
    <rect
       id="rect3810"
       width="8"
       height="2"
       x="29"
       y="-16"
       class="ColorScheme-Text"
       fill="currentColor"
       style="opacity:0.45;stroke-width:0.755925" />
    <rect
       id="rect3812"
       width="8"
       height="2"
       x="29"
       y="-19"
       class="ColorScheme-Text"
       fill="currentColor"
       style="opacity:0.45;stroke-width:0.755925" />
    <rect
       id="rect4009"
       width="8"
       height="1"
       x="29"
       y="-21"
       class="ColorScheme-Text"
       fill="currentColor"
       style="opacity:0.15;stroke-width:0.53452" />
  </g>
  <g
     id="16-16-Fill70"
     transform="translate(73.999998)">
    <rect
       y="-25"
       x="25"
       height="16"
       width="16"
       id="rect1121"
       style="fill:none" />
    <rect
       id="rect1123"
       width="8"
       height="2"
       x="29"
       y="-13"
       class="ColorScheme-Text"
       fill="currentColor"
       style="opacity:0.45;stroke-width:0.75593" />
    <rect
       id="rect3814"
       width="8"
       height="2"
       x="29"
       y="-16"
       class="ColorScheme-Text"
       fill="currentColor"
       style="opacity:0.45;stroke-width:0.75593" />
    <rect
       id="rect3816"
       width="8"
       height="2"
       x="29"
       y="-19"
       class="ColorScheme-Text"
       fill="currentColor"
       style="opacity:0.45;stroke-width:0.75593" />
  </g>
  <g
     id="16-16-Fill60"
     transform="translate(96.999998)">
    <rect
       id="rect17857"
       width="8"
       height="2"
       x="29"
       y="-13"
       class="ColorScheme-Text"
       fill="currentColor"
       style="opacity:0.45;stroke-width:0.755927" />
    <rect
       y="-25"
       x="25"
       height="16"
       width="16"
       id="rect1133"
       style="fill:none" />
    <rect
       id="rect3820"
       width="8"
       height="2"
       x="29"
       y="-16"
       class="ColorScheme-Text"
       fill="currentColor"
       style="opacity:0.45;stroke-width:0.755927" />
    <rect
       id="rect3822"
       width="8"
       height="1.0000002"
       x="29"
       y="-18"
       class="ColorScheme-Text"
       fill="currentColor"
       style="opacity:0.45;stroke-width:0.534521" />
  </g>
  <g
     id="16-16-Fill50"
     transform="translate(121)">
    <rect
       y="-25"
       x="25"
       height="16"
       width="16"
       id="rect1139"
       style="fill:none" />
    <rect
       id="rect1141"
       width="8"
       height="2"
       x="29"
       y="-13"
       class="ColorScheme-Text"
       fill="currentColor"
       style="opacity:0.45;stroke-width:0.755925" />
    <rect
       id="rect3824"
       width="8"
       height="2"
       x="29"
       y="-16"
       class="ColorScheme-Text"
       fill="currentColor"
       style="opacity:0.45;stroke-width:0.755925" />
    <rect
       id="rect4011"
       width="8"
       height="1"
       x="29"
       y="-18"
       class="ColorScheme-Text"
       fill="currentColor"
       style="opacity:0.15;stroke-width:0.53452" />
  </g>
  <g
     id="16-16-Fill40"
     transform="translate(152)">
    <rect
       y="-25"
       x="25"
       height="16"
       width="16"
       id="rect1145"
       style="fill:none" />
    <rect
       id="rect17837"
       width="8"
       height="2"
       x="29"
       y="-13"
       class="ColorScheme-Text"
       fill="currentColor"
       style="opacity:0.45;stroke-width:0.75593" />
    <rect
       id="rect3826"
       width="8"
       height="2"
       x="29"
       y="-16"
       class="ColorScheme-Text"
       fill="currentColor"
       style="opacity:0.45;stroke-width:0.75593" />
  </g>
  <g
     id="16-16-Fill30"
     transform="translate(182)">
    <rect
       y="-25"
       x="25"
       height="16"
       width="16"
       id="rect1151"
       style="fill:none" />
    <rect
       id="rect1153"
       width="8"
       height="2"
       x="29"
       y="-13"
       class="ColorScheme-Text"
       fill="currentColor"
       style="opacity:0.45;stroke-width:0.755925" />
    <rect
       id="rect3828"
       width="8"
       height="1"
       x="29"
       y="-15"
       class="ColorScheme-Text"
       fill="currentColor"
       style="opacity:0.45;stroke-width:0.53452" />
  </g>
  <g
     id="16-16-Fill20"
     transform="translate(211)">
    <rect
       y="-25"
       x="25"
       height="16"
       width="16"
       id="rect1157"
       style="fill:none" />
    <rect
       id="rect11497"
       width="8"
       height="2"
       x="29"
       y="-13"
       style="opacity:0.45;fill:#ff5555;fill-opacity:1;stroke-width:0.755927" />
  </g>
  <g
     id="16-16-Fill10"
     transform="translate(236)">
    <rect
       y="-25"
       x="25"
       height="16"
       width="16"
       id="rect1163"
       style="fill:none" />
    <rect
       id="rect1165"
       width="8"
       height="1"
       x="29"
       y="-12"
       style="opacity:0.45;fill:#ff5555;fill-opacity:1;stroke-width:0.534522" />
  </g>
  <g
     id="22-22-Fill0">
    <rect
       y="0"
       x="338"
       height="22"
       width="22"
       id="rect2782"
       style="opacity:0;fill:#000000;fill-opacity:1;fill-rule:evenodd;stroke:none;stroke-width:2;stroke-linecap:round;stroke-linejoin:round;stroke-miterlimit:4;stroke-dasharray:none;stroke-opacity:1;paint-order:fill markers stroke" />
    <path
       id="path1884"
       d="m 346,2 v 1 h 6 V 2 Z m -1,2 c -1.108,0 -2,0.8920011 -2,2 v 11 c 0,1.107999 0.892,2 2,2 h 8 c 1.108,0 2,-0.892001 2,-2 V 6 c 0,-1.1079989 -0.892,-2 -2,-2 h -2 -4 z m 0,1 h 3 2 3 c 0.554,0 1,0.4460006 1,1 v 11 c 0,0.553999 -0.446,1 -1,1 h -8 c -0.554,0 -1,-0.446001 -1,-1 V 6 c 0,-0.5539994 0.446,-1 1,-1 z"
       style="fill:#ff5555;fill-opacity:1" />
  </g>
  <g
     id="16-16-Fill0">
    <rect
       y="-25"
       x="283"
       height="16"
       width="16"
       id="rect1179"
       style="opacity:0;fill:#000000;fill-opacity:1;fill-rule:evenodd;stroke:none;stroke-width:1.45455;stroke-linecap:round;stroke-linejoin:round;stroke-miterlimit:4;stroke-dasharray:none;stroke-opacity:1;paint-order:fill markers stroke" />
    <path
       id="path2041"
       d="m 288,-25 v 1 h 6 v -1 z m -1,1 c -1.108,0 -2,0.892001 -2,2 v 11 c 0,1.107999 0.892,2 2,2 h 8 c 1.108,0 2,-0.892001 2,-2 v -11 c 0,-1.107999 -0.892,-2 -2,-2 h -2 -4 z m 0,1 h 3 2 3 c 0.554,0 1,0.446001 1,1 v 11 c 0,0.553999 -0.446,1 -1,1 h -8 c -0.554,0 -1,-0.446001 -1,-1 v -11 c 0,-0.553999 0.446,-1 1,-1 z"
       style="fill:#ff5555;fill-opacity:1"
       sodipodi:nodetypes="cccccssssssssccssccssssssss" />
  </g>
  <g
     id="16-16-Battery">
    <rect
       y="-25"
       x="2"
       height="16"
       width="16"
       id="rect2053"
       style="opacity:0;fill:#000000;fill-opacity:1;fill-rule:evenodd;stroke:none;stroke-width:1.45455;stroke-linecap:round;stroke-linejoin:round;stroke-miterlimit:4;stroke-dasharray:none;stroke-opacity:1;paint-order:fill markers stroke" />
    <path
       id="path2055"
       d="m 7,-25 v 1 h 6 v -1 z m -1,1 c -1.108,0 -2,0.892001 -2,2 v 11 c 0,1.107999 0.892,2 2,2 h 8 c 1.108,0 2,-0.892001 2,-2 v -11 c 0,-1.107999 -0.892,-2 -2,-2 H 12 8 Z m 0,1 h 3 2 3 c 0.554,0 1,0.446001 1,1 v 11 c 0,0.553999 -0.446,1 -1,1 H 6 c -0.554,0 -1,-0.446001 -1,-1 v -11 c 0,-0.553999 0.446,-1 1,-1 z"
       class="ColorScheme-Text"
       fill="currentColor" />
  </g>
  <g
     id="Fill0"
     transform="translate(377)">
    <rect
       style="opacity:0;fill:#000000;fill-opacity:1;fill-rule:evenodd;stroke:none;stroke-width:2;stroke-linecap:round;stroke-linejoin:round;stroke-miterlimit:4;stroke-dasharray:none;stroke-opacity:1;paint-order:fill markers stroke"
       id="rect2136"
       width="32"
       height="32"
       x="2"
       y="70" />
    <path
       id="path2138"
       d="m 12,76 c -1.661998,0 -3,1.338002 -3,3 v 16 c 0,1.661998 1.338002,3 3,3 h 12 c 1.661998,0 3,-1.338002 3,-3 V 79 c 0,-1.661998 -1.338002,-3 -3,-3 z m 0,1 h 12 c 1.107999,0 2,0.892001 2,2 v 16 c 0,1.107999 -0.892001,2 -2,2 H 12 c -1.107999,0 -2,-0.892001 -2,-2 V 79 c 0,-1.107999 0.892001,-2 2,-2 z"
       style="fill:#ff5555;fill-opacity:1" />
    <rect
       id="rect2140"
       width="8"
       height="1"
       x="14"
       y="74"
       style="fill:#ff5555;fill-opacity:1" />
  </g>
  <g
     id="battery-ups"
     transform="translate(-36.000002,-1)">
    <rect
       id="rect70932"
       width="13.999991"
       height="18"
       x="119"
       y="123"
       style="opacity:1;fill:#4caf50;fill-opacity:1;stroke-width:1.44914"
       rx="1"
       ry="1" />
    <path
       sodipodi:nodetypes="ccccccc"
       inkscape:connector-curvature="0"
       id="path6748-2"
       d="m 126,126 v 4 h 4 l -4,7 v -4 h -4 z"
       style="fill:#ffffff;fill-opacity:1;stroke:none;stroke-width:1" />
    <rect
       style="opacity:0;fill:#000000;fill-opacity:1;fill-rule:evenodd;stroke:none;stroke-width:2;stroke-linecap:round;stroke-linejoin:round;stroke-miterlimit:4;stroke-dasharray:none;stroke-opacity:1;paint-order:fill markers stroke"
       id="rect2290"
       width="32"
       height="32"
       x="110"
       y="115" />
    <path
       id="path2292"
       d="m 120,121 c -1.662,0 -3,1.338 -3,3 v 16 c 0,1.662 1.338,3 3,3 h 12 c 1.662,0 3,-1.338 3,-3 v -16 c 0,-1.662 -1.338,-3 -3,-3 z m 0,1 h 12 c 1.108,0 2,0.892 2,2 v 16 c 0,1.108 -0.892,2 -2,2 h -12 c -1.108,0 -2,-0.892 -2,-2 v -16 c 0,-1.108 0.892,-2 2,-2 z"
       style="fill:#4caf50;fill-opacity:1" />
    <rect
       id="rect2294"
       width="8"
       height="1"
       x="122"
       y="119"
       style="fill:#4caf50;fill-opacity:1" />
  </g>
  <g
     id="22-22-Unavailable">
    <rect
       y="28"
       x="31"
       height="22"
       width="22"
       id="rect2846"
       style="opacity:0;fill:#000000;fill-opacity:1;fill-rule:evenodd;stroke:none;stroke-width:2;stroke-linecap:round;stroke-linejoin:round;stroke-miterlimit:4;stroke-dasharray:none;stroke-opacity:1;paint-order:fill markers stroke" />
    <path
       id="path2848"
       d="m 40,32 h -2 c -1.108,0 -2,0.892 -2,2 v 11 c 0,1.108 0.892,2 2,2 h 8 c 1.108,0 2,-0.892 2,-2 V 34 c 0,-1.108 -0.892,-2 -2,-2 h -2 z"
       style="fill:#ff8080;fill-opacity:1" />
    <rect
       id="rect2850"
       width="6"
       height="1"
       x="39"
       y="30"
       style="fill:#ff8080;fill-opacity:1" />
    <path
       id="rect4622"
       d="m 45.181952,36.525099 -0.70699,-0.707 -2.474964,2.474964 -2.47496,-2.474959 -0.70699,0.707 2.474959,2.474949 -2.475014,2.474786 0.70699,0.707 2.475015,-2.474786 2.474894,2.474895 0.707,-0.70699 -2.474904,-2.474905 z"
       style="fill:#ffffff"
       sodipodi:nodetypes="ccccccccccccc" />
  </g>
  <g
     id="22-22-battery-ups">
    <rect
       y="28"
       x="60"
       height="22"
       width="22"
       id="rect2856"
       style="opacity:0;fill:#000000;fill-opacity:1;fill-rule:evenodd;stroke:none;stroke-width:2;stroke-linecap:round;stroke-linejoin:round;stroke-miterlimit:4;stroke-dasharray:none;stroke-opacity:1;paint-order:fill markers stroke" />
    <path
       id="path2858"
       d="m 69,32 h -2 c -1.108,0 -2,0.892 -2,2 v 11 c 0,1.108 0.892,2 2,2 h 8 c 1.108,0 2,-0.892 2,-2 V 34 c 0,-1.108 -0.892,-2 -2,-2 h -2 z"
       style="fill:#4caf50;fill-opacity:1" />
    <path
       id="path6748"
       d="m 71,35 v 3 h 3 l -3,5 v -3 h -3 z"
       style="fill:#ffffff" />
    <rect
       id="rect2860"
       width="6"
       height="1"
       x="68"
       y="30"
       style="fill:#4caf50;fill-opacity:1" />
  </g>
  <g
     id="16-16-AcAdapter"
     transform="translate(0.99999809,40)">
    <rect
       y="-89"
       x="1"
       height="16"
       width="16"
       id="rect3124"
       style="fill:none" />
    <path
       id="path3126"
       style="fill:#4caf50;fill-opacity:1"
       d="m 6,-89 v 1 H 5 c -1.1079989,0 -2,0.892001 -2,2 v 11 c 0,1.107999 0.8920011,2 2,2 h 8 c 1.107999,0 2,-0.892001 2,-2 v -11 c 0,-1.107999 -0.892001,-2 -2,-2 h -1 v -1 z" />
    <path
       d="m 6,-82 a 3,3 0 0 0 2,2.826 V -78 h 2 v -1.176 A 3,3 0 0 0 12,-82 h -1 v -2 h -1 v 2 H 8 v -2 H 7 v 2 z"
       id="path3130"
       style="fill:#ffffff;fill-opacity:1" />
  </g>
  <g
     id="16-16-Unavailable"
     transform="translate(0.99999809,40)">
    <rect
       y="-89"
       x="32"
       height="16"
       width="16"
       id="rect3134"
       style="fill:none" />
    <path
       id="path3136"
       style="fill:#ff8080;fill-opacity:1"
       d="m 37,-89 v 1 h -1 c -1.107999,0 -2,0.892001 -2,2 v 11 c 0,1.107999 0.892001,2 2,2 h 8 c 1.107999,0 2,-0.892001 2,-2 v -11 c 0,-1.107999 -0.892001,-2 -2,-2 h -1 v -1 z" />
    <path
       id="path3140"
       d="m 43.181952,-83.474901 -0.70699,-0.707 -2.474964,2.474964 -2.47496,-2.474959 -0.70699,0.707 2.474959,2.474949 -2.475014,2.474786 0.70699,0.707 2.475015,-2.474786 2.474894,2.474895 0.707,-0.70699 -2.474904,-2.474905 z"
       style="fill:#ffffff"
       sodipodi:nodetypes="ccccccccccccc" />
  </g>
  <g
     id="16-16-battery-ups">
    <rect
       y="-49"
       x="62"
       height="16"
       width="16"
       id="rect3144"
       style="fill:none" />
    <path
       id="path3146"
       style="fill:#4caf50;fill-opacity:1"
       d="m 67,-49 v 1 h -1 c -1.107999,0 -2,0.892001 -2,2 v 11 c 0,1.107999 0.892001,2 2,2 h 8 c 1.107999,0 2,-0.892001 2,-2 v -11 c 0,-1.107999 -0.892001,-2 -2,-2 h -1 v -1 z" />
    <path
       id="path3148"
       d="m 70,-45 v 3 h 3 l -3,5 v -3 h -3 z"
       style="fill:#ffffff" />
  </g>
  <g
     id="AcAdapter">
    <rect
       id="rect39724"
       width="14"
       height="18"
       x="7"
       y="122"
       style="fill:#4caf50;fill-opacity:1;stroke-width:1.44914"
       rx="1"
       ry="1" />
    <g
       id="g4600"
       transform="rotate(-90,-66.9845,363.5205)">
      <path
         style="fill:#ffffff;fill-opacity:1"
         id="path4472"
         transform="translate(214.536,404.505)"
         d="m -48,37 a 3,3 0 0 0 -2.826,2 H -52 v 2 h 1.176 A 3,3 0 0 0 -48,43 v -1 h 2 v -1 h -2 v -2 h 2 v -1 h -2 z" />
    </g>
    <rect
       style="opacity:0;fill:#000000;fill-opacity:1;fill-rule:evenodd;stroke:none;stroke-width:2;stroke-linecap:round;stroke-linejoin:round;stroke-miterlimit:4;stroke-dasharray:none;stroke-opacity:1;paint-order:fill markers stroke"
       id="rect39625"
       width="31.999998"
       height="31.999998"
       x="-1.9999981"
       y="114" />
    <path
       id="path3516"
       d="m 8,120 c -1.662,0 -3,1.338 -3,3 v 16 c 0,1.662 1.338,3 3,3 h 12 c 1.661999,0 3,-1.338 3,-3 v -16 c 0,-1.662 -1.338001,-3 -3,-3 z m 0,1 h 12 c 1.107999,0 2,0.892 2,2 v 16 c 0,1.108 -0.892001,2 -2,2 H 8 c -1.108,0 -2,-0.892 -2,-2 v -16 c 0,-1.108 0.892,-2 2,-2 z"
       style="fill:#4caf50;fill-opacity:1" />
    <rect
       id="rect3518"
       width="8"
       height="1"
       x="10"
       y="118"
       style="fill:#4caf50;fill-opacity:1" />
  </g>
  <g
     id="Unavailable">
    <rect
       style="opacity:0;fill:#000000;fill-opacity:1;fill-rule:evenodd;stroke:none;stroke-width:2;stroke-linecap:round;stroke-linejoin:round;stroke-miterlimit:4;stroke-dasharray:none;stroke-opacity:1;paint-order:fill markers stroke"
       id="rect57836"
       width="31.999998"
       height="31.999998"
       x="36"
       y="114" />
    <rect
       id="rect3539"
       width="13.999991"
       height="18"
       x="45"
       y="122"
       style="fill:#ff8080;fill-opacity:1;stroke-width:1.44914"
       rx="1"
       ry="1" />
    <path
       d="m 55.888971,127.8179 -0.706988,-0.707 -3.181989,3.18199 -3.181971,-3.18199 -0.707112,0.70712 3.182095,3.18187 -3.182101,3.18208 0.70711,0.70711 3.181981,-3.1822 3.181977,3.1822 0.707111,-0.7071 -3.182092,-3.18209 z"
       id="rect4622-0"
       style="fill:#ffffff"
       sodipodi:nodetypes="ccccccccccccc" />
    <path
       id="path3545"
       d="m 45.999999,120 c -1.662,0 -3,1.338 -3,3 v 16 c 0,1.662 1.338,3 3,3 h 12 c 1.662,0 3,-1.338 3,-3 v -16 c 0,-1.662 -1.338,-3 -3,-3 z m 0,1 h 12 c 1.108,0 2,0.892 2,2 v 16 c 0,1.108 -0.892,2 -2,2 h -12 c -1.108,0 -2,-0.892 -2,-2 v -16 c 0,-1.108 0.892,-2 2,-2 z"
       style="fill:#ff8080;fill-opacity:1" />
    <rect
       id="rect3547"
       width="8"
       height="1"
       x="48"
       y="118"
       style="fill:#ff8080;fill-opacity:1" />
  </g>
  <g
     id="Fill90"
     transform="translate(34.999998)">
    <path
       id="path4319"
       style="opacity:0.45"
       class="ColorScheme-Text"
       d="m 46,79 v 1 h 14 v -1 z m 0,2 v 3 h 14 v -3 z m 0,4 v 3 h 14 v -3 z m 0,4 v 3 h 14 v -3 z m 0,4 v 2 c 0,0.553999 0.446001,1 1,1 h 12 c 0.553999,0 1,-0.446001 1,-1 v -2 z"
       fill="currentColor" />
    <rect
       y="70"
       x="37"
       height="31.999998"
       width="31.999998"
       id="rect4321"
       style="opacity:0;fill:#000000;fill-opacity:1;fill-rule:evenodd;stroke:none;stroke-width:2;stroke-linecap:round;stroke-linejoin:round;stroke-miterlimit:4;stroke-dasharray:none;stroke-opacity:1;paint-order:fill markers stroke" />
  </g>
  <g
     id="Fill80"
     transform="translate(68.999998)">
    <path
       id="path4325"
       style="opacity:0.45"
       class="ColorScheme-Text"
       d="m 46,81 v 3 h 14 v -3 z m 0,4 v 3 h 14 v -3 z m 0,4 v 3 h 14 v -3 z m 0,4 v 2 c 0,0.553999 0.446001,1 1,1 h 12 c 0.553999,0 1,-0.446001 1,-1 v -2 z"
       fill="currentColor" />
    <rect
       y="70"
       x="37"
       height="31.999998"
       width="31.999998"
       id="rect4327"
       style="opacity:0;fill:#000000;fill-opacity:1;fill-rule:evenodd;stroke:none;stroke-width:2;stroke-linecap:round;stroke-linejoin:round;stroke-miterlimit:4;stroke-dasharray:none;stroke-opacity:1;paint-order:fill markers stroke" />
  </g>
  <g
     id="Fill70"
     transform="translate(102)">
    <path
       id="path4331"
       style="opacity:0.45"
       class="ColorScheme-Text"
       d="m 46,83 v 1 h 14 v -1 z m 0,2 v 3 h 14 v -3 z m 0,4 v 3 h 14 v -3 z m 0,4 v 2 c 0,0.553999 0.446001,1 1,1 h 12 c 0.553999,0 1,-0.446001 1,-1 v -2 z"
       fill="currentColor" />
    <rect
       y="70"
       x="37"
       height="31.999998"
       width="31.999998"
       id="rect4333"
       style="opacity:0;fill:#000000;fill-opacity:1;fill-rule:evenodd;stroke:none;stroke-width:2;stroke-linecap:round;stroke-linejoin:round;stroke-miterlimit:4;stroke-dasharray:none;stroke-opacity:1;paint-order:fill markers stroke" />
  </g>
  <g
     id="Fill60"
     transform="translate(137)">
    <path
       id="path4337"
       style="opacity:0.45"
       class="ColorScheme-Text"
       d="m 46,85 v 3 h 14 v -3 z m 0,4 v 3 h 14 v -3 z m 0,4 v 2 c 0,0.553999 0.446001,1 1,1 h 12 c 0.553999,0 1,-0.446001 1,-1 v -2 z"
       fill="currentColor" />
    <rect
       y="70"
       x="37"
       height="31.999998"
       width="31.999998"
       id="rect4339"
       style="opacity:0;fill:#000000;fill-opacity:1;fill-rule:evenodd;stroke:none;stroke-width:2;stroke-linecap:round;stroke-linejoin:round;stroke-miterlimit:4;stroke-dasharray:none;stroke-opacity:1;paint-order:fill markers stroke" />
  </g>
  <g
     id="Fill50"
     transform="translate(171)">
    <path
       id="path4343"
       style="opacity:0.45"
       class="ColorScheme-Text"
       d="m 46,87 v 1 h 14 v -1 z m 0,2 v 3 h 14 v -3 z m 0,4 v 2 c 0,0.553999 0.446001,1 1,1 h 12 c 0.553999,0 1,-0.446001 1,-1 v -2 z"
       fill="currentColor" />
    <rect
       y="70"
       x="37"
       height="31.999998"
       width="31.999998"
       id="rect4345"
       style="opacity:0;fill:#000000;fill-opacity:1;fill-rule:evenodd;stroke:none;stroke-width:2;stroke-linecap:round;stroke-linejoin:round;stroke-miterlimit:4;stroke-dasharray:none;stroke-opacity:1;paint-order:fill markers stroke" />
  </g>
  <g
     id="Fill40"
     transform="translate(205)">
    <path
       id="path4349"
       style="opacity:0.45"
       class="ColorScheme-Text"
       d="m 46,89 v 3 h 14 v -3 z m 0,4 v 2 c 0,0.553999 0.446001,1 1,1 h 12 c 0.553999,0 1,-0.446001 1,-1 v -2 z"
       fill="currentColor" />
    <rect
       y="70"
       x="37"
       height="31.999998"
       width="31.999998"
       id="rect4351"
       style="opacity:0;fill:#000000;fill-opacity:1;fill-rule:evenodd;stroke:none;stroke-width:2;stroke-linecap:round;stroke-linejoin:round;stroke-miterlimit:4;stroke-dasharray:none;stroke-opacity:1;paint-order:fill markers stroke" />
  </g>
  <g
     id="Fill30"
     transform="translate(240)">
    <path
       id="path4355"
       style="opacity:0.45"
       class="ColorScheme-Text"
       d="m 46,91 v 1 h 14 v -1 z m 0,2 v 2 c 0,0.553999 0.446001,1 1,1 h 12 c 0.553999,0 1,-0.446001 1,-1 v -2 z"
       fill="currentColor" />
    <rect
       y="70"
       x="37"
       height="31.999998"
       width="31.999998"
       id="rect4357"
       style="opacity:0;fill:#000000;fill-opacity:1;fill-rule:evenodd;stroke:none;stroke-width:2;stroke-linecap:round;stroke-linejoin:round;stroke-miterlimit:4;stroke-dasharray:none;stroke-opacity:1;paint-order:fill markers stroke" />
  </g>
  <g
     id="Fill20"
     transform="translate(274)">
    <path
       id="path4361"
       style="opacity:0.45;fill:#ff5555;fill-opacity:1"
       d="m 46,93 v 2 c 0,0.553999 0.446001,1 1,1 h 12 c 0.553999,0 1,-0.446001 1,-1 v -2 z" />
    <rect
       y="70"
       x="37"
       height="31.999998"
       width="31.999998"
       id="rect4363"
       style="opacity:0;fill:#000000;fill-opacity:1;fill-rule:evenodd;stroke:none;stroke-width:2;stroke-linecap:round;stroke-linejoin:round;stroke-miterlimit:4;stroke-dasharray:none;stroke-opacity:1;paint-order:fill markers stroke" />
  </g>
  <g
     id="Fill10"
     transform="translate(308)">
    <path
       id="path4367"
       style="opacity:0.45;fill:#ff5555;fill-opacity:1"
       d="m 46,94 v 1 c 0,0.553999 0.446001,1 1,1 h 12 c 0.553999,0 1,-0.446001 1,-1 v -1 z" />
    <rect
       y="70"
       x="37"
       height="31.999998"
       width="31.999998"
       id="rect4369"
       style="opacity:0;fill:#000000;fill-opacity:1;fill-rule:evenodd;stroke:none;stroke-width:2;stroke-linecap:round;stroke-linejoin:round;stroke-miterlimit:4;stroke-dasharray:none;stroke-opacity:1;paint-order:fill markers stroke" />
  </g>
</svg>
