<?xml version="1.0" encoding="UTF-8" standalone="no"?>
<svg
   id="svg"
   inkscape:version="1.3 (0e150ed6c4, 2023-07-21)"
   sodipodi:docname="device.svg"
   version="1.1"
   viewBox="0 0 22 22"
   xml:space="preserve"
   xmlns:inkscape="http://www.inkscape.org/namespaces/inkscape"
   xmlns:sodipodi="http://sodipodi.sourceforge.net/DTD/sodipodi-0.dtd"
   xmlns="http://www.w3.org/2000/svg"
   xmlns:svg="http://www.w3.org/2000/svg"
   xmlns:rdf="http://www.w3.org/1999/02/22-rdf-syntax-ns#"
   xmlns:cc="http://creativecommons.org/ns#"
   xmlns:dc="http://purl.org/dc/elements/1.1/"><metadata
   id="metadata28"><rdf:RDF><cc:Work
       rdf:about=""><dc:format>image/svg+xml</dc:format><dc:type
         rdf:resource="http://purl.org/dc/dcmitype/StillImage" /></cc:Work></rdf:RDF></metadata><sodipodi:namedview
   id="namedview33"
   bordercolor="#666666"
   borderopacity="1"
   gridtolerance="10"
   guidetolerance="10"
   inkscape:bbox-nodes="true"
   inkscape:current-layer="svg"
   inkscape:cx="4.6215275"
   inkscape:cy="-10.337627"
   inkscape:object-nodes="true"
   inkscape:object-paths="true"
   inkscape:pageopacity="0"
   inkscape:pageshadow="2"
   inkscape:snap-bbox="true"
   inkscape:snap-bbox-edge-midpoints="true"
   inkscape:snap-intersection-paths="true"
   inkscape:snap-midpoints="true"
   inkscape:snap-nodes="true"
   inkscape:snap-smooth-nodes="true"
   inkscape:window-height="954"
   inkscape:window-maximized="1"
   inkscape:window-width="1920"
   inkscape:window-x="0"
   inkscape:window-y="40"
   inkscape:zoom="8.2223897"
   objecttolerance="10"
   pagecolor="#808080"
   showgrid="true"
   showguides="true"
   inkscape:document-rotation="0"
   inkscape:pagecheckerboard="0"
   inkscape:lockguides="false"
   inkscape:showpageshadow="2"
   inkscape:deskcolor="#858585"><inkscape:grid
     id="grid842"
     type="xygrid"
     originx="0"
     originy="0"
     spacingy="1"
     spacingx="1"
     units="px"
     visible="true" /></sodipodi:namedview><defs
   id="defs3">&#10;     <style
   id="current-color-scheme"
   type="text/css">.ColorScheme-Text { color:#dfdfdf; } .ColorScheme-Highlight { color:#5294e2; } .ColorScheme-ButtonBackground { color:#dfdfdf; }</style>&#10;     </defs>&#10;     <g
   id="16-16-device-notifier"><rect
     style="opacity:0.2;fill:none;fill-opacity:1;stroke:none"
     id="rect4182"
     width="15.999985"
     height="15.999985"
     x="0"
     y="26.000002" /><g
     transform="translate(-7.6293945e-6)"
     id="g999"><path
       inkscape:connector-curvature="0"
       class="ColorScheme-Text"
       style="opacity:1;fill:currentColor;fill-opacity:1;stroke:none;stroke-width:1.28900659;stroke-miterlimit:4;stroke-dasharray:none;stroke-opacity:1"
       d="m 5,31 v 9 h 6 v -9 z m 1,1 h 4 v 7.076172 H 6 Z"
       id="rect945" /><path
       class="ColorScheme-Text"
       style="opacity:1;fill:currentColor;fill-opacity:1;stroke:none;stroke-width:0.70164645;stroke-miterlimit:4;stroke-dasharray:none;stroke-opacity:1"
       d="M 6 29 L 6 32 L 10 32 L 10 29 L 6 29 z M 7 30 L 9 30 L 9 31 L 7 31 L 7 30 z "
       transform="translate(7.6293945e-6)"
       id="rect979" /></g></g><g
   id="22-22-device-notifier"><rect
     y="1.2617187e-05"
     x="9.9999997e-06"
     height="21.999985"
     width="21.999985"
     id="rect4157"
     style="opacity:0.2;fill:none;fill-opacity:1;stroke:none" /><g
     id="g1588"
     transform="translate(-18,-1)"><path
       id="rect877"
       class="ColorScheme-Text"
       style="fill:currentColor;stroke:none;stroke-width:2.17423;stroke-linecap:round;stroke-linejoin:round"
       d="m 25,7 c -1.108,0 -2,0.892 -2,2 v 10 c 0,1.108 0.892,2 2,2 h 8 c 1.108,0 2,-0.892 2,-2 V 9 C 35,7.892 34.108,7 33,7 Z m 0,1 h 8 c 0.554,0 1,0.446 1,1 v 10 c 0,0.554 -0.446,1 -1,1 h -8 c -0.554,0 -1,-0.446 -1,-1 V 9 c 0,-0.554 0.446,-1 1,-1 z"
       sodipodi:nodetypes="ssssssssssssssssss" /><path
       id="rect1303"
       class="ColorScheme-Text"
       style="fill:currentColor;stroke:none;stroke-width:2;stroke-linecap:round;stroke-linejoin:round"
       d="m 27,3 c -0.554,0 -1,0.446 -1,1 v 3 c 0,0.554 0.446,1 1,1 h 4 c 0.554,0 1,-0.446 1,-1 V 4 C 32,3.446 31.554,3 31,3 Z m 0,1 h 4 v 3 h -4 z"
       sodipodi:nodetypes="sssssssssccccc" /></g></g><g
   id="device-notifier"
   class="ColorScheme-Text"
   transform="translate(-326,-565.35999)"><rect
   x="321"
   y="529.35999"
   width="32"
   height="32"
   fill-opacity="0"
   id="rect1" /><path
   id="path1"
   class="ColorScheme-Text"
   style="fill:currentColor;fill-opacity:1"
   d="M 329 533.35999 C 327.338 533.35999 326.3901 534.74439 326 536.35999 L 322.13867 552.34827 C 322.13783 552.35227 322.13772 552.35629 322.13672 552.35999 L 322.13867 552.35999 C 322.05617 552.68099 322 553.01254 322 553.35999 C 322 555.57599 323.784 557.35999 326 557.35999 L 348 557.35999 C 350.216 557.35999 352 555.57599 352 553.35999 C 352 553.01254 351.9438 552.68099 351.86133 552.35999 L 351.88281 552.35999 L 348 536.35999 C 347.60813 534.74489 346.662 533.35999 345 533.35999 L 329 533.35999 z M 330 534.85999 L 344 534.85999 C 345.45431 534.85999 346.28209 536.07172 346.625 537.48499 L 349.58789 549.68812 C 349.10152 549.47865 348.56491 549.35998 348 549.35999 L 326 549.35999 C 325.44225 549.36 324.91114 549.47387 324.42969 549.67835 L 327.375 537.48499 C 327.71636 536.07128 328.54569 534.85999 330 534.85999 z M 326 551.35999 L 348 551.35999 C 349.108 551.35999 350 552.25198 350 553.35999 C 350 554.468 349.10801 555.35999 348 555.35999 L 326 555.35999 C 324.892 555.35999 324 554.468 324 553.35999 C 324 552.25198 324.89199 551.35999 326 551.35999 z M 346 552.35999 A 1 1 0 0 0 345 553.35999 A 1 1 0 0 0 346 554.35999 A 1 1 0 0 0 347 553.35999 A 1 1 0 0 0 346 552.35999 z " />&#10;    <path
   id="path18"
   class="ColorScheme-Text"
   style="display:inline;opacity:0.1;fill:currentColor;fill-opacity:1;stroke-width:0.875036"
   d="m 330,534.85999 c -1.45431,0 -2.28364,1.21129 -2.625,2.625 l -2.94531,12.19336 c 0.48145,-0.20448 1.01256,-0.31835 1.57031,-0.31836 h 22 c 0.56491,-1e-5 1.10152,0.11866 1.58789,0.32813 L 346.625,537.48499 c -0.34291,-1.41327 -1.17069,-2.625 -2.625,-2.625 z" /></g></svg>
