<?xml version="1.0" encoding="UTF-8" standalone="no"?>
<svg
   inkscape:version="1.1.1 (3bf5ae0d25, 2021-09-20, custom)"
   sodipodi:docname="disk.svgz"
   viewBox="0 0 22 22"
   version="1.1"
   id="svg32"
   xmlns:inkscape="http://www.inkscape.org/namespaces/inkscape"
   xmlns:sodipodi="http://sodipodi.sourceforge.net/DTD/sodipodi-0.dtd"
   xmlns="http://www.w3.org/2000/svg"
   xmlns:svg="http://www.w3.org/2000/svg"
   xmlns:rdf="http://www.w3.org/1999/02/22-rdf-syntax-ns#"
   xmlns:cc="http://creativecommons.org/ns#"
   xmlns:dc="http://purl.org/dc/elements/1.1/">
  <metadata
     id="metadata22">
    <rdf:RDF>
      <cc:Work
         rdf:about="">
        <dc:format>image/svg+xml</dc:format>
        <dc:type
           rdf:resource="http://purl.org/dc/dcmitype/StillImage" />
        <dc:title />
      </cc:Work>
    </rdf:RDF>
  </metadata>
  <defs
     id="defs20">
    <style
       type="text/css"
       id="current-color-scheme-6">
      .ColorScheme-Text {
        color:#31363b;
      }
      .ColorScheme-Background {
        color:#eff0f1;
      }
      .ColorScheme-Highlight {
        color:#3daee9;
      }
      .ColorScheme-ViewText {
        color:#31363b;
      }
      .ColorScheme-ViewBackground {
        color:#fcfcfc;
      }
      .ColorScheme-ViewHover {
        color:#93cee9;
      }
      .ColorScheme-ViewFocus{
        color:#3daee9;
      }
      .ColorScheme-ButtonText {
        color:#31363b;
      }
      .ColorScheme-ButtonBackground {
        color:#eff0f1;
      }
      .ColorScheme-ButtonHover {
        color:#93cee9;
      }
      .ColorScheme-ButtonFocus{
        color:#3daee9;
      }
      </style>
  </defs>
  <sodipodi:namedview
     inkscape:document-rotation="0"
     inkscape:snap-bbox-edge-midpoints="false"
     inkscape:bbox-nodes="true"
     inkscape:snap-bbox="true"
     inkscape:current-layer="svg32"
     inkscape:window-maximized="1"
     inkscape:window-y="0"
     inkscape:window-x="0"
     inkscape:cy="-17.448789"
     inkscape:cx="29.202487"
     inkscape:zoom="4.1263609"
     showgrid="true"
     id="namedview18"
     inkscape:window-height="1005"
     inkscape:window-width="1920"
     inkscape:pageshadow="2"
     inkscape:pageopacity="0"
     guidetolerance="10"
     gridtolerance="10"
     objecttolerance="10"
     borderopacity="1"
     bordercolor="#666666"
     pagecolor="#c8c8c8"
     inkscape:pagecheckerboard="0"
     inkscape:snap-smooth-nodes="true"
     showguides="true"
     inkscape:guide-bbox="true"
     inkscape:snap-nodes="true">
    <inkscape:grid
       id="grid953"
       type="xygrid" />
  </sodipodi:namedview>
  <style
     id="current-color-scheme"
     type="text/css">
        .ColorScheme-Text {
            color:#232629;
        }
        .ColorScheme-NeutralText {
            color:#f67400;
        }
        .ColorScheme-NegativeText {
            color:#da4453;
        }
    </style>
  <style
     type="text/css"
     id="current-color-scheme-36">
        .ColorScheme-Text {
            color:#232629;
        }
    </style>
  <style
     id="current-color-scheme-3"
     type="text/css">
        .ColorScheme-NegativeText {
            color:#da4453;
        }
    </style>
  <g
     id="disk-quota"
     transform="translate(0,25)">
    <rect
       style="opacity:0.00100002;fill:#ffffff;fill-opacity:1;stroke:none;stroke-width:0.1;stroke-miterlimit:4;stroke-dasharray:none;stroke-opacity:1"
       id="rect3227"
       width="22"
       height="22"
       x="2.2718226e-08"
       y="-25"
       ry="0" />
    <g
       id="g3237">
      <path
         id="path3229"
         style="opacity:1;fill:#fbfbfb;fill-rule:evenodd;stroke-linecap:round;stroke-linejoin:round;paint-order:stroke fill markers"
         d="M 5.5,-22 C 4.11929,-22 3,-20.88071 3,-19.5 v 4.712891 a 5.5,5.5 0 0 1 1,-0.175782 V -19.5 C 4,-20.32843 4.67157,-21 5.5,-21 H 9 v 2.5 c 0,0.82843 0.67157,1.5 1.5,1.5 H 18 v 8.5 C 18,-7.6716 17.3284,-7 16.5,-7 H 9.3867188 A 5.5,5.5 0 0 1 8.7324219,-6 H 16.5 c 1.3807,0 2.5,-1.1193 2.5,-2.5 v -11 c 0,-1.38071 -1.1193,-2.5 -2.5,-2.5 z m 4.5,1 h 6.5 c 0.8284,0 1.5,0.67157 1.5,1.5 v 1.5 h -7.5 c -0.27614,0 -0.5,-0.22386 -0.5,-0.5 z" />
      <path
         style="opacity:0.45;fill:#fbfbfb;fill-opacity:1;fill-rule:evenodd;stroke:none;stroke-width:1.55556;stroke-linejoin:round;stroke-miterlimit:4;stroke-dasharray:none;stroke-opacity:1"
         id="path3231"
         sodipodi:type="arc"
         sodipodi:cx="4.4996614"
         sodipodi:cy="-9.5"
         sodipodi:rx="3.5"
         sodipodi:ry="3.5"
         sodipodi:start="0"
         sodipodi:end="4.712389"
         sodipodi:arc-type="slice"
         d="M 7.9996614,-9.5 A 3.5,3.5 0 0 1 5.8390534,-6.2664216 3.5,3.5 0 0 1 2.0247877,-7.0251263 3.5,3.5 0 0 1 1.2660831,-10.839392 3.5,3.5 0 0 1 4.4996614,-13 v 3.5 z" />
      <circle
         style="fill:#fbfbfb;fill-opacity:1;fill-rule:evenodd;stroke:none;stroke-width:0.666661;stroke-linejoin:round;stroke-miterlimit:4;stroke-dasharray:none;stroke-opacity:1"
         id="circle3233"
         cx="4.4996614"
         cy="-9.5"
         r="1.4999826" />
      <path
         style="opacity:1;fill:none;fill-opacity:1;fill-rule:evenodd;stroke:#fbfbfb;stroke-width:1.00017;stroke-linecap:round;stroke-linejoin:round;stroke-miterlimit:4;stroke-dasharray:none;stroke-opacity:1"
         id="path3235"
         sodipodi:type="arc"
         sodipodi:cx="4.4996614"
         sodipodi:cy="-9.5"
         sodipodi:rx="3.999913"
         sodipodi:ry="3.999913"
         sodipodi:start="0"
         sodipodi:end="4.712389"
         sodipodi:arc-type="arc"
         sodipodi:open="true"
         d="M 8.4995744,-9.5 A 3.999913,3.999913 0 0 1 6.0303619,-5.8045623 3.999913,3.999913 0 0 1 1.6712958,-6.6716344 3.999913,3.999913 0 0 1 0.80422374,-11.0307 3.999913,3.999913 0 0 1 4.4996614,-13.499913" />
    </g>
  </g>
  <g
     id="disk-quota-missing"
     transform="translate(25,25)">
    <rect
       style="opacity:0.00100002;fill:#ffffff;fill-opacity:1;stroke:none;stroke-width:0.1;stroke-miterlimit:4;stroke-dasharray:none;stroke-opacity:1"
       id="rect846-7"
       width="22"
       height="22"
       x="2.2718226e-08"
       y="-25"
       ry="0" />
    <g
       id="g3137">
      <path
         id="rect2970"
         style="opacity:1;fill:#fbfbfb;fill-rule:evenodd;stroke-linecap:round;stroke-linejoin:round;paint-order:stroke fill markers"
         d="M 5.5,-22 C 4.11929,-22 3,-20.88071 3,-19.5 v 4.712891 a 5.5,5.5 0 0 1 1,-0.175782 V -19.5 C 4,-20.32843 4.67157,-21 5.5,-21 H 9 v 2.5 c 0,0.82843 0.67157,1.5 1.5,1.5 H 18 v 8.5 C 18,-7.6716 17.3284,-7 16.5,-7 H 9.3867188 A 5.5,5.5 0 0 1 8.7324219,-6 H 16.5 c 1.3807,0 2.5,-1.1193 2.5,-2.5 v -11 c 0,-1.38071 -1.1193,-2.5 -2.5,-2.5 z m 4.5,1 h 6.5 c 0.8284,0 1.5,0.67157 1.5,1.5 v 1.5 h -7.5 c -0.27614,0 -0.5,-0.22386 -0.5,-0.5 z" />
      <path
         style="opacity:0.45;fill:#fbfbfb;fill-opacity:1;fill-rule:evenodd;stroke:none;stroke-width:1.55556;stroke-linejoin:round;stroke-miterlimit:4;stroke-dasharray:none;stroke-opacity:1"
         id="path6554"
         sodipodi:type="arc"
         sodipodi:cx="4.4996614"
         sodipodi:cy="-9.5"
         sodipodi:rx="3.5"
         sodipodi:ry="3.5"
         sodipodi:start="0"
         sodipodi:end="4.712389"
         sodipodi:arc-type="slice"
         d="M 7.9996614,-9.5 A 3.5,3.5 0 0 1 5.8390534,-6.2664216 3.5,3.5 0 0 1 2.0247877,-7.0251263 3.5,3.5 0 0 1 1.2660831,-10.839392 3.5,3.5 0 0 1 4.4996614,-13 v 3.5 z" />
      <circle
         style="fill:#fbfbfb;fill-opacity:1;fill-rule:evenodd;stroke:none;stroke-width:0.666661;stroke-linejoin:round;stroke-miterlimit:4;stroke-dasharray:none;stroke-opacity:1"
         id="circle6556"
         cx="4.4996614"
         cy="-9.5"
         r="1.4999826" />
      <path
         style="opacity:1;fill:none;fill-opacity:1;fill-rule:evenodd;stroke:#fbfbfb;stroke-width:1.00017;stroke-linecap:round;stroke-linejoin:round;stroke-miterlimit:4;stroke-dasharray:none;stroke-opacity:1"
         id="path6558"
         sodipodi:type="arc"
         sodipodi:cx="4.4996614"
         sodipodi:cy="-9.5"
         sodipodi:rx="3.999913"
         sodipodi:ry="3.999913"
         sodipodi:start="0"
         sodipodi:end="4.712389"
         sodipodi:arc-type="arc"
         sodipodi:open="true"
         d="M 8.4995744,-9.5 A 3.999913,3.999913 0 0 1 6.0303619,-5.8045623 3.999913,3.999913 0 0 1 1.6712958,-6.6716344 3.999913,3.999913 0 0 1 0.80422374,-11.0307 3.999913,3.999913 0 0 1 4.4996614,-13.499913" />
    </g>
    <circle
       style="fill:#ff7800;fill-opacity:1;fill-rule:evenodd;stroke-width:0.5;stroke-linejoin:round"
       id="circle3250"
       cx="21"
       cy="-7"
       r="1" />
    <rect
       style="fill:#ff7800;fill-opacity:1;fill-rule:evenodd;stroke-linecap:round;stroke-linejoin:round"
       id="rect3252"
       width="2"
       height="8"
       x="20"
       y="-17"
       ry="1" />
  </g>
  <g
     id="disk-quota-low"
     transform="translate(50,25)">
    <rect
       style="opacity:0.00100002;fill:#ffffff;fill-opacity:1;stroke:none;stroke-width:0.1;stroke-miterlimit:4;stroke-dasharray:none;stroke-opacity:1"
       id="rect3510"
       width="22"
       height="22"
       x="2.2718226e-08"
       y="-25"
       ry="0" />
    <g
       id="g3520">
      <path
         id="path3512"
         style="opacity:1;fill:#fbfbfb;fill-rule:evenodd;stroke-linecap:round;stroke-linejoin:round;paint-order:stroke fill markers"
         d="M 5.5,-22 C 4.11929,-22 3,-20.88071 3,-19.5 v 4.712891 a 5.5,5.5 0 0 1 1,-0.175782 V -19.5 C 4,-20.32843 4.67157,-21 5.5,-21 H 9 v 2.5 c 0,0.82843 0.67157,1.5 1.5,1.5 H 18 v 8.5 C 18,-7.6716 17.3284,-7 16.5,-7 H 9.3867188 A 5.5,5.5 0 0 1 8.7324219,-6 H 16.5 c 1.3807,0 2.5,-1.1193 2.5,-2.5 v -11 c 0,-1.38071 -1.1193,-2.5 -2.5,-2.5 z m 4.5,1 h 6.5 c 0.8284,0 1.5,0.67157 1.5,1.5 v 1.5 h -7.5 c -0.27614,0 -0.5,-0.22386 -0.5,-0.5 z" />
      <path
         style="opacity:0.45;fill:#ff7800;fill-opacity:1;fill-rule:evenodd;stroke:none;stroke-width:1.55556;stroke-linejoin:round;stroke-miterlimit:4;stroke-dasharray:none;stroke-opacity:1"
         id="path3514"
         sodipodi:type="arc"
         sodipodi:cx="4.4996614"
         sodipodi:cy="-9.5"
         sodipodi:rx="3.5"
         sodipodi:ry="3.5"
         sodipodi:start="0"
         sodipodi:end="4.712389"
         sodipodi:arc-type="slice"
         d="M 7.9996614,-9.5 A 3.5,3.5 0 0 1 5.8390534,-6.2664216 3.5,3.5 0 0 1 2.0247877,-7.0251263 3.5,3.5 0 0 1 1.2660831,-10.839392 3.5,3.5 0 0 1 4.4996614,-13 v 3.5 z" />
      <circle
         style="fill:#ff7800;fill-opacity:1;fill-rule:evenodd;stroke:none;stroke-width:0.666661;stroke-linejoin:round;stroke-miterlimit:4;stroke-dasharray:none;stroke-opacity:1"
         id="circle3516"
         cx="4.4996614"
         cy="-9.5"
         r="1.4999826" />
      <path
         style="opacity:1;fill:none;fill-opacity:1;fill-rule:evenodd;stroke:#ff7800;stroke-width:1.00017;stroke-linecap:round;stroke-linejoin:round;stroke-miterlimit:4;stroke-dasharray:none;stroke-opacity:1"
         id="path3518"
         sodipodi:type="arc"
         sodipodi:cx="4.4996614"
         sodipodi:cy="-9.5"
         sodipodi:rx="3.999913"
         sodipodi:ry="3.999913"
         sodipodi:start="0"
         sodipodi:end="4.712389"
         sodipodi:arc-type="arc"
         sodipodi:open="true"
         d="M 8.4995744,-9.5 A 3.999913,3.999913 0 0 1 6.0303619,-5.8045623 3.999913,3.999913 0 0 1 1.6712958,-6.6716344 3.999913,3.999913 0 0 1 0.80422374,-11.0307 3.999913,3.999913 0 0 1 4.4996614,-13.499913" />
    </g>
  </g>
  <g
     id="disk-quota-high"
     transform="translate(75,25)">
    <rect
       style="opacity:0.00100002;fill:#ffffff;fill-opacity:1;stroke:none;stroke-width:0.1;stroke-miterlimit:4;stroke-dasharray:none;stroke-opacity:1"
       id="rect7001"
       width="22"
       height="22"
       x="2.2718226e-08"
       y="-25"
       ry="0" />
    <g
       id="g7011">
      <path
         id="path7003"
         style="opacity:1;fill:#fbfbfb;fill-rule:evenodd;stroke-linecap:round;stroke-linejoin:round;paint-order:stroke fill markers"
         d="M 5.5,-22 C 4.11929,-22 3,-20.88071 3,-19.5 v 4.712891 a 5.5,5.5 0 0 1 1,-0.175782 V -19.5 C 4,-20.32843 4.67157,-21 5.5,-21 H 9 v 2.5 c 0,0.82843 0.67157,1.5 1.5,1.5 H 18 v 8.5 C 18,-7.6716 17.3284,-7 16.5,-7 H 9.3867188 A 5.5,5.5 0 0 1 8.7324219,-6 H 16.5 c 1.3807,0 2.5,-1.1193 2.5,-2.5 v -11 c 0,-1.38071 -1.1193,-2.5 -2.5,-2.5 z m 4.5,1 h 6.5 c 0.8284,0 1.5,0.67157 1.5,1.5 v 1.5 h -7.5 c -0.27614,0 -0.5,-0.22386 -0.5,-0.5 z" />
      <path
         style="opacity:0.45;fill:#ff3232;fill-opacity:1;fill-rule:evenodd;stroke:none;stroke-width:1.55556;stroke-linejoin:round;stroke-miterlimit:4;stroke-dasharray:none;stroke-opacity:1"
         id="path7005"
         sodipodi:type="arc"
         sodipodi:cx="4.4996614"
         sodipodi:cy="-9.5"
         sodipodi:rx="3.5"
         sodipodi:ry="3.5"
         sodipodi:start="0"
         sodipodi:end="4.712389"
         sodipodi:arc-type="slice"
         d="M 7.9996614,-9.5 A 3.5,3.5 0 0 1 5.8390534,-6.2664216 3.5,3.5 0 0 1 2.0247877,-7.0251263 3.5,3.5 0 0 1 1.2660831,-10.839392 3.5,3.5 0 0 1 4.4996614,-13 v 3.5 z" />
      <circle
         style="fill:#ff3232;fill-opacity:1;fill-rule:evenodd;stroke:none;stroke-width:0.666661;stroke-linejoin:round;stroke-miterlimit:4;stroke-dasharray:none;stroke-opacity:1"
         id="circle7007"
         cx="4.4996614"
         cy="-9.5"
         r="1.4999826" />
      <path
         style="opacity:1;fill:none;fill-opacity:1;fill-rule:evenodd;stroke:#ff3232;stroke-width:1.00017;stroke-linecap:round;stroke-linejoin:round;stroke-miterlimit:4;stroke-dasharray:none;stroke-opacity:1"
         id="path7009"
         sodipodi:type="arc"
         sodipodi:cx="4.4996614"
         sodipodi:cy="-9.5"
         sodipodi:rx="3.999913"
         sodipodi:ry="3.999913"
         sodipodi:start="0"
         sodipodi:end="4.712389"
         sodipodi:arc-type="arc"
         sodipodi:open="true"
         d="M 8.4995744,-9.5 A 3.999913,3.999913 0 0 1 6.0303619,-5.8045623 3.999913,3.999913 0 0 1 1.6712958,-6.6716344 3.999913,3.999913 0 0 1 0.80422374,-11.0307 3.999913,3.999913 0 0 1 4.4996614,-13.499913" />
    </g>
  </g>
  <g
     id="disk-quota-critical"
     transform="translate(100,25)">
    <rect
       style="opacity:0.00100002;fill:#ffffff;fill-opacity:1;stroke:none;stroke-width:0.1;stroke-miterlimit:4;stroke-dasharray:none;stroke-opacity:1"
       id="rect9976"
       width="22"
       height="22"
       x="2.2718226e-08"
       y="-25"
       ry="0" />
    <g
       id="g9986">
      <path
         id="path9978"
         style="opacity:1;fill:#fbfbfb;fill-rule:evenodd;stroke-linecap:round;stroke-linejoin:round;paint-order:stroke fill markers"
         d="M 5.5,-22 C 4.11929,-22 3,-20.88071 3,-19.5 v 4.712891 a 5.5,5.5 0 0 1 1,-0.175782 V -19.5 C 4,-20.32843 4.67157,-21 5.5,-21 H 9 v 2.5 c 0,0.82843 0.67157,1.5 1.5,1.5 H 18 v 8.5 C 18,-7.6716 17.3284,-7 16.5,-7 H 9.3867188 A 5.5,5.5 0 0 1 8.7324219,-6 H 16.5 c 1.3807,0 2.5,-1.1193 2.5,-2.5 v -11 c 0,-1.38071 -1.1193,-2.5 -2.5,-2.5 z m 4.5,1 h 6.5 c 0.8284,0 1.5,0.67157 1.5,1.5 v 1.5 h -7.5 c -0.27614,0 -0.5,-0.22386 -0.5,-0.5 z" />
      <path
         style="opacity:0.45;fill:#ff3232;fill-opacity:1;fill-rule:evenodd;stroke:none;stroke-width:1.55556;stroke-linejoin:round;stroke-miterlimit:4;stroke-dasharray:none;stroke-opacity:1"
         id="path9980"
         sodipodi:type="arc"
         sodipodi:cx="4.4996614"
         sodipodi:cy="-9.5"
         sodipodi:rx="3.5"
         sodipodi:ry="3.5"
         sodipodi:start="0"
         sodipodi:end="4.712389"
         sodipodi:arc-type="slice"
         d="M 7.9996614,-9.5 A 3.5,3.5 0 0 1 5.8390534,-6.2664216 3.5,3.5 0 0 1 2.0247877,-7.0251263 3.5,3.5 0 0 1 1.2660831,-10.839392 3.5,3.5 0 0 1 4.4996614,-13 v 3.5 z" />
      <circle
         style="fill:#ff3232;fill-opacity:1;fill-rule:evenodd;stroke:none;stroke-width:0.666661;stroke-linejoin:round;stroke-miterlimit:4;stroke-dasharray:none;stroke-opacity:1"
         id="circle9982"
         cx="4.4996614"
         cy="-9.5"
         r="1.4999826" />
      <path
         style="opacity:1;fill:none;fill-opacity:1;fill-rule:evenodd;stroke:#ff3232;stroke-width:1.00017;stroke-linecap:round;stroke-linejoin:round;stroke-miterlimit:4;stroke-dasharray:none;stroke-opacity:1"
         id="path9984"
         sodipodi:type="arc"
         sodipodi:cx="4.4996614"
         sodipodi:cy="-9.5"
         sodipodi:rx="3.999913"
         sodipodi:ry="3.999913"
         sodipodi:start="0"
         sodipodi:end="4.712389"
         sodipodi:arc-type="arc"
         sodipodi:open="true"
         d="M 8.4995744,-9.5 A 3.999913,3.999913 0 0 1 6.0303619,-5.8045623 3.999913,3.999913 0 0 1 1.6712958,-6.6716344 3.999913,3.999913 0 0 1 0.80422374,-11.0307 3.999913,3.999913 0 0 1 4.4996614,-13.499913" />
    </g>
    <circle
       style="fill:#ff3232;fill-opacity:1;fill-rule:evenodd;stroke-width:0.5;stroke-linejoin:round"
       id="circle9988"
       cx="21"
       cy="-7"
       r="1" />
    <rect
       style="fill:#ff3232;fill-opacity:1;fill-rule:evenodd;stroke-linecap:round;stroke-linejoin:round"
       id="rect9990"
       width="2"
       height="8"
       x="20"
       y="-17"
       ry="1" />
  </g>
</svg>
