<?xml version="1.0" encoding="UTF-8" standalone="no"?>
<!-- Created with Inkscape (http://www.inkscape.org/) -->

<svg
   width="22"
   height="22"
   id="svg3869"
   version="1.1"
   inkscape:version="1.1 (c4e8f9ed74, 2021-05-24)"
   sodipodi:docname="distribute.svgz"
   viewBox="0 0 22 22"
   xmlns:inkscape="http://www.inkscape.org/namespaces/inkscape"
   xmlns:sodipodi="http://sodipodi.sourceforge.net/DTD/sodipodi-0.dtd"
   xmlns="http://www.w3.org/2000/svg"
   xmlns:svg="http://www.w3.org/2000/svg"
   xmlns:rdf="http://www.w3.org/1999/02/22-rdf-syntax-ns#"
   xmlns:cc="http://creativecommons.org/ns#"
   xmlns:dc="http://purl.org/dc/elements/1.1/">
  <defs
     id="defs3871">
    <style
       type="text/css"
       id="current-color-scheme">
      .ColorScheme-Text {
        color:#31363b;
      }
      .ColorScheme-Background {
        color:#eff0f1;
      }
      .ColorScheme-Highlight {
        color:#3daee9;
      }
      .ColorScheme-ViewText {
        color:#31363b;
      }
      .ColorScheme-ViewBackground {
        color:#fcfcfc;
      }
      .ColorScheme-ViewHover {
        color:#93cee9;
      }
      .ColorScheme-ViewFocus{
        color:#3daee9;
      }
      .ColorScheme-ButtonText {
        color:#31363b;
      }
      .ColorScheme-ButtonBackground {
        color:#eff0f1;
      }
      .ColorScheme-ButtonHover {
        color:#93cee9;
      }
      .ColorScheme-ButtonFocus{
        color:#3daee9;
      }
      </style>
  </defs>
  <sodipodi:namedview
     id="base"
     pagecolor="#c8c8c8"
     bordercolor="#666666"
     borderopacity="1.0"
     inkscape:pageopacity="0"
     inkscape:pageshadow="2"
     inkscape:zoom="16"
     inkscape:cx="10.34375"
     inkscape:cy="9.15625"
     inkscape:document-units="px"
     inkscape:current-layer="layer1"
     showgrid="true"
     fit-margin-top="0"
     fit-margin-left="0"
     fit-margin-right="0"
     fit-margin-bottom="0"
     inkscape:window-width="1920"
     inkscape:window-height="958"
     inkscape:window-x="0"
     inkscape:window-y="40"
     inkscape:window-maximized="1"
     inkscape:showpageshadow="false"
     inkscape:pagecheckerboard="0">
    <inkscape:grid
       type="xygrid"
       id="grid4132" />
    <sodipodi:guide
       position="2,20.000017"
       orientation="18,0"
       id="guide4138"
       inkscape:locked="false" />
    <sodipodi:guide
       position="2,2.0000174"
       orientation="0,18"
       id="guide4140"
       inkscape:locked="false" />
    <sodipodi:guide
       position="20,2.0000174"
       orientation="-18,0"
       id="guide4142"
       inkscape:locked="false" />
    <sodipodi:guide
       position="20,20.000017"
       orientation="0,-18"
       id="guide4144"
       inkscape:locked="false" />
    <sodipodi:guide
       position="3,19.000017"
       orientation="16,0"
       id="guide4146"
       inkscape:locked="false" />
    <sodipodi:guide
       position="3,3.0000174"
       orientation="0,16"
       id="guide4148"
       inkscape:locked="false" />
    <sodipodi:guide
       position="19,3.0000174"
       orientation="-16,0"
       id="guide4150"
       inkscape:locked="false" />
    <sodipodi:guide
       position="19,19.000017"
       orientation="0,-16"
       id="guide4152"
       inkscape:locked="false" />
  </sodipodi:namedview>
  <metadata
     id="metadata3874">
    <rdf:RDF>
      <cc:Work
         rdf:about="">
        <dc:format>image/svg+xml</dc:format>
        <dc:type
           rdf:resource="http://purl.org/dc/dcmitype/StillImage" />
        <dc:title />
      </cc:Work>
    </rdf:RDF>
  </metadata>
  <g
     inkscape:label="Capa 1"
     inkscape:groupmode="layer"
     id="layer1"
     transform="translate(-326,-534.3622)">
    <g
       id="distribute-horizontal-x">
      <rect
         y="534.36218"
         x="326"
         height="22"
         width="22"
         id="rect4178"
         style="fill:none;fill-opacity:1;stroke:none;stroke-width:0.1;stroke-linecap:square;stroke-linejoin:miter;stroke-miterlimit:4;stroke-dasharray:none;stroke-dashoffset:0;stroke-opacity:1" />
      <path
         style="color:#000000;fill:#ffffff;fill-opacity:1;-inkscape-stroke:none"
         d="m 341.59951,542.72431 c 0.19529,-0.19527 0.19529,-0.51185 0,-0.70711 l -1.27281,-1.27282 c -0.19529,-0.19526 -0.5118,-0.19526 -0.7071,0 -0.1953,0.19526 -0.1953,0.51185 0,0.70711 l 1.2728,1.27282 c 0.1953,0.19526 0.51191,0.19526 0.70711,0 z m -6.78832,6.08121 c 0.19526,0.1953 0.19526,0.5119 0,0.7071 -0.19527,0.1953 -0.51185,0.1953 -0.70711,0 l -1.27282,-1.2728 c -0.19526,-0.1952 -0.19526,-0.5118 0,-0.7071 0.19526,-0.1952 0.51185,-0.1952 0.70711,0 z m 9.35942,-10.6139 c -0.5725,-0.57246 -1.50061,-0.57246 -2.07311,0 l -0.6204,0.62042 -0.2446,-0.24459 c -0.72179,-0.72182 -1.8921,-0.72182 -2.6139,0 -0.0871,0.087 -0.1637,0.18077 -0.2299,0.27961 -0.7296,-0.15811 -1.52247,0.0459 -2.09032,0.6138 -0.88751,0.8875 -0.88751,2.32644 0,3.21395 l 0.65798,0.65797 -1.96847,1.96848 -0.65798,-0.65798 c -0.88751,-0.88751 -2.32644,-0.88751 -3.21395,-10e-6 -0.56781,0.56781 -0.77188,1.36065 -0.61382,2.09015 -0.0989,0.0662 -0.19264,0.1429 -0.27968,0.2299 -0.72182,0.7219 -0.72182,1.8922 0,2.614 l 0.24469,0.2447 -0.63771,0.6377 c -0.57246,0.5724 -0.57246,1.5006 0,2.0731 0.57246,0.5724 1.5006,0.5724 2.07306,0 l 0.63772,-0.6378 0.24445,0.2445 c 0.72182,0.7218 1.89212,0.7218 2.61394,0 0.087,-0.087 0.16367,-0.1808 0.22985,-0.2796 0.72959,0.1581 1.52244,-0.046 2.09034,-0.6138 0.8875,-0.8875 0.8875,-2.3265 0,-3.214 l -0.6578,-0.6578 1.9684,-1.9685 0.6579,0.6579 c 0.8875,0.8875 2.3264,0.8875 3.2139,0 0.5678,-0.5678 0.7719,-1.36067 0.6138,-2.09022 0.0989,-0.0662 0.1927,-0.14286 0.2797,-0.2299 0.7218,-0.72182 0.7218,-1.89212 0,-2.61394 l -0.2445,-0.24455 0.6204,-0.62042 c 0.5724,-0.57246 0.5724,-1.50061 1e-5,-2.07307 z m -1.3275,1.98638 -0.65891,-0.65885 0.62041,-0.62042 c 0.182,-0.18194 0.4769,-0.18194 0.6589,0 0.1819,0.18194 0.1819,0.47691 0,0.65885 z m -4.5208,4.52074 -1.96846,1.96848 -0.65885,-0.6589 1.96851,-1.96843 z m -6.4892,6.48918 -0.63772,0.6377 c -0.18193,0.182 -0.4769,0.182 -0.65884,0 -0.18193,-0.1819 -0.18193,-0.4769 0,-0.6588 l 0.63772,-0.6377 z m 7.4926,-11.91337 c 0.3313,-0.33129 0.8684,-0.33129 1.1997,0 l 2.5622,2.56222 c 0.3313,0.33129 0.3313,0.86842 0,1.19972 -0.0984,0.0984 -0.2137,0.16687 -0.336,0.20671 -0.1356,0.0441 -0.2458,0.14403 -0.3031,0.27457 -0.0573,0.13054 -0.0561,0.27931 0.003,0.40893 0.2153,0.47037 0.1285,1.04381 -0.2576,1.42992 -0.49701,0.4969 -1.3028,0.4969 -1.7997,0 l -3.3889,-3.38892 c -0.497,-0.49699 -0.497,-1.30275 0,-1.79974 0.3861,-0.38609 0.9596,-0.47292 1.4299,-0.25761 0.1297,0.0593 0.2784,0.0605 0.409,0.003 0.1305,-0.0573 0.23039,-0.16751 0.2746,-0.30305 0.0398,-0.12233 0.1083,-0.23764 0.2067,-0.33602 z m -7.50264,6.07587 c 0.49699,-0.49702 1.30275,-0.49702 1.79974,0 l 3.38889,3.3888 c 0.497,0.497 0.497,1.3028 0,1.7998 -0.38612,0.3861 -0.9596,0.4729 -1.42998,0.2576 -0.12961,-0.0593 -0.27839,-0.0605 -0.40893,-0.003 -0.13054,0.0573 -0.23044,0.1675 -0.27459,0.3031 -0.0399,0.1223 -0.10831,0.2376 -0.2067,0.336 -0.3313,0.3313 -0.86843,0.3313 -1.19972,0 l -2.56221,-2.5622 c -0.3313,-0.3313 -0.3313,-0.8685 0,-1.1998 0.0984,-0.0983 0.2137,-0.1668 0.33605,-0.2067 0.13553,-0.0441 0.24579,-0.144 0.30304,-0.2745 0.0573,-0.1306 0.0561,-0.2793 -0.003,-0.409 -0.21527,-0.4703 -0.12843,-1.0438 0.25765,-1.4298 z"
         id="path924" />
    </g>
  </g>
</svg>
