<?xml version="1.0" encoding="UTF-8" standalone="no"?>
<svg
   id="svg2"
   viewBox="0 0 32 32"
   version="1.1"
   sodipodi:docname="drive.svgz"
   width="32"
   height="32"
   inkscape:version="1.1.1 (3bf5ae0d25, 2021-09-20, custom)"
   xmlns:inkscape="http://www.inkscape.org/namespaces/inkscape"
   xmlns:sodipodi="http://sodipodi.sourceforge.net/DTD/sodipodi-0.dtd"
   xmlns="http://www.w3.org/2000/svg"
   xmlns:svg="http://www.w3.org/2000/svg"
   xmlns:rdf="http://www.w3.org/1999/02/22-rdf-syntax-ns#"
   xmlns:cc="http://creativecommons.org/ns#"
   xmlns:dc="http://purl.org/dc/elements/1.1/">
  <metadata
     id="metadata17">
    <rdf:RDF>
      <cc:Work
         rdf:about="">
        <dc:format>image/svg+xml</dc:format>
        <dc:type
           rdf:resource="http://purl.org/dc/dcmitype/StillImage" />
      </cc:Work>
    </rdf:RDF>
  </metadata>
  <defs
     id="defs15">
    <style
       type="text/css"
       id="current-color-scheme-6">
      .ColorScheme-Text {
        color:#31363b;
      }
      .ColorScheme-Background {
        color:#eff0f1;
      }
      .ColorScheme-Highlight {
        color:#3daee9;
      }
      .ColorScheme-ViewText {
        color:#31363b;
      }
      .ColorScheme-ViewBackground {
        color:#fcfcfc;
      }
      .ColorScheme-ViewHover {
        color:#93cee9;
      }
      .ColorScheme-ViewFocus{
        color:#3daee9;
      }
      .ColorScheme-ButtonText {
        color:#31363b;
      }
      .ColorScheme-ButtonBackground {
        color:#eff0f1;
      }
      .ColorScheme-ButtonHover {
        color:#93cee9;
      }
      .ColorScheme-ButtonFocus{
        color:#3daee9;
      }
      </style>
  </defs>
  <sodipodi:namedview
     pagecolor="#c8c8c8"
     bordercolor="#666666"
     borderopacity="1"
     objecttolerance="10"
     gridtolerance="10"
     guidetolerance="10"
     inkscape:pageopacity="0"
     inkscape:pageshadow="2"
     inkscape:window-width="1920"
     inkscape:window-height="1005"
     id="namedview13"
     showgrid="true"
     inkscape:zoom="11.313709"
     inkscape:cx="-17.633475"
     inkscape:cy="16.793785"
     inkscape:window-x="0"
     inkscape:window-y="0"
     inkscape:window-maximized="1"
     inkscape:current-layer="svg2"
     inkscape:snap-bbox="true"
     inkscape:bbox-nodes="true"
     inkscape:snap-bbox-edge-midpoints="true"
     inkscape:document-rotation="0"
     inkscape:pagecheckerboard="0"
     inkscape:snap-intersection-paths="true"
     inkscape:snap-smooth-nodes="true">
    <inkscape:grid
       type="xygrid"
       id="grid926" />
  </sodipodi:namedview>
  <style
     type="text/css"
     id="current-color-scheme">
        .ColorScheme-Text {
            color:#232629;
        }
    </style>
  <style
     id="current-color-scheme-367"
     type="text/css">
        .ColorScheme-Text {
            color:#232629;
        }
        .ColorScheme-NeutralText {
            color:#f67400;
        }
        .ColorScheme-NegativeText {
            color:#da4453;
        }
    </style>
  <style
     type="text/css"
     id="current-color-scheme-36">
        .ColorScheme-Text {
            color:#232629;
        }
    </style>
  <style
     id="current-color-scheme-3"
     type="text/css">
        .ColorScheme-NegativeText {
            color:#da4453;
        }
    </style>
  <g
     id="g15946"
     transform="translate(-98,11)" />
  <g
     id="22-22-drive">
    <rect
       style="opacity:0.00100002;fill:#ffffff;fill-opacity:1;stroke:none;stroke-width:0.1;stroke-miterlimit:4;stroke-dasharray:none;stroke-opacity:1"
       id="rect846"
       width="22"
       height="22"
       x="-22"
       y="10"
       ry="0" />
    <path
       id="rect1665"
       style="fill:#ffffff;fill-opacity:1;fill-rule:evenodd;stroke:none;stroke-linecap:round;stroke-linejoin:round;paint-order:stroke fill markers"
       d="m -5.5,29 c 1.38071,0 2.5,-1.11929 2.5,-2.5 v -11 C -3,14.1193 -4.11929,13 -5.5,13 h -11 c -1.3807,0 -2.5,1.1193 -2.5,2.5 v 11 c 0,1.38071 1.1193,2.5 2.5,2.5 z m 0,-1 H -9 V 25.5 C -9,24.67157 -9.67157,24 -10.5,24 H -18 v -8.5 c 0,-0.8284 0.6716,-1.5 1.5,-1.5 h 11 c 0.82843,0 1.5,0.6716 1.5,1.5 v 11 c 0,0.82843 -0.67157,1.5 -1.5,1.5 z m -4.5,0 h -6.5 C -17.3284,28 -18,27.32843 -18,26.5 V 25 h 7.5 c 0.27614,0 0.5,0.22386 0.5,0.5 z" />
  </g>
  <g
     id="drive">
    <rect
       y="7.8146977e-06"
       x="7.6293945e-06"
       height="31.999985"
       width="31.999985"
       id="rect4151"
       style="opacity:0.2;fill:none;fill-opacity:1;stroke:none" />
    <path
       id="path3153"
       style="opacity:1;fill:#ffffff;fill-opacity:1;fill-rule:evenodd;stroke:none;stroke-linecap:round;stroke-linejoin:round;paint-order:stroke fill markers"
       d="M 24.5,29 C 25.88071,29 27,27.88071 27,26.5 V 5.5 C 27,4.1193 25.88071,3 24.5,3 H 7.5 C 6.1193,3 5,4.1193 5,5.5 v 21 C 5,27.88071 6.1193,29 7.5,29 Z m 0,-1 H 21 V 22.5 C 21,21.67157 20.32843,21 19.5,21 H 6 V 5.5 C 6,4.6716 6.6716,4 7.5,4 h 17 C 25.32843,4 26,4.6716 26,5.5 v 21 C 26,27.32843 25.32843,28 24.5,28 Z M 20,28 H 7.5 C 6.6716,28 6,27.32843 6,26.5 V 22 h 13.5 c 0.27614,0 0.5,0.22386 0.5,0.5 z"
       sodipodi:nodetypes="sssssssssscsscsssssscsscssc" />
  </g>
  <g
     id="16-16-drive">
    <path
       id="path17"
       d="m -42,16 v 16 h 16 V 16 Z"
       inkscape:connector-curvature="0"
       style="fill:none" />
    <path
       id="path3447"
       style="fill:#ffffff;fill-opacity:1;fill-rule:evenodd;stroke:none;stroke-linecap:round;stroke-linejoin:round;paint-order:stroke fill markers"
       d="m -29.5,31 c 1.38071,0 2.5,-1.11929 2.5,-2.5 v -9 c 0,-1.3807 -1.11929,-2.5 -2.5,-2.5 h -9 c -1.3807,0 -2.5,1.1193 -2.5,2.5 v 9 c 0,1.38071 1.1193,2.5 2.5,2.5 z m 0,-1 h -3.25 v -1.5 c 0,-0.82843 -0.67157,-1.5 -1.5,-1.5 H -40 v -7.5 c 0,-0.8284 0.6716,-1.5 1.5,-1.5 h 9 c 0.82843,0 1.5,0.6716 1.5,1.5 v 9 c 0,0.82843 -0.67157,1.5 -1.5,1.5 z m -4.25,0 H -38.5 C -39.3284,30 -40,29.32843 -40,28.5 V 28 h 5.75 c 0.27614,0 0.5,0.22386 0.5,0.5 z"
       sodipodi:nodetypes="sssssssssscsscsssssscsscssc" />
  </g>
</svg>
