<?xml version="1.0" encoding="UTF-8" standalone="no"?>
<svg
   id="svg3869"
   version="1.1"
   viewBox="0 0 22 22"
   sodipodi:docname="go.svgz"
   inkscape:version="1.1 (c4e8f9ed74, 2021-05-24)"
   xmlns:inkscape="http://www.inkscape.org/namespaces/inkscape"
   xmlns:sodipodi="http://sodipodi.sourceforge.net/DTD/sodipodi-0.dtd"
   xmlns="http://www.w3.org/2000/svg"
   xmlns:svg="http://www.w3.org/2000/svg"
   xmlns:rdf="http://www.w3.org/1999/02/22-rdf-syntax-ns#"
   xmlns:cc="http://creativecommons.org/ns#"
   xmlns:dc="http://purl.org/dc/elements/1.1/">
  <metadata
     id="metadata23">
    <rdf:RDF>
      <cc:Work
         rdf:about="">
        <dc:format>image/svg+xml</dc:format>
        <dc:type
           rdf:resource="http://purl.org/dc/dcmitype/StillImage" />
        <dc:title />
      </cc:Work>
    </rdf:RDF>
  </metadata>
  <defs
     id="defs21" />
  <sodipodi:namedview
     pagecolor="#c8c8c8"
     bordercolor="#666666"
     borderopacity="1"
     objecttolerance="10"
     gridtolerance="10"
     guidetolerance="10"
     inkscape:pageopacity="0"
     inkscape:pageshadow="2"
     inkscape:window-width="1920"
     inkscape:window-height="958"
     id="namedview19"
     showgrid="true"
     inkscape:zoom="22.627417"
     inkscape:cx="92.01227"
     inkscape:cy="10.893864"
     inkscape:window-x="0"
     inkscape:window-y="40"
     inkscape:window-maximized="1"
     inkscape:current-layer="svg3869"
     inkscape:document-rotation="0"
     inkscape:pagecheckerboard="0"
     inkscape:lockguides="true"
     inkscape:snap-bbox="true"
     inkscape:bbox-nodes="true"
     inkscape:snap-bbox-edge-midpoints="true">
    <inkscape:grid
       type="xygrid"
       id="grid837" />
  </sodipodi:namedview>
  <style
     type="text/css"
     id="current-color-scheme">
        .ColorScheme-Text {
            color:#232629;
        }
    </style>
  <g
     id="go-home">
    <path
       id="rect4180"
       d="m 0,-2e-5 h 22 v 22 H 0 Z"
       inkscape:connector-curvature="0"
       style="fill:none" />
    <path
       style="color:#000000;fill:#ffffff;-inkscape-stroke:none"
       d="m 12.0025,4.3842025 c -0.5702,-0.51227 -1.43483,-0.51227 -2.005,0 l -5.5,4.94154 C 4.18086,9.6102325 4,10.015863 4,10.441533 v 7.054169 c 0,0.8284 0.67157,1.5 1.5,1.5 H 8 c 0.82843,0 1.5,-0.6716 1.5,-1.5 v -3.499999 c 0,-0.2762 0.22386,-0.5 0.5,-0.5 h 2 c 0.2761,0 0.5,0.2238 0.5,0.5 v 3.499999 c 0,0.8284 0.6716,1.5 1.5,1.5 h 2.5 c 0.8284,0 1.5,-0.6716 1.5,-1.5 v -7.054169 c 0,-0.42567 -0.1809,-0.8313004 -0.4975,-1.1157904 z m -1.33667,0.74386 c 0.19006,-0.17076 0.47827,-0.17075 0.66837,0 l 5.5,4.9415405 C 16.9397,10.164433 17,10.299643 17,10.441533 v 7.054169 c 0,0.2761 -0.2239,0.5 -0.5,0.5 H 14 c -0.2761,0 -0.5,-0.2239 -0.5,-0.5 v -3.499999 c 0,-0.8285 -0.6716,-1.5 -1.5,-1.5 h -2 c -0.82843,0 -1.5,0.6715 -1.5,1.5 v 3.499999 c 0,0.2761 -0.22386,0.5 -0.5,0.5 H 5.5 c -0.27614,0 -0.5,-0.2239 -0.5,-0.5 v -7.054169 c 0,-0.14189 0.06029,-0.2771 0.16583,-0.37193 z"
       id="path2" />
  </g>
  <g
     id="go-previous">
    <path
       id="rect4405"
       d="m 22,-2e-5 h 22 v 22 H 22 Z"
       inkscape:connector-curvature="0"
       style="fill:none" />
    <g
       id="g11707"
       transform="translate(-7.5003766,0.49954497)">
      <rect
         style="fill:#ffffff;fill-opacity:1;fill-rule:evenodd;stroke:none;stroke-width:0.856349;stroke-linecap:square;stroke-linejoin:round;paint-order:stroke markers fill"
         id="rect11140"
         width="11"
         height="1"
         x="17.88542"
         y="32.73402"
         ry="0.5"
         transform="rotate(-45)" />
      <rect
         style="fill:#ffffff;fill-opacity:1;fill-rule:evenodd;stroke:none;stroke-width:0.856349;stroke-linecap:square;stroke-linejoin:round;paint-order:stroke markers fill"
         id="rect11703"
         width="11"
         height="1"
         x="32.734661"
         y="17.884775"
         ry="0.5"
         transform="matrix(0.70710678,0.70710678,0.70710678,-0.70710678,0,0)" />
    </g>
  </g>
  <g
     id="go-next">
    <path
       id="rect4407"
       d="m 44,-2e-5 h 22 v 22 H 44 Z"
       inkscape:connector-curvature="0"
       style="fill:none" />
    <g
       id="g11713"
       transform="matrix(-1,0,0,1,95.500456,0.49999948)">
      <rect
         style="fill:#ffffff;fill-opacity:1;fill-rule:evenodd;stroke:none;stroke-width:0.856349;stroke-linecap:square;stroke-linejoin:round;paint-order:stroke markers fill"
         id="rect11709"
         width="11"
         height="1"
         x="17.88542"
         y="32.73402"
         ry="0.5"
         transform="rotate(-45)" />
      <rect
         style="fill:#ffffff;fill-opacity:1;fill-rule:evenodd;stroke:none;stroke-width:0.856349;stroke-linecap:square;stroke-linejoin:round;paint-order:stroke markers fill"
         id="rect11711"
         width="11"
         height="1"
         x="32.734661"
         y="17.884775"
         ry="0.5"
         transform="matrix(0.70710678,0.70710678,0.70710678,-0.70710678,0,0)" />
    </g>
  </g>
  <g
     id="go-up">
    <path
       id="rect4409"
       d="m 66,-2e-5 h 22 v 22 H 66 Z"
       inkscape:connector-curvature="0"
       style="fill:none" />
    <g
       id="g11725"
       transform="translate(9.5350743,-0.46435499)">
      <rect
         style="fill:#ffffff;fill-opacity:1;fill-rule:evenodd;stroke:none;stroke-width:0.856349;stroke-linecap:square;stroke-linejoin:round;paint-order:stroke markers fill"
         id="rect11715"
         width="11"
         height="1"
         x="-42.926086"
         y="52.482437"
         ry="0.5"
         transform="matrix(-0.70710678,0.70710678,0.70710678,0.70710678,0,0)" />
      <rect
         style="fill:#ffffff;fill-opacity:1;fill-rule:evenodd;stroke:none;stroke-width:0.856349;stroke-linecap:square;stroke-linejoin:round;paint-order:stroke markers fill"
         id="rect11717"
         width="11"
         height="1"
         x="52.483078"
         y="-42.926735"
         ry="0.5"
         transform="rotate(45)" />
    </g>
  </g>
  <g
     id="go-down">
    <path
       id="rect4411"
       d="m 88,-2e-5 h 22 v 22 H 88 Z"
       inkscape:connector-curvature="0"
       style="fill:none" />
    <g
       id="g11731"
       transform="matrix(1,0,0,-1,31.535074,22.464335)">
      <rect
         style="fill:#ffffff;fill-opacity:1;fill-rule:evenodd;stroke:none;stroke-width:0.856349;stroke-linecap:square;stroke-linejoin:round;paint-order:stroke markers fill"
         id="rect11727"
         width="11"
         height="1"
         x="-42.926086"
         y="52.482437"
         ry="0.5"
         transform="matrix(-0.70710678,0.70710678,0.70710678,0.70710678,0,0)" />
      <rect
         style="fill:#ffffff;fill-opacity:1;fill-rule:evenodd;stroke:none;stroke-width:0.856349;stroke-linecap:square;stroke-linejoin:round;paint-order:stroke markers fill"
         id="rect11729"
         width="11"
         height="1"
         x="52.483078"
         y="-42.926735"
         ry="0.5"
         transform="rotate(45)" />
    </g>
  </g>
</svg>
