<?xml version="1.0" encoding="UTF-8" standalone="no"?>
<svg
   width="32"
   height="32"
   version="1.1"
   viewBox="0 0 32 32"
   id="svg27"
   sodipodi:docname="klipper.svg"
   inkscape:version="1.3 (0e150ed6c4, 2023-07-21)"
   xmlns:inkscape="http://www.inkscape.org/namespaces/inkscape"
   xmlns:sodipodi="http://sodipodi.sourceforge.net/DTD/sodipodi-0.dtd"
   xmlns="http://www.w3.org/2000/svg"
   xmlns:svg="http://www.w3.org/2000/svg"
   xmlns:rdf="http://www.w3.org/1999/02/22-rdf-syntax-ns#"
   xmlns:cc="http://creativecommons.org/ns#"
   xmlns:dc="http://purl.org/dc/elements/1.1/">
  <sodipodi:namedview
     id="namedview18"
     pagecolor="#ffffff"
     bordercolor="#666666"
     borderopacity="1.0"
     inkscape:pageshadow="2"
     inkscape:pageopacity="0.0"
     inkscape:pagecheckerboard="0"
     showgrid="true"
     inkscape:zoom="10.179571"
     inkscape:cx="12.18126"
     inkscape:cy="28.291958"
     inkscape:window-width="1440"
     inkscape:window-height="741"
     inkscape:window-x="0"
     inkscape:window-y="0"
     inkscape:window-maximized="1"
     inkscape:current-layer="klipper"
     inkscape:snap-smooth-nodes="true"
     inkscape:showpageshadow="2"
     inkscape:deskcolor="#d1d1d1">
    <inkscape:grid
       type="xygrid"
       id="grid849"
       originx="0"
       originy="0"
       spacingy="1"
       spacingx="1"
       units="px"
       visible="true"
       enabled="false" />
  </sodipodi:namedview>
  <metadata
     id="metadata31">
    <rdf:RDF>
      <cc:Work
         rdf:about="">
        <dc:format>image/svg+xml</dc:format>
        <dc:type
           rdf:resource="http://purl.org/dc/dcmitype/StillImage" />
      </cc:Work>
    </rdf:RDF>
  </metadata>
  <defs
     id="defs3">
    <style
       id="current-color-scheme"
       type="text/css">.ColorScheme-Text {&#10;        color:#dfdfdf;&#10;      }&#10;      .ColorScheme-Background {&#10;        color:#eff0f1;&#10;      }&#10;      .ColorScheme-Highlight {&#10;        color:#3daee9;&#10;      }&#10;      .ColorScheme-ViewText {&#10;        color:#dfdfdf;&#10;      }&#10;      .ColorScheme-ViewBackground {&#10;        color:#fcfcfc;&#10;      }&#10;      .ColorScheme-ViewHover {&#10;        color:#93cee9;&#10;      }&#10;      .ColorScheme-ViewFocus{&#10;        color:#3daee9;&#10;      }&#10;      .ColorScheme-ButtonText {&#10;        color:#dfdfdf;&#10;      }&#10;      .ColorScheme-ButtonBackground {&#10;        color:#eff0f1;&#10;      }&#10;      .ColorScheme-ButtonHover {&#10;        color:#93cee9;&#10;      }&#10;      .ColorScheme-ButtonFocus{&#10;        color:#3daee9;&#10;      }</style>
  </defs>
  <g
     id="klipper">
    <rect
       id="rect853"
       width="32"
       height="32"
       x="0"
       y="0"
       rx="0"
       ry="0"
       style="fill:none" />
    <path
       id="rect1214"
       d="M 16,3 C 14.537469,3 13.351852,4.2933997 13.351852,5.8888889 H 9.8209877 c -2.4451235,0 -4.4135803,2.1474074 -4.4135803,4.8148151 V 24.185185 C 5.4074074,26.852593 7.3758642,29 9.8209877,29 H 22.179012 c 2.445124,0 4.413581,-2.147407 4.413581,-4.814815 V 10.703704 c 0,-2.6674077 -1.968457,-4.8148151 -4.413581,-4.8148151 H 18.648148 C 18.648148,4.2933997 17.462531,3 16,3 Z m 0,1.9259259 c 0.487511,0 0.882715,0.4311333 0.882715,0.962963 0,0.5318297 -0.395204,0.962963 -0.882715,0.962963 -0.487511,0 -0.882715,-0.4311333 -0.882715,-0.962963 0,-0.5318297 0.395204,-0.962963 0.882715,-0.962963 z M 9.8209877,7.8148148 H 22.179012 c 1.467074,0 2.648148,1.2884445 2.648148,2.8888892 v 13.481481 c 0,1.600445 -1.181074,2.888889 -2.648148,2.888889 H 9.8209877 c -1.467074,0 -2.6481481,-1.288444 -2.6481481,-2.888889 V 10.703704 c 0,-1.6004447 1.1810741,-2.8888892 2.6481481,-2.8888892 z"
       style="color:#dfdfdf;fill:#dfdfdf;stroke-width:0.921967" />
    <path
       id="rect1627"
       style="color:#dfdfdf;fill:#dfdfdf;stroke-width:0.962963"
       d="m 12.148148,12.62963 c -0.53348,0 -0.962963,0.429482 -0.962963,0.962963 0,0.53348 0.429483,0.962963 0.962963,0.962963 H 16 c 0.533481,0 0.962963,-0.429483 0.962963,-0.962963 0,-0.533481 -0.429482,-0.962963 -0.962963,-0.962963 z m 0,3.851851 c -0.53348,0 -0.962963,0.429483 -0.962963,0.962963 0,0.533481 0.429483,0.962963 0.962963,0.962963 h 7.703704 c 0.53348,0 0.962963,-0.429482 0.962963,-0.962963 0,-0.53348 -0.429483,-0.962963 -0.962963,-0.962963 z m 0,3.851852 c -0.53348,0 -0.962963,0.429483 -0.962963,0.962963 0,0.533481 0.429483,0.962963 0.962963,0.962963 h 7.703704 c 0.53348,0 0.962963,-0.429482 0.962963,-0.962963 0,-0.53348 -0.429483,-0.962963 -0.962963,-0.962963 z" />
  </g>
  <g
     id="22-22-klipper">
    <rect
       id="rect3009"
       class="ColorScheme-Text"
       width="22"
       height="22"
       x="32.00021"
       y="4.9966402"
       style="color:#dedede;fill:currentColor;fill-opacity:0;stroke:none" />
    <path
       id="rect875"
       class="ColorScheme-Text"
       d="m 43.00021,7.9966402 c -0.920474,0 -1.666667,0.7959383 -1.666667,1.7777778 h -2.5 c -1.385,0 -2.5,1.189333 -2.5,2.666667 v 8.888889 c 0,1.477333 1.115,2.666666 2.5,2.666666 h 8.333333 c 1.385,0 2.5,-1.189333 2.5,-2.666666 v -8.888889 c 0,-1.477334 -1.115,-2.666667 -2.5,-2.666667 h -2.5 c 0,-0.9818395 -0.746192,-1.7777778 -1.666666,-1.7777778 z m 0,0.8888889 c 0.460237,0 0.833333,0.3979692 0.833333,0.8888889 0,0.49092 -0.373096,0.888889 -0.833333,0.888889 -0.460238,0 -0.833334,-0.397969 -0.833334,-0.888889 0,-0.4909197 0.373096,-0.8888889 0.833334,-0.8888889 z m -4.166667,1.7777779 c 0,0.492444 0.371667,0.888889 0.833333,0.888889 h 3.333334 3.333333 c 0.461667,0 0.833333,-0.396445 0.833333,-0.888889 0.923334,0 1.666667,0.792889 1.666667,1.777778 v 8.888889 c 0,0.984888 -0.743333,1.777777 -1.666667,1.777777 h -8.333333 c -0.923333,0 -1.666667,-0.792889 -1.666667,-1.777777 v -8.888889 c 0,-0.984889 0.743334,-1.777778 1.666667,-1.777778 z"
       fill="currentColor"
       sodipodi:nodetypes="scsssssssscsssssscscscssssssc"
       style="stroke-width:0.860663" />
    <path
       id="path1"
       class="ColorScheme-Text"
       d="m 40.104376,14.218862 c -0.238528,0 -0.430556,0.198223 -0.430556,0.444445 0,0.246222 0.192028,0.444444 0.430556,0.444444 h 4.041667 c 0.238528,0 0.430555,-0.198222 0.430555,-0.444444 0,-0.246222 -0.192027,-0.444445 -0.430555,-0.444445 z m 0,2.666667 c -0.238528,0 -0.430556,0.198222 -0.430556,0.444445 0,0.246222 0.192028,0.444444 0.430556,0.444444 h 5.763889 c 0.238528,0 0.430555,-0.198222 0.430555,-0.444444 0,-0.246223 -0.192027,-0.444445 -0.430555,-0.444445 z m 0,2.666667 c -0.238528,0 -0.430556,0.198222 -0.430556,0.444444 0,0.246222 0.192028,0.444445 0.430556,0.444445 h 5.763889 c 0.238528,0 0.430555,-0.198223 0.430555,-0.444445 0,-0.246222 -0.192027,-0.444444 -0.430555,-0.444444 z"
       fill="currentColor"
       sodipodi:nodetypes="sssssssssssssssssssss"
       style="stroke-width:0.87489" />
  </g>
</svg>
