<?xml version="1.0" encoding="UTF-8" standalone="no"?>
<svg
   width="32"
   height="32"
   version="1"
   id="svg27"
   sodipodi:docname="knotes.svg"
   inkscape:version="1.3 (0e150ed6c4, 2023-07-21)"
   xmlns:inkscape="http://www.inkscape.org/namespaces/inkscape"
   xmlns:sodipodi="http://sodipodi.sourceforge.net/DTD/sodipodi-0.dtd"
   xmlns="http://www.w3.org/2000/svg"
   xmlns:svg="http://www.w3.org/2000/svg"
   xmlns:rdf="http://www.w3.org/1999/02/22-rdf-syntax-ns#"
   xmlns:cc="http://creativecommons.org/ns#"
   xmlns:dc="http://purl.org/dc/elements/1.1/">
  <sodipodi:namedview
     id="namedview347"
     pagecolor="#808080"
     bordercolor="#000000"
     borderopacity="0.25"
     inkscape:showpageshadow="2"
     inkscape:pageopacity="0.0"
     inkscape:pagecheckerboard="0"
     inkscape:deskcolor="#8c8c8c"
     showgrid="true"
     inkscape:zoom="11.648257"
     inkscape:cx="22.921884"
     inkscape:cy="16.998251"
     inkscape:window-width="1368"
     inkscape:window-height="706"
     inkscape:window-x="0"
     inkscape:window-y="32"
     inkscape:window-maximized="1"
     inkscape:current-layer="22-22-knotes">
    <inkscape:grid
       type="xygrid"
       id="grid519"
       originx="0"
       originy="0"
       spacingy="1"
       spacingx="1"
       units="px"
       visible="true"
       enabled="false" />
  </sodipodi:namedview>
  <metadata
     id="metadata31">
    <rdf:RDF>
      <cc:Work
         rdf:about="">
        <dc:format>image/svg+xml</dc:format>
        <dc:type
           rdf:resource="http://purl.org/dc/dcmitype/StillImage" />
      </cc:Work>
    </rdf:RDF>
  </metadata>
  <defs
     id="defs3">
    <style
       id="current-color-scheme"
       type="text/css">.ColorScheme-Text {&#10;        color:#dfdfdf;&#10;      }&#10;      .ColorScheme-Background {&#10;        color:#eff0f1;&#10;      }&#10;      .ColorScheme-Highlight {&#10;        color:#3daee9;&#10;      }&#10;      .ColorScheme-ViewText {&#10;        color:#dfdfdf;&#10;      }&#10;      .ColorScheme-ViewBackground {&#10;        color:#fcfcfc;&#10;      }&#10;      .ColorScheme-ViewHover {&#10;        color:#93cee9;&#10;      }&#10;      .ColorScheme-ViewFocus{&#10;        color:#3daee9;&#10;      }&#10;      .ColorScheme-ButtonText {&#10;        color:#dfdfdf;&#10;      }&#10;      .ColorScheme-ButtonBackground {&#10;        color:#eff0f1;&#10;      }&#10;      .ColorScheme-ButtonHover {&#10;        color:#93cee9;&#10;      }&#10;      .ColorScheme-ButtonFocus{&#10;        color:#3daee9;&#10;      }</style>
  </defs>
  <g
     id="knotes">
    <rect
       id="rect853"
       width="32"
       height="32"
       x="0"
       y="0"
       rx="0"
       ry="0"
       style="fill:none" />
    <path
       id="rect573"
       d="m 19.081014,19.457429 h 5.774312 l -7.699083,7.699083 V 21.3822 c 0,-1.066323 0.858448,-1.924771 1.924771,-1.924771 z"
       style="fill:currentColor;stroke-width:0.962385;opacity:0.7"
       class="ColorScheme-Text" />
    <path
       id="path5"
       class="ColorScheme-Text"
       style="fill:currentColor;stroke-width:0.921414"
       d="M 16.01078,3.0006396 C 14.483248,2.9655041 13.178682,4.383385 13.223245,5.8877956 11.794529,5.9252424 10.353458,5.7980883 8.9355475,5.9852187 6.6304948,6.4724166 5.2143883,8.9100754 5.415142,11.168976 c 0.014582,4.498962 -0.02952,8.999614 0.022697,13.497492 0.1385341,2.376691 2.2802493,4.534624 4.724043,4.318576 4.080583,-0.0041 8.161392,0.0083 12.241831,-0.0063 2.555441,-0.102784 4.392341,-2.696023 4.183907,-5.140871 -0.01459,-4.543651 0.02953,-9.088995 -0.02269,-13.631563 -0.138539,-2.3766746 -2.280254,-4.5346069 -4.724048,-4.3185594 -1.013562,0 -2.027124,0 -3.040686,0 0.03256,-1.5161191 -1.246446,-2.9129744 -2.789413,-2.887156 z m 0,1.9247707 c 1.591196,0.00612 0.821969,2.66722 -0.51944,1.76041 -0.748099,-0.4835793 -0.391041,-1.7833551 0.51944,-1.76041 z m -6.1840785,2.887156 c 4.2067335,0.00982 8.4148175,-0.019764 12.6207015,0.014852 1.610235,0.1556264 2.552021,1.8434513 2.375217,3.3415577 -0.009,4.433256 0.01801,8.867547 -0.01362,13.300152 -0.08279,1.515675 -1.506586,2.791639 -3.03516,2.591145 -4.07266,-0.0099 -8.146672,0.01975 -12.2184843,-0.01485 -1.6102344,-0.155629 -2.5520208,-1.843454 -2.375217,-3.34156 0.00897,-4.433256 -0.018007,-8.867548 0.013614,-13.300152 0.098319,-1.3514677 1.2223335,-2.6121242 2.6329457,-2.5911453 z" />
  </g>
  <g
     id="22-22-knotes">
    <rect
       id="rect3009"
       class="ColorScheme-Text"
       width="22"
       height="22"
       x="32.00021"
       y="4.9966402"
       style="fill:currentColor;fill-opacity:0;stroke:none" />
    <path
       id="rect875"
       class="ColorScheme-Text"
       d="m 43.00021,7.9966402 c -0.969566,0 -1.755556,0.7959382 -1.755556,1.7777778 h -2.188889 c -1.458866,0 -2.633333,1.189333 -2.633333,2.666666 v 8.888889 c 0,1.477334 1.174467,2.666667 2.633333,2.666667 h 7.888889 c 1.458867,0 2.633334,-1.189333 2.633334,-2.666667 v -8.888889 c 0,-1.477333 -1.174467,-2.666666 -2.633334,-2.666666 h -2.188889 c 0,-0.9818396 -0.78599,-1.7777778 -1.755555,-1.7777778 z m 0,0.8888889 c 0.484783,0 0.877778,0.3979691 0.877778,0.8888889 0,0.49092 -0.392995,0.888889 -0.877778,0.888889 -0.484783,0 -0.877778,-0.397969 -0.877778,-0.888889 0,-0.4909198 0.392995,-0.8888889 0.877778,-0.8888889 z m -3.944445,1.7777779 c 0,0.492444 0.391489,0.888889 0.877778,0.888889 h 3.066667 3.066666 c 0.486289,0 0.877778,-0.396445 0.877778,-0.888889 0.972578,0 1.755556,0.792889 1.755556,1.777777 v 8.888889 c 0,0.984889 -0.782978,1.777778 -1.755556,1.777778 h -7.888889 c -0.972577,0 -1.755555,-0.792889 -1.755555,-1.777778 v -8.888889 c 0,-0.984888 0.782978,-1.777777 1.755555,-1.777777 z"
       fill="currentColor"
       style="stroke-width:0.883316"
       sodipodi:nodetypes="scsssssssscsssssscscscssssssc" />
    <path
       id="path1"
       d="m 46.07521,19.60775 h 2.625 l -3.5,3.500001 v -2.625 c 0,-0.484751 0.39025,-0.875001 0.875,-0.875001 z"
       class="ColorScheme-Text"
       style="fill:currentColor;fill-opacity:1;stroke-width:0.4375;opacity:0.7" />
  </g>
</svg>
