<?xml version="1.0" encoding="UTF-8" standalone="no"?>
<svg
   version="1.1"
   id="svg2"
   viewBox="0 0 22 22"
   inkscape:version="1.1.1 (3bf5ae0d25, 2021-09-20, custom)"
   sodipodi:docname="kruler.svgz"
   xmlns:inkscape="http://www.inkscape.org/namespaces/inkscape"
   xmlns:sodipodi="http://sodipodi.sourceforge.net/DTD/sodipodi-0.dtd"
   xmlns="http://www.w3.org/2000/svg"
   xmlns:svg="http://www.w3.org/2000/svg"
   xmlns:rdf="http://www.w3.org/1999/02/22-rdf-syntax-ns#"
   xmlns:cc="http://creativecommons.org/ns#"
   xmlns:dc="http://purl.org/dc/elements/1.1/">
  <sodipodi:namedview
     pagecolor="#c8c8c8"
     bordercolor="#666666"
     borderopacity="1"
     objecttolerance="10"
     gridtolerance="10"
     guidetolerance="10"
     inkscape:pageopacity="0"
     inkscape:pageshadow="2"
     inkscape:window-width="1920"
     inkscape:window-height="936"
     id="namedview7"
     showgrid="true"
     inkscape:zoom="10.727273"
     inkscape:cx="8.0635591"
     inkscape:cy="11.13983"
     inkscape:window-x="0"
     inkscape:window-y="40"
     inkscape:window-maximized="1"
     inkscape:current-layer="svg2"
     inkscape:pagecheckerboard="0">
    <inkscape:grid
       type="xygrid"
       id="grid825" />
  </sodipodi:namedview>
  <metadata
     id="metadata10">
    <rdf:RDF>
      <cc:Work
         rdf:about="">
        <dc:format>image/svg+xml</dc:format>
        <dc:type
           rdf:resource="http://purl.org/dc/dcmitype/StillImage" />
        <dc:title />
      </cc:Work>
    </rdf:RDF>
  </metadata>
  <defs
     id="defs3051">
    <style
       id="current-color-scheme"
       type="text/css">
      .ColorScheme-Text {
        color:#4d4d4d;
      }
      </style>
  </defs>
  <g
     id="kruler">
    <rect
       y="-1.7382812e-05"
       x="0"
       height="22"
       width="22"
       id="rect4165"
       style="fill:none;fill-opacity:1;stroke:none" />
    <path
       id="path826"
       d="M 4.5 7 C 3.6716 7 3 7.67157 3 8.5 L 3 13.5 C 3 14.3284 3.6716 15 4.5 15 L 17.5 15 C 18.32843 15 19 14.3284 19 13.5 L 19 8.5 C 19 7.67157 18.32843 7 17.5 7 L 4.5 7 z M 4.5 8 L 5.5 8 L 5.5 9.5 C 5.5 9.7761401 5.7239 10 6 10 C 6.2761 10 6.5 9.7761401 6.5 9.5 L 6.5 8 L 7.9960938 8 L 7.9960938 10.5 C 7.9960938 10.77614 8.2199938 11 8.4960938 11 C 8.7722937 11 8.9960938 10.77614 8.9960938 10.5 L 8.9960938 8 L 10.5 8 L 10.5 9.5 C 10.5 9.7761401 10.7239 10 11 10 C 11.27614 10 11.5 9.7761401 11.5 9.5 L 11.5 8 L 13 8 L 13 10.5 C 13 10.77614 13.22386 11 13.5 11 C 13.77614 11 14 10.77614 14 10.5 L 14 8 L 15.5 8 L 15.5 9.5 C 15.5 9.7761401 15.72386 10 16 10 C 16.27614 10 16.5 9.7761401 16.5 9.5 L 16.5 8 L 17.5 8 C 17.77614 8 18 8.22386 18 8.5 L 18 13.5 C 18 13.7761 17.77614 14 17.5 14 L 4.5 14 C 4.2239 14 4 13.7761 4 13.5 L 4 8.5 C 4 8.22386 4.2239 8 4.5 8 z "
       style="fill:#fbfbfb;fill-opacity:1" />
  </g>
</svg>
