<?xml version="1.0" encoding="UTF-8" standalone="no"?>
<svg
   id="svg2"
   version="1.1"
   viewBox="0 0 22 22"
   sodipodi:docname="kup.svgz"
   inkscape:version="1.1.1 (3bf5ae0d25, 2021-09-20, custom)"
   xmlns:inkscape="http://www.inkscape.org/namespaces/inkscape"
   xmlns:sodipodi="http://sodipodi.sourceforge.net/DTD/sodipodi-0.dtd"
   xmlns="http://www.w3.org/2000/svg"
   xmlns:svg="http://www.w3.org/2000/svg">
  <sodipodi:namedview
     id="namedview9"
     pagecolor="#c8c8c8"
     bordercolor="#999999"
     borderopacity="1"
     inkscape:pageshadow="0"
     inkscape:pageopacity="0"
     inkscape:pagecheckerboard="0"
     showgrid="true"
     inkscape:snap-nodes="true"
     inkscape:zoom="11.313709"
     inkscape:cx="1.6351844"
     inkscape:cy="10.960155"
     inkscape:window-width="1920"
     inkscape:window-height="1005"
     inkscape:window-x="0"
     inkscape:window-y="0"
     inkscape:window-maximized="1"
     inkscape:current-layer="svg2"
     inkscape:snap-bbox="true"
     inkscape:bbox-nodes="true">
    <inkscape:grid
       type="xygrid"
       id="grid852" />
  </sodipodi:namedview>
  <defs
     id="defs4">
    <style
       id="current-color-scheme"
       type="text/css">.ColorScheme-Text {
        color:#31363b;
      }</style>
  </defs>
  <g
     id="kup"
     transform="translate(-23)">
    <rect
       style="opacity:0.00100002;fill:#ffffff;fill-opacity:1;stroke:none;stroke-width:0.1;stroke-miterlimit:4;stroke-dasharray:none;stroke-opacity:1"
       id="rect846"
       width="22"
       height="22"
       x="23"
       y="0"
       ry="0" />
    <path
       id="rect1665"
       style="fill:#ffffff;fill-opacity:1;fill-rule:evenodd;stroke:none;stroke-linecap:round;stroke-linejoin:round;paint-order:stroke fill markers"
       d="m 31.742188,3 a 5.5,5.5 0 0 1 0.654296,1 H 39.5 C 40.32843,4 41,4.6716 41,5.5 v 11 C 41,17.32843 40.32843,18 39.5,18 H 36 V 15.5 C 36,14.67157 35.32843,14 34.5,14 H 27 V 11.962891 A 5.5,5.5 0 0 1 26,11.787109 V 16.5 c 0,1.38071 1.1193,2.5 2.5,2.5 h 11 C 40.88071,19 42,17.88071 42,16.5 V 5.5 C 42,4.1193 40.88071,3 39.5,3 Z M 27,15 h 7.5 c 0.27614,0 0.5,0.22386 0.5,0.5 V 18 H 28.5 C 27.6716,18 27,17.32843 27,16.5 Z" />
    <path
       id="path888"
       style="opacity:1;fill:#ffffff;fill-opacity:1;fill-rule:evenodd;stroke:none;stroke-width:1.12521;stroke-linecap:round;stroke-linejoin:round;stroke-miterlimit:4;stroke-dasharray:none;stroke-opacity:1"
       d="M 27.5,2 A 4.4999828,4.4999828 0 0 0 23,6.5 4.4999828,4.4999828 0 0 0 27.5,11 4.4999828,4.4999828 0 0 0 32,6.5 4.4999828,4.4999828 0 0 0 27.5,2 Z m 0,1 A 3.5000172,3.5000172 0 0 1 31,6.5 3.5000172,3.5000172 0 0 1 27.5,10 3.5000172,3.5000172 0 0 1 24,6.5 3.5000172,3.5000172 0 0 1 27.5,3 Z" />
    <g
       id="g1388"
       transform="matrix(0.83333327,0,0,0.83333327,19.990666,1.5000002)">
      <rect
         style="fill:#fefefe;fill-opacity:1;fill-rule:evenodd;stroke:none;stroke-width:2.02035;stroke-linejoin:round;stroke-miterlimit:4;stroke-dasharray:none;stroke-opacity:1;paint-order:stroke fill markers"
         id="rect1384"
         width="1"
         height="6.1227283"
         x="8.7392683"
         y="3.0613642"
         ry="0.5"
         transform="matrix(1,0,-0.19921752,0.9799553,0,0)" />
      <rect
         style="fill:#fefefe;fill-opacity:1;fill-rule:evenodd;stroke:none;stroke-width:2.02035;stroke-linejoin:round;stroke-miterlimit:4;stroke-dasharray:none;stroke-opacity:1;paint-order:stroke fill markers"
         id="rect1386"
         width="4"
         height="1.0204548"
         x="8.7392683"
         y="8.1636381"
         ry="0.51022738"
         transform="matrix(1,0,-0.19921752,0.9799553,0,0)" />
    </g>
  </g>
</svg>
