<?xml version="1.0" encoding="UTF-8" standalone="no"?>
<svg
   id="svg4153"
   version="1.1"
   width="22"
   height="22"
   viewBox="0 0 22 22"
   sodipodi:docname="mail.svgz"
   inkscape:version="1.1 (c4e8f9ed74, 2021-05-24)"
   xmlns:inkscape="http://www.inkscape.org/namespaces/inkscape"
   xmlns:sodipodi="http://sodipodi.sourceforge.net/DTD/sodipodi-0.dtd"
   xmlns="http://www.w3.org/2000/svg"
   xmlns:svg="http://www.w3.org/2000/svg"
   xmlns:rdf="http://www.w3.org/1999/02/22-rdf-syntax-ns#"
   xmlns:cc="http://creativecommons.org/ns#"
   xmlns:dc="http://purl.org/dc/elements/1.1/">
  <sodipodi:namedview
     pagecolor="#c8c8c8"
     bordercolor="#666666"
     borderopacity="1"
     objecttolerance="10"
     gridtolerance="10"
     guidetolerance="10"
     inkscape:pageopacity="0"
     inkscape:pageshadow="2"
     inkscape:window-width="1920"
     inkscape:window-height="1002"
     id="namedview12"
     showgrid="true"
     inkscape:zoom="17.886364"
     inkscape:cx="27.423126"
     inkscape:cy="4.6124523"
     inkscape:window-x="0"
     inkscape:window-y="0"
     inkscape:window-maximized="1"
     inkscape:current-layer="svg4153"
     inkscape:snap-bbox="true"
     inkscape:bbox-nodes="true"
     inkscape:pagecheckerboard="0"
     inkscape:snap-smooth-nodes="true">
    <inkscape:grid
       type="xygrid"
       id="grid822" />
  </sodipodi:namedview>
  <metadata
     id="metadata4159">
    <rdf:RDF>
      <cc:Work
         rdf:about="">
        <dc:format>image/svg+xml</dc:format>
        <dc:type
           rdf:resource="http://purl.org/dc/dcmitype/StillImage" />
        <dc:title />
      </cc:Work>
    </rdf:RDF>
  </metadata>
  <defs
     id="defs4157">
    <style
       type="text/css"
       id="current-color-scheme">
      .ColorScheme-Text {
        color:#31363b;
      }
      .ColorScheme-Background {
        color:#eff0f1;
      }
      .ColorScheme-Highlight {
        color:#3daee9;
      }
      .ColorScheme-ViewText {
        color:#31363b;
      }
      .ColorScheme-ViewBackground {
        color:#fcfcfc;
      }
      .ColorScheme-ViewHover {
        color:#93cee9;
      }
      .ColorScheme-ViewFocus{
        color:#3daee9;
      }
      .ColorScheme-ButtonText {
        color:#31363b;
      }
      .ColorScheme-ButtonBackground {
        color:#eff0f1;
      }
      .ColorScheme-ButtonHover {
        color:#93cee9;
      }
      .ColorScheme-ButtonFocus{
        color:#3daee9;
      }
      </style>
    <style
       id="current-color-scheme-5"
       type="text/css">
      .ColorScheme-Text {
        color:#31363b;
      }
      .ColorScheme-Background {
        color:#eff0f1;
      }
      .ColorScheme-Highlight {
        color:#3daee9;
      }
      .ColorScheme-ViewText {
        color:#31363b;
      }
      .ColorScheme-ViewBackground {
        color:#fcfcfc;
      }
      .ColorScheme-ViewHover {
        color:#93cee9;
      }
      .ColorScheme-ViewFocus{
        color:#3daee9;
      }
      .ColorScheme-ButtonText {
        color:#31363b;
      }
      .ColorScheme-ButtonBackground {
        color:#eff0f1;
      }
      .ColorScheme-ButtonHover {
        color:#93cee9;
      }
      .ColorScheme-ButtonFocus{
        color:#3daee9;
      }
      </style>
  </defs>
  <g
     id="mail-unread">
    <rect
       y="0"
       x="0"
       height="22"
       width="22"
       id="rect4193"
       style="fill:none;fill-opacity:1;stroke:none;stroke-width:0.1;stroke-linecap:square;stroke-linejoin:miter;stroke-miterlimit:4;stroke-dasharray:none;stroke-dashoffset:0;stroke-opacity:1" />
    <path
       style="color:#000000;fill:#fbfbfb;-inkscape-stroke:none;fill-opacity:1"
       d="M 16.5,5 C 17.8807,5 19,6.11929 19,7.5 v 9 C 19,17.8807 17.8807,19 16.5,19 H 5.5 C 4.11929,19 3,17.8807 3,16.5 v -9 C 3,6.11929 4.11929,5 5.5,5 Z m 1.5,3.961 -6.7465,3.97 c -0.1304,0.0767 -0.28689,0.0895 -0.42599,0.0383 L 10.74649,12.931 4,8.963 V 16.5 C 4,17.3284 4.67157,18 5.5,18 h 11 C 17.3284,18 18,17.3284 18,16.5 Z M 16.5,6 H 5.5 C 4.67157,6 4,6.67157 4,7.5 v 0.302 l 7,4.1179 7,-4.1189 V 7.5 C 18,6.67157 17.3284,6 16.5,6 Z"
       id="path839" />
  </g>
  <g
     id="mail-unread-new">
    <rect
       y="0.037"
       x="27"
       height="22"
       width="22"
       id="rect1176"
       style="fill:none;fill-opacity:1;stroke:none;stroke-width:0.1;stroke-linecap:square;stroke-linejoin:miter;stroke-miterlimit:4;stroke-dasharray:none;stroke-dashoffset:0;stroke-opacity:1" />
    <path
       style="color:#000000;fill:#fbfbfb;fill-opacity:1;-inkscape-stroke:none"
       d="m 43.5,5.037 c 1.3807,0 2.5,1.11929 2.5,2.5 v 9 c 0,1.3807 -1.1193,2.5 -2.5,2.5 h -11 c -1.38071,0 -2.5,-1.1193 -2.5,-2.5 v -9 c 0,-1.38071 1.11929,-2.5 2.5,-2.5 z m 1.5,3.961 -6.7465,3.97 c -0.1304,0.0767 -0.28689,0.0895 -0.42599,0.0383 L 37.74649,12.968 31,9 v 7.537 c 0,0.8284 0.67157,1.5 1.5,1.5 h 11 c 0.8284,0 1.5,-0.6716 1.5,-1.5 z M 43.5,6.037 h -11 c -0.82843,0 -1.5,0.67157 -1.5,1.5 v 0.302 l 7,4.1179 7,-4.1189 V 7.537 c 0,-0.82843 -0.6716,-1.5 -1.5,-1.5 z"
       id="path1178" />
    <circle
       r="2"
       cy="18"
       cx="45"
       id="path882"
       style="fill:#3278ff;fill-opacity:1;stroke:none;stroke-width:1;stroke-miterlimit:4;stroke-dasharray:none;stroke-opacity:1" />
  </g>
</svg>
