<?xml version="1.0" encoding="UTF-8" standalone="no"?>
<svg
   width="22"
   height="22"
   version="1.1"
   viewBox="0 0 22 22"
   id="svg65"
   sodipodi:docname="media.svg"
   inkscape:version="1.3 (0e150ed6c4, 2023-07-21)"
   xml:space="preserve"
   xmlns:inkscape="http://www.inkscape.org/namespaces/inkscape"
   xmlns:sodipodi="http://sodipodi.sourceforge.net/DTD/sodipodi-0.dtd"
   xmlns="http://www.w3.org/2000/svg"
   xmlns:svg="http://www.w3.org/2000/svg"><sodipodi:namedview
   id="namedview67"
   pagecolor="#ffffff"
   bordercolor="#666666"
   borderopacity="1.0"
   inkscape:pageshadow="2"
   inkscape:pageopacity="0.0"
   inkscape:pagecheckerboard="0"
   showgrid="false"
   inkscape:zoom="9.6223164"
   inkscape:cx="-8.6257816"
   inkscape:cy="21.356604"
   inkscape:window-width="1920"
   inkscape:window-height="1032"
   inkscape:window-x="0"
   inkscape:window-y="24"
   inkscape:window-maximized="1"
   inkscape:current-layer="svg65"
   inkscape:showpageshadow="2"
   inkscape:deskcolor="#d1d1d1" />&#10;     <defs
   id="defs3">&#10;     <style
   id="current-color-scheme"
   type="text/css">&#10;          .ColorScheme-Text { color:#dfdfdf; }&#10;          .ColorScheme-Highlight { color:#4285f4; }&#10;          .ColorScheme-ButtonBackground { color:#dfdfdf; }&#10;    </style>&#10;     </defs>&#10;     <g
   id="media-record"
   transform="translate(22,-1030.4)"><rect
     y="1030.4"
     width="22"
     height="22"
     opacity="0.00100002"
     id="rect5"
     x="0" /><path
     class="ColorScheme-Highlight"
     d="m 11,1035.4 c -3.311,0 -6,2.6888 -6,6 0,3.311 2.689,6 6,6 3.311,0 6,-2.689 6,-6 0,-3.3112 -2.689,-6 -6,-6 z"
     fill="#f96060"
     id="path7"
     style="display:none" /><path
     style="display:inline;fill:#f96060;fill-opacity:1;stroke-width:0.727214"
     d="M 11,1032.6734 A 8.72656,8.72656 0 0 0 2.27344,1041.4 8.72656,8.72656 0 0 0 11,1050.1266 8.72656,8.72656 0 0 0 19.72656,1041.4 8.72656,8.72656 0 0 0 11,1032.6734 Z m 0,0.7273 A 7.9993473,7.9993473 0 0 1 18.999346,1041.4 7.9993473,7.9993473 0 0 1 11,1049.3993 7.9993473,7.9993473 0 0 1 3.0006533,1041.4 7.9993473,7.9993473 0 0 1 11,1033.4007 Z m 0,4.3632 A 3.6360666,3.6360666 0 0 0 7.3639334,1041.4 3.6360666,3.6360666 0 0 0 11,1045.0361 3.6360666,3.6360666 0 0 0 14.636066,1041.4 3.6360666,3.6360666 0 0 0 11,1037.7639 Z"
     id="path94" /></g><g
   id="media-playback-stop"
   transform="translate(44,-1030.4)"><rect
     y="1030.4"
     width="22"
     height="22"
     opacity="0.00100002"
     id="rect10"
     x="0" /><path
     class="ColorScheme-Text"
     d="m 5,1035.4 v 12 h 12 v -12 z"
     fill="currentColor"
     id="path12"
     style="display:none" /><path
     id="path62-7"
     style="color:#dfdfdf;fill:#dfdfdf;fill-opacity:1;stroke-width:1.62499"
     class="ColorScheme-Text"
     d="M 55 2.3339844 C 50.1985 2.3339844 46.333984 6.1983048 46.333984 11 C 46.333984 15.801395 50.198662 19.666016 55 19.666016 C 59.801499 19.666016 63.666016 15.801395 63.666016 11 C 63.666016 6.1983048 59.801336 2.3339844 55 2.3339844 z M 52.609375 7.4140625 L 57.390625 7.4140625 C 58.052823 7.4140625 58.585938 7.9471756 58.585938 8.609375 L 58.585938 13.390625 C 58.585938 14.052824 58.052823 14.585938 57.390625 14.585938 L 52.609375 14.585938 C 51.947177 14.585938 51.414062 14.052824 51.414062 13.390625 L 51.414062 8.609375 C 51.414063 7.9471756 51.947177 7.4140625 52.609375 7.4140625 z "
     transform="translate(-44,1030.4)" /></g><g
   id="media-skip-forward"
   transform="translate(66,-1030.4)"><rect
     y="1030.4"
     width="22"
     height="22"
     opacity="0.00100002"
     id="rect15"
     x="0" /><path
     class="ColorScheme-Text"
     d="m 19,1037.4 v 8 h -2 v -8 z m -2,4 -7,4 v -8 z m -7,0 -7,4 v -8 z"
     fill="currentColor"
     id="path17"
     sodipodi:nodetypes="ccccccccccccc"
     style="display:none" /><path
     style="fill:#dfdfdf;fill-opacity:1"
     d="m 15.015558,1036.3861 c 0.551527,0.01 0.991943,0.4622 0.984375,1.0137 v 8 c 0.01912,1.3523 -2.019125,1.3523 -2,0 v -3.9863 c -0.004,0.6272 -0.289283,1.1985 -0.738281,1.4785 l -5.3339848,3.332 c -0.8858409,0.5511 -1.9263936,-0.2533 -1.927734,-1.4902 v -6.666 c -1.53e-5,-0.8972 0.5679478,-1.6334 1.285156,-1.666 0.2225683,-0.01 0.4434807,0.051 0.642578,0.1757 l 5.3339848,3.3321 c 0.448998,0.28 0.734284,0.8513 0.738281,1.4785 v -3.9883 c -0.0077,-0.5638 0.45186,-1.0225 1.015625,-1.0137 z"
     id="path99"
     sodipodi:nodetypes="scccccccccccccs" /></g><g
   id="media-skip-backward"
   transform="matrix(-1,0,0,1,110,-1030.4)"><rect
     y="1030.4"
     width="22"
     height="22"
     opacity="0.00100002"
     id="rect20"
     x="0" /><path
     class="ColorScheme-Text"
     d="m 19,1037.4 v 8 h -2 v -8 z m -2,4 -7,4 v -8 z m -7,0 -7,4 v -8 z"
     fill="currentColor"
     id="path22"
     style="display:none" /><path
     style="display:inline;fill:#dfdfdf;fill-opacity:1"
     d="m 15.015558,1036.3861 c 0.551527,0.01 0.991943,0.4622 0.984375,1.0137 v 8 c 0.01913,1.3523 -2.019125,1.3523 -2,0 v -3.9863 c -0.004,0.6272 -0.289283,1.1985 -0.738281,1.4785 l -5.3339849,3.332 c -0.8858409,0.5511 -1.9263936,-0.2533 -1.927734,-1.4902 v -6.666 c -1.53e-5,-0.8972 0.5679478,-1.6334 1.285156,-1.666 0.2225683,-0.01 0.4434807,0.051 0.642578,0.1757 l 5.3339849,3.3321 c 0.448998,0.28 0.734284,0.8513 0.738281,1.4785 v -3.9883 c -0.0077,-0.5638 0.45186,-1.0225 1.015625,-1.0137 z"
     id="path99-2"
     sodipodi:nodetypes="scccccccccccccs" /></g><g
   id="media-seek-forward"
   transform="translate(110,-1030.4)"><rect
     y="1030.4"
     width="22"
     height="22"
     opacity="0.00100002"
     id="rect25"
     x="0" /><path
     class="ColorScheme-Text"
     d="m 11,1037.4 7,4 -7,4 z m 0,4 -7,4 v -8 z"
     fill="currentColor"
     id="path27"
     style="display:none" /><path
     style="fill:#dfdfdf;fill-opacity:1"
     d="m 12.123047,1036.3883 c 0.195485,-0.01 0.389584,0.05 0.564453,0.1757 l 4.667969,3.3321 c 0.860364,0.6143 0.860364,2.3681 0,2.9824 l -4.667969,3.332 c -0.77533,0.552 -1.686546,-0.2527 -1.6875,-1.4902 v -3.3203 -3.3457 c -4.4e-5,-0.8963 0.49605,-1.6323 1.123047,-1.666 z M 11,1041.4 c -0.0032,0.6267 -0.252227,1.1979 -0.644531,1.4785 l -4.667969,3.332 C 4.9121976,1046.7627 4.000903,1045.958 4,1044.7203 v -6.666 c -4.24e-5,-0.8964 0.4960656,-1.6323 1.123047,-1.666 0.195485,-0.01 0.3895842,0.05 0.564453,0.1757 l 4.667969,3.3321 c 0.398033,0.2846 0.648047,0.868 0.644531,1.5039 z"
     id="path104"
     sodipodi:nodetypes="cccccccccccccccccc" /></g><g
   id="media-seek-backward"
   transform="matrix(-1,0,0,1,154,-1030.4)"><rect
     y="1030.4"
     width="22"
     height="22"
     opacity="0.00100002"
     id="rect30"
     x="0" /><path
     class="ColorScheme-Text"
     d="m 11,1037.4 7,4 -7,4 z m 0,4 -7,4 v -8 z"
     fill="currentColor"
     id="path32"
     style="display:none" /><path
     style="display:inline;fill:#dfdfdf;fill-opacity:1"
     d="m 12.122676,1036.4008 c 0.195485,-0.01 0.389584,0.051 0.564453,0.1757 l 4.667969,3.3321 c 0.860364,0.6143 0.860364,2.3681 0,2.9824 l -4.667969,3.332 c -0.77533,0.552 -1.686546,-0.2527 -1.6875,-1.4902 v -3.3203 -3.3457 c -4.4e-5,-0.8963 0.49605,-1.6323 1.123047,-1.666 z m -1.123047,5.0117 c -0.0032,0.6267 -0.252227,1.1979 -0.644531,1.4785 l -4.667969,3.332 c -0.775302,0.5522 -1.686597,-0.2525 -1.6875,-1.4902 v -6.666 c -4.2e-5,-0.8964 0.496066,-1.6323 1.123047,-1.666 0.195485,-0.01 0.389584,0.051 0.564453,0.1757 l 4.667969,3.3321 c 0.398033,0.2846 0.648047,0.868 0.644531,1.5039 z"
     id="path84"
     sodipodi:nodetypes="cccccccccccccccccc" /></g><g
   id="media-eject"
   transform="translate(-44,-1030.4)"><rect
     y="1030.4"
     width="22"
     height="22"
     opacity="0.00100002"
     id="rect35"
     x="0" /><path
     class="ColorScheme-Text"
     d="m 11,1036.4 -5,5 v 1 h 10 v -1 z m -5,8 v 2 h 10 v -2 z"
     display="none"
     fill="currentColor"
     id="path37" /><path
     style="display:inline;fill:#dfdfdf;fill-opacity:1;stroke-width:1"
     d="m 11.01367,1036.1038 c -0.636369,0 -1.2198537,0.2828 -1.5039047,0.7383 l -3.3320305,3.63 c -0.124755,0.1991 -0.1851825,0.42 -0.175782,0.6426 0.03264,0.7172 0.768906,1.2851 1.666017,1.2851 h 6.6660152 c 1.236858,0 2.041227,-1.0418 1.490235,-1.9277 l -3.332031,-3.63 c -0.279965,-0.4489 -0.851282,-0.7383 -1.478517,-0.7383 z m -4.0136697,8.2961 c -1.3545495,-0.021 -1.3545495,2.0214 0,1.9999 h 7.9999987 c 1.35455,0.021 1.35455,-2.0214 0,-1.9999 z"
     id="path89"
     sodipodi:nodetypes="scccccccssccccc" /></g><g
   id="media-playback-pause"
   transform="translate(-22,-1030.4)"><rect
     y="1030.4"
     width="22"
     height="22"
     opacity="0.00100002"
     id="rect40"
     x="0"
     style="display:inline" /><path
     id="path8"
     style="color:#dfdfdf;display:inline;fill:#dfdfdf;fill-opacity:1;stroke-width:1.63491"
     class="ColorScheme-Text"
     d="M 11 1032.6813 C 6.1691575 1032.6813 2.28125 1036.5673 2.28125 1041.398 C 2.28125 1046.2288 6.169321 1050.1188 11 1050.1188 C 15.830842 1050.1188 19.71875 1046.2288 19.71875 1041.398 C 19.71875 1036.5673 15.830679 1032.6813 11 1032.6813 z M 9.234375 1038.023 C 9.8656255 1038.012 10.377841 1038.5287 10.369141 1039.1598 L 10.369141 1043.6383 C 10.380136 1044.4156 9.7846271 1044.7918 9.2050781 1044.7711 C 9.2044293 1044.7711 9.2037738 1044.7711 9.203125 1044.7711 C 8.6053275 1044.8204 7.9691012 1044.4439 7.9804688 1043.6402 L 7.9804688 1039.1598 C 7.9719688 1038.5425 8.4664372 1038.041 9.0839844 1038.025 C 9.1201534 1038.0244 9.1560823 1038.0262 9.1914062 1038.0289 C 9.2060387 1038.028 9.2195964 1038.0234 9.234375 1038.023 z M 12.732422 1038.023 C 12.761175 1038.0225 12.788177 1038.0292 12.816406 1038.0309 C 12.838687 1038.029 12.860183 1038.0256 12.882812 1038.025 C 13.514063 1038.014 14.028231 1038.5287 14.019531 1039.1598 L 14.019531 1043.6402 C 14.030893 1044.4438 13.394669 1044.8204 12.796875 1044.7711 C 12.796226 1044.7711 12.795571 1044.7711 12.794922 1044.7711 C 12.215377 1044.7918 11.619874 1044.4155 11.630859 1043.6383 L 11.630859 1039.1598 C 11.622359 1038.5425 12.114873 1038.039 12.732422 1038.023 z " /><path
     id="rect1"
     style="display:none;opacity:1;fill:#dfdfdf;fill-opacity:1;stroke-width:2"
     d="m -13.21875,2.28125 c -3.600996,0 -6.5,2.8990036 -6.5,6.5 v 4.4375 c 0,3.600996 2.899004,6.5 6.5,6.5 h 4.4375 c 3.6009964,0 6.5,-2.899004 6.5,-6.5 v -4.4375 c 0,-3.6009964 -2.8990036,-6.5 -6.5,-6.5 z M -13.25586,7.625 c 0.631251,-0.011 1.145383,0.5036663 1.136718,1.1347656 v 4.4804684 c 0.02142,1.514399 -2.261655,1.514399 -2.240234,0 V 8.7597656 C -14.367875,8.1424662 -13.873407,7.6413 -13.255859,7.625 Z m 4.4785152,0 C -8.1460934,7.614 -7.63196,8.1286663 -7.640625,8.7597656 v 4.4804684 c 0.02141,1.514199 -2.2616354,1.514199 -2.2402344,0 V 8.7597656 C -9.8893594,8.1424662 -9.3948921,7.6413 -8.7773448,7.625 Z"
     transform="translate(22,1030.4)" /><path
     class="ColorScheme-Text"
     d="m 12.086753,1038.1398 h 2.173508 v 6.5205 h -2.173508 z m -4.347016,0 h 2.173508 v 6.5205 H 7.739737 Z m 3.260262,-5.4336 c -4.816469,0 -8.693868,3.8774 -8.693868,8.6939 0,4.8165 3.877562,8.6938 8.693868,8.6938 4.816471,0 8.69387,-3.8773 8.69387,-8.6938 0,-4.8165 -3.877562,-8.6939 -8.69387,-8.6939 z"
     fill="currentColor"
     id="path52-6"
     style="color:#dfdfdf;display:none;fill:#c8a1a1;fill-opacity:1;stroke-width:1.63005" /><path
     class="ColorScheme-Text"
     d="m 5,1035.4 v 12 h 4 v -12 z m 8,0 v 12 h 4 v -12 z"
     fill="currentColor"
     id="path42"
     style="display:none" /><path
     id="path6"
     style="display:none;opacity:1;fill:#c7c7c7;fill-opacity:1;stroke-width:2"
     d="m 9.0833986,1038.0254 c -0.6175478,0.016 -1.1120156,0.5175 -1.1035156,1.1348 v 4.4804 c -0.021421,1.5144 2.261651,1.5144 2.240234,0 v -4.4804 c 0.0087,-0.6311 -0.5054667,-1.1458 -1.1367184,-1.1348 z m 3.7999994,0 c -0.617549,0.016 -1.112015,0.5175 -1.103515,1.1348 v 4.4804 c -0.0214,1.5142 2.261644,1.5142 2.240234,0 v -4.4804 c 0.0087,-0.6311 -0.505468,-1.1458 -1.136719,-1.1348 z"
     sodipodi:nodetypes="cccccccccccc" /></g><g
   id="media-playback-start"
   transform="translate(0,-1030.4)"><path
     id="rect45"
     d="m 0,1030.4 v 22 h 22 v -22 z m 10.433594,7.7363 c 0.0277,-0 0.0507,0.028 0.0293,0.074 -0.0034,0.01 -0.0054,0.015 -0.0098,0.022 -0.0071,0.011 -0.01644,0.024 -0.02344,0.035 -0.04115,0.067 -0.104004,0.021 -0.06445,-0.047 0.0059,-0.01 0.01333,-0.019 0.01953,-0.029 0.0024,-0 0.004,-0.01 0.0059,-0.014 0.01006,-0.023 0.02348,-0.035 0.03711,-0.039 0.0019,-6e-4 0.004,-0 0.0059,-0 z m -0.0059,6.4004 c 0.0057,0 0.01257,2e-4 0.02149,0 0.0059,0 0.01168,-2e-4 0.01758,0.01 0.03602,0.014 0.02223,0.052 -0.01367,0.037 -0.0057,0 -0.01188,-0.01 -0.01758,-0.01 -0.02561,-0.011 -0.02321,-0.031 -0.0078,-0.037 z"
     style="fill:none" /><path
     id="path57-3"
     style="color:#dfdfdf;display:inline;fill:#dfdfdf;fill-opacity:1;stroke-width:1.08177"
     class="ColorScheme-Text"
     d="M 10.998047 1032.7457 C 6.2032211 1032.7457 2.3457031 1036.6051 2.3457031 1041.4 C 2.3457031 1046.1949 6.2032211 1050.0543 10.998047 1050.0543 C 15.792871 1050.0543 19.654297 1046.1949 19.654297 1041.4 C 19.654297 1036.6051 15.792871 1032.7457 10.998047 1032.7457 z M 9.3320312 1037.7223 C 9.5887459 1037.7223 9.8526658 1037.7714 10.050781 1037.9039 L 10.052734 1037.9039 L 14.033203 1040.7047 C 14.178651 1040.807 14.281681 1040.9458 14.337891 1041.1129 C 14.394101 1041.2796 14.394101 1041.4462 14.337891 1041.6148 C 14.281713 1041.7818 14.176385 1041.9181 14.029297 1042.0191 L 10.105469 1044.8609 L 10.099609 1044.8609 C 9.3824058 1045.3527 8.1142984 1045.0064 8.1308594 1043.8355 L 8.1308594 1043.6402 L 8.1308594 1039.1617 L 8.1308594 1038.9586 C 8.1216044 1038.2863 8.6595759 1037.7403 9.3320312 1037.7223 z " /><path
     id="path6-5"
     style="display:none;fill:#c7c7c7;fill-opacity:1;stroke-width:2"
     d="m 9.7333986,1038.0246 c -0.6175478,0.016 -1.1120156,0.5175 -1.1035156,1.1348 v 4.4804 c -0.021421,1.5144 2.261651,1.5144 2.240234,0 v -4.4804 c 0.0087,-0.6311 -0.505467,-1.1458 -1.1367184,-1.1348 z m 3.4999994,0 c -0.617549,0.016 -1.112015,0.5175 -1.103515,1.1348 v 4.4804 c -0.0214,1.5142 2.261644,1.5142 2.240234,0 v -4.4804 c 0.0087,-0.6311 -0.505468,-1.1458 -1.136719,-1.1348 z"
     sodipodi:nodetypes="cccccccccccc" /><path
     class="ColorScheme-Text"
     d="m 5.9999999,1035.4 v 12 L 17,1041.4 7.1007999,1036.0004 Z"
     fill="currentColor"
     id="path47"
     style="display:none;fill:#ea7fa0;fill-opacity:1" /><path
     id="path9"
     style="display:none;opacity:1;fill:#b8b8b8;fill-opacity:1;stroke:none;stroke-width:0.318741"
     d="m 9.331701,1037.7231 c -0.672456,0.018 -1.2107955,0.5633 -1.2015405,1.2356 v 4.8763 c -0.016561,1.1709 1.2520472,1.5168 1.9692515,1.025 h 0.0065 l 3.923614,-2.8411 c 0.147088,-0.101 0.252182,-0.2371 0.30836,-0.4041 0.05621,-0.1686 0.05621,-0.3351 0,-0.5018 -0.05621,-0.1671 -0.158659,-0.3061 -0.304107,-0.4084 l -3.981033,-2.8007 h -0.0022 c -0.1981156,-0.1325 -0.4620828,-0.1808 -0.7187977,-0.1808 z"
     sodipodi:nodetypes="ccccccccccccc" /></g><g
   id="media-playback-playing"
   transform="matrix(1.5,0,0,1.5,19.358,-1522.6)"><rect
     x="3.6663115"
     y="1034"
     width="14.667"
     height="14.667"
     fill-opacity="0"
     id="rect55" /><path
     id="path57-3-3"
     style="color:#dfdfdf;display:none;fill:#aebad0;fill-opacity:1;stroke-width:0.667848"
     class="ColorScheme-Text"
     d="m 10.998605,1036.0256 c -2.9601847,0 -5.3416721,2.3827 -5.3416721,5.3429 0,2.9602 2.3814874,5.3429 5.3416721,5.3429 2.960186,0 5.344085,-2.3827 5.344085,-5.3429 0,-2.9602 -2.383899,-5.3429 -5.344085,-5.3429 z m -0.807882,2.9856 c 0.104979,-0.01 0.209949,0.025 0.303859,0.083 l 2.516495,1.5711 c 0.463787,0.2898 0.463787,1.1175 0,1.4072 l -2.516495,1.5711 c -0.30524,0.1898 -0.6491236,0.039 -0.8127049,-0.2845 l -0.01809,0.012 v -0.051 c -0.049408,-0.1111 -0.07942,-0.2402 -0.079582,-0.381 v -3.1436 c 1.8e-6,-0.1377 0.029657,-0.2671 0.079583,-0.3799 v -0.053 l 0.018089,0.014 c 0.1073181,-0.2128 0.293381,-0.3578 0.5088439,-0.3676 z" /><path
     id="path57-3-36"
     style="color:#dfdfdf;display:inline;fill:#dfdfdf;fill-opacity:1;stroke-width:0.666656"
     class="ColorScheme-Text"
     d="m 10.998608,1036.0001 c -2.9548799,0 -5.3321299,2.3784 -5.3321299,5.3333 0,2.955 2.37725,5.3334 5.3321299,5.3334 2.954878,0 5.334537,-2.3784 5.334537,-5.3334 0,-2.9549 -2.379659,-5.3333 -5.334537,-5.3333 z m -1.0267059,3.0669 c 0.1582039,0 0.3208479,0.03 0.4429399,0.1119 h 0.0012 l 2.453021,1.726 c 0.08963,0.063 0.153128,0.1486 0.187768,0.2516 0.03464,0.1027 0.03464,0.2054 0,0.3093 -0.03462,0.1029 -0.09953,0.1869 -0.190175,0.2492 l -2.418115,1.7513 h -0.0036 c -0.441987,0.303 -1.2234759,0.09 -1.2132699,-0.632 v -0.1203 -2.7599 -0.1252 c -0.0057,-0.4143 0.325829,-0.7508 0.740239,-0.7619 z" /></g><g
   id="media-playback-stopped"
   transform="matrix(1.5,0,0,1.5,43.358,-1522.6)"><rect
     x="3.6673"
     y="1034"
     width="14.667"
     height="14.667"
     fill-opacity="0"
     id="rect60" /><path
     id="path1785"
     style="color:#dfdfdf;display:inline;fill:#dfdfdf;fill-opacity:1;stroke-width:1.00092"
     class="ColorScheme-Text"
     d="m 11,1036.0623 c -2.9574988,0 -5.3378595,2.3802 -5.3378595,5.3378 0,2.9574 2.3804605,5.3378 5.3378595,5.3378 2.957498,0 5.337859,-2.3804 5.337859,-5.3378 0,-2.9576 -2.380461,-5.3378 -5.337859,-5.3378 z m -1.4725128,3.1291 h 2.9450258 c 0.407883,0 0.736257,0.3283 0.736257,0.7362 v 2.9451 c 0,0.4079 -0.328374,0.7362 -0.736257,0.7362 H 9.5274872 c -0.407883,0 -0.7362568,-0.3283 -0.7362568,-0.7362 v -2.9451 c 7e-7,-0.4079 0.3283738,-0.7362 0.7362568,-0.7362 z" /></g><g
   id="media-skip-forward-5"
   transform="matrix(-1,0,0,1,96,-5.013672)"
   style="display:inline"><path
     style="display:none;opacity:0.00100002"
     d="M 32,-5e-7 H -1e-6 V 32 H 32 Z"
     id="path97" /></g><g
   id="media-playback-paused"
   transform="translate(0.85909969,-1001.9998)"
   style="display:inline"><rect
     y="1030.4"
     width="22"
     height="22"
     opacity="0.00100002"
     id="rect3"
     x="0"
     style="display:inline" /><path
     id="path4"
     style="display:none;opacity:1;fill:#dfdfdf;fill-opacity:1;stroke-width:1.83513"
     d="M 8.9641577,1033.4001 C 5.660018,1033.4001 3,1036.0601 3,1039.3642 v 4.0717 c 0,3.3041 2.660018,5.9642 5.9641577,5.9642 h 4.0716843 c 3.30414,0 5.964158,-2.6601 5.964158,-5.9642 v -4.0717 c 0,-3.3041 -2.660018,-5.9641 -5.964158,-5.9641 z m -0.034051,4.9032 c 0.5792123,-0.01 1.0509607,0.4621 1.04301,1.0412 v 4.1111 c 0.019654,1.3896 -2.0752103,1.3896 -2.0555552,0 v -4.1111 c -0.0078,-0.5664 0.445907,-1.0263 1.0125452,-1.0412 z m 4.1093193,0 c 0.579212,-0.01 1.050962,0.4621 1.043011,1.0412 v 4.1111 c 0.01964,1.3894 -2.075192,1.3894 -2.055555,0 v -4.1111 c -0.0078,-0.5664 0.445905,-1.0263 1.012544,-1.0412 z" /><path
     id="path8-7"
     style="color:#dfdfdf;display:inline;fill:#dfdfdf;fill-opacity:1;stroke-width:1.50013"
     class="ColorScheme-Text"
     d="m 11,1033.4001 c -4.432601,0 -8,3.5656 -8,7.9981 0,4.4326 3.567549,8.0019 8,8.0019 4.432601,0 8,-3.5693 8,-8.0019 0,-4.4325 -3.567549,-7.9981 -8,-7.9981 z m -1.6200717,4.9013 c 0.5792119,-0.01 1.0492017,0.464 1.0412187,1.0431 v 4.1093 c 0.01008,0.7133 -0.5363279,1.0584 -1.0681004,1.0394 -5.953e-4,0 -0.00119,0 -0.00179,0 -0.5485167,0.045 -1.1322942,-0.3002 -1.1218637,-1.0376 v -4.1111 c -0.0078,-0.5665 0.4459065,-1.0265 1.0125448,-1.0412 0.033187,-6e-4 0.066154,0 0.098566,0 0.013427,-8e-4 0.025866,-0.01 0.039427,-0.01 z m 3.2096777,0 c 0.02638,-4e-4 0.05115,0.01 0.07706,0.01 0.02044,0 0.04017,-0.01 0.06094,-0.01 0.579212,-0.01 1.050994,0.4622 1.043011,1.0413 v 4.111 c 0.01042,0.7374 -0.57335,1.083 -1.121864,1.0377 -5.95e-4,0 -0.0012,0 -0.0018,0 -0.531768,0.019 -1.07818,-0.3263 -1.0681,-1.0394 v -4.1093 c -0.0078,-0.5664 0.444113,-1.0284 1.010753,-1.0431 z" /></g></svg>
