<?xml version="1.0" encoding="UTF-8" standalone="no"?>
<svg
   version="1.1"
   id="svg2"
   viewBox="0 0 32 32"
   inkscape:version="1.1 (c4e8f9ed74, 2021-05-24)"
   sodipodi:docname="nepomuk.svgz"
   width="32"
   height="32"
   xmlns:inkscape="http://www.inkscape.org/namespaces/inkscape"
   xmlns:sodipodi="http://sodipodi.sourceforge.net/DTD/sodipodi-0.dtd"
   xmlns="http://www.w3.org/2000/svg"
   xmlns:svg="http://www.w3.org/2000/svg"
   xmlns:rdf="http://www.w3.org/1999/02/22-rdf-syntax-ns#"
   xmlns:cc="http://creativecommons.org/ns#"
   xmlns:dc="http://purl.org/dc/elements/1.1/">
  <sodipodi:namedview
     pagecolor="#c8c8c8"
     bordercolor="#666666"
     borderopacity="1"
     objecttolerance="10"
     gridtolerance="10"
     guidetolerance="10"
     inkscape:pageopacity="0"
     inkscape:pageshadow="2"
     inkscape:window-width="1920"
     inkscape:window-height="958"
     id="namedview12"
     showgrid="true"
     inkscape:zoom="10.429825"
     inkscape:cx="5.2253993"
     inkscape:cy="19.319595"
     inkscape:window-x="0"
     inkscape:window-y="40"
     inkscape:window-maximized="1"
     inkscape:current-layer="svg2"
     inkscape:pagecheckerboard="0"
     inkscape:lockguides="true"
     inkscape:snap-bbox="true"
     inkscape:bbox-nodes="true">
    <inkscape:grid
       type="xygrid"
       id="grid818" />
  </sodipodi:namedview>
  <metadata
     id="metadata18">
    <rdf:RDF>
      <cc:Work
         rdf:about="">
        <dc:format>image/svg+xml</dc:format>
        <dc:type
           rdf:resource="http://purl.org/dc/dcmitype/StillImage" />
        <dc:title />
      </cc:Work>
    </rdf:RDF>
  </metadata>
  <defs
     id="defs3051">
    <style
       type="text/css"
       id="current-color-scheme">
      .ColorScheme-Text {
        color:#31363b;
      }
      .ColorScheme-Background {
        color:#eff0f1;
      }
      .ColorScheme-Highlight {
        color:#3daee9;
      }
      .ColorScheme-ViewText {
        color:#31363b;
      }
      .ColorScheme-ViewBackground {
        color:#fcfcfc;
      }
      .ColorScheme-ViewHover {
        color:#93cee9;
      }
      .ColorScheme-ViewFocus{
        color:#3daee9;
      }
      .ColorScheme-ButtonText {
        color:#31363b;
      }
      .ColorScheme-ButtonBackground {
        color:#eff0f1;
      }
      .ColorScheme-ButtonHover {
        color:#93cee9;
      }
      .ColorScheme-ButtonFocus{
        color:#3daee9;
      }
      </style>
  </defs>
  <g
     id="22-22-nepomuk">
    <path
       id="path9"
       d="M -22,10 V 32 H 0 V 10 Z"
       style="fill:none"
       inkscape:connector-curvature="0" />
    <path
       style="color:#000000;fill:#ffffff;-inkscape-stroke:none"
       d="m -12.5,14.000006 c 3.0376004,0 5.5,2.46243 5.5,5.5 0,1.33879 -0.4783,2.5659 -1.2734,3.5196 l 4.127,4.1268 c 0.1952,0.1953 0.1952,0.5119 0,0.7072 -0.1736,0.1735 -0.443,0.1928 -0.6379,0.0578 l -0.0693,-0.0578 -4.1268,-4.127 c -0.9537,0.7951 -2.18081,1.2734 -3.5196,1.2734 -3.03757,0 -5.5,-2.4624 -5.5,-5.5 0,-3.03757 2.46243,-5.5 5.5,-5.5 z m 0,1 c -2.48528,0 -4.5,2.01472 -4.5,4.5 0,2.4853 2.01472,4.5 4.5,4.5 2.4853,0 4.5,-2.0147 4.5,-4.5 0,-2.48528 -2.0147,-4.5 -4.5,-4.5 z"
       id="path2" />
  </g>
  <g
     id="nepomuk">
    <path
       id="path14"
       d="M 0,0 V 32 H 32 V 0 Z"
       style="fill:none"
       inkscape:connector-curvature="0" />
    <g
       id="g1480">
      <path
         id="path1129"
         style="fill:#ffffff;fill-opacity:1;fill-rule:evenodd;stroke-width:0.941176;stroke-linecap:square;stroke-linejoin:round;paint-order:stroke markers fill"
         d="M 13 5 A 8 8 0 0 0 5 13 A 8 8 0 0 0 13 21 A 8 8 0 0 0 21 13 A 8 8 0 0 0 13 5 z M 13 6 A 7 7 0 0 1 20 13 A 7 7 0 0 1 13 20 A 7 7 0 0 1 6 13 A 7 7 0 0 1 13 6 z " />
      <rect
         style="fill:#ffffff;fill-opacity:1;fill-rule:evenodd;stroke-width:0.930949;stroke-linecap:square;stroke-linejoin:round;paint-order:stroke markers fill"
         id="rect1236"
         width="13"
         height="1"
         x="25.663593"
         y="-0.5"
         ry="0.5"
         transform="rotate(45)" />
    </g>
  </g>
</svg>
