<?xml version="1.0" encoding="UTF-8" standalone="no"?>
<svg
   id="svg"
   version="1.1"
   viewBox="0 0 22 22"
   sodipodi:docname="notification.svg"
   inkscape:version="1.3 (0e150ed6c4, 2023-07-21)"
   xmlns:inkscape="http://www.inkscape.org/namespaces/inkscape"
   xmlns:sodipodi="http://sodipodi.sourceforge.net/DTD/sodipodi-0.dtd"
   xmlns="http://www.w3.org/2000/svg"
   xmlns:svg="http://www.w3.org/2000/svg"
   xmlns:rdf="http://www.w3.org/1999/02/22-rdf-syntax-ns#"
   xmlns:cc="http://creativecommons.org/ns#"
   xmlns:dc="http://purl.org/dc/elements/1.1/">
  <sodipodi:namedview
     id="namedview70"
     pagecolor="#808080"
     bordercolor="#000000"
     borderopacity="0.25"
     inkscape:showpageshadow="2"
     inkscape:pageopacity="0.0"
     inkscape:pagecheckerboard="0"
     inkscape:deskcolor="#8c8c8c"
     showgrid="false"
     inkscape:zoom="4.6386401"
     inkscape:cx="36.864252"
     inkscape:cy="40.7447"
     inkscape:window-width="1920"
     inkscape:window-height="1032"
     inkscape:window-x="0"
     inkscape:window-y="24"
     inkscape:window-maximized="1"
     inkscape:current-layer="svg" />
  <metadata
     id="metadata2">
    <rdf:RDF>
      <cc:Work
         rdf:about="">
        <dc:format>image/svg+xml</dc:format>
        <dc:type
           rdf:resource="http://purl.org/dc/dcmitype/StillImage" />
      </cc:Work>
    </rdf:RDF>
  </metadata>
  <defs
     id="defs5">
    <style
       id="current-color-scheme"
       type="text/css">&#10;          .ColorScheme-Text { color:#dfdfdf; }&#10;          .ColorScheme-Background { color:#242424;}&#10;          .ColorScheme-Highlight { color:#4285f4;}&#10;          .ColorScheme-ViewText { color:#a1adc8;}&#10;          .ColorScheme-ViewBackground { color:#343434;}&#10;          .ColorScheme-ViewFocus{ color:#4285f4;}&#10;          .ColorScheme-ButtonText { color:#a1adc8;}&#10;          .ColorScheme-ButtonBackground { color:#242424;}&#10;          .ColorScheme-ButtonFocus{ color:#4285f4;}&#10;   </style>
  </defs>
  <g
     fill="currentColor"
     id="g11">
    <path
       id="expander-bottom"
       class="ColorScheme-Text"
       d="m-18 23 2-2 2 2z" />
    <path
       id="expander-top"
       class="ColorScheme-Text"
       d="m-18 17 2 2 2-2z" />
    <path
       id="expander-right"
       class="ColorScheme-Text"
       d="m-13 18-2 2 2 2z" />
    <path
       id="expander-left"
       class="ColorScheme-Text"
       d="m-19 18 2 2-2 2z" />
  </g>
  <g
     id="22-22-notification-progress-active">
    <path
       id="empty-rectangle"
       d="m40 0h22v22h-22z"
       fill="none" />
    <g
       class="ColorScheme-Text"
       transform="translate(-38)"
       fill="currentColor"
       id="g18">
      <path
         class="ColorScheme-Text"
         d="m89 2a9 9 0 0 0-9 9 9 9 0 0 0 9 9 9 9 0 0 0 9-9 9 9 0 0 0-9-9zm0 1a8 8 0 0 1 8 8 8 8 0 0 1-8 8 8 8 0 0 1-8-8 8 8 0 0 1 8-8z"
         id="path14" />
      <circle
         class="ColorScheme-Text"
         cx="89"
         cy="11"
         r="7"
         id="circle16" />
    </g>
  </g>
  <g
     id="22-22-notification-progress-inactive"
     transform="translate(-38,1)"
     fill="currentColor"
     class="ColorScheme-Text">
    <path
       d="m40 40h22v22h-22z"
       fill="none"
       id="path21" />
    <path
       class="ColorScheme-Text"
       d="m89 41a9 9 0 0 0-9 9 9 9 0 0 0 9 9 9 9 0 0 0 9-9 9 9 0 0 0-9-9zm0 1a8 8 0 0 1 8 8 8 8 0 0 1-8 8 8 8 0 0 1-8-8 8 8 0 0 1 8-8z"
       id="path23" />
    <circle
       class="ColorScheme-Text"
       cx="89"
       cy="50"
       r="7"
       opacity=".15"
       id="circle25" />
  </g>
  <g
     id="22-22-notification-active"
     transform="translate(-1.002,-22.865)"
     style="display:inline">
    <rect
       y="63"
       width="22"
       height="22"
       fill="none"
       stroke-linecap="round"
       stroke-linejoin="round"
       stroke-width="1.6923"
       id="rect30"
       x="0" />
    <g
       id="g1"
       style="display:none">
      <path
         class="ColorScheme-Text"
         d="m 11,67 c -3.2266,0 -5.8715,2.4513 -5.9941,5.5684 l -0.00391,0.22461 v 3.6074 l -0.92382,2.2207 -0.042969,0.12695 -0.021484,0.12695 c -0.050399,0.4635 0.19274,0.88173 0.60352,1.0527 l 0.125,0.04297 c 0.08456,0.0228 0.17182,0.0332 0.25977,0.0332 h 3.5 l 0.00586,0.16016 c 0.084649,1.3041 1.1687,2.3359 2.4941,2.3359 1.3252,0 2.409,-1.0303 2.4941,-2.334 l 0.0059,-0.16211 h 3.502 l 0.13477,-0.0098 0.11523,-0.02734 c 0.4527,-0.129 0.75,-0.51489 0.75,-0.96289 l -0.0098,-0.13086 -0.01367,-0.08594 c -0.0127,-0.0569 -0.03209,-0.11192 -0.05469,-0.16602 l -0.92383,-2.2227 v -3.5957 l -0.0039,-0.22461 -0.0078,-0.11914 a 4,4 0 0 1 -0.98828,0.40625 v 3.6348 l 0.03906,0.19141 0.96289,2.3125 -0.04492,0.002 -11.957,-0.002 0.96289,-2.3125 0.037085,-0.19141 v -3.6973 l 0.00391,-0.20508 0.013672,-0.21289 c 0.21002,-2.4613 2.3579,-4.3848 4.9805,-4.3848 0.04509,0 0.08997,0.0028 0.13477,0.0039 a 4,4 0 0 1 0.39844,-0.98047 c -0.17569,-0.01489 -0.35357,-0.02343 -0.5332,-0.02343 z M 9.502,80.004 h 3 l -0.0059,0.14062 c -0.07256,0.7606 -0.7144,1.3555 -1.4941,1.3555 l -0.14453,-0.0078 c -0.71281,-0.0681 -1.2791,-0.63496 -1.3477,-1.3477 z"
         fill="currentColor"
         id="path32" />
      <circle
         cx="15"
         cy="69"
         r="3"
         class="ColorScheme-Highlight"
         fill="currentColor"
         stroke-linecap="round"
         stroke-linejoin="round"
         stroke-width="2.1825"
         id="circle34" />
    </g>
    <g
       id="g35"
       style="display:inline">
      <path
         class="ColorScheme-Text"
         d="m 10.999805,66.999854 c 3.1489,0 5.7439,2.3349 5.9844,5.3554 l 0.0134,0.22222 0.0045,0.22452 -0.001,3.5959 0.9254,2.2222 c 0.0226,0.0541 0.0403,0.11 0.053,0.1669 l 0.0152,0.0862 0.0087,0.1313 c 0,0.448 -0.2965,0.8341 -0.7492,0.9631 l -0.1163,0.0268 -0.1345,0.0101 -3.5017,-6e-4 -0.005,0.1613 c -0.0851,1.3037 -1.1694,2.3347 -2.4946,2.3347 -1.3255002,0 -2.4100002,-1.0315 -2.4947002,-2.3356 l -0.0057,-0.1604 -3.5007,6e-4 c -0.08795,0 -0.17533,-0.0116 -0.25989,-0.0344 l -0.12446,-0.0425 c -0.41078,-0.171 -0.65275,-0.5885 -0.60235,-1.052 l 0.02109,-0.1274 0.04242,-0.1281 0.9233,-2.2192 0.0011,-3.6082 0.0043,-0.22457 c 0.12262,-3.1171 2.7666,-5.5682 5.9933002,-5.5682 z m 1.5019,13.004 H 9.5017048 l 0.0074,0.1414 c 0.06855,0.7127 0.6357802,1.2796 1.3486002,1.3477 l 0.14444,0.007 c 0.7797,0 1.4205,-0.5949 1.4931,-1.3555 z m -1.5019,-12.004 c -2.6225992,0 -4.7704992,1.9237 -4.9805002,4.385 l -0.01322,0.21225 -0.0039,0.20491 v 3.6979 l -0.03841,0.1922 -0.962709,2.3124 11.9579992,0.002 0.0453,-0.002 -0.9635,-2.3123 -0.0384,-0.1922 10e-5,-3.6876 -0.0041,-0.2041 c -0.1051,-2.5734 -2.3013,-4.6083 -4.9983,-4.6083 z"
         fill="currentColor"
         id="path1"
         style="color:#dfdfdf;display:inline" />
      <path
         id="path34"
         style="color:#dfdfdf;display:none;fill:#dfdfdf;fill-opacity:1;stroke-width:1.00002"
         d="m 16.043414,66.904443 c -0.495155,-0.01966 -0.721414,0.62002 -0.105472,1.009766 1.199806,0.835384 1.998334,2.170437 2.06061,3.695313 l 0.0039,0.203125 c 0.01419,0.942244 1.015106,0.931751 1.000031,-0.0098 l -0.0039,-0.224609 -0.01367,-0.222657 c -0.143449,-1.801813 -1.125356,-3.357201 -2.562578,-4.320312 -0.135828,-0.08582 -0.264652,-0.126324 -0.378918,-0.13086 z m -10.0745276,0.04883 c -0.1142665,0.0045 -0.2430905,0.04309 -0.3789176,0.128906 -1.437223,0.963111 -2.4191291,2.518499 -2.5625785,4.320312 l -0.01367,0.222657 -0.0039,0.224609 c -0.01508,0.941517 0.9858402,0.95201 1.0000306,0.0098 l 0.0039,-0.203125 C 4.0760229,70.131521 4.8745543,68.796468 6.074361,67.961084 6.6903029,67.571338 6.4640439,66.933616 5.9688888,66.953273 Z" />
      <path
         id="path3"
         style="color:#dfdfdf;display:inline;fill:#dfdfdf;fill-opacity:1"
         d="M 16.298875 66.605234 C 15.836031 66.625254 15.641657 67.237434 16.238328 67.615 C 17.438096 68.450382 18.236601 69.785439 18.298875 71.310312 L 18.302781 71.513437 C 18.316971 72.45568 19.317856 72.445255 19.302781 71.503672 L 19.298875 71.279062 L 19.285203 71.056406 C 19.141758 69.254597 18.159878 67.699203 16.722703 66.736094 C 16.58688 66.650274 16.45806 66.60977 16.343797 66.605234 C 16.328327 66.60462 16.313805 66.604589 16.298875 66.605234 z M 5.6699687 66.654062 C 5.5557059 66.658562 5.4268857 66.697153 5.2910625 66.782969 C 3.8538869 67.746078 2.8720072 69.301472 2.7285625 71.103281 L 2.7148906 71.325937 L 2.7109844 71.550547 C 2.6959094 72.492062 3.6967944 72.502487 3.7109844 71.560312 L 3.7148906 71.357187 C 3.7771646 69.832279 4.5756701 68.497257 5.7754375 67.661875 C 6.3913595 67.27213 6.1651076 66.634406 5.6699687 66.654062 z " />
    </g>
  </g>
  <g
     id="22-22-notification-inactive"
     transform="translate(-3,65)">
    <path
       class="ColorScheme-Text"
       d="m13.994-61c3.1489 0 5.7439 2.3349 5.9844 5.3554l0.0134 0.22222 0.0045 0.22452-1e-3 3.5959 0.9254 2.2222c0.0226 0.0541 0.0403 0.11 0.053 0.1669l0.0152 0.0862 0.0087 0.1313c0 0.448-0.2965 0.8341-0.7492 0.9631l-0.1163 0.0268-0.1345 0.0101-3.5017-6e-4 -5e-3 0.1613c-0.0851 1.3037-1.1694 2.3347-2.4946 2.3347-1.3255 0-2.41-1.0315-2.4947-2.3356l-0.0057-0.1604-3.5007 6e-4c-0.08795 0-0.17533-0.0116-0.25989-0.0344l-0.12446-0.0425c-0.41078-0.171-0.65275-0.5885-0.60235-1.052l0.02109-0.1274 0.04242-0.1281 0.9233-2.2192 0.0011-3.6082 0.0043-0.22457c0.12262-3.1171 2.7666-5.5682 5.9933-5.5682zm1.5019 13.004h-3l0.0074 0.1414c0.06855 0.7127 0.63578 1.2796 1.3486 1.3477l0.14444 7e-3c0.7797 0 1.4205-0.5949 1.4931-1.3555zm-1.5019-12.004c-2.6226 0-4.7705 1.9237-4.9805 4.385l-0.01322 0.21225-0.0039 0.20491v3.6979l-0.03841 0.1922-0.96271 2.3124 11.958 2e-3 0.0453-2e-3 -0.9635-2.3123-0.0384-0.1922 1e-4 -3.6876-0.0041-0.2041c-0.1051-2.5734-2.3013-4.6083-4.9983-4.6083z"
       fill="currentColor"
       id="path37" />
    <rect
       x="3"
       y="-65"
       width="22"
       height="22"
       fill="none"
       stroke-linecap="round"
       stroke-linejoin="round"
       stroke-width="2.2"
       id="rect39" />
  </g>
  <g
     id="22-22-notification-disabled"
     transform="translate(0 26.996)">
    <rect
       x="-1.002"
       y="-64.012"
       width="22"
       height="22"
       fill="none"
       stroke-linecap="round"
       stroke-linejoin="round"
       stroke-width="1.6923"
       id="rect42" />
    <path
       class="ColorScheme-Text"
       d="m4.0024-54.432c0.03208-0.81542 0.2367-1.5853 0.57916-2.2776l-2.4371-2.4371c-0.19527-0.19526-0.19527-0.51184 0-0.7071 0.19526-0.19527 0.51184-0.19527 0.7071 0l15 15c0.1952 0.1953 0.1952 0.5119 0 0.7072-0.1953 0.1952-0.5119 0.1952-0.7072 0l-2.8492-2.8493-1.7976-3e-4 -5e-3 0.1613c-0.0851 1.3037-1.1694 2.3347-2.4946 2.3347-1.3255 0-2.41-1.0315-2.4947-2.3356l-0.0057-0.1604-3.5007 6e-4c-0.08795 0-0.17533-0.0116-0.25989-0.0344l-0.12446-0.0425c-0.41078-0.171-0.65275-0.5885-0.60235-1.052l0.02109-0.1274 0.04242-0.1281 0.9233-2.2192 0.0011-3.6082zm9.2946 6.4379-7.9606-7.9606c-0.17077 0.42055-0.28124 0.87023-0.32128 1.3395l-0.01322 0.21225-0.0039 0.20491v3.6979l-0.03841 0.1922-0.96271 2.3124zm-1.7994 0.9979h-3l0.0073 0.1414c0.06855 0.7127 0.63578 1.2796 1.3486 1.3477l0.14444 0.0069c0.7797 0 1.4205-0.5949 1.4931-1.3555zm3.5388-3.3118 0.8749 2.0997 0.852 0.8521c0.15-0.1749 0.236-0.3982 0.236-0.6394l-0.0087-0.1313-0.0152-0.0862c-0.0127-0.0569-0.0304-0.1128-0.053-0.1669l-0.9254-2.2222 1e-3 -3.5959-0.0045-0.22452-0.0134-0.22222c-0.2405-3.0205-2.8355-5.3554-5.9844-5.3554-1.6393 0-3.1282 0.63266-4.2124 1.6639l0.7067 0.70671c0.90176-0.84838 2.1393-1.3706 3.5057-1.3706 2.697 0 4.8932 2.0349 4.9983 4.6083l0.0041 0.2041-9.9e-5 3.6876z"
       fill="currentColor"
       id="path44" />
  </g>
  <g
     id="22-22-notification-empty"
     transform="translate(37.504 27.996)">
    <path
       class="ColorScheme-Text"
       d="m13.994-61c3.1489 0 5.7439 2.3349 5.9844 5.3554l0.0134 0.22222 0.0045 0.22452-1e-3 3.5959 0.9254 2.2222c0.0226 0.0541 0.0403 0.11 0.053 0.1669l0.0152 0.0862 0.0087 0.1313c0 0.448-0.2965 0.8341-0.7492 0.9631l-0.1163 0.0268-0.1345 0.0101-3.5017-6e-4 -5e-3 0.1613c-0.0851 1.3037-1.1694 2.3347-2.4946 2.3347-1.3255 0-2.41-1.0315-2.4947-2.3356l-0.0057-0.1604-3.5007 6e-4c-0.08795 0-0.17533-0.0116-0.25989-0.0344l-0.12446-0.0425c-0.41078-0.171-0.65275-0.5885-0.60235-1.052l0.02109-0.1274 0.04242-0.1281 0.9233-2.2192 0.0011-3.6082 0.0043-0.22457c0.12262-3.1171 2.7666-5.5682 5.9933-5.5682zm1.5019 13.004h-3l0.0074 0.1414c0.06855 0.7127 0.63578 1.2796 1.3486 1.3477l0.14444 7e-3c0.7797 0 1.4205-0.5949 1.4931-1.3555zm-1.5019-12.004c-2.6226 0-4.7705 1.9237-4.9805 4.385l-0.01322 0.21225-0.0039 0.20491v3.6979l-0.03841 0.1922-0.96271 2.3124 11.958 2e-3 0.0453-2e-3 -0.9635-2.3123-0.0384-0.1922 1e-4 -3.6876-0.0041-0.2041c-0.1051-2.5734-2.3013-4.6083-4.9983-4.6083z"
       fill="currentColor"
       id="path47" />
    <rect
       x="3"
       y="-65"
       width="22"
       height="22"
       fill="none"
       stroke-linecap="round"
       stroke-linejoin="round"
       stroke-width="2.2"
       id="rect49" />
  </g>
  <g
     id="notification-inactive"
     transform="translate(-.49406)">
    <rect
       x="85.497"
       width="32"
       height="32"
       fill="none"
       stroke-linecap="round"
       stroke-linejoin="round"
       stroke-width="2.0098"
       id="rect52" />
    <path
       class="ColorScheme-Text"
       d="m100.99 5c-4.6917 0-8.5 3.8083-8.5 8.5v5.3262l-1.5195 3.8027c-0.26223 0.65647 0.22083 1.3704 0.92773 1.3711h5.6289c0.24848 1.7215 1.7235 2.9994 3.4629 3 1.7394-6.02e-4 3.2144-1.2785 3.4629-3h5.6348c0.7069-7.16e-4 1.19-0.71463 0.92773-1.3711l-1.5254-3.8164v-5.3125c0-4.6917-3.8083-8.5-8.5-8.5zm0 1c4.155 0 7.5 3.345 7.5 7.5v5.5059l1.5977 3.9941h-18.189l1.5918-3.9805v-5.5195c0-4.155 3.345-7.5 7.5-7.5zm-2.4434 18h4.8867c-0.23713 1.1617-1.2577 1.9971-2.4434 2-1.1857-0.0029-2.2062-0.83828-2.4434-2z"
       fill="currentColor"
       id="path54" />
  </g>
  <g
     id="notification-disabled"
     transform="translate(-36)">
    <rect
       x="120"
       y="-41"
       width="32"
       height="32"
       rx="0"
       ry="0"
       fill="none"
       stroke-linecap="round"
       stroke-linejoin="round"
       stroke-width="2.1333"
       id="rect57" />
    <path
       class="ColorScheme-Text"
       d="m124.19-36.814c-0.12781 0-0.25558 0.04855-0.35352 0.14648-0.19587 0.19587-0.19587 0.51116 0 0.70703l4.2754 4.2754c-0.70335 1.2367-1.1113 2.6621-1.1113 4.1855v5.3262l-1.5176 3.8027c-0.26223 0.65647 0.21888 1.3704 0.92578 1.3711h5.6309c0.24848 1.7215 1.7215 2.9994 3.4609 3 1.7394-6.02e-4 3.2144-1.2785 3.4629-3h3.834l3.668 3.668c0.19587 0.19587 0.51116 0.19587 0.70703 0 0.19587-0.19587 0.19587-0.51116 0-0.70703l-17.797-17.797-4.832-4.832c-0.0979-0.09793-0.2257-0.14648-0.35351-0.14648zm11.311 0.81445c-2.4418 0-4.6405 1.0329-6.1914 2.6836l0.70117 0.70117c1.3674-1.4682 3.3163-2.3848 5.4902-2.3848 4.155 0 7.5 3.345 7.5 7.5v5.5059l1.582 3.9512 0.73243 0.73242c0.25749-0.26903 0.36577-0.67293 0.21093-1.0605l-1.5254-3.8164v-5.3125c0-4.6917-3.8083-8.5-8.5-8.5zm-6.6582 5.0449 12.955 12.955h-15.389l1.5918-3.9805v-5.5195c0-1.2484 0.30608-2.422 0.8418-3.4551zm4.2148 13.955h4.8887c-0.23713 1.1617-1.2596 1.9971-2.4453 2-1.1857-0.0029-2.2062-0.83828-2.4434-2z"
       fill="currentColor"
       id="path59" />
  </g>
  <g
     id="notification-active">
    <rect
       x="86.003"
       y="39"
       width="32"
       height="32"
       fill="none"
       stroke-linecap="round"
       stroke-linejoin="round"
       stroke-width="2.0098"
       id="rect62" />
    <g
       id="g36"
       style="display:none">
      <path
         class="ColorScheme-Text"
         d="M 101.5,44 C 96.8083,44 93,47.8083 93,52.5 v 5.3262 l -1.5195,3.8027 c -0.26223,0.65647 0.22083,1.3704 0.92773,1.3711 h 1.5918 0.4082 3.6289 c 0.24848,1.7215 1.7235,2.9994 3.4629,3 1.7394,-6.02e-4 3.2144,-1.2785 3.4629,-3 h 3.6348 0.40234 1.5977 c 0.7069,-7.16e-4 1.19,-0.71463 0.92773,-1.3711 l -1.5254,-3.8164 V 52.5 c 0,-0.86351 -0.13132,-1.697 -0.37109,-2.4824 a 4,4 0 0 1 -0.87305,0.57031 c 0.15928,0.6101 0.24414,1.2507 0.24414,1.9121 v 5.5059 l 1.5977,3.9941 h -1.5977 -0.40234 -3.6328 -1.0156 -4.8945 -1.0195 -3.627 -0.4082 -1.5918 l 1.5918,-3.9805 v -5.5195 c 0,-4.155 3.345,-7.5 7.5,-7.5 0.66269,0 1.3048,0.08424 1.916,0.24414 a 4,4 0 0 1 0.57421,-0.87305 c -0.78751,-0.24117 -1.6241,-0.37109 -2.4902,-0.37109 z m -2.4434,19 h 4.8867 c -0.23713,1.1617 -1.2577,1.9971 -2.4434,2 -1.1857,-0.0029 -2.2062,-0.83828 -2.4434,-2 z"
         fill="currentColor"
         id="path66" />
      <circle
         cx="107"
         cy="47"
         r="3"
         class="ColorScheme-Highlight"
         fill="currentColor"
         stroke-linecap="round"
         stroke-linejoin="round"
         stroke-width="1.3333"
         id="circle64"
         style="fill-opacity:1" />
    </g>
    <path
       class="ColorScheme-Text"
       d="m 101.50002,44 c -4.6917,0 -8.5,3.8083 -8.5,8.5 v 5.3262 l -1.5195,3.8027 c -0.26223,0.65647 0.22083,1.3704 0.92773,1.3711 h 5.6289 c 0.24848,1.7215 1.7235,2.9994 3.4629,3 1.7394,-6.02e-4 3.2144,-1.2785 3.4629,-3 h 5.6348 c 0.7069,-7.16e-4 1.19,-0.71463 0.92773,-1.3711 l -1.5254,-3.8164 V 52.5 c 0,-4.6917 -3.8083,-8.5 -8.5,-8.5 z m 0,1 c 4.155,0 7.5,3.345 7.5,7.5 v 5.5059 L 110.59772,62 h -18.189 l 1.5918,-3.9805 V 52.5 c 0,-4.155 3.345,-7.5 7.5,-7.5 z m -2.4434,18 h 4.8867 c -0.23713,1.1617 -1.2577,1.9971 -2.4434,2 -1.1857,-0.0029 -2.2062,-0.83828 -2.4434,-2 z"
       fill="currentColor"
       id="path36"
       style="color:#dfdfdf;display:inline" />
    <path
       id="path38"
       style="display:inline;color:#dfdfdf;fill:#dfdfdf"
       d="m 16.036774,67.046875 c -0.185044,-0.0073 -0.293918,0.09538 -0.322265,0.236328 -0.02835,0.140951 0.02756,0.33811 0.298828,0.509766 a 0.14353548,0.14353548 0 0 1 0.0059,0.0039 c 1.234108,0.859294 2.056918,2.2352 2.121094,3.806641 a 0.14353548,0.14353548 0 0 1 0,0.0039 l 0.0039,0.203125 c 0.0063,0.420313 0.207159,0.562164 0.367188,0.560547 0.160028,-0.0016 0.354379,-0.146476 0.347656,-0.566407 l -0.0039,-0.220703 -0.01367,-0.216797 v -0.002 c -0.140286,-1.754363 -1.095625,-3.268998 -2.496094,-4.208984 -0.118419,-0.07482 -0.223895,-0.106013 -0.308594,-0.109375 z m -10.0624991,0.04883 c -0.085119,0.0034 -0.1889966,0.03333 -0.3046875,0.105469 -1.4029276,0.940158 -2.3601486,2.456214 -2.5,4.21289 l -0.013672,0.216797 -0.00391,0.220703 c -0.00672,0.419913 0.1876244,0.564789 0.3476562,0.566407 0.1600318,0.0016 0.3608577,-0.140253 0.3671875,-0.560547 l 0.00391,-0.203125 a 0.14353548,0.14353548 0 0 1 0,-0.0039 c 0.064175,-1.571475 0.8869874,-2.947349 2.1210937,-3.806641 a 0.14353548,0.14353548 0 0 1 0.00586,-0.0039 C 6.2690744,67.66813 6.3248264,67.472346 6.2965405,67.332031 6.2682546,67.191716 6.1595074,67.088349 5.9742749,67.095703 Z"
       transform="matrix(1.4193774,0,0,1.4193774,85.881992,-51.081083)" />
  </g>
</svg>
