<?xml version="1.0" encoding="UTF-8" standalone="no"?>
<svg
   width="22"
   height="22"
   version="1.1"
   id="svg7"
   sodipodi:docname="redshift.svg"
   inkscape:version="1.3 (0e150ed6c4, 2023-07-21)"
   xmlns:inkscape="http://www.inkscape.org/namespaces/inkscape"
   xmlns:sodipodi="http://sodipodi.sourceforge.net/DTD/sodipodi-0.dtd"
   xmlns="http://www.w3.org/2000/svg"
   xmlns:svg="http://www.w3.org/2000/svg">
  <sodipodi:namedview
     id="namedview9"
     pagecolor="#e6e6e6"
     bordercolor="#666666"
     borderopacity="1.0"
     inkscape:pageshadow="2"
     inkscape:pageopacity="0"
     inkscape:pagecheckerboard="0"
     showgrid="true"
     inkscape:snap-smooth-nodes="true"
     inkscape:zoom="11.313709"
     inkscape:cx="16.705397"
     inkscape:cy="26.870056"
     inkscape:window-width="1920"
     inkscape:window-height="1000"
     inkscape:window-x="0"
     inkscape:window-y="0"
     inkscape:window-maximized="1"
     inkscape:current-layer="svg7"
     inkscape:showpageshadow="2"
     inkscape:deskcolor="#d1d1d1">
    <inkscape:grid
       type="xygrid"
       id="grid826"
       originx="0"
       originy="0"
       spacingy="1"
       spacingx="1"
       units="px"
       visible="true" />
  </sodipodi:namedview>
  <defs
     id="defs3">
    <style
       id="current-color-scheme"
       type="text/css">&#10;   .ColorScheme-Text { color:#444444; } .ColorScheme-Highlight { color:#4285f4; } .ColorScheme-NeutralText { color:#ff9800; } .ColorScheme-PositiveText { color:#4caf50; } .ColorScheme-NegativeText { color:#f44336; }&#10;  </style>
  </defs>
  <g
     id="22-22-redshift-status-on"
     style="display:inline">
    <rect
       id="rect5142"
       width="22"
       height="22"
       x="0"
       y="0"
       rx="0"
       ry="0"
       style="fill:none" />
    <g
       id="g3348"
       transform="translate(21.058594,0.50000001)">
      <path
         id="path3274"
         class="ColorScheme-Text"
         d="m -10.058594,2.3 c -3.407996,0 -6.16875,2.772191 -6.16875,6.1921872 0,2.0159988 0.94922,3.7915328 2.449219,4.9195318 0.683999,0.515999 1.258594,1.187719 1.258594,2.111718 L -12.458595,16.7 h 4.7999999 l 0.072656,-1.176563 c 0.048,-0.923999 0.5628756,-1.595719 1.2468744,-2.111718 1.4999988,-1.127999 2.4492192,-2.903533 2.4492192,-4.9195318 C -3.8898475,5.072191 -6.6505975,2.3 -10.058594,2.3 Z m 0,1.2 c 2.7572905,0 4.9687501,2.2178075 4.9687501,4.9921872 0,1.6398068 -0.7605588,3.0506138 -1.9710936,3.9609388 -0.8495148,0.64086 -1.648662,1.665093 -1.7226564,2.997655 v 0.0071 l -0.00234,0.0047 -0.00235,0.03746 H -11.31719 l -0.0024,-0.0375 v 0.06094 c -3e-6,-1.422697 -0.91141,-2.447712 -1.736719,-3.070312 C -14.266792,11.542796 -15.0274,10.131993 -15.0274,8.492186 -15.027344,5.7178074 -12.815884,3.5 -10.058594,3.5 Z"
         style="fill:#fbfbfb;fill-opacity:1;stroke:#fbfffb;stroke-width:0.6;stroke-linecap:round;stroke-linejoin:round;stroke-dasharray:none;stroke-opacity:1" />
      <rect
         style="font-variation-settings:'wght' 700;opacity:0.45;fill:#fbfbfb;fill-opacity:1;fill-rule:evenodd;stroke:none;paint-order:stroke fill markers"
         id="rect3341"
         width="4"
         height="1"
         x="-12.058594"
         y="19"
         ry="0.5" />
    </g>
  </g>
  <g
     id="22-22-redshift-status-off"
     transform="translate(0,32)"
     style="opacity:0.35">
    <rect
       id="rect4116"
       width="22"
       height="22"
       x="0"
       y="0"
       rx="0"
       ry="0"
       style="fill:none" />
    <g
       id="g4124"
       transform="matrix(1.0000278,0,0,1.0000278,21.059053,0.4999442)">
      <path
         id="path4118"
         class="ColorScheme-Text"
         d="m -10.058594,2.2586207 c -3.427582,0 -6.204202,2.7881232 -6.204202,6.2277747 0,2.0275836 0.954676,3.8133236 2.463294,4.9478046 0.68793,0.518964 1.265828,1.194546 1.265828,2.123854 l 0.06128,1.183325 h 4.827587 l 0.073075,-1.183325 c 0.048275,-0.929308 0.5661106,-1.60489 1.2540404,-2.123854 1.5086195,-1.134481 2.4632952,-2.92022 2.4632952,-4.9478046 -1.4e-6,-3.4396515 -2.7766178,-6.2277747 -6.2042006,-6.2277747 z m 0,1.2068965 c 2.7731369,0 4.997306,2.2305535 4.997306,5.0208782 0,1.6492316 -0.7649298,3.0681456 -1.9824217,3.9837016 -0.854397,0.644543 -1.6581371,1.674664 -1.7325567,3.014884 v 0.0071 l -0.00235,0.0047 -0.00236,0.03768 h -2.5434396 l -0.0025,-0.03772 v 0.06128 c -4e-6,-1.430874 -0.916649,-2.461779 -1.746701,-3.087958 -1.217441,-0.91556 -1.982421,-2.334471 -1.982421,-3.9837017 5.7e-5,-2.7903236 2.224225,-5.020877 4.997363,-5.020877 z"
         style="opacity:1;fill:#fbfffb;fill-opacity:1;stroke:#fbfffb;stroke-width:0.517241;stroke-linecap:round;stroke-linejoin:round;stroke-dasharray:none;stroke-opacity:1" />
      <rect
         style="font-variation-settings:'wght' 700;opacity:1;fill:#fbfbfb;fill-opacity:1;fill-rule:evenodd;stroke:none;paint-order:stroke fill markers"
         id="rect4120"
         width="4"
         height="1"
         x="-12.058594"
         y="19"
         ry="0.5" />
    </g>
  </g>
  <g
     id="redshift-status-on">
    <rect
       style="opacity:0.45;fill:none;stroke-width:0.290909;stroke-linecap:round;stroke-linejoin:round;paint-order:stroke fill markers;stop-color:#000000"
       id="rect850"
       width="32"
       height="32"
       x="23"
       y="-5"
       rx="0"
       ry="0" />
    <g
       id="g5696"
       transform="translate(0,37)">
      <path
         id="path404"
         class="ColorScheme-Text"
         d="m 39,-37.25 c -3.89583,0 -7,3.384303 -7,7.449219 0,2.39275 1.05571,4.536795 2.753906,5.904297 0.337692,0.272804 0.676591,0.551174 0.894532,0.808593 0.218203,0.25773 0.292968,0.441968 0.292968,0.613282 v 0.02344 L 36.046875,-20.25 h 5.898437 l 0.123047,-2.171875 v -0.0039 c 0.01981,-0.408279 0.524354,-0.942737 1.177735,-1.470703 h 0.002 C 44.945612,-25.264034 46,-27.408574 46,-29.800781 46,-33.865697 42.89583,-37.25 39,-37.25 Z m 0,1 c 3.155196,0 6.003906,2.756262 6.003906,6.287109 0,2.085276 -0.908673,3.883934 -2.316406,5.017579 h -0.002 c -1.404825,1.239505 -1.668207,1.627896 -1.758007,3.371093 v 0.0039 L 40.908008,-21.25 h -3.754661 l -0.01367,-0.316406 c -0.0037,-0.886673 -0.03468,-1.614852 -0.481472,-2.142578 -0.456469,-0.539158 -0.964177,-0.931279 -1.341797,-1.236328 h -0.0039 c -1.407734,-1.133649 -2.316406,-2.932303 -2.316406,-5.017579 C 32.996094,-33.493738 35.844804,-36.25 39,-36.25 Z"
         sodipodi:nodetypes="sscsscccccccsssscccccccsccss"
         style="fill:#fbfbfb;fill-opacity:1;stroke:#fbfffb;stroke-width:0.5;stroke-dasharray:none;stroke-opacity:1;stroke-linejoin:round;stroke-linecap:round" />
      <path
         id="path5671"
         style="font-variation-settings:'wght' 700;opacity:0.35;fill:#fbfbfb;fill-opacity:1;fill-rule:evenodd;stroke:none;paint-order:stroke fill markers"
         d="m 36,-18 c 0,0.03462 0.0025,0.06786 0.0059,0.101562 0.0034,0.0337 0.007,0.067 0.01367,0.09961 0.0066,0.03261 0.01568,0.0663 0.02539,0.09766 0.0097,0.03135 0.02059,0.06187 0.0332,0.0918 0.01262,0.02993 0.02761,0.05759 0.04297,0.08594 0.01536,0.02834 0.03089,0.05739 0.04883,0.08398 0.01794,0.02659 0.03825,0.0515 0.05859,0.07617 0.02035,0.02468 0.04186,0.04772 0.06445,0.07031 0.02259,0.02259 0.04564,0.04411 0.07031,0.06445 0.02468,0.02035 0.04958,0.04066 0.07617,0.05859 0.02659,0.01794 0.05564,0.03347 0.08398,0.04883 0.02834,0.01536 0.05601,0.03035 0.08594,0.04297 0.02993,0.01262 0.06045,0.02349 0.0918,0.0332 0.03135,0.0097 0.06505,0.01875 0.09766,0.02539 0.03261,0.0066 0.06591,0.01027 0.09961,0.01367 C 36.932097,-17.002459 36.965378,-17 37,-17 h 4 c 0.03462,0 0.06786,-0.0025 0.101562,-0.0059 0.0337,-0.0034 0.067,-0.007 0.09961,-0.01367 0.03261,-0.0066 0.0663,-0.01568 0.09766,-0.02539 0.03135,-0.0097 0.06187,-0.02059 0.0918,-0.0332 0.02993,-0.01262 0.05759,-0.02761 0.08594,-0.04297 0.02834,-0.01536 0.05739,-0.03089 0.08398,-0.04883 0.02659,-0.01794 0.0515,-0.03825 0.07617,-0.05859 0.02468,-0.02035 0.04772,-0.04186 0.07031,-0.06445 0.02259,-0.02259 0.04411,-0.04564 0.06445,-0.07031 0.02035,-0.02468 0.04066,-0.04958 0.05859,-0.07617 0.01794,-0.02659 0.03347,-0.05564 0.04883,-0.08398 0.01536,-0.02834 0.03035,-0.05601 0.04297,-0.08594 0.01262,-0.02993 0.02349,-0.06045 0.0332,-0.0918 0.0097,-0.03135 0.01875,-0.06505 0.02539,-0.09766 0.0066,-0.03261 0.01027,-0.06591 0.01367,-0.09961 C 41.997541,-17.932107 42,-17.965378 42,-18 Z"
         sodipodi:nodetypes="cscscssssscssccsssscscssssssssccscc" />
      <path
         id="path5685"
         style="font-variation-settings:'wght' 700;opacity:0.35;fill:#fbfbfb;fill-opacity:1;fill-rule:evenodd;stroke:none;paint-order:stroke fill markers"
         d="m 37,-15 c 0,0.03462 0.0025,0.06786 0.0059,0.101562 0.0034,0.0337 0.007,0.067 0.01367,0.09961 0.0066,0.03261 0.01568,0.0663 0.02539,0.09766 0.0097,0.03135 0.02059,0.06187 0.0332,0.0918 0.01262,0.02993 0.02761,0.05759 0.04297,0.08594 0.01536,0.02834 0.03089,0.05739 0.04883,0.08399 0.01794,0.02659 0.03825,0.0515 0.05859,0.07617 0.02035,0.02468 0.04186,0.04772 0.06445,0.07031 0.02259,0.02259 0.04564,0.04411 0.07031,0.06445 0.02468,0.02035 0.04958,0.04066 0.07617,0.05859 0.02659,0.01794 0.05564,0.03347 0.08398,0.04883 0.02834,0.01536 0.05601,0.03035 0.08594,0.04297 0.02993,0.01262 0.06045,0.02349 0.0918,0.0332 0.03135,0.0097 0.06505,0.01875 0.09766,0.02539 0.03261,0.0066 0.06591,0.01027 0.09961,0.01367 0.0336,0.0034 0.0669,0.0059 0.10153,0.0059 h 2 c 0.03462,0 0.06786,-0.0025 0.101562,-0.0059 0.0337,-0.0034 0.067,-0.007 0.09961,-0.01367 0.03261,-0.0066 0.0663,-0.01568 0.09766,-0.02539 0.03135,-0.0097 0.06187,-0.02059 0.0918,-0.0332 0.02993,-0.01262 0.05759,-0.02761 0.08594,-0.04297 0.02834,-0.01536 0.05739,-0.03089 0.08398,-0.04883 0.02659,-0.01794 0.0515,-0.03825 0.07617,-0.05859 0.02468,-0.02035 0.04772,-0.04186 0.07031,-0.06445 0.02259,-0.02259 0.04411,-0.04564 0.06445,-0.07031 0.02035,-0.02468 0.04066,-0.04958 0.05859,-0.07617 0.01794,-0.02659 0.03347,-0.05565 0.04883,-0.08399 0.01536,-0.02834 0.03035,-0.05601 0.04297,-0.08594 0.01262,-0.02993 0.02349,-0.06045 0.0332,-0.0918 0.0097,-0.03135 0.01875,-0.06505 0.02539,-0.09766 0.0066,-0.03261 0.01027,-0.06591 0.01367,-0.09961 C 40.99756,-14.932101 41,-14.965375 41,-15 Z"
         sodipodi:nodetypes="cscscssssscssccsssscscssssssssccccc" />
    </g>
  </g>
  <g
     id="redshift-status-off"
     transform="translate(0,35)"
     style="opacity:0.5">
    <rect
       style="opacity:0.45;fill:none;stroke-width:0.290909;stroke-linecap:round;stroke-linejoin:round;paint-order:stroke fill markers;stop-color:#000000"
       id="rect7886"
       width="32"
       height="32"
       x="23"
       y="-5"
       rx="0"
       ry="0" />
    <g
       id="g7894"
       transform="translate(0,37)">
      <path
         id="path7888"
         class="ColorScheme-Text"
         d="m 39,-37.25 c -3.89583,0 -7,3.384303 -7,7.449219 0,2.39275 1.05571,4.536795 2.753906,5.904297 0.337692,0.272804 0.676591,0.551174 0.894532,0.808593 0.218203,0.25773 0.292968,0.441968 0.292968,0.613282 v 0.02344 L 36.046875,-20.25 h 5.898437 l 0.123047,-2.171875 v -0.0039 c 0.01981,-0.408279 0.524354,-0.942737 1.177735,-1.470703 h 0.002 C 44.945612,-25.264034 46,-27.408574 46,-29.800781 46,-33.865697 42.89583,-37.25 39,-37.25 Z m 0,1 c 3.155196,0 6.003906,2.756262 6.003906,6.287109 0,2.085276 -0.908673,3.883934 -2.316406,5.017579 h -0.002 c -1.404825,1.239505 -1.668207,1.627896 -1.758007,3.371093 v 0.0039 L 40.908008,-21.25 h -3.754661 l -0.01367,-0.316406 c -0.0037,-0.886673 -0.03468,-1.614852 -0.481472,-2.142578 -0.456469,-0.539158 -0.964177,-0.931279 -1.341797,-1.236328 h -0.0039 c -1.407734,-1.133649 -2.316406,-2.932303 -2.316406,-5.017579 C 32.996094,-33.493738 35.844804,-36.25 39,-36.25 Z"
         sodipodi:nodetypes="sscsscccccccsssscccccccsccss"
         style="fill:#fbfbfb;fill-opacity:1;stroke:#fbfffb;stroke-width:0.5;stroke-dasharray:none;stroke-opacity:1;stroke-linejoin:round;stroke-linecap:round" />
      <path
         id="path7890"
         style="font-variation-settings:'wght' 700;opacity:1;fill:#fbfbfb;fill-opacity:1;fill-rule:evenodd;stroke:none;paint-order:stroke fill markers"
         d="m 36,-18 c 0,0.03462 0.0025,0.06786 0.0059,0.101562 0.0034,0.0337 0.007,0.067 0.01367,0.09961 0.0066,0.03261 0.01568,0.0663 0.02539,0.09766 0.0097,0.03135 0.02059,0.06187 0.0332,0.0918 0.01262,0.02993 0.02761,0.05759 0.04297,0.08594 0.01536,0.02834 0.03089,0.05739 0.04883,0.08398 0.01794,0.02659 0.03825,0.0515 0.05859,0.07617 0.02035,0.02468 0.04186,0.04772 0.06445,0.07031 0.02259,0.02259 0.04564,0.04411 0.07031,0.06445 0.02468,0.02035 0.04958,0.04066 0.07617,0.05859 0.02659,0.01794 0.05564,0.03347 0.08398,0.04883 0.02834,0.01536 0.05601,0.03035 0.08594,0.04297 0.02993,0.01262 0.06045,0.02349 0.0918,0.0332 0.03135,0.0097 0.06505,0.01875 0.09766,0.02539 0.03261,0.0066 0.06591,0.01027 0.09961,0.01367 C 36.932097,-17.002459 36.965378,-17 37,-17 h 4 c 0.03462,0 0.06786,-0.0025 0.101562,-0.0059 0.0337,-0.0034 0.067,-0.007 0.09961,-0.01367 0.03261,-0.0066 0.0663,-0.01568 0.09766,-0.02539 0.03135,-0.0097 0.06187,-0.02059 0.0918,-0.0332 0.02993,-0.01262 0.05759,-0.02761 0.08594,-0.04297 0.02834,-0.01536 0.05739,-0.03089 0.08398,-0.04883 0.02659,-0.01794 0.0515,-0.03825 0.07617,-0.05859 0.02468,-0.02035 0.04772,-0.04186 0.07031,-0.06445 0.02259,-0.02259 0.04411,-0.04564 0.06445,-0.07031 0.02035,-0.02468 0.04066,-0.04958 0.05859,-0.07617 0.01794,-0.02659 0.03347,-0.05564 0.04883,-0.08398 0.01536,-0.02834 0.03035,-0.05601 0.04297,-0.08594 0.01262,-0.02993 0.02349,-0.06045 0.0332,-0.0918 0.0097,-0.03135 0.01875,-0.06505 0.02539,-0.09766 0.0066,-0.03261 0.01027,-0.06591 0.01367,-0.09961 C 41.997541,-17.932107 42,-17.965378 42,-18 Z"
         sodipodi:nodetypes="cscscssssscssccsssscscssssssssccscc" />
      <path
         id="path7892"
         style="font-variation-settings:'wght' 700;opacity:1;fill:#fbfbfb;fill-opacity:1;fill-rule:evenodd;stroke:none;paint-order:stroke fill markers"
         d="m 37,-15 c 0,0.03462 0.0025,0.06786 0.0059,0.101562 0.0034,0.0337 0.007,0.067 0.01367,0.09961 0.0066,0.03261 0.01568,0.0663 0.02539,0.09766 0.0097,0.03135 0.02059,0.06187 0.0332,0.0918 0.01262,0.02993 0.02761,0.05759 0.04297,0.08594 0.01536,0.02834 0.03089,0.05739 0.04883,0.08399 0.01794,0.02659 0.03825,0.0515 0.05859,0.07617 0.02035,0.02468 0.04186,0.04772 0.06445,0.07031 0.02259,0.02259 0.04564,0.04411 0.07031,0.06445 0.02468,0.02035 0.04958,0.04066 0.07617,0.05859 0.02659,0.01794 0.05564,0.03347 0.08398,0.04883 0.02834,0.01536 0.05601,0.03035 0.08594,0.04297 0.02993,0.01262 0.06045,0.02349 0.0918,0.0332 0.03135,0.0097 0.06505,0.01875 0.09766,0.02539 0.03261,0.0066 0.06591,0.01027 0.09961,0.01367 0.0336,0.0034 0.0669,0.0059 0.10153,0.0059 h 2 c 0.03462,0 0.06786,-0.0025 0.101562,-0.0059 0.0337,-0.0034 0.067,-0.007 0.09961,-0.01367 0.03261,-0.0066 0.0663,-0.01568 0.09766,-0.02539 0.03135,-0.0097 0.06187,-0.02059 0.0918,-0.0332 0.02993,-0.01262 0.05759,-0.02761 0.08594,-0.04297 0.02834,-0.01536 0.05739,-0.03089 0.08398,-0.04883 0.02659,-0.01794 0.0515,-0.03825 0.07617,-0.05859 0.02468,-0.02035 0.04772,-0.04186 0.07031,-0.06445 0.02259,-0.02259 0.04411,-0.04564 0.06445,-0.07031 0.02035,-0.02468 0.04066,-0.04958 0.05859,-0.07617 0.01794,-0.02659 0.03347,-0.05565 0.04883,-0.08399 0.01536,-0.02834 0.03035,-0.05601 0.04297,-0.08594 0.01262,-0.02993 0.02349,-0.06045 0.0332,-0.0918 0.0097,-0.03135 0.01875,-0.06505 0.02539,-0.09766 0.0066,-0.03261 0.01027,-0.06591 0.01367,-0.09961 C 40.99756,-14.932101 41,-14.965375 41,-15 Z"
         sodipodi:nodetypes="cscscssssscssccsssscscssssssssccccc" />
    </g>
  </g>
  <g
     id="g4"
     transform="matrix(0.6875,0,0,0.6875,-15.8125,3.4375)"
     style="display:none">
    <rect
       style="opacity:0.45;fill:none;stroke-width:0.290909;stroke-linecap:round;stroke-linejoin:round;paint-order:stroke fill markers;stop-color:#000000"
       id="rect1"
       width="32"
       height="32"
       x="23"
       y="-5"
       rx="0"
       ry="0" />
    <g
       id="g3"
       transform="translate(0,37)">
      <path
         id="path1"
         class="ColorScheme-Text"
         d="m 39,-37.25 c -3.89583,0 -7,3.384303 -7,7.449219 0,2.39275 1.05571,4.536795 2.753906,5.904297 0.337692,0.272804 0.676591,0.551174 0.894532,0.808593 0.218203,0.25773 0.292968,0.441968 0.292968,0.613282 v 0.02344 L 36.046875,-20.25 h 5.898437 l 0.123047,-2.171875 v -0.0039 c 0.01981,-0.408279 0.524354,-0.942737 1.177735,-1.470703 h 0.002 C 44.945612,-25.264034 46,-27.408574 46,-29.800781 46,-33.865697 42.89583,-37.25 39,-37.25 Z m 0,1 c 3.155196,0 6.003906,2.756262 6.003906,6.287109 0,2.085276 -0.908673,3.883934 -2.316406,5.017579 h -0.002 c -1.404825,1.239505 -1.668207,1.627896 -1.758007,3.371093 v 0.0039 L 40.908008,-21.25 h -3.754661 l -0.01367,-0.316406 c -0.0037,-0.886673 -0.03468,-1.614852 -0.481472,-2.142578 -0.456469,-0.539158 -0.964177,-0.931279 -1.341797,-1.236328 h -0.0039 c -1.407734,-1.133649 -2.316406,-2.932303 -2.316406,-5.017579 C 32.996094,-33.493738 35.844804,-36.25 39,-36.25 Z"
         sodipodi:nodetypes="sscsscccccccsssscccccccsccss"
         style="fill:#fbfbfb;fill-opacity:1;stroke:#fbfffb;stroke-width:0.5;stroke-linecap:round;stroke-linejoin:round;stroke-dasharray:none;stroke-opacity:1" />
      <path
         id="path2"
         style="font-variation-settings:'wght' 700;opacity:0.35;fill:#fbfbfb;fill-opacity:1;fill-rule:evenodd;stroke:none;paint-order:stroke fill markers"
         d="m 36,-18 c 0,0.03462 0.0025,0.06786 0.0059,0.101562 0.0034,0.0337 0.007,0.067 0.01367,0.09961 0.0066,0.03261 0.01568,0.0663 0.02539,0.09766 0.0097,0.03135 0.02059,0.06187 0.0332,0.0918 0.01262,0.02993 0.02761,0.05759 0.04297,0.08594 0.01536,0.02834 0.03089,0.05739 0.04883,0.08398 0.01794,0.02659 0.03825,0.0515 0.05859,0.07617 0.02035,0.02468 0.04186,0.04772 0.06445,0.07031 0.02259,0.02259 0.04564,0.04411 0.07031,0.06445 0.02468,0.02035 0.04958,0.04066 0.07617,0.05859 0.02659,0.01794 0.05564,0.03347 0.08398,0.04883 0.02834,0.01536 0.05601,0.03035 0.08594,0.04297 0.02993,0.01262 0.06045,0.02349 0.0918,0.0332 0.03135,0.0097 0.06505,0.01875 0.09766,0.02539 0.03261,0.0066 0.06591,0.01027 0.09961,0.01367 C 36.932097,-17.002459 36.965378,-17 37,-17 h 4 c 0.03462,0 0.06786,-0.0025 0.101562,-0.0059 0.0337,-0.0034 0.067,-0.007 0.09961,-0.01367 0.03261,-0.0066 0.0663,-0.01568 0.09766,-0.02539 0.03135,-0.0097 0.06187,-0.02059 0.0918,-0.0332 0.02993,-0.01262 0.05759,-0.02761 0.08594,-0.04297 0.02834,-0.01536 0.05739,-0.03089 0.08398,-0.04883 0.02659,-0.01794 0.0515,-0.03825 0.07617,-0.05859 0.02468,-0.02035 0.04772,-0.04186 0.07031,-0.06445 0.02259,-0.02259 0.04411,-0.04564 0.06445,-0.07031 0.02035,-0.02468 0.04066,-0.04958 0.05859,-0.07617 0.01794,-0.02659 0.03347,-0.05564 0.04883,-0.08398 0.01536,-0.02834 0.03035,-0.05601 0.04297,-0.08594 0.01262,-0.02993 0.02349,-0.06045 0.0332,-0.0918 0.0097,-0.03135 0.01875,-0.06505 0.02539,-0.09766 0.0066,-0.03261 0.01027,-0.06591 0.01367,-0.09961 C 41.997541,-17.932107 42,-17.965378 42,-18 Z"
         sodipodi:nodetypes="cscscssssscssccsssscscssssssssccscc" />
      <path
         id="path3"
         style="font-variation-settings:'wght' 700;opacity:0.35;fill:#fbfbfb;fill-opacity:1;fill-rule:evenodd;stroke:none;paint-order:stroke fill markers"
         d="m 37,-15 c 0,0.03462 0.0025,0.06786 0.0059,0.101562 0.0034,0.0337 0.007,0.067 0.01367,0.09961 0.0066,0.03261 0.01568,0.0663 0.02539,0.09766 0.0097,0.03135 0.02059,0.06187 0.0332,0.0918 0.01262,0.02993 0.02761,0.05759 0.04297,0.08594 0.01536,0.02834 0.03089,0.05739 0.04883,0.08399 0.01794,0.02659 0.03825,0.0515 0.05859,0.07617 0.02035,0.02468 0.04186,0.04772 0.06445,0.07031 0.02259,0.02259 0.04564,0.04411 0.07031,0.06445 0.02468,0.02035 0.04958,0.04066 0.07617,0.05859 0.02659,0.01794 0.05564,0.03347 0.08398,0.04883 0.02834,0.01536 0.05601,0.03035 0.08594,0.04297 0.02993,0.01262 0.06045,0.02349 0.0918,0.0332 0.03135,0.0097 0.06505,0.01875 0.09766,0.02539 0.03261,0.0066 0.06591,0.01027 0.09961,0.01367 0.0336,0.0034 0.0669,0.0059 0.10153,0.0059 h 2 c 0.03462,0 0.06786,-0.0025 0.101562,-0.0059 0.0337,-0.0034 0.067,-0.007 0.09961,-0.01367 0.03261,-0.0066 0.0663,-0.01568 0.09766,-0.02539 0.03135,-0.0097 0.06187,-0.02059 0.0918,-0.0332 0.02993,-0.01262 0.05759,-0.02761 0.08594,-0.04297 0.02834,-0.01536 0.05739,-0.03089 0.08398,-0.04883 0.02659,-0.01794 0.0515,-0.03825 0.07617,-0.05859 0.02468,-0.02035 0.04772,-0.04186 0.07031,-0.06445 0.02259,-0.02259 0.04411,-0.04564 0.06445,-0.07031 0.02035,-0.02468 0.04066,-0.04958 0.05859,-0.07617 0.01794,-0.02659 0.03347,-0.05565 0.04883,-0.08399 0.01536,-0.02834 0.03035,-0.05601 0.04297,-0.08594 0.01262,-0.02993 0.02349,-0.06045 0.0332,-0.0918 0.0097,-0.03135 0.01875,-0.06505 0.02539,-0.09766 0.0066,-0.03261 0.01027,-0.06591 0.01367,-0.09961 C 40.99756,-14.932101 41,-14.965375 41,-15 Z"
         sodipodi:nodetypes="cscscssssscssccsssscscssssssssccccc" />
    </g>
  </g>
</svg>
