<?xml version="1.0" encoding="UTF-8" standalone="no"?>
<svg
   id="svg4153"
   version="1.1"
   viewBox="0 0 22 22"
   sodipodi:docname="user.svgz"
   inkscape:version="1.2.1 (9c6d41e410, 2022-07-14, custom)"
   xmlns:inkscape="http://www.inkscape.org/namespaces/inkscape"
   xmlns:sodipodi="http://sodipodi.sourceforge.net/DTD/sodipodi-0.dtd"
   xmlns="http://www.w3.org/2000/svg"
   xmlns:svg="http://www.w3.org/2000/svg"
   xmlns:rdf="http://www.w3.org/1999/02/22-rdf-syntax-ns#"
   xmlns:cc="http://creativecommons.org/ns#"
   xmlns:dc="http://purl.org/dc/elements/1.1/">
  <metadata
     id="metadata64">
    <rdf:RDF>
      <cc:Work
         rdf:about="">
        <dc:format>image/svg+xml</dc:format>
        <dc:type
           rdf:resource="http://purl.org/dc/dcmitype/StillImage" />
        <dc:title />
      </cc:Work>
    </rdf:RDF>
  </metadata>
  <defs
     id="defs62" />
  <sodipodi:namedview
     pagecolor="#c8c8c8"
     bordercolor="#666666"
     borderopacity="1"
     objecttolerance="10"
     gridtolerance="10"
     guidetolerance="10"
     inkscape:pageopacity="0"
     inkscape:pageshadow="2"
     inkscape:window-width="1920"
     inkscape:window-height="1005"
     id="namedview60"
     showgrid="true"
     inkscape:zoom="2.828427"
     inkscape:cx="-71.771342"
     inkscape:cy="53.563341"
     inkscape:window-x="0"
     inkscape:window-y="0"
     inkscape:window-maximized="1"
     inkscape:current-layer="svg4153"
     inkscape:showpageshadow="0"
     inkscape:pagecheckerboard="0"
     inkscape:deskcolor="#c8c8c8">
    <inkscape:grid
       type="xygrid"
       id="grid874" />
  </sodipodi:namedview>
  <style
     id="current-color-scheme"
     type="text/css">
        .ColorScheme-Text {
            color:#232629;
        }
        .ColorScheme-Background {
            color:#eff0f1;
        }
    </style>
  <g
     id="16-16-user-desktop"
     transform="translate(-270)">
    <path
       id="rect856"
       d="m-48 16h16v16h-16z"
       fill="none" />
    <path
       id="path828"
       class="ColorScheme-Text"
       d="m-46 18v12h12v-12zm1 1h10v10h-10v-1zm1 8v1h8v-1z"
       fill="currentColor"
       style="fill:#eaeaea;fill-opacity:1" />
  </g>
  <g
     id="22-22-user-desktop"
     transform="translate(-270)">
    <path
       id="rect850"
       d="m-22 10h22v22h-22z"
       fill="none" />
    <path
       id="path840"
       class="ColorScheme-Text"
       d="m-19 13v16h16v-16zm1 1h14v14h-14zm1 12v1h12v-1z"
       fill="currentColor"
       style="fill:#eaeaea;fill-opacity:1" />
  </g>
  <g
     id="32-32-user-desktop"
     transform="translate(-260)">
    <path
       id="rect844"
       d="m0 0h32v32h-32z"
       fill="none" />
    <path
       id="path819"
       class="ColorScheme-Text"
       d="m4 4v24h24v-24zm1 1h22v22h-22zm2 19v1h18v-1z"
       fill="currentColor"
       style="fill:#eaeaea;fill-opacity:1" />
  </g>
  <g
     id="48-48-user-desktop"
     transform="translate(-260)">
    <path
       id="rect846"
       d="m42-16h48v48h-48z"
       fill="none" />
    <path
       id="path819-3"
       class="ColorScheme-Text"
       d="m48-10v36h36v-36zm2 2h32v32h-32zm2 28v2h28v-2z"
       fill="currentColor"
       style="fill:#eaeaea;fill-opacity:1" />
  </g>
  <g
     id="user-desktop"
     transform="translate(-260)">
    <path
       id="rect846-6"
       d="m100-32h64v64h-64z"
       fill="none" />
    <path
       id="path819-3-7"
       class="ColorScheme-Text"
       d="m108-24v48h48v-48zm2 2h44v44h-44zm3 39v2h38v-2z"
       fill="currentColor"
       style="fill:#eaeaea;fill-opacity:1" />
  </g>
  <g
     id="user-online"
     transform="translate(-4.9121094e-6,22)">
    <g
       id="22-22-system-switch-user"
       transform="translate(-171.05453,-64)">
      <rect
         id="rect4220-6"
         width="22"
         height="22"
         x="171.05453"
         y="42"
         style="opacity:0.00100002;fill:currentColor;fill-opacity:1;stroke:none;stroke-width:2;stroke-linecap:round;stroke-linejoin:round;stroke-miterlimit:4;stroke-dasharray:none;stroke-opacity:1" />
      <g
         id="g3561"
         transform="translate(-0.94546503,-23.779429)">
        <path
           id="path3545"
           style="fill:none;fill-opacity:1;stroke:#43be80;stroke-width:1;stroke-linecap:round;stroke-miterlimit:4;stroke-dasharray:none;stroke-opacity:1"
           sodipodi:type="arc"
           sodipodi:cx="183"
           sodipodi:cy="85.779427"
           sodipodi:rx="7.5"
           sodipodi:ry="7.5"
           sodipodi:start="3.403392"
           sodipodi:end="4.712389"
           sodipodi:arc-type="arc"
           sodipodi:open="true"
           d="M 175.75556,83.838284 A 7.5,7.5 0 0 1 183,78.279427" />
        <circle
           id="path3557"
           style="fill:none;fill-opacity:1;stroke:#43be80;stroke-width:1;stroke-linecap:round;stroke-miterlimit:4;stroke-dasharray:none;stroke-opacity:1"
           cx="183"
           cy="73.779427"
           r="4.5" />
      </g>
    </g>
    <circle
       style="fill:#43be80;fill-opacity:1;fill-rule:evenodd;stroke-width:35.9773;stroke-linecap:round;stroke-linejoin:round;paint-order:stroke fill markers"
       id="path3067"
       cx="16"
       cy="-6"
       r="4" />
    <g
       id="g3576">
      <rect
         style="fill:#fbfbfb;fill-opacity:1;fill-rule:evenodd;stroke-width:19.6821;stroke-linecap:round;stroke-linejoin:round;paint-order:stroke fill markers"
         id="rect3449"
         width="5"
         height="1"
         x="13.642779"
         y="7.2781749"
         ry="0.5"
         transform="rotate(-45)" />
      <rect
         style="fill:#fbfbfb;fill-opacity:1;fill-rule:evenodd;stroke-width:15.2457;stroke-linecap:round;stroke-linejoin:round;paint-order:stroke fill markers"
         id="rect3520"
         width="3"
         height="1"
         x="5.2775316"
         y="-14.642136"
         ry="0.5"
         transform="rotate(45)" />
    </g>
  </g>
  <g
     id="user-invisible"
     transform="translate(0,22)">
    <g
       id="g3663"
       transform="translate(-149.05453,-64)">
      <rect
         id="rect3655"
         width="22"
         height="22"
         x="171.05453"
         y="42"
         style="opacity:0.00100002;fill:currentColor;fill-opacity:1;stroke:none;stroke-width:2;stroke-linecap:round;stroke-linejoin:round;stroke-miterlimit:4;stroke-dasharray:none;stroke-opacity:1" />
      <g
         id="g3661"
         transform="translate(-0.94546503,-23.779429)">
        <path
           id="path3657"
           style="fill:none;fill-opacity:1;stroke:#fbfbfb;stroke-width:1;stroke-linecap:round;stroke-miterlimit:4;stroke-dasharray:none;stroke-opacity:1"
           sodipodi:type="arc"
           sodipodi:cx="183"
           sodipodi:cy="85.779427"
           sodipodi:rx="7.5"
           sodipodi:ry="7.5"
           sodipodi:start="3.403392"
           sodipodi:end="4.712389"
           sodipodi:arc-type="arc"
           sodipodi:open="true"
           d="M 175.75556,83.838284 A 7.5,7.5 0 0 1 183,78.279427" />
        <circle
           id="circle3659"
           style="fill:none;fill-opacity:1;stroke:#fbfbfb;stroke-width:1;stroke-linecap:round;stroke-miterlimit:4;stroke-dasharray:none;stroke-opacity:1"
           cx="183"
           cy="73.779427"
           r="4.5" />
      </g>
    </g>
    <path
       id="circle3665"
       style="fill:#fbfbfb;fill-opacity:1;fill-rule:evenodd;stroke-width:35.9773;stroke-linecap:round;stroke-linejoin:round;paint-order:stroke fill markers"
       d="m 38,-10 a 4,4 0 0 0 -4,4 4,4 0 0 0 4,4 4,4 0 0 0 4,-4 4,4 0 0 0 -4,-4 z m 1.414062,2.0859375 c 0.12781,0 0.255582,0.04855 0.353516,0.1464844 0.195869,0.1958684 0.195869,0.5111628 0,0.7070312 l -2.828125,2.828125 c -0.195868,0.1958684 -0.511163,0.1958684 -0.707031,0 -0.195869,-0.1958684 -0.195869,-0.5111628 0,-0.7070312 l 2.828125,-2.828125 c 0.09793,-0.097934 0.225706,-0.1464844 0.353515,-0.1464844 z" />
  </g>
  <g
     id="g3671"
     transform="translate(21.999995)" />
  <g
     id="user-away-extended"
     transform="translate(0,22)">
    <rect
       id="rect6430"
       width="22"
       height="22"
       x="43.999996"
       y="-22"
       style="opacity:0.00100002;fill:currentColor;fill-opacity:1;stroke:none;stroke-width:2;stroke-linecap:round;stroke-linejoin:round;stroke-miterlimit:4;stroke-dasharray:none;stroke-opacity:1" />
    <g
       id="g6839">
      <path
         id="path6432"
         style="fill:none;fill-opacity:1;stroke:#9b59b6;stroke-width:1;stroke-linecap:round;stroke-miterlimit:4;stroke-dasharray:none;stroke-opacity:1"
         sodipodi:type="arc"
         sodipodi:cx="54.999989"
         sodipodi:cy="-2.0000024"
         sodipodi:rx="7.5"
         sodipodi:ry="7.5"
         sodipodi:start="3.403392"
         sodipodi:end="4.712389"
         sodipodi:arc-type="arc"
         sodipodi:open="true"
         d="m 47.755545,-3.9411449 a 7.5,7.5 0 0 1 7.244444,-5.5588575" />
      <circle
         id="circle6434"
         style="fill:none;fill-opacity:1;stroke:#9b59b6;stroke-width:1;stroke-linecap:round;stroke-miterlimit:4;stroke-dasharray:none;stroke-opacity:1"
         cx="54.999989"
         cy="-14.000003"
         r="4.5" />
    </g>
    <circle
       style="fill:#9b59b6;fill-opacity:1;fill-rule:evenodd;stroke:none;stroke-width:25.6468;stroke-linecap:round;stroke-linejoin:round;stroke-opacity:1;paint-order:stroke fill markers"
       id="path6772"
       cx="60"
       cy="-6"
       r="4" />
    <g
       id="g6971"
       transform="translate(-0.5,-0.5)">
      <circle
         style="opacity:0.8;fill:#fbfbfb;fill-opacity:1;fill-rule:evenodd;stroke:none;stroke-width:22.5924;stroke-linecap:round;stroke-linejoin:round;stroke-opacity:1;paint-order:stroke fill markers"
         id="path6893"
         cx="58.5"
         cy="-5.5"
         r="0.5" />
      <circle
         style="opacity:0.5;fill:#fbfbfb;fill-opacity:1;fill-rule:evenodd;stroke:none;stroke-width:22.5924;stroke-linecap:round;stroke-linejoin:round;stroke-opacity:1;paint-order:stroke fill markers"
         id="circle6964"
         cx="60.5"
         cy="-5.5"
         r="0.5" />
      <circle
         style="opacity:0.2;fill:#fbfbfb;fill-opacity:1;fill-rule:evenodd;stroke:none;stroke-width:22.5924;stroke-linecap:round;stroke-linejoin:round;stroke-opacity:1;paint-order:stroke fill markers"
         id="circle6966"
         cx="62.5"
         cy="-5.5"
         r="0.5" />
    </g>
  </g>
  <g
     id="user-offline"
     transform="translate(-4.9121094e-6,22)">
    <g
       id="g361"
       transform="translate(-193.05453,-64)">
      <rect
         id="rect353"
         width="22"
         height="22"
         x="171.05453"
         y="42"
         style="opacity:0.00100002;fill:currentColor;fill-opacity:1;stroke:none;stroke-width:2;stroke-linecap:round;stroke-linejoin:round;stroke-miterlimit:4;stroke-dasharray:none;stroke-opacity:1" />
      <g
         id="g359"
         transform="translate(-0.94546503,-23.779429)">
        <path
           id="path355"
           style="fill:none;fill-opacity:1;stroke:#fbfbfb;stroke-width:1;stroke-linecap:round;stroke-miterlimit:4;stroke-dasharray:none;stroke-opacity:1"
           sodipodi:type="arc"
           sodipodi:cx="183"
           sodipodi:cy="85.779427"
           sodipodi:rx="7.5"
           sodipodi:ry="7.5"
           sodipodi:start="3.403392"
           sodipodi:end="4.712389"
           sodipodi:arc-type="arc"
           sodipodi:open="true"
           d="M 175.75556,83.838284 A 7.5,7.5 0 0 1 183,78.279427" />
        <circle
           id="circle357"
           style="fill:none;fill-opacity:1;stroke:#fbfbfb;stroke-width:1;stroke-linecap:round;stroke-miterlimit:4;stroke-dasharray:none;stroke-opacity:1"
           cx="183"
           cy="73.779427"
           r="4.5" />
      </g>
    </g>
    <path
       id="path363"
       style="fill:#ebebeb;fill-opacity:1;fill-rule:evenodd;stroke-width:35.9773;stroke-linecap:round;stroke-linejoin:round;paint-order:stroke fill markers"
       d="m -6,-8.9746094 a 3,3 0 0 0 -0.46875,0.037109 3,3 0 0 0 -0.4589844,0.1113281 3,3 0 0 0 -0.4335937,0.1796875 3,3 0 0 0 -0.4023438,0.2460938 3,3 0 0 0 -0.3574219,0.3046875 3,3 0 0 0 -0.3066406,0.359375 3,3 0 0 0 -0.2460937,0.4003906 3,3 0 0 0 -0.1796875,0.4355469 3,3 0 0 0 -0.109375,0.4570312 3,3 0 0 0 -0.037109,0.46875 3,3 0 0 0 0.037109,0.4707032 3,3 0 0 0 0.109375,0.4570312 3,3 0 0 0 0.1796875,0.4355469 3,3 0 0 0 0.2460937,0.4003906 3,3 0 0 0 0.3066406,0.3574219 3,3 0 0 0 0.3574219,0.3066406 3,3 0 0 0 0.4023438,0.2460938 3,3 0 0 0 0.4335937,0.1796874 3,3 0 0 0 0.4589844,0.109375 3,3 0 0 0 0.46875,0.037109 3,3 0 0 0 0.46875,-0.037109 3,3 0 0 0 0.4589844,-0.109375 3,3 0 0 0 0.4335937,-0.1796874 3,3 0 0 0 0.4023438,-0.2460938 3,3 0 0 0 0.3574219,-0.3066406 3,3 0 0 0 0.3066406,-0.3574219 3,3 0 0 0 0.2460937,-0.4003906 3,3 0 0 0 0.1796875,-0.4355469 3,3 0 0 0 0.109375,-0.4570312 A 3,3 0 0 0 -3,-5.9746094 3,3 0 0 0 -3.00391,-6.1425781 3,3 0 0 0 -3.019535,-6.3105469 3,3 0 0 0 -3.042973,-6.4765625 3,3 0 0 0 -3.076176,-6.640625 3,3 0 0 0 -3.117192,-6.8046875 3,3 0 0 0 -3.167973,-6.9648438 3,3 0 0 0 -3.22852,-7.1210938 3,3 0 0 0 -3.296875,-7.2753906 3,3 0 0 0 -3.375,-7.4257812 3,3 0 0 0 -3.4589844,-7.5703125 3,3 0 0 0 -3.5527344,-7.7089844 3,3 0 0 0 -3.6542969,-7.84375 3,3 0 0 0 -3.7636719,-7.9726562 3,3 0 0 0 -3.8789062,-8.0957031 3,3 0 0 0 -4,-8.2109375 a 3,3 0 0 0 -0.1289062,-0.109375 3,3 0 0 0 -0.1347657,-0.099609 3,3 0 0 0 -0.140625,-0.09375 3,3 0 0 0 -0.1445312,-0.085937 3,3 0 0 0 -0.1503907,-0.078125 3,3 0 0 0 -0.1523437,-0.068359 3,3 0 0 0 -0.1582031,-0.058594 3,3 0 0 0 -0.1601563,-0.052734 3,3 0 0 0 -0.1621093,-0.041016 3,3 0 0 0 -0.1660157,-0.033203 3,3 0 0 0 -0.1660156,-0.023437 A 3,3 0 0 0 -5.8320312,-8.96875 3,3 0 0 0 -6,-8.9746094 Z M -8,-6.5 h 4 c 0.1384967,-2.8e-6 0.2631411,0.05611 0.3535156,0.1464844 C -3.5561095,-6.2631407 -3.4999998,-6.1384997 -3.5,-6 c 4e-7,0.2769999 -0.2230001,0.5000004 -0.5,0.5 h -4 c -0.2769992,3e-7 -0.5000002,-0.2230009 -0.5,-0.5 -4e-7,-0.2769999 0.2230001,-0.5000004 0.5,-0.5 z" />
    <path
       id="path2259"
       style="fill:#fbfbfb;fill-opacity:1;fill-rule:evenodd;stroke-width:35.9787;stroke-linecap:round;stroke-linejoin:round;paint-order:stroke fill markers"
       d="m -6.2421823,-9.9926683 a 3.9999951,4.0003021 0 0 0 -2.5859343,1.1641504 3.9999951,4.0003021 0 0 0 0,5.6566773 3.9999951,4.0003021 0 0 0 5.656243,0 3.9999951,4.0003021 0 0 0 0,-5.6566773 3.9999951,4.0003021 0 0 0 -3.0703087,-1.1641504 z m 0.2421872,1.0176549 a 2.9999963,3.0002266 0 0 1 0.1679686,0.00586 2.9999963,3.0002266 0 0 1 0.1679685,0.013673 2.9999963,3.0002266 0 0 1 0.1660154,0.023438 2.9999963,3.0002266 0 0 1 0.1660155,0.033205 2.9999963,3.0002266 0 0 1 0.1621091,0.041019 2.9999963,3.0002266 0 0 1 0.1601561,0.052738 2.9999963,3.0002266 0 0 1 0.1582029,0.058599 2.9999963,3.0002266 0 0 1 0.1523435,0.068364 2.9999963,3.0002266 0 0 1 0.1503905,0.078131 2.9999963,3.0002266 0 0 1 0.1445311,0.085943 2.9999963,3.0002266 0 0 1 0.1406248,0.093758 2.9999963,3.0002266 0 0 1 0.1347655,0.099616 2.9999963,3.0002266 0 0 1 0.1289061,0.1093857 2.9999963,3.0002266 0 0 1 0.1210936,0.115243 2.9999963,3.0002266 0 0 1 0.1152342,0.1230562 2.9999963,3.0002266 0 0 1 0.1093748,0.128916 2.9999963,3.0002266 0 0 1 0.1015624,0.1347758 2.9999963,3.0002266 0 0 1 0.09375,0.1386823 2.9999963,3.0002266 0 0 1 0.083984,0.1445422 2.9999963,3.0002266 0 0 1 0.078125,0.150402 2.9999963,3.0002266 0 0 1 0.068359,0.1543085 2.9999963,3.0002266 0 0 1 0.060547,0.1562618 2.9999963,3.0002266 0 0 1 0.050781,0.1601684 2.9999963,3.0002266 0 0 1 0.041016,0.1640749 2.9999963,3.0002266 0 0 1 0.033203,0.1640748 2.9999963,3.0002266 0 0 1 0.023438,0.1660282 2.9999963,3.0002266 0 0 1 0.015625,0.1679814 2.9999963,3.0002266 0 0 1 0.00391,0.1679815 2.9999963,3.0002266 0 0 1 -0.037109,0.4707387 2.9999963,3.0002266 0 0 1 -0.1093749,0.4570658 2.9999963,3.0002266 0 0 1 -0.1796873,0.4355798 2.9999963,3.0002266 0 0 1 -0.2460934,0.4004208 2.9999963,3.0002266 0 0 1 -0.3066402,0.3574489 2.9999963,3.0002266 0 0 1 -0.3574215,0.3066637 2.9999963,3.0002266 0 0 1 -0.4023433,0.2461125 2.9999963,3.0002266 0 0 1 -0.4335931,0.1797009 2.9999963,3.0002266 0 0 1 -0.4589879,0.1093833 2.9999963,3.0002266 0 0 1 -0.4687494,0.037112 2.9999963,3.0002266 0 0 1 -0.4687494,-0.037112 2.9999963,3.0002266 0 0 1 -0.4589838,-0.1093833 2.9999963,3.0002266 0 0 1 -0.4335932,-0.1797009 2.9999963,3.0002266 0 0 1 -0.4023433,-0.2461125 2.9999963,3.0002266 0 0 1 -0.3574215,-0.3066637 2.9999963,3.0002266 0 0 1 -0.3066402,-0.3574489 2.9999963,3.0002266 0 0 1 -0.2460934,-0.4004208 2.9999963,3.0002266 0 0 1 -0.1796873,-0.4355798 2.9999963,3.0002266 0 0 1 -0.1093748,-0.4570658 2.9999963,3.0002266 0 0 1 -0.037109,-0.4707387 2.9999963,3.0002266 0 0 1 0.037109,-0.4687855 2.9999963,3.0002266 0 0 1 0.1093748,-0.4570657 2.9999963,3.0002266 0 0 1 0.1796873,-0.4355798 2.9999963,3.0002266 0 0 1 0.2460934,-0.4004208 2.9999963,3.0002266 0 0 1 0.3066402,-0.3594022 2.9999963,3.0002266 0 0 1 0.3574215,-0.3047104 2.9999963,3.0002266 0 0 1 0.4023433,-0.2461124 2.9999963,3.0002266 0 0 1 0.4335932,-0.1797012 2.9999963,3.0002266 0 0 1 0.4589842,-0.1113364 2.9999963,3.0002266 0 0 1 0.4687494,-0.037112 z" />
  </g>
  <g
     id="user-identity"
     transform="translate(0,22)">
    <g
       id="g3439"
       transform="translate(-259.05453,-64)">
      <rect
         id="rect3431"
         width="22"
         height="22"
         x="171.05453"
         y="42"
         style="opacity:0.00100002;fill:currentColor;fill-opacity:1;stroke:none;stroke-width:2;stroke-linecap:round;stroke-linejoin:round;stroke-miterlimit:4;stroke-dasharray:none;stroke-opacity:1" />
      <g
         id="g3437"
         transform="translate(-0.94546503,-23.779429)">
        <path
           id="path3433"
           style="fill:none;fill-opacity:1;stroke:#fbfbfb;stroke-width:1;stroke-linecap:round;stroke-miterlimit:4;stroke-dasharray:none;stroke-opacity:1"
           sodipodi:type="arc"
           sodipodi:cx="183"
           sodipodi:cy="85.779427"
           sodipodi:rx="7.5"
           sodipodi:ry="7.5"
           sodipodi:start="3.403392"
           sodipodi:end="6.0213859"
           sodipodi:arc-type="arc"
           sodipodi:open="true"
           d="M 175.75556,83.838284 A 7.5,7.5 0 0 1 183,78.279427 a 7.5,7.5 0 0 1 7.24444,5.558857" />
        <circle
           id="circle3435"
           style="fill:none;fill-opacity:1;stroke:#fbfbfb;stroke-width:1;stroke-linecap:round;stroke-miterlimit:4;stroke-dasharray:none;stroke-opacity:1"
           cx="183"
           cy="73.779427"
           r="4.5" />
      </g>
    </g>
  </g>
  <g
     id="user-away"
     transform="translate(-3.8146973e-6,22)">
    <rect
       id="rect357"
       width="22"
       height="22"
       x="-43.999996"
       y="-22"
       style="opacity:0.00100002;fill:currentColor;fill-opacity:1;stroke:none;stroke-width:2;stroke-linecap:round;stroke-linejoin:round;stroke-miterlimit:4;stroke-dasharray:none;stroke-opacity:1" />
    <g
       id="g363"
       transform="translate(-216,-87.779429)"
       style="stroke:#ffffff;stroke-opacity:1">
      <path
         id="path359"
         style="fill:none;fill-opacity:1;stroke:#fdbc4b;stroke-width:1;stroke-linecap:round;stroke-miterlimit:4;stroke-dasharray:none;stroke-opacity:1"
         sodipodi:type="arc"
         sodipodi:cx="183"
         sodipodi:cy="85.779427"
         sodipodi:rx="7.5"
         sodipodi:ry="7.5"
         sodipodi:start="3.403392"
         sodipodi:end="4.712389"
         sodipodi:arc-type="arc"
         sodipodi:open="true"
         d="M 175.75556,83.838284 A 7.5,7.5 0 0 1 183,78.279427" />
      <circle
         id="circle361"
         style="fill:none;fill-opacity:1;stroke:#fdbc4b;stroke-width:1;stroke-linecap:round;stroke-miterlimit:4;stroke-dasharray:none;stroke-opacity:1"
         cx="183"
         cy="73.779427"
         r="4.5" />
    </g>
    <path
       d="m -25.006717,-9.3956149 c 0.06234,-0.402721 -0.320566,-0.7206221 -0.678671,-0.563379 l -7.132197,3.131416 c -0.2568,0.112738 -0.23802,0.501718 0.02832,0.586516 l 1.470854,0.468413 c 0.280709,0.08939 0.584679,0.04317 0.829833,-0.126188 l 3.316084,-2.291056 c 0.09999,-0.0691 0.208981,0.0731 0.123557,0.161185 l -2.38703,2.461054 c -0.231558,0.238725 -0.185598,0.64326 0.09292,0.817895 l 2.672488,1.675905 c 0.299736,0.187971 0.685368,-8.63e-4 0.741419,-0.363055 z"
       id="path407"
       style="fill:#fdbc4b;fill-opacity:1;stroke-width:0.296299" />
  </g>
  <g
     id="user-busy"
     transform="translate(0,22)">
    <rect
       id="rect2642"
       width="22"
       height="22"
       x="-66"
       y="-22"
       style="opacity:0.00100002;fill:currentColor;fill-opacity:1;stroke:none;stroke-width:2;stroke-linecap:round;stroke-linejoin:round;stroke-miterlimit:4;stroke-dasharray:none;stroke-opacity:1" />
    <g
       id="g2648"
       transform="translate(-238,-87.779429)"
       style="stroke:#f47750;stroke-opacity:1">
      <path
         id="path2644"
         style="fill:none;fill-opacity:1;stroke:#f47750;stroke-width:1;stroke-linecap:round;stroke-miterlimit:4;stroke-dasharray:none;stroke-opacity:1"
         sodipodi:type="arc"
         sodipodi:cx="183"
         sodipodi:cy="85.779427"
         sodipodi:rx="7.5"
         sodipodi:ry="7.5"
         sodipodi:start="3.403392"
         sodipodi:end="4.712389"
         sodipodi:arc-type="arc"
         sodipodi:open="true"
         d="M 175.75556,83.838284 A 7.5,7.5 0 0 1 183,78.279427" />
      <circle
         id="circle2646"
         style="fill:none;fill-opacity:1;stroke:#f47750;stroke-width:1;stroke-linecap:round;stroke-miterlimit:4;stroke-dasharray:none;stroke-opacity:1"
         cx="183"
         cy="73.779427"
         r="4.5" />
    </g>
    <ellipse
       style="fill:#f47750;fill-opacity:1;fill-rule:evenodd;stroke:none;stroke-width:0.170221;stroke-linecap:round;stroke-linejoin:round;stroke-opacity:1;paint-order:stroke fill markers"
       id="path2711"
       cx="-50"
       cy="-5.9999995"
       rx="4"
       ry="4.0000005" />
    <g
       id="g3146"
       transform="translate(-0.5)">
      <g
         id="g3150">
        <rect
           style="fill:#eff0f1;fill-opacity:1;fill-rule:evenodd;stroke:none;stroke-width:0.151036;stroke-linecap:round;stroke-linejoin:round;stroke-opacity:1;paint-order:stroke fill markers"
           id="rect3024"
           width="1.0000017"
           height="4"
           x="-50"
           y="-9"
           ry="0.50000083" />
        <rect
           style="fill:#eff0f1;fill-opacity:1;fill-rule:evenodd;stroke:none;stroke-width:0.130801;stroke-linecap:round;stroke-linejoin:round;stroke-opacity:1;paint-order:stroke fill markers"
           id="rect3142"
           width="1.0000017"
           height="3"
           x="-6"
           y="47"
           ry="0.50000083"
           transform="rotate(90)" />
      </g>
    </g>
  </g>
</svg>
