<?xml version="1.0" encoding="UTF-8" standalone="no"?>
<svg
   viewBox="0 0 22 22"
   id="svg"
   version="1.1"
   inkscape:version="1.1.1 (3bf5ae0d25, 2021-09-20, custom)"
   width="100%"
   height="100%"
   sodipodi:docname="wallet.svgz"
   xmlns:inkscape="http://www.inkscape.org/namespaces/inkscape"
   xmlns:sodipodi="http://sodipodi.sourceforge.net/DTD/sodipodi-0.dtd"
   xmlns="http://www.w3.org/2000/svg"
   xmlns:svg="http://www.w3.org/2000/svg"
   xmlns:rdf="http://www.w3.org/1999/02/22-rdf-syntax-ns#"
   xmlns:cc="http://creativecommons.org/ns#"
   xmlns:dc="http://purl.org/dc/elements/1.1/">
  <defs
     id="defs81">
    <style
       id="current-color-scheme"
       type="text/css">
      .ColorScheme-Text {
        color:#7B7C7E;
      }
      .ColorScheme-Background{
        color:#EFF0F1;
      }
      .ColorScheme-Highlight{
        color:#3DAEE6;
      }
      .ColorScheme-ViewText {
        color:#7B7C7E;
      }
      .ColorScheme-ViewBackground{
        color:#FCFCFC;
      }
      .ColorScheme-ViewHover {
        color:#3DAEE6;
      }
      .ColorScheme-ViewFocus{
        color:#1E92FF;
      }
      .ColorScheme-ButtonText {
        color:#7B7C7E;
      }
      .ColorScheme-ButtonBackground{
        color:#EFF0F1;
      }
      .ColorScheme-ButtonHover {
        color:#3DAEE6;
      }
      .ColorScheme-ButtonFocus{
        color:#1E92FF;
      }
</style>
    <style
       type="text/css"
       id="style3">
      .ColorScheme-Text {
        color:#31363b;
      }
      .ColorScheme-Background {
        color:#eff0f1;
      }
      .ColorScheme-Highlight {
        color:#3daee9;
      }
      .ColorScheme-ViewText {
        color:#31363b;
      }
      .ColorScheme-ViewBackground {
        color:#fcfcfc;
      }
      .ColorScheme-ViewHover {
        color:#93cee9;
      }
      .ColorScheme-ViewFocus{
        color:#3daee9;
      }
      .ColorScheme-ButtonText {
        color:#31363b;
      }
      .ColorScheme-ButtonBackground {
        color:#eff0f1;
      }
      .ColorScheme-ButtonHover {
        color:#93cee9;
      }
      .ColorScheme-ButtonFocus{
        color:#3daee9;
      }
      </style>
  </defs>
  <metadata
     id="metadata34">
    <rdf:RDF>
      <cc:Work
         rdf:about="">
        <dc:format>image/svg+xml</dc:format>
        <dc:type
           rdf:resource="http://purl.org/dc/dcmitype/StillImage" />
        <dc:title />
      </cc:Work>
    </rdf:RDF>
  </metadata>
  <sodipodi:namedview
     pagecolor="#c8c8c8"
     bordercolor="#666666"
     borderopacity="1"
     objecttolerance="10"
     gridtolerance="10000"
     guidetolerance="10"
     inkscape:pageopacity="0"
     inkscape:pageshadow="2"
     inkscape:window-width="1920"
     inkscape:window-height="936"
     id="namedview32"
     showgrid="true"
     inkscape:zoom="17.022727"
     inkscape:cx="-5.257677"
     inkscape:cy="9.5460616"
     inkscape:window-x="0"
     inkscape:window-y="40"
     inkscape:window-maximized="1"
     inkscape:current-layer="svg"
     borderlayer="true"
     showguides="true"
     inkscape:guide-bbox="true"
     inkscape:snap-bbox="true"
     inkscape:showpageshadow="false"
     inkscape:pagecheckerboard="0"
     inkscape:snap-nodes="true"
     inkscape:bbox-nodes="true"
     inkscape:snap-bbox-edge-midpoints="true"
     inkscape:object-nodes="false">
    <inkscape:grid
       type="xygrid"
       id="grid3060"
       empspacing="5"
       visible="true"
       enabled="true"
       snapvisiblegridlinesonly="true" />
    <sodipodi:guide
       position="0,0"
       orientation="0,22"
       id="guide4154"
       inkscape:locked="false" />
    <sodipodi:guide
       position="22,22"
       orientation="0,-22"
       id="guide4158"
       inkscape:locked="false" />
    <sodipodi:guide
       position="3,3"
       orientation="0,16"
       id="guide4162"
       inkscape:locked="false" />
    <sodipodi:guide
       position="19,19"
       orientation="0,-16"
       id="guide4166"
       inkscape:locked="false" />
  </sodipodi:namedview>
  <g
     id="wallet-closed">
    <rect
       y="0"
       x="22"
       height="22"
       width="22"
       id="rect4222"
       style="fill:none;fill-opacity:1;stroke:none" />
    <g
       id="g2002"
       transform="translate(44)">
      <path
         id="path1996"
         style="opacity:1;fill:#fbfbfb;fill-opacity:1;fill-rule:evenodd;stroke:none;stroke-width:6;stroke-linecap:round;stroke-linejoin:round;stroke-opacity:0.909804;paint-order:stroke fill markers"
         d="m -18,5 c -1.108,0 -2,0.892 -2,2 v 10 c 0,1.108 0.892,2 2,2 h 14 c 1.108,0 2,-0.892 2,-2 V 7 C -2,5.892 -2.892,5 -4,5 Z m 0,1 h 14 c 0.554,0 1,0.446 1,1 v 10 c 0,0.554 -0.446,1 -1,1 h -14 c -0.554,0 -1,-0.446 -1,-1 V 7 c 0,-0.554 0.446,-1 1,-1 z" />
      <path
         id="path1998"
         style="opacity:1;fill:#fbfbfb;fill-opacity:1;fill-rule:evenodd;stroke:none;stroke-width:7.0993;stroke-linecap:round;stroke-linejoin:round;stroke-opacity:0.909804;paint-order:stroke fill markers"
         d="m -6.5,9 c -1.939,0 -3.5,1.561 -3.5,3.5 0,1.939 1.561,3.5 3.5,3.5 H -2 V 15 H -6.5 C -7.885,15 -9,13.885 -9,12.5 -9,11.115 -7.885,10 -6.5,10 H -2 V 9 Z" />
      <circle
         style="opacity:1;fill:#fbfbfb;fill-opacity:1;fill-rule:evenodd;stroke:none;stroke-width:6;stroke-linecap:round;stroke-linejoin:round;stroke-opacity:0.909804;paint-order:stroke fill markers"
         id="circle2000"
         cx="-6.5"
         cy="12.5"
         r="1.5" />
    </g>
  </g>
  <g
     id="wallet-open">
    <rect
       y="0"
       x="0"
       height="22"
       width="22"
       id="rect4216"
       style="fill:none;fill-opacity:1;stroke:none" />
    <g
       id="g2661"
       transform="translate(22)">
      <g
         id="g1994">
        <path
           id="rect860"
           style="opacity:1;fill:#fbfbfb;fill-opacity:1;fill-rule:evenodd;stroke:none;stroke-width:6;stroke-linecap:round;stroke-linejoin:round;stroke-opacity:0.909804;paint-order:stroke fill markers"
           d="m -18,5 c -1.108,0 -2,0.892 -2,2 v 10 c 0,1.108 0.892,2 2,2 h 14 c 1.108,0 2,-0.892 2,-2 V 7 C -2,5.892 -2.892,5 -4,5 Z m 0,1 h 14 c 0.554,0 1,0.446 1,1 v 10 c 0,0.554 -0.446,1 -1,1 h -14 c -0.554,0 -1,-0.446 -1,-1 V 7 c 0,-0.554 0.446,-1 1,-1 z" />
        <path
           id="rect1403"
           style="opacity:1;fill:#fbfbfb;fill-opacity:1;fill-rule:evenodd;stroke:none;stroke-width:7.0993;stroke-linecap:round;stroke-linejoin:round;stroke-opacity:0.909804;paint-order:stroke fill markers"
           d="m -6.5,9 c -1.939,0 -3.5,1.561 -3.5,3.5 0,1.939 1.561,3.5 3.5,3.5 H -2 V 15 H -6.5 C -7.885,15 -9,13.885 -9,12.5 -9,11.115 -7.885,10 -6.5,10 H -2 V 9 Z" />
        <circle
           style="opacity:1;fill:#fbfbfb;fill-opacity:1;fill-rule:evenodd;stroke:none;stroke-width:6;stroke-linecap:round;stroke-linejoin:round;stroke-opacity:0.909804;paint-order:stroke fill markers"
           id="path1909"
           cx="-6.5"
           cy="12.5"
           r="1.5" />
      </g>
      <path
         id="rect2026"
         style="opacity:1;fill:#fbfbfb;fill-opacity:1;fill-rule:evenodd;stroke:none;stroke-width:6;stroke-linecap:round;stroke-linejoin:round;stroke-opacity:0.909804;paint-order:stroke fill markers"
         d="m -9.0820312,2.0019531 c -0.4833815,0.013057 -0.9701298,0.1426563 -1.4199218,0.4023438 L -14.998047,5 h 2.001953 l 2.994141,-1.7285156 c 0.9595563,-0.554 2.1764686,-0.2290874 2.7304686,0.7304687 L -6.6953125,5 h 1.15625 L -6.4042969,3.5019531 c -0.5713125,-0.9895422 -1.6142952,-1.5287246 -2.6777343,-1.5 z" />
    </g>
  </g>
</svg>
